<svg xmlns="http://www.w3.org/2000/svg" xmlns:xlink="http://www.w3.org/1999/xlink" viewBox="0 0 159.71 298.74"><defs><style>.cls-1{fill:none;}.cls-2,.cls-22{fill:#001d30;}.cls-23,.cls-3{fill:#fcecd2;}.cls-4{fill:#d6c4aa;}.cls-5{fill:#fff;}.cls-6{fill:#aca6a8;}.cls-7{fill:#c8cbc0;}.cls-8{fill:#f2763f;}.cls-9{fill:#ffc244;}.cls-10{fill:#fbebd1;}.cls-11{fill:#d04025;}.cls-12,.cls-21{fill:#636260;}.cls-13{clip-path:url(#clip-path);}.cls-14{fill:#7f7f7f;}.cls-15{clip-path:url(#clip-path-2);}.cls-16{fill:#b2b2b2;}.cls-17{fill:#dadada;}.cls-18{fill:#8c8c8c;}.cls-19{clip-path:url(#clip-path-3);}.cls-20{clip-path:url(#clip-path-4);}.cls-21,.cls-22,.cls-23,.cls-24{stroke:#001d30;stroke-linejoin:round;}.cls-21,.cls-22,.cls-23{stroke-width:1.5px;}.cls-24{fill:#ededed;}.cls-25{fill:#e5d8c3;}</style><clipPath id="clip-path"><path class="cls-1" d="M82.41,166.87h0V128.67a4.52,4.52,0,0,0-2.25-3.9L67.4,117.4l-1.24-.71-.8-.46-.8-.46L59,112.54l-4.15-2.39L21.55,90.94c-.73.45-1.57.72-2.37,1.14a176.63,176.63,0,0,0,.1,38.85l0,.13v.13a4.12,4.12,0,0,0,.23,1.34,3.75,3.75,0,0,0,.8,1.38,4.12,4.12,0,0,0,1,.87l6.77,3.91.8.46.8.46,1.12.64,17.34,10,.8.46.8.46,30.08,17.36A14.54,14.54,0,0,0,82.41,166.87Z"/></clipPath><clipPath id="clip-path-2"><path class="cls-1" d="M133.36,107.21a.74.74,0,0,1-.2.07H133l-.21,0-10.26-2.92v54.12l7.4-10.4.69-1,.44-.61.44-.61.89-1.26a.75.75,0,0,1,.24-.21l8-4.6V103l-7.21,4.16Z"/></clipPath><clipPath id="clip-path-3"><polygon class="cls-1" points="133.02 105.68 139.86 101.73 74.77 64.07 67.72 68.14 131.25 104.66 133.02 105.68"/></clipPath><clipPath id="clip-path-4"><path class="cls-1" d="M147.39,177.67h0V157.62h0l-16.67,9.58-.75.43-.75.43-40.1,23h0v20.05l7-4,1.29-.74h0v-14a.75.75,0,0,1,.38-.65l25-14.21a.75.75,0,0,1,1.12.65v13h0l18-10.37,4.72-2.71Z"/></clipPath></defs><title>Amstrad pc1512@2x</title><g id="Calque_2" data-name="Calque 2"><g id="Слой_1" data-name="Слой 1"><polygon class="cls-2" points="152.48 166.24 141.28 164.61 142.63 163.43 150.36 160.27 154.56 135.27 112.1 110.78 104.83 114.04 93.4 108.98 63.1 121.72 42.07 158.64 47.95 161.97 38.25 165.35 30.28 179.35 40.28 184.49 40.28 184.49 46.41 187.53 89.5 207.18 89.5 207.18 89.5 207.18 100.37 203.55 100.37 203.55 150.4 180.4 152.48 166.24"/><path class="cls-1" d="M152.22,173.9a19.64,19.64,0,0,0-.62,8.35c3.57-3,6.29-6.52,6.57-9.75.15-1.75-.24-3-1.21-3.74a6.67,6.67,0,0,0-4.44-1A13,13,0,0,1,152.22,173.9Z"/><path class="cls-1" d="M148.89,163.33v3.49c.51-.12,1.13-.25,1.82-.35a8.57,8.57,0,0,0-.8-2A3.47,3.47,0,0,0,148.89,163.33Z"/><path class="cls-3" d="M8.38,208.6,81.94,251l31.94-18.53L40.31,190.08Zm19-8.75,5.54-3a.5.5,0,0,1,.49,0l5.54,3.2a.5.5,0,0,1,0,.87l-5.54,3.2a.5.5,0,0,1-.51,0l-5.54-3.37a.5.5,0,0,1,0-.87ZM34,212.23l5.54-3a.5.5,0,0,1,.49,0l5.54,3.2a.5.5,0,0,1,0,.87L40,216.47a.5.5,0,0,1-.51,0L34,213.09a.5.5,0,0,1,0-.87Zm-1.07.24a.5.5,0,0,1-.51,0l-5.54-3.37a.5.5,0,0,1,0-.87l5.54-3a.5.5,0,0,1,.49,0l5.54,3.2a.5.5,0,0,1,0,.87Zm8.17,3.77,5.54-3a.5.5,0,0,1,.49,0l5.54,3.2a.5.5,0,0,1,0,.87l-5.54,3.2a.5.5,0,0,1-.51,0l-5.54-3.37a.5.5,0,0,1,0-.87Zm7.1,4,5.54-3a.5.5,0,0,1,.49,0l5.54,3.2a.5.5,0,0,1,0,.87l-5.54,3.2a.5.5,0,0,1-.51,0l-5.54-3.37a.5.5,0,0,1,0-.87Zm7.1,4,5.54-3a.5.5,0,0,1,.49,0l5.54,3.2a.5.5,0,0,1,0,.87l-5.54,3.2a.5.5,0,0,1-.51,0l-5.54-3.37a.5.5,0,0,1,0-.87Zm7.1,4,5.54-3a.5.5,0,0,1,.49,0l5.54,3.2a.5.5,0,0,1,0,.87l-5.54,3.2a.5.5,0,0,1-.51,0l-5.54-3.37a.5.5,0,0,1,0-.87Zm7.1,4,5.54-3a.5.5,0,0,1,.49,0l5.54,3.2a.5.5,0,0,1,0,.87l-5.54,3.2a.5.5,0,0,1-.51,0l-5.54-3.37a.5.5,0,0,1,0-.87Zm7.1,4,5.54-3a.5.5,0,0,1,.49,0l5.54,3.2a.5.5,0,0,1,0,.87l-5.54,3.2a.5.5,0,0,1-.51,0l-5.54-3.37a.5.5,0,0,1,0-.87Zm6.28-4.07a.5.5,0,0,1-.26-.07l-5.54-3.37a.5.5,0,0,1,0-.87l5.54-3a.5.5,0,0,1,.49,0l5.54,3.2a.5.5,0,0,1,0,.87l-5.54,3.2A.5.5,0,0,1,82.85,232.19Zm-1.31-7.27L76,228.11a.5.5,0,0,1-.51,0L70,224.74a.5.5,0,0,1,0-.87l5.54-3a.5.5,0,0,1,.49,0l5.54,3.2a.5.5,0,0,1,0,.87Zm-7.1-4-5.54,3.2a.5.5,0,0,1-.51,0l-5.54-3.37a.5.5,0,0,1,0-.87l5.54-3a.5.5,0,0,1,.49,0l5.54,3.2a.5.5,0,0,1,0,.87Zm-7.1-4-5.54,3.2a.5.5,0,0,1-.51,0l-5.54-3.37a.5.5,0,0,1,0-.87l5.54-3a.5.5,0,0,1,.49,0l5.54,3.2a.5.5,0,0,1,0,.87Zm-7.1-4-5.54,3.2a.5.5,0,0,1-.51,0l-5.54-3.37a.5.5,0,0,1,0-.87l5.54-3a.5.5,0,0,1,.49,0l5.54,3.2a.5.5,0,0,1,0,.87Zm-7.1-4-5.54,3.2a.5.5,0,0,1-.51,0l-5.54-3.37a.5.5,0,0,1,0-.87l5.54-3a.5.5,0,0,1,.49,0l5.54,3.2a.5.5,0,0,1,0,.87Zm-7.1-4-5.54,3.2a.5.5,0,0,1-.51,0l-5.54-3.37a.5.5,0,0,1,0-.87l5.54-3a.5.5,0,0,1,.49,0L46,204a.5.5,0,0,1,0,.87Zm-26.27-.68,5.54-3a.5.5,0,0,1,.49,0l5.54,3.2a.5.5,0,0,1,0,.87l-5.54,3.2a.5.5,0,0,1-.51,0l-5.54-3.37a.5.5,0,0,1,0-.87Zm-1.45,8.9a.5.5,0,0,1-.26-.07l-5.54-3.37a.5.5,0,0,1,0-.87l5.54-3a.5.5,0,0,1,.49,0l5.54,3.2a.5.5,0,0,1,0,.87l-5.54,3.2A.5.5,0,0,1,18.33,213.12Zm7.1,4a.5.5,0,0,1-.26-.07l-5.54-3.37a.5.5,0,0,1,0-.87l5.54-3a.5.5,0,0,1,.49,0l5.54,3.2a.5.5,0,0,1,0,.87l-5.54,3.2A.5.5,0,0,1,25.43,217.13Zm7.1,4a.5.5,0,0,1-.26-.07l-5.54-3.37a.5.5,0,0,1,0-.87l5.54-3a.5.5,0,0,1,.49,0l5.54,3.2a.5.5,0,0,1,0,.87l-5.54,3.2A.5.5,0,0,1,32.52,221.13Zm21.3,12a.5.5,0,0,1-.25-.06l-7-4-.06,0-7-4a.44.44,0,0,1-.12,0l-.87-.53h0l-.09,0-.06,0-4.51-2.75a.5.5,0,0,1,0-.87l5.54-3a.5.5,0,0,1,.49,0L44,220.19,59.61,229a.5.5,0,0,1,0,.87l-5.54,3.2A.5.5,0,0,1,53.83,233.15Zm7.1,4a.5.5,0,0,1-.26-.07l-5.54-3.37a.5.5,0,0,1,0-.87l5.54-3a.5.5,0,0,1,.49,0l5.54,3.2a.5.5,0,0,1,0,.87l-5.54,3.2A.5.5,0,0,1,60.92,237.15Zm7.1,4a.5.5,0,0,1-.26-.07l-5.54-3.37a.5.5,0,0,1,0-.87l5.54-3a.5.5,0,0,1,.49,0l5.54,3.2a.5.5,0,0,1,0,.87l-5.54,3.2A.5.5,0,0,1,68,241.15Zm7.1,4a.5.5,0,0,1-.26-.07l-5.54-3.37a.5.5,0,0,1,0-.87l5.54-3a.5.5,0,0,1,.49,0l5.54,3.2a.5.5,0,0,1,0,.87l-5.54,3.2A.5.5,0,0,1,75.12,245.15Zm12.89.74-5.54,3.2a.5.5,0,0,1-.51,0l-5.54-3.37a.5.5,0,0,1,0-.87l5.54-3a.5.5,0,0,1,.49,0L88,245a.5.5,0,0,1,0,.87Zm14.83-9-5.54,3.2-.05,0-7.55,4.34a.5.5,0,0,1-.5,0l-5.74-3.42a.5.5,0,0,1,0-.87l7-3.85-3.87-2.29a.5.5,0,0,1,0-.87l5.54-3a.5.5,0,0,1,.49,0l4.6,2.64.1,0,5.54,3.2a.5.5,0,0,1,0,.87Zm1.19-8.18,5.54,3.2a.5.5,0,0,1,0,.87L104,236a.5.5,0,0,1-.51,0L98,232.64a.5.5,0,0,1,0-.87l5.54-3A.5.5,0,0,1,104,228.75Zm-7.1-4,5.54,3.2a.5.5,0,0,1,0,.87L96.93,232a.5.5,0,0,1-.51,0l-5.54-3.37a.5.5,0,0,1,0-.87l5.54-3A.5.5,0,0,1,96.93,224.74Zm-7.1-4,5.54,3.2a.5.5,0,0,1,0,.87L89.83,228a.5.5,0,0,1-.51,0l-5.54-3.37a.5.5,0,0,1,0-.87l5.54-3A.5.5,0,0,1,89.83,220.74Zm-7.1-4,5.54,3.2a.5.5,0,0,1,0,.87L82.73,224a.5.5,0,0,1-.51,0l-5.54-3.37a.5.5,0,0,1,0-.87l5.54-3A.5.5,0,0,1,82.73,216.74Zm-7.1-4,5.54,3.2a.5.5,0,0,1,0,.87L75.63,220a.5.5,0,0,1-.51,0l-5.54-3.37a.5.5,0,0,1,0-.87l5.54-3A.5.5,0,0,1,75.63,212.73Zm-7.1-4,5.54,3.2a.5.5,0,0,1,0,.87L68.53,216a.5.5,0,0,1-.51,0l-5.54-3.37a.5.5,0,0,1,0-.87l5.54-3A.5.5,0,0,1,68.53,208.73Zm-7.1-4,5.54,3.2a.5.5,0,0,1,0,.87L61.44,212a.5.5,0,0,1-.51,0l-5.54-3.37a.5.5,0,0,1,0-.87l5.54-3A.5.5,0,0,1,61.44,204.72Zm-7.1-4,5.54,3.2a.5.5,0,0,1,0,.87L54.34,208a.5.5,0,0,1-.51,0l-5.54-3.37a.5.5,0,0,1,0-.87l5.54-3A.5.5,0,0,1,54.34,200.72Zm-7.1-4,5.54,3.2a.5.5,0,0,1,0,.87L47.24,204a.5.5,0,0,1-.51,0l-5.54-3.37a.5.5,0,0,1,0-.87l5.54-3A.5.5,0,0,1,47.24,196.72Zm-1.31-.37a.5.5,0,0,1-.25.43L40.14,200a.5.5,0,0,1-.51,0l-5.54-3.37a.5.5,0,0,1,0-.87l5.54-3a.5.5,0,0,1,.49,0l5.54,3.2A.5.5,0,0,1,45.93,196.34Z"/><polygon class="cls-4" points="7.63 211.91 81.19 254.36 81.19 252.35 7.63 209.9 7.63 211.91"/><polygon class="cls-4" points="13.79 209.28 18.33 212.04 22.87 209.42 18.32 206.8 13.79 209.28"/><polygon class="cls-4" points="20.89 213.28 25.43 216.04 29.96 213.43 25.42 210.8 20.89 213.28"/><polygon class="cls-4" points="27.99 217.28 32.53 220.05 37.06 217.43 32.52 214.81 27.99 217.28"/><path class="cls-4" d="M35.08,221.29l3.72,2.27.06,0,1,.59,7,4,.06,0,6.84,3.87,4.53-2.62L39.62,218.81Z"/><polygon class="cls-4" points="56.38 233.3 60.93 236.06 65.46 233.45 60.91 230.82 56.38 233.3"/><polygon class="cls-4" points="63.48 237.31 68.03 240.07 72.56 237.45 68.01 234.83 63.48 237.31"/><polygon class="cls-4" points="70.58 241.31 75.13 244.07 79.66 241.46 75.11 238.83 70.58 241.31"/><polygon class="cls-4" points="77.68 245.31 82.22 248.08 86.76 245.46 82.21 242.84 77.68 245.31"/><polygon class="cls-4" points="30.09 204.83 25.55 202.2 21.01 204.68 25.56 207.44 30.09 204.83"/><polygon class="cls-4" points="28.11 208.68 32.66 211.45 37.19 208.83 32.65 206.21 28.11 208.68"/><polygon class="cls-4" points="44.29 212.84 39.74 210.21 35.21 212.69 39.76 215.45 44.29 212.84"/><polygon class="cls-4" points="51.39 216.84 46.84 214.22 42.31 216.69 46.86 219.46 51.39 216.84"/><polygon class="cls-4" points="58.49 220.84 53.94 218.22 49.41 220.7 53.96 223.46 58.49 220.84"/><polygon class="cls-4" points="65.59 224.85 61.04 222.22 56.51 224.7 61.05 227.47 65.59 224.85"/><polygon class="cls-4" points="72.69 228.85 68.14 226.23 63.61 228.71 68.15 231.47 72.69 228.85"/><polygon class="cls-4" points="79.78 232.86 75.24 230.23 70.71 232.71 75.25 235.47 79.78 232.86"/><polygon class="cls-4" points="86.88 236.86 82.34 234.24 77.81 236.71 82.35 239.48 86.88 236.86"/><polygon class="cls-4" points="37.69 200.46 33.15 197.84 28.62 200.31 33.16 203.08 37.69 200.46"/><polygon class="cls-4" points="35.72 204.32 40.26 207.08 44.79 204.46 40.25 201.84 35.72 204.32"/><polygon class="cls-4" points="42.81 208.32 47.36 211.09 51.89 208.47 47.35 205.84 42.81 208.32"/><polygon class="cls-4" points="49.91 212.32 54.46 215.09 58.99 212.47 54.45 209.85 49.91 212.32"/><polygon class="cls-4" points="57.01 216.33 61.56 219.09 66.09 216.48 61.55 213.85 57.01 216.33"/><polygon class="cls-4" points="64.11 220.33 68.66 223.1 73.19 220.48 68.64 217.86 64.11 220.33"/><polygon class="cls-4" points="71.21 224.34 75.76 227.1 80.29 224.48 75.74 221.86 71.21 224.34"/><polygon class="cls-4" points="78.31 228.34 82.86 231.1 87.39 228.49 82.84 225.86 78.31 228.34"/><path class="cls-4" d="M96.78,233.74l-4.44-2.55-4.52,2.47,3.87,2.29a.5.5,0,0,1,0,.87l-7,3.85,4.74,2.82,7.34-4.23.05,0,4.74-2.74-4.7-2.71Z"/><polygon class="cls-4" points="35.35 196.19 39.9 198.96 44.43 196.34 39.88 193.72 35.35 196.19"/><polygon class="cls-4" points="51.53 200.35 46.98 197.72 42.45 200.2 46.99 202.96 51.53 200.35"/><polygon class="cls-4" points="58.63 204.35 54.08 201.72 49.55 204.2 54.09 206.97 58.63 204.35"/><polygon class="cls-4" points="65.72 208.35 61.18 205.73 56.65 208.21 61.19 210.97 65.72 208.35"/><polygon class="cls-4" points="72.82 212.36 68.28 209.73 63.75 212.21 68.29 214.97 72.82 212.36"/><polygon class="cls-4" points="79.92 216.36 75.38 213.74 70.84 216.22 75.39 218.98 79.92 216.36"/><polygon class="cls-4" points="87.02 220.37 82.47 217.74 77.94 220.22 82.49 222.98 87.02 220.37"/><polygon class="cls-4" points="94.12 224.37 89.57 221.75 85.04 224.22 89.59 226.99 94.12 224.37"/><polygon class="cls-4" points="101.22 228.38 96.67 225.75 92.14 228.23 96.69 230.99 101.22 228.38"/><polygon class="cls-4" points="108.32 232.38 103.77 229.75 99.24 232.23 103.79 235 108.32 232.38"/><polygon class="cls-3" points="131.26 148.82 132.49 153.88 127.77 165.49 127 165.91 126.24 166.34 90.54 182.47 77.46 174.78 41.3 153.91 40.54 153.48 39.79 153.05 22.38 143 14.81 147.35 32.22 157.4 32.97 157.83 33.72 158.26 85.48 188.13 88.37 189.79 127.71 167.19 128.47 166.76 129.22 166.33 146.63 156.32 131.95 147.85 131.26 148.82"/><path class="cls-3" d="M111.38,108.53l1.11-.64,7.82-4.54L46.73,60.91l-7.85,4.55,2.64,1.48C63.75,79.45,91.28,94.95,111.38,108.53Z"/><path class="cls-3" d="M73,113l15.33,8.85,0,0,.75-.43,20.8-12.06c-20-13.45-47.18-28.74-69.16-41.11l-3.41-1.92L14.8,79.43,72.28,112.6Z"/><path class="cls-3" d="M14.8,136.9l7.58,4.37.75.43.75.43,1,.59,16.39,9.46.75.43.75.43,44.82,25.86V123.18l-15.34-8.85-.75-.43-.75-.43L14.05,80.73v55.73h0Zm3.56-6.73a152.73,152.73,0,0,1,0-36.28,3.32,3.32,0,0,1,5-2.8l43.09,24.87.75.43.75.43,1.18.68,10.7,6.18a7,7,0,0,1,3.47,6v35.14a3.82,3.82,0,0,1-5.74,3.32L47.12,150.57l-.75-.43-.75-.43-16.37-9.45-1-.6-.75-.43-.75-.43-5-2.91a6.57,6.57,0,0,1-2-1.79,5.84,5.84,0,0,1-.75-1.3A6.57,6.57,0,0,1,18.36,130.16Z"/><path class="cls-5" d="M20.23,132a5.18,5.18,0,0,0,.32.68,5.08,5.08,0,0,0,.42.62,5,5,0,0,0,1.43,1.25l5.79,3.34.75.43.75.43,1,.6,16.37,9.44.75.43.75.43,29.69,17.13a2.29,2.29,0,0,0,1.16.32,2.34,2.34,0,0,0,2.33-2.33V129.67A5.45,5.45,0,0,0,79.09,125l-11.46-6.61-1.17-.68-.75-.43-.75-.43L22.61,92.38a1.81,1.81,0,0,0-.91-.25A1.84,1.84,0,0,0,19.86,94a152.19,152.19,0,0,0,0,36.11A5.39,5.39,0,0,0,20.23,132ZM21,94.18V94a.65.65,0,0,1,.65-.65.62.62,0,0,1,.32.09L54.59,112.2l3.91,2.26,5.26,3,.75.43.75.43,1.17.67,12.06,7a4.26,4.26,0,0,1,2.13,3.68v35.14A1.15,1.15,0,0,1,79.47,166a1.13,1.13,0,0,1-.57-.16L49.82,149l-.75-.43-.75-.43L32,138.71l-1.05-.61-.75-.43-.75-.43L23,133.55a3.88,3.88,0,0,1-1-.82,3.54,3.54,0,0,1-.75-1.3,3.88,3.88,0,0,1-.22-1.27V130l0-.12A150.57,150.57,0,0,1,21,94.18Z"/><path class="cls-6" d="M112.86,136q0,.43,0,.86,0,.68,0,1.37,0,7.62-.11,15.18c0,.31,0,.61,0,.92v.92q0,.79,0,1.58c0,.29,0,.57,0,.86s0,.57,0,.86q0,3.41-.11,6.79h0l5.92-3.44.75-.43L120,161l1.07-.62V104.65l-8.34,4.84a.73.73,0,0,1,.18.45c0,8.31,0,16.74,0,25.17Q112.86,135.54,112.86,136Z"/><path class="cls-6" d="M111.2,156.8v-.86c0-.6,0-1.19,0-1.79,0-.31,0-.61,0-.92s0-.61,0-.92c.05-5,.08-10,.1-15q0-.68,0-1.37,0-.43,0-.86t0-.86c0-8,0-16,0-23.91l-.06,0-20.68,12-.75.43-.75.43,0,0v55.73h0L111.41,166h-.35c.05-2.75.09-5.53.13-8.32C111.19,157.37,111.19,157.08,111.2,156.8Zm-9.06-3.57v14.46a.75.75,0,0,1-.37.65l-8.42,4.88a.75.75,0,0,1-.38.1.74.74,0,0,1-.37-.1.75.75,0,0,1-.38-.65V158.1a.75.75,0,0,1,.37-.65l8.42-4.88a.75.75,0,0,1,1.13.65Z"/><path class="cls-6" d="M93.72,171.27l6.92-4V154.52l-6.92,4Z"/><path class="cls-6" d="M133.36,107.21a.74.74,0,0,1-.2.07H133l-.21,0-10.26-2.92v54.12l7.4-10.4.69-1,.44-.61.44-.61.89-1.26a.75.75,0,0,1,.24-.21l8-4.6V103l-7.21,4.16Z"/><polygon class="cls-7" points="133.02 105.68 139.86 101.73 74.77 64.07 67.72 68.14 131.25 104.66 133.02 105.68"/><path class="cls-3" d="M14.81,169.13l11.68,6.74v-14.6a.75.75,0,0,1,1.13-.65l.25.14.75.43,44.9,26.06a.75.75,0,0,1,.37.65v15.31l13.74,7.93V191.09l-55.4-32-.75-.43-.75-.43-16.66-9.62V168.7h0Z"/><path class="cls-6" d="M122.37,192V179.51L98.89,192.86v12.67Zm-20.95,4.15a.5.5,0,0,1,.25-.43l2.82-1.64a.5.5,0,0,1,.75.43V198a.5.5,0,0,1-.25.43l-2.82,1.64a.5.5,0,0,1-.25.07.51.51,0,0,1-.25-.07.5.5,0,0,1-.25-.43Z"/><path class="cls-6" d="M147.39,177.67h0V157.62h0l-16.67,9.58-.75.43-.75.43-40.1,23h0v20.05l7-4,1.29-.74h0v-14a.75.75,0,0,1,.38-.65l25-14.21a.75.75,0,0,1,1.12.65v13h0l18-10.37,4.72-2.71Z"/><polygon class="cls-2" points="18.79 172.19 16.3 170.57 16.3 148.27 18.79 150.07 18.79 172.19"/><polygon class="cls-8" points="21.27 174.16 18.79 172.54 18.79 150.24 21.27 152.04 21.27 174.16"/><polygon class="cls-9" points="23.76 175.79 21.27 174.16 21.27 151.86 23.76 153.66 23.76 175.79"/><path class="cls-10" d="M28,176.73l6.88,4L52,190.61l20.36,11.75h0v-14L28,162.58Zm41.2,13.53c.83,0,1.45,1,1.45,2.26s-.62,2.26-1.45,2.26-1.45-1-1.45-2.26S68.36,190.26,69.19,190.26ZM65.1,188.1c.83,0,1.45,1,1.45,2.26s-.62,2.26-1.45,2.26-1.45-1-1.45-2.26S64.27,188.1,65.1,188.1ZM29.91,167.9a.5.5,0,0,1,.75-.43l30.72,17.75a.5.5,0,0,1,.25.43v5.76a.5.5,0,0,1-.5.5.5.5,0,0,1-.25-.07l-30.72-17.7a.5.5,0,0,1-.25-.43Z"/><polygon class="cls-3" points="60.63 185.94 30.91 168.77 30.91 173.42 60.63 190.54 60.63 185.94"/><path class="cls-11" d="M65.1,191.63c.11,0,.45-.45.45-1.26s-.34-1.26-.45-1.26-.45.45-.45,1.26S65,191.63,65.1,191.63Z"/><path class="cls-11" d="M69.19,193.79c.11,0,.45-.45.45-1.26s-.34-1.26-.45-1.26-.45.45-.45,1.26S69.07,193.79,69.19,193.79Z"/><polygon class="cls-11" points="104.24 195.38 102.42 196.44 102.42 198.77 104.24 197.71 104.24 195.38"/><path class="cls-2" d="M24.37,209.42a.5.5,0,0,0-.25-.43l-5.54-3.2a.5.5,0,0,0-.49,0l-5.54,3a.5.5,0,0,0,0,.87L18.07,213a.5.5,0,0,0,.51,0l5.54-3.2A.5.5,0,0,0,24.37,209.42Zm-6,2.62-4.55-2.76,4.53-2.48,4.55,2.63Z"/><path class="cls-2" d="M31.46,213.43a.5.5,0,0,0-.25-.43l-5.54-3.2a.5.5,0,0,0-.49,0l-5.54,3a.5.5,0,0,0,0,.87l5.54,3.37a.5.5,0,0,0,.51,0l5.54-3.2A.5.5,0,0,0,31.46,213.43Zm-6,2.62-4.54-2.76,4.53-2.48L30,213.43Z"/><path class="cls-2" d="M38.56,217.43a.5.5,0,0,0-.25-.43l-5.54-3.2a.5.5,0,0,0-.49,0l-5.54,3a.5.5,0,0,0,0,.87l5.54,3.37a.5.5,0,0,0,.51,0l5.54-3.2A.5.5,0,0,0,38.56,217.43Zm-6,2.62L28,217.28l4.53-2.48,4.55,2.63Z"/><path class="cls-2" d="M59.87,229.44a.5.5,0,0,0-.25-.43L44,220.19l-4.14-2.39a.5.5,0,0,0-.49,0l-5.54,3a.5.5,0,0,0,0,.87l4.51,2.75.06,0,.09,0h0l.87.53a.44.44,0,0,0,.12,0l7,4,.06,0,7,4a.5.5,0,0,0,.5,0l5.54-3.2A.5.5,0,0,0,59.87,229.44ZM47,228.2l-.06,0-7-4-1-.59-.06,0-3.72-2.27,4.53-2.48,18.74,10.64-4.53,2.62Z"/><path class="cls-2" d="M67,233.45a.5.5,0,0,0-.25-.43l-5.54-3.2a.5.5,0,0,0-.49,0l-5.54,3a.5.5,0,0,0,0,.87l5.54,3.37a.5.5,0,0,0,.51,0l5.54-3.2A.5.5,0,0,0,67,233.45Zm-6,2.62-4.55-2.76,4.53-2.48,4.55,2.63Z"/><path class="cls-2" d="M74.06,237.45a.5.5,0,0,0-.25-.43l-5.54-3.2a.5.5,0,0,0-.49,0l-5.54,3a.5.5,0,0,0,0,.87l5.54,3.37a.5.5,0,0,0,.51,0l5.54-3.2A.5.5,0,0,0,74.06,237.45Zm-6,2.62-4.55-2.76L68,234.83l4.55,2.62Z"/><path class="cls-2" d="M81.16,241.46a.5.5,0,0,0-.25-.43l-5.54-3.2a.5.5,0,0,0-.49,0l-5.54,3a.5.5,0,0,0,0,.87l5.54,3.37a.5.5,0,0,0,.51,0l5.54-3.2A.5.5,0,0,0,81.16,241.46Zm-6,2.62-4.55-2.76,4.53-2.48,4.55,2.62Z"/><path class="cls-2" d="M88,245l-5.54-3.2a.5.5,0,0,0-.49,0l-5.54,3a.5.5,0,0,0,0,.87L82,249.09a.5.5,0,0,0,.51,0l5.54-3.2a.5.5,0,0,0,0-.87Zm-5.78,3-4.54-2.76,4.53-2.48,4.55,2.63Z"/><path class="cls-2" d="M25.29,208.45a.5.5,0,0,0,.51,0l5.54-3.2a.5.5,0,0,0,0-.87l-5.54-3.2a.5.5,0,0,0-.49,0l-5.54,3a.5.5,0,0,0,0,.87Zm.25-6.25,4.55,2.63-4.53,2.62L21,204.68Z"/><path class="cls-2" d="M38.69,208.83a.5.5,0,0,0-.25-.43l-5.54-3.2a.5.5,0,0,0-.49,0l-5.54,3a.5.5,0,0,0,0,.87l5.54,3.37a.5.5,0,0,0,.51,0l5.54-3.2A.5.5,0,0,0,38.69,208.83Zm-6,2.62-4.54-2.76,4.53-2.48,4.55,2.62Z"/><path class="cls-2" d="M39.49,216.46a.5.5,0,0,0,.51,0l5.54-3.2a.5.5,0,0,0,0-.87L40,209.21a.5.5,0,0,0-.49,0l-5.54,3a.5.5,0,0,0,0,.87Zm.25-6.25,4.55,2.63-4.53,2.62-4.54-2.76Z"/><path class="cls-2" d="M46.59,220.47a.5.5,0,0,0,.51,0l5.54-3.2a.5.5,0,0,0,0-.87l-5.54-3.2a.5.5,0,0,0-.49,0l-5.54,3a.5.5,0,0,0,0,.87Zm.25-6.25,4.55,2.63-4.53,2.62-4.55-2.76Z"/><path class="cls-2" d="M53.69,224.47a.5.5,0,0,0,.51,0l5.54-3.2a.5.5,0,0,0,0-.87l-5.54-3.2a.5.5,0,0,0-.49,0l-5.54,3a.5.5,0,0,0,0,.87Zm.25-6.25,4.55,2.62L54,223.46l-4.55-2.76Z"/><path class="cls-2" d="M60.79,228.47a.5.5,0,0,0,.51,0l5.54-3.2a.5.5,0,0,0,0-.87l-5.54-3.2a.5.5,0,0,0-.49,0l-5.54,3a.5.5,0,0,0,0,.87Zm.25-6.25,4.55,2.63-4.53,2.62-4.54-2.76Z"/><path class="cls-2" d="M67.89,232.48a.5.5,0,0,0,.51,0l5.54-3.2a.5.5,0,0,0,0-.87l-5.54-3.2a.5.5,0,0,0-.49,0l-5.54,3a.5.5,0,0,0,0,.87Zm.25-6.25,4.55,2.63-4.53,2.62-4.55-2.76Z"/><path class="cls-2" d="M75,236.48a.5.5,0,0,0,.51,0l5.54-3.2a.5.5,0,0,0,0-.87l-5.54-3.2a.5.5,0,0,0-.49,0l-5.54,3a.5.5,0,0,0,0,.87Zm.25-6.25,4.55,2.62-4.53,2.62-4.55-2.76Z"/><path class="cls-2" d="M82.08,240.49a.5.5,0,0,0,.51,0l5.54-3.2a.5.5,0,0,0,0-.87l-5.54-3.2a.5.5,0,0,0-.49,0l-5.54,3a.5.5,0,0,0,0,.87Zm.25-6.25,4.55,2.63-4.53,2.62-4.54-2.76Z"/><path class="cls-2" d="M32.9,204.08a.5.5,0,0,0,.51,0l5.54-3.2a.5.5,0,0,0,0-.87l-5.54-3.2a.5.5,0,0,0-.49,0l-5.54,3a.5.5,0,0,0,0,.87Zm.25-6.25,4.55,2.62-4.53,2.62-4.55-2.76Z"/><path class="cls-2" d="M46,204l-5.54-3.2a.5.5,0,0,0-.49,0l-5.54,3a.5.5,0,0,0,0,.87L40,208.09a.5.5,0,0,0,.51,0L46,204.9a.5.5,0,0,0,0-.87Zm-5.78,3-4.55-2.76,4.53-2.48,4.55,2.63Z"/><path class="cls-2" d="M53.14,208l-5.54-3.2a.5.5,0,0,0-.49,0l-5.54,3a.5.5,0,0,0,0,.87l5.54,3.37a.5.5,0,0,0,.51,0l5.54-3.2a.5.5,0,0,0,0-.87Zm-5.78,3-4.54-2.76,4.53-2.48,4.55,2.62Z"/><path class="cls-2" d="M60.24,212l-5.54-3.2a.5.5,0,0,0-.49,0l-5.54,3a.5.5,0,0,0,0,.87l5.54,3.37a.5.5,0,0,0,.51,0l5.54-3.2a.5.5,0,0,0,0-.87Zm-5.78,3-4.54-2.76,4.53-2.48L59,212.47Z"/><path class="cls-2" d="M67.34,216l-5.54-3.2a.5.5,0,0,0-.49,0l-5.54,3a.5.5,0,0,0,0,.87l5.54,3.37a.5.5,0,0,0,.51,0l5.54-3.2a.5.5,0,0,0,0-.87Zm-5.78,3L57,216.33l4.53-2.48,4.55,2.63Z"/><path class="cls-2" d="M74.44,220l-5.54-3.2a.5.5,0,0,0-.49,0l-5.54,3a.5.5,0,0,0,0,.87l5.54,3.37a.5.5,0,0,0,.51,0l5.54-3.2a.5.5,0,0,0,0-.87Zm-5.78,3-4.55-2.76,4.53-2.48,4.55,2.62Z"/><path class="cls-2" d="M81.54,224.05,76,220.85a.5.5,0,0,0-.49,0l-5.54,3a.5.5,0,0,0,0,.87l5.54,3.37a.5.5,0,0,0,.51,0l5.54-3.2a.5.5,0,0,0,0-.87Zm-5.78,3-4.54-2.76,4.53-2.48,4.55,2.62Z"/><path class="cls-2" d="M88.89,228.49a.5.5,0,0,0-.25-.43l-5.54-3.2a.5.5,0,0,0-.49,0l-5.54,3a.5.5,0,0,0,0,.87l5.54,3.37a.5.5,0,0,0,.51,0l5.54-3.2A.5.5,0,0,0,88.89,228.49Zm-6,2.62-4.54-2.76,4.53-2.48,4.55,2.63Z"/><path class="cls-2" d="M102.84,236.06l-5.54-3.2-.1,0-4.6-2.64a.5.5,0,0,0-.49,0l-5.54,3a.5.5,0,0,0,0,.87l3.87,2.29-7,3.85a.5.5,0,0,0,0,.87l5.74,3.42a.5.5,0,0,0,.5,0l7.55-4.34.05,0,5.54-3.2a.5.5,0,0,0,0-.87Zm-6,3.2-7.34,4.23-4.74-2.82,7-3.85a.5.5,0,0,0,0-.87l-3.87-2.29,4.52-2.47,4.44,2.55.1,0,4.7,2.71-4.74,2.74Z"/><path class="cls-2" d="M39.65,192.71l-5.54,3a.5.5,0,0,0,0,.87L39.63,200a.5.5,0,0,0,.51,0l5.54-3.2a.5.5,0,0,0,0-.87l-5.54-3.2A.5.5,0,0,0,39.65,192.71Zm.25,6.25-4.54-2.76,4.53-2.48,4.55,2.62Z"/><path class="cls-12" d="M82.41,166.87h0V128.67a4.52,4.52,0,0,0-2.25-3.9L67.4,117.4l-1.24-.71-.8-.46-.8-.46L59,112.54l-4.15-2.39L21.55,90.94c-.73.45-1.57.72-2.37,1.14a176.63,176.63,0,0,0,.1,38.85l0,.13v.13a4.12,4.12,0,0,0,.23,1.34,3.75,3.75,0,0,0,.8,1.38,4.12,4.12,0,0,0,1,.87l6.77,3.91.8.46.8.46,1.12.64,17.34,10,.8.46.8.46,30.08,17.36A14.54,14.54,0,0,0,82.41,166.87Z"/><g class="cls-13"><path class="cls-14" d="M2.49,32.51c2.21-.79,4.91,1.77,6,5.75L47.64,178.44c1.11,4,.21,7.84-2,8.63s-4.92-1.78-6-5.75L.47,41.14C-.63,37.17.27,33.31,2.49,32.51Z"/><path class="cls-14" d="M13.36.28c4.24-1.52,9.38,3.4,11.5,11L58.2,130.66c2.11,7.58.4,15-3.84,16.47s-9.38-3.4-11.5-11L9.53,16.75C7.41,9.17,9.13,1.79,13.36.28Z"/><path class="cls-14" d="M51.55,158.72c3.26-1.17,7.23,2.62,8.86,8.46L93.54,285.83c1.63,5.84.31,11.53-3,12.7s-7.23-2.62-8.86-8.46L48.6,171.42C47,165.58,48.29,159.9,51.55,158.72Z"/><path class="cls-14" d="M48.45,59.76c2.22-.8,4.92,1.78,6,5.75L93.61,205.69c1.11,4,.21,7.83-2,8.63s-4.91-1.78-6-5.75L46.45,68.39C45.34,64.42,46.24,60.55,48.45,59.76Z"/></g><path class="cls-2" d="M40.95,200.16a.5.5,0,0,0,.24.44L46.73,204a.5.5,0,0,0,.51,0l5.54-3.2a.5.5,0,0,0,0-.87l-5.54-3.2a.5.5,0,0,0-.49,0l-5.54,3A.5.5,0,0,0,40.95,200.16Zm6-2.44,4.55,2.63L47,203l-4.54-2.76Z"/><path class="cls-2" d="M48,204.17a.5.5,0,0,0,.24.44L53.83,208a.5.5,0,0,0,.51,0l5.54-3.2a.5.5,0,0,0,0-.87l-5.54-3.2a.5.5,0,0,0-.49,0l-5.54,3A.5.5,0,0,0,48,204.17Zm6-2.44,4.55,2.63L54.09,207l-4.55-2.76Z"/><path class="cls-2" d="M55.15,208.17a.5.5,0,0,0,.24.44L60.93,212a.5.5,0,0,0,.51,0l5.54-3.2a.5.5,0,0,0,0-.87l-5.54-3.2a.5.5,0,0,0-.49,0l-5.54,3A.5.5,0,0,0,55.15,208.17Zm6-2.44,4.55,2.62L61.19,211l-4.55-2.76Z"/><path class="cls-2" d="M62.25,212.18a.5.5,0,0,0,.24.44L68,216a.5.5,0,0,0,.51,0l5.54-3.2a.5.5,0,0,0,0-.87l-5.54-3.2a.5.5,0,0,0-.49,0l-5.54,3A.5.5,0,0,0,62.25,212.18Zm6-2.44,4.55,2.63L68.29,215l-4.54-2.76Z"/><path class="cls-2" d="M69.34,216.18a.5.5,0,0,0,.24.44L75.12,220a.5.5,0,0,0,.51,0l5.54-3.2a.5.5,0,0,0,0-.87l-5.54-3.2a.5.5,0,0,0-.49,0l-5.54,3A.5.5,0,0,0,69.34,216.18Zm6-2.44,4.55,2.63L75.39,219l-4.55-2.76Z"/><path class="cls-2" d="M76.44,220.18a.5.5,0,0,0,.24.44L82.22,224a.5.5,0,0,0,.51,0l5.54-3.2a.5.5,0,0,0,0-.87l-5.54-3.2a.5.5,0,0,0-.49,0l-5.54,3A.5.5,0,0,0,76.44,220.18Zm6-2.44L87,220.37,82.49,223l-4.55-2.76Z"/><path class="cls-2" d="M83.54,224.19a.5.5,0,0,0,.24.44L89.32,228a.5.5,0,0,0,.51,0l5.54-3.2a.5.5,0,0,0,0-.87l-5.54-3.2a.5.5,0,0,0-.49,0l-5.54,3A.5.5,0,0,0,83.54,224.19Zm6-2.44,4.55,2.63L89.59,227,85,224.22Z"/><path class="cls-2" d="M90.64,228.19a.5.5,0,0,0,.24.44L96.42,232a.5.5,0,0,0,.51,0l5.54-3.2a.5.5,0,0,0,0-.87l-5.54-3.2a.5.5,0,0,0-.49,0l-5.54,3A.5.5,0,0,0,90.64,228.19Zm6-2.44,4.55,2.63L96.69,231l-4.55-2.76Z"/><path class="cls-2" d="M97.74,232.2a.5.5,0,0,0,.24.44l5.54,3.37a.5.5,0,0,0,.51,0l5.54-3.2a.5.5,0,0,0,0-.87l-5.54-3.2a.5.5,0,0,0-.49,0l-5.54,3A.5.5,0,0,0,97.74,232.2Zm6-2.44,4.55,2.62L103.79,235l-4.55-2.76Z"/><path class="cls-2" d="M18.92,132.79a6.65,6.65,0,0,0,2.75,3.09l5,2.91.75.43.75.43,1,.6,16.37,9.45.75.43.75.43,30.44,17.57a3.82,3.82,0,0,0,5.74-3.32V129.67a7,7,0,0,0-3.47-6l-10.7-6.18L68,116.81l-.75-.43-.75-.43L23.36,91.08a3.32,3.32,0,0,0-5,2.8,152.73,152.73,0,0,0,0,36.28A6.57,6.57,0,0,0,18.92,132.79Zm3.69-40.41L65,116.81l.75.43.75.43,1.17.68L79.09,125a5.45,5.45,0,0,1,2.72,4.71v35.14a2.34,2.34,0,0,1-2.33,2.33,2.29,2.29,0,0,1-1.16-.32L48.63,149.7l-.75-.43-.75-.43-16.37-9.44-1-.6-.75-.43-.75-.43-5.79-3.34A5,5,0,0,1,21,133.33a5.08,5.08,0,0,1-.42-.62,5.18,5.18,0,0,1-.32-.68,5.39,5.39,0,0,1-.37-2,152.19,152.19,0,0,1,0-36.11,1.84,1.84,0,0,1,1.84-1.84A1.81,1.81,0,0,1,22.61,92.38Z"/><path class="cls-2" d="M92.6,173.22a.74.74,0,0,0,.37.1.75.75,0,0,0,.38-.1l8.42-4.88a.75.75,0,0,0,.37-.65V153.22a.75.75,0,0,0-1.13-.65l-8.42,4.88a.75.75,0,0,0-.37.65v14.46A.75.75,0,0,0,92.6,173.22Zm1.12-14.68,6.92-4v12.73l-6.92,4Z"/><path class="cls-2" d="M61.38,185.22,30.66,167.47a.5.5,0,0,0-.75.43v5.81a.5.5,0,0,0,.25.43l30.72,17.7a.5.5,0,0,0,.25.07.5.5,0,0,0,.5-.5v-5.76A.5.5,0,0,0,61.38,185.22Zm-.75,5.33L30.91,173.42v-4.66l29.72,17.17Z"/><path class="cls-2" d="M65.1,188.1c-.83,0-1.45,1-1.45,2.26s.62,2.26,1.45,2.26,1.45-1,1.45-2.26S65.93,188.1,65.1,188.1Zm-.45,2.26c0-.82.34-1.26.45-1.26s.45.45.45,1.26-.34,1.26-.45,1.26S64.65,191.18,64.65,190.37Z"/><path class="cls-2" d="M69.19,190.26c-.83,0-1.45,1-1.45,2.26s.62,2.26,1.45,2.26,1.45-1,1.45-2.26S70,190.26,69.19,190.26Zm0,3.53c-.11,0-.45-.45-.45-1.26s.34-1.26.45-1.26.45.45.45,1.26S69.3,193.79,69.19,193.79Z"/><path class="cls-2" d="M104.49,194.08l-2.82,1.64a.5.5,0,0,0-.25.43v3.48a.5.5,0,0,0,.25.43.51.51,0,0,0,.25.07.5.5,0,0,0,.25-.07l2.82-1.64a.5.5,0,0,0,.25-.43v-3.48a.5.5,0,0,0-.75-.43Zm-.25,3.63-1.82,1.06v-2.33l1.82-1.06Z"/><path class="cls-2" d="M159.67,172.63c.2-2.26-.4-4-1.77-5s-3.7-1.41-5.68-1.28a10.34,10.34,0,0,0-1-2.57,4.4,4.4,0,0,0-2.33-2.08v-5.33a.75.75,0,0,0-.37-.65h0l-15.69-9,.72-1,8.19-4.73a.75.75,0,0,0,.38-.65v-38.5a1,1,0,0,0-.37-.65L75.14,62.55a.75.75,0,0,0-.75,0L66.16,67.3,47,59.35a.74.74,0,0,0-.28-.06h0a.75.75,0,0,0-.3.08h0L12.93,78.78a.74.74,0,0,0-.23.23l0,0a.75.75,0,0,0-.07.24.72.72,0,0,0,0,.13V136.9a.75.75,0,0,0,.38.65l7.95,4.59-7.95,4.56h0a.73.73,0,0,0-.16.16s-.09.07-.12.12a.76.76,0,0,0-.07.26.72.72,0,0,0,0,.11h0v21.78a.72.72,0,0,0,0,.16.73.73,0,0,0,.33.49l16.4,9.46L72.76,204.3h0L88,213.09h0a.75.75,0,0,0,.75,0l34.75-20h0l25-14.38a.75.75,0,0,0,.38-.65h0v-9.74a21.59,21.59,0,0,1,2.15-.43,11.6,11.6,0,0,1-.2,5.41,21.71,21.71,0,0,0-.59,10c-5.23,4.06-11.75,7.12-15.34,7.31-5,.26-11.92,5-19.27,10-3.17,2.17-6.46,4.42-9.6,6.31-8.31,5-11.23,10.22-12.11,12.26L40.68,188.57a.75.75,0,0,0-.75,0L6.5,207.95h0a.73.73,0,0,0-.18.18s-.07.05-.09.09a.75.75,0,0,0-.06.24.71.71,0,0,0,0,.13v3.74a.75.75,0,0,0,.37.65l75.07,43.31a.75.75,0,0,0,.75,0l33.44-19.39a.75.75,0,0,0,.37-.65v-3.74h0a.75.75,0,0,0-.37-.65L95.24,220c.68-1.63,3.35-6.79,11.57-11.73,3.18-1.91,6.48-4.17,9.67-6.36,7.16-4.91,13.93-9.55,18.5-9.79,3.62-.19,9.52-2.8,14.7-6.49l.89-.66a16.74,16.74,0,0,0,1.77,4.57c1.8,3.09-1,7.8-3.13,10.64q.55.52,1.07,1.08c2.33-3.09,5.63-8.57,3.35-12.47a15.8,15.8,0,0,1-1.75-4.84C156.56,180.18,159.37,176.12,159.67,172.63ZM140.61,139.8l-8,4.6a.75.75,0,0,0-.24.21l-.89,1.26-.44.61-.44.61-.69,1-7.4,10.4V104.34l10.26,2.92.21,0h.13a.74.74,0,0,0,.2-.07h0l7.21-4.16ZM74.76,64.07l65.09,37.67L133,105.68l-1.77-1L67.72,68.14Zm38,45.42,8.34-4.84v55.73L120,161l-.75.43-.75.43-5.92,3.44h0q.06-3.38.11-6.79c0-.29,0-.57,0-.86s0-.57,0-.86q0-.79,0-1.58v-.92c0-.31,0-.61,0-.92q.08-7.54.11-15.18,0-.68,0-1.37,0-.43,0-.86t0-.86c0-8.42,0-16.86,0-25.17A.73.73,0,0,0,112.72,109.49Zm-66-48.58,73.58,42.44-7.82,4.54-1.11.64C91.28,94.95,63.75,79.45,41.52,66.95l-2.64-1.48ZM111.41,166h0L89.12,178.91V123.18l0,0,.75-.43.75-.43,20.68-12,.06,0c0,7.9,0,15.91,0,23.91q0,.43,0,.86t0,.86q0,.68,0,1.37c0,5-.05,10-.1,15,0,.31,0,.61,0,.92s0,.61,0,.92c0,.6,0,1.19,0,1.79v.86c0,.29,0,.57,0,.86,0,2.79-.08,5.56-.13,8.32Zm-74-99.64,3.41,1.92c22,12.36,49.16,27.66,69.16,41.11l-20.8,12.06-.75.43,0,0L73,113l-.75-.43L14.8,79.43ZM14.8,136.9l-.75-.43h0V80.73l56.73,32.73.75.43.75.43,15.34,8.85v55.73L42.8,153l-.75-.43-.75-.43-16.39-9.46-1-.59-.75-.43-.75-.43Zm57.58,65.46L52,190.61l-17.16-9.9-6.88-4V162.58l44.4,25.76Zm15.24,8.79-13.74-7.93V187.91a.75.75,0,0,0-.37-.65L28.61,161.2l-.75-.43-.25-.14a.75.75,0,0,0-1.13.65v14.6l-11.68-6.74-.75-.43h0V148.65l16.66,9.62.75.43.75.43,55.4,32Zm.75-21.35-2.89-1.66L33.72,158.26l-.75-.43-.75-.43-17.42-10L22.38,143l17.42,10,.75.43.75.43,36.17,20.87,13.08,7.68,35.7-16.13.76-.43.76-.43L137,152.15l-5.76-3.32.69-1,14.68,8.47-17.42,10-.75.43-.75.43Zm34,2.21L98.89,205.53V192.86l23.48-13.35Zm25-14.33h0l-.75.43-4.72,2.71-18,10.37v-13a.75.75,0,0,0-1.12-.65l-25,14.21a.75.75,0,0,0-.38.65v14l-1.29.74-7,4V191.09l40.1-23,.75-.43.75-.43,16.67-9.58Zm1.5-10.85v-3.49a3.47,3.47,0,0,1,1,1.16,8.57,8.57,0,0,1,.8,2C150,166.57,149.4,166.7,148.89,166.82ZM81.19,254.36,7.63,211.91v-2l73.57,42.45Zm32.69-21.84L81.94,251,8.38,208.6l31.93-18.52Zm37.72-50.27a19.64,19.64,0,0,1,.62-8.35,13,13,0,0,0,.31-6.12,6.67,6.67,0,0,1,4.44,1c1,.77,1.36,2,1.21,3.74C157.9,175.73,155.18,179.21,151.6,182.25Z"/><g class="cls-15"><line class="cls-16" x1="148.89" y1="105.03" x2="114.43" y2="123.41"/><rect class="cls-17" x="112.13" y="113.72" width="39.05" height="1" transform="translate(-38.26 75.39) rotate(-28.07)"/><rect class="cls-18" x="112.13" y="114.64" width="39.05" height="1" transform="translate(-38.7 75.5) rotate(-28.07)"/><line class="cls-16" x1="148.89" y1="108.43" x2="114.43" y2="126.81"/><rect class="cls-17" x="112.13" y="117.12" width="39.05" height="1" transform="translate(-39.86 75.79) rotate(-28.07)"/><rect class="cls-18" x="112.13" y="118.04" width="39.05" height="1" transform="translate(-40.29 75.89) rotate(-28.07)"/><line class="cls-16" x1="148.89" y1="111.83" x2="114.43" y2="130.21"/><rect class="cls-17" x="112.13" y="120.52" width="39.05" height="1" transform="translate(-41.46 76.19) rotate(-28.07)"/><rect class="cls-18" x="112.13" y="121.45" width="39.05" height="1" transform="translate(-41.9 76.3) rotate(-28.07)"/><line class="cls-16" x1="148.89" y1="115.24" x2="114.43" y2="133.61"/><rect class="cls-17" x="112.13" y="123.92" width="39.05" height="1" transform="translate(-43.06 76.59) rotate(-28.07)"/><rect class="cls-18" x="112.13" y="124.85" width="39.05" height="1" transform="translate(-43.5 76.7) rotate(-28.07)"/><line class="cls-16" x1="148.89" y1="118.64" x2="114.43" y2="137.01"/><rect class="cls-17" x="112.13" y="127.33" width="39.05" height="1" transform="translate(-44.66 76.99) rotate(-28.07)"/><rect class="cls-18" x="112.13" y="128.25" width="39.05" height="1" transform="translate(-45.1 77.1) rotate(-28.07)"/><line class="cls-16" x1="148.89" y1="122.04" x2="114.43" y2="140.41"/><rect class="cls-17" x="112.13" y="130.73" width="39.05" height="1" transform="translate(-46.26 77.39) rotate(-28.07)"/><rect class="cls-18" x="112.13" y="131.65" width="39.05" height="1" transform="translate(-46.7 77.5) rotate(-28.07)"/><line class="cls-16" x1="148.89" y1="125.44" x2="114.43" y2="143.82"/><rect class="cls-17" x="112.13" y="134.13" width="39.05" height="1" transform="translate(-47.86 77.78) rotate(-28.07)"/><rect class="cls-18" x="112.13" y="135.05" width="39.05" height="1" transform="translate(-48.3 77.9) rotate(-28.07)"/><line class="cls-16" x1="148.89" y1="128.84" x2="114.43" y2="147.22"/><rect class="cls-17" x="112.13" y="137.53" width="39.05" height="1" transform="translate(-49.46 78.19) rotate(-28.07)"/><rect class="cls-18" x="112.13" y="138.45" width="39.05" height="1" transform="translate(-49.9 78.3) rotate(-28.07)"/></g><g class="cls-19"><line class="cls-16" x1="93.72" y1="56.05" x2="59.26" y2="74.42"/><rect class="cls-17" x="56.96" y="64.74" width="39.05" height="1" transform="translate(-21.7 43.66) rotate(-28.07)"/><rect class="cls-18" x="56.96" y="65.66" width="39.05" height="1" transform="translate(-22.13 43.77) rotate(-28.07)"/><line class="cls-16" x1="96.49" y1="57.93" x2="62.02" y2="76.3"/><rect class="cls-17" x="59.73" y="66.61" width="39.05" height="1" transform="translate(-22.26 45.18) rotate(-28.07)"/><rect class="cls-18" x="59.73" y="67.54" width="39.05" height="1" transform="translate(-22.69 45.29) rotate(-28.07)"/><line class="cls-16" x1="99.25" y1="59.81" x2="64.79" y2="78.18"/><rect class="cls-17" x="62.49" y="68.49" width="39.05" height="1" transform="translate(-22.82 46.7) rotate(-28.07)"/><rect class="cls-18" x="62.49" y="69.42" width="39.05" height="1" transform="translate(-23.25 46.81) rotate(-28.07)"/><line class="cls-16" x1="102.02" y1="61.69" x2="67.56" y2="80.06"/><rect class="cls-17" x="65.26" y="70.37" width="39.05" height="1" transform="translate(-23.37 48.22) rotate(-28.07)"/><rect class="cls-18" x="65.26" y="71.3" width="39.05" height="1" transform="translate(-23.81 48.33) rotate(-28.07)"/><line class="cls-16" x1="104.78" y1="63.57" x2="70.32" y2="81.94"/><rect class="cls-17" x="68.03" y="72.25" width="39.06" height="1" transform="translate(-23.93 49.75) rotate(-28.07)"/><rect class="cls-18" x="68.03" y="73.18" width="39.06" height="1" transform="translate(-24.37 49.86) rotate(-28.07)"/><line class="cls-16" x1="107.55" y1="65.44" x2="73.09" y2="83.82"/><rect class="cls-17" x="70.79" y="74.13" width="39.05" height="1" transform="translate(-24.49 51.26) rotate(-28.06)"/><rect class="cls-18" x="70.79" y="75.06" width="39.05" height="1" transform="translate(-24.93 51.38) rotate(-28.07)"/><line class="cls-16" x1="110.32" y1="67.32" x2="75.85" y2="85.7"/><rect class="cls-17" x="73.56" y="76.01" width="39.05" height="1" transform="translate(-25.05 52.79) rotate(-28.07)"/><rect class="cls-18" x="73.56" y="76.94" width="39.05" height="1" transform="translate(-25.49 52.9) rotate(-28.07)"/><line class="cls-16" x1="113.08" y1="69.2" x2="78.62" y2="87.58"/><rect class="cls-17" x="76.32" y="77.89" width="39.05" height="1" transform="translate(-25.61 54.31) rotate(-28.06)"/><rect class="cls-18" x="76.32" y="78.81" width="39.05" height="1" transform="translate(-26.05 54.42) rotate(-28.07)"/><line class="cls-16" x1="115.85" y1="71.08" x2="81.38" y2="89.46"/><rect class="cls-17" x="79.09" y="79.77" width="39.05" height="1" transform="translate(-26.17 55.83) rotate(-28.06)"/><rect class="cls-18" x="79.09" y="80.69" width="39.05" height="1" transform="translate(-26.6 55.95) rotate(-28.07)"/><line class="cls-16" x1="118.61" y1="72.96" x2="84.15" y2="91.34"/><rect class="cls-17" x="81.85" y="81.65" width="39.05" height="1" transform="translate(-26.73 57.36) rotate(-28.07)"/><rect class="cls-18" x="81.85" y="82.57" width="39.05" height="1" transform="translate(-27.16 57.47) rotate(-28.07)"/><line class="cls-16" x1="121.38" y1="74.84" x2="86.92" y2="93.22"/><rect class="cls-17" x="84.62" y="83.53" width="39.05" height="1" transform="translate(-27.29 58.88) rotate(-28.07)"/><rect class="cls-18" x="84.62" y="84.45" width="39.05" height="1" transform="translate(-27.72 58.98) rotate(-28.06)"/><line class="cls-16" x1="124.14" y1="76.72" x2="89.68" y2="95.1"/><rect class="cls-17" x="87.39" y="85.41" width="39.05" height="1" transform="translate(-27.85 60.4) rotate(-28.07)"/><rect class="cls-18" x="87.39" y="86.33" width="39.05" height="1" transform="translate(-28.28 60.51) rotate(-28.07)"/><line class="cls-16" x1="126.91" y1="78.6" x2="92.45" y2="96.97"/><rect class="cls-17" x="90.15" y="87.29" width="39.05" height="1" transform="translate(-28.41 61.93) rotate(-28.07)"/><rect class="cls-18" x="90.15" y="88.21" width="39.05" height="1" transform="translate(-28.84 62.03) rotate(-28.06)"/><line class="cls-16" x1="129.68" y1="80.48" x2="95.21" y2="98.85"/><rect class="cls-17" x="92.92" y="89.17" width="39.05" height="1" transform="translate(-28.96 63.45) rotate(-28.07)"/><rect class="cls-18" x="92.92" y="90.09" width="39.05" height="1" transform="translate(-29.4 63.55) rotate(-28.06)"/><line class="cls-16" x1="132.44" y1="82.36" x2="97.98" y2="100.73"/><rect class="cls-17" x="95.68" y="91.05" width="39.05" height="1" transform="translate(-29.52 64.97) rotate(-28.07)"/><rect class="cls-18" x="95.68" y="91.97" width="39.05" height="1" transform="translate(-29.96 65.07) rotate(-28.06)"/><line class="cls-16" x1="135.21" y1="84.24" x2="100.75" y2="102.61"/><rect class="cls-17" x="98.45" y="92.93" width="39.05" height="1" transform="translate(-30.08 66.49) rotate(-28.07)"/><rect class="cls-18" x="98.45" y="93.85" width="39.05" height="1" transform="translate(-30.52 66.6) rotate(-28.07)"/><line class="cls-16" x1="137.97" y1="86.12" x2="103.51" y2="104.49"/><rect class="cls-17" x="101.22" y="94.8" width="39.05" height="1" transform="translate(-30.64 68.02) rotate(-28.07)"/><rect class="cls-18" x="101.22" y="95.73" width="39.05" height="1" transform="translate(-31.08 68.12) rotate(-28.07)"/><line class="cls-16" x1="140.74" y1="88" x2="106.28" y2="106.37"/><rect class="cls-17" x="103.98" y="96.68" width="39.05" height="1" transform="translate(-31.2 69.54) rotate(-28.07)"/><rect class="cls-18" x="103.98" y="97.61" width="39.05" height="1" transform="translate(-31.64 69.65) rotate(-28.07)"/><line class="cls-16" x1="143.5" y1="89.88" x2="109.04" y2="108.25"/><rect class="cls-17" x="106.75" y="98.56" width="39.05" height="1" transform="translate(-31.76 71.06) rotate(-28.07)"/><rect class="cls-18" x="106.75" y="99.49" width="39.05" height="1" transform="translate(-32.19 71.17) rotate(-28.07)"/><line class="cls-16" x1="146.27" y1="91.76" x2="111.81" y2="110.13"/><rect class="cls-17" x="109.51" y="100.44" width="39.05" height="1" transform="translate(-32.32 72.58) rotate(-28.07)"/><rect class="cls-18" x="109.51" y="101.37" width="39.05" height="1" transform="translate(-32.75 72.69) rotate(-28.07)"/><line class="cls-16" x1="149.04" y1="93.63" x2="114.57" y2="112.01"/><rect class="cls-17" x="112.28" y="102.32" width="39.05" height="1" transform="translate(-32.88 74.1) rotate(-28.07)"/><rect class="cls-18" x="112.28" y="103.25" width="39.05" height="1" transform="translate(-33.31 74.21) rotate(-28.07)"/></g><g class="cls-20"><line class="cls-16" x1="130.28" y1="156.8" x2="129.9" y2="195.85"/><rect class="cls-17" x="110.56" y="175.83" width="39.05" height="1" transform="matrix(0.01, -1, 1, 0.01, -47.5, 304.68)"/><rect class="cls-18" x="111.37" y="176.27" width="39.06" height="1" transform="translate(-47.13 305.95) rotate(-89.44)"/><line class="cls-16" x1="133.61" y1="154.49" x2="133.39" y2="193.54"/><rect class="cls-17" x="113.97" y="173.52" width="39.05" height="1" transform="translate(-41.29 306.5) rotate(-89.67)"/><rect class="cls-18" x="114.79" y="173.96" width="39.05" height="1" transform="translate(-40.93 307.74) rotate(-89.66)"/><line class="cls-16" x1="136.93" y1="152.18" x2="136.88" y2="191.23"/><rect class="cls-17" x="117.38" y="171.21" width="39.05" height="1" transform="translate(-35.06 308.29) rotate(-89.89)"/><rect class="cls-18" x="118.2" y="171.64" width="39.05" height="1" transform="translate(-34.68 309.54) rotate(-89.89)"/><line class="cls-16" x1="140.26" y1="149.87" x2="140.38" y2="188.92"/><rect class="cls-17" x="139.82" y="149.87" width="1" height="39.05" transform="translate(-0.5 0.41) rotate(-0.17)"/><rect class="cls-18" x="140.64" y="150.3" width="1" height="39.05" transform="translate(-0.5 0.42) rotate(-0.17)"/><line class="cls-16" x1="143.59" y1="147.56" x2="143.87" y2="186.61"/><rect class="cls-17" x="143.23" y="147.56" width="1" height="39.05" transform="translate(-1.2 1.04) rotate(-0.41)"/><rect class="cls-18" x="144.05" y="147.99" width="1" height="39.06" transform="translate(-1.2 1.05) rotate(-0.41)"/></g><polygon class="cls-21" points="55.2 78.4 38.92 89.35 21.36 79.14 35.1 70.46 40.34 70 55.2 78.4"/><polygon class="cls-22" points="55.2 78.4 55.2 79.34 38.92 90.28 38.92 89.35 55.2 78.4"/><polygon class="cls-23" points="38.92 89.35 38.92 90.28 21.36 80.23 21.36 79.14 38.92 89.35"/><path class="cls-24" d="M38.57,78.11c1.44.9,1.56,2.33.26,3.19a5,5,0,0,1-5-.06c-1.44-.9-1.56-2.34-.26-3.2A5,5,0,0,1,38.57,78.11Z"/><path class="cls-24" d="M50.55,75.72l-4.08,2.7a2.3,2.3,0,0,1-2.35.11l-6.74-3.59a.85.85,0,0,1-.06-1.45l4.32-2.81Z"/><path class="cls-3" d="M148.93,204.74l-3.63-2.1-9.62-5.55-12.21,7a16.2,16.2,0,0,0-3.66,2.88l-5.06,5.32,13.41,7.74,5.54-5.76a17.72,17.72,0,0,1,3.92-3.07Z"/><polygon class="cls-4" points="150.61 203.98 152.28 203.89 155.25 203.72 150.26 200.82 145.97 201.3 150.61 203.98"/><polygon class="cls-25" points="142.87 196.53 138.2 196.82 143.78 200.04 148.08 199.56 142.87 196.53"/><path class="cls-6" d="M138.38,212.57a16.24,16.24,0,0,0-3.59,2.81l-5.74,6v3.39l28-16.16v-3.45l-4.29.24-2.11.12Z"/><polygon class="cls-5" points="157.04 205.12 152.75 205.36 157.04 205.12 157.04 205.12"/><polygon class="cls-4" points="114.31 217.09 127.55 224.73 127.55 221.47 114.31 213.82 114.31 217.09"/><polygon class="cls-5" points="114.31 213.82 114.31 213.82 127.55 221.47 127.55 221.47 114.31 213.82"/><path class="cls-2" d="M158.54,204.3a.75.75,0,0,0-.06-.27h0a.75.75,0,0,0-.15-.22l0,0-.05,0-.09-.07-14.75-8.57a.74.74,0,0,0-.42-.1l-7.37.47a.74.74,0,0,0-.3.09h0l-12.58,7.26a17.71,17.71,0,0,0-4,3.15L113,212a.73.73,0,0,0-.05.09l-.07.12a.74.74,0,0,0-.06.22s0,.06,0,.09v5a.75.75,0,0,0,.38.65l14.75,8.51a.75.75,0,0,0,.75,0l29.49-17a.75.75,0,0,0,.37-.65v-4.7Zm-1.49.82v3.45l-28,16.16v-3.39l5.74-6a16.24,16.24,0,0,1,3.59-2.81l12.27-7.08,2.11-.12,4.29-.24Zm-14.18-8.6,5.21,3-4.31.48-5.57-3.22Zm9.41,7.36-1.67.09L146,201.3l4.29-.48,5,2.9Zm-16.6-6.79,9.62,5.55,3.63,2.1-11.3,6.52a17.72,17.72,0,0,0-3.92,3.07l-5.54,5.76-13.41-7.74,5.06-5.32a16.2,16.2,0,0,1,3.66-2.88Zm-21.37,20v-3.26h0l13.25,7.65h0v3.26Z"/></g></g></svg>