<svg xmlns="http://www.w3.org/2000/svg" xmlns:xlink="http://www.w3.org/1999/xlink" viewBox="0 0 349.3 417.2"><defs><style>.cls-1{fill:none;}.cls-2{isolation:isolate;}.cls-3{opacity:0.2;}.cls-4{fill:url(#_ÂÁ_Ï_ÌÌ_È_ËÂÌÚ_162);}.cls-10,.cls-13,.cls-14,.cls-17,.cls-18,.cls-20,.cls-22,.cls-23,.cls-24,.cls-5,.cls-6,.cls-8,.cls-9{mix-blend-mode:lighten;}.cls-5{fill:url(#_ÂÁ_Ï_ÌÌ_È_ËÂÌÚ_263);}.cls-6{fill:url(#_ÂÁ_Ï_ÌÌ_È_ËÂÌÚ_171);}.cls-7{fill:url(#_ÂÁ_Ï_ÌÌ_È_ËÂÌÚ_162-2);}.cls-8{fill:url(#_ÂÁ_Ï_ÌÌ_È_ËÂÌÚ_263-2);}.cls-9{fill:url(#_ÂÁ_Ï_ÌÌ_È_ËÂÌÚ_171-2);}.cls-11{fill:url(#_ÂÁ_Ï_ÌÌ_È_ËÂÌÚ_260);}.cls-12{fill:url(#_ÂÁ_Ï_ÌÌ_È_ËÂÌÚ_162-3);}.cls-13{fill:url(#_ÂÁ_Ï_ÌÌ_È_ËÂÌÚ_171-3);}.cls-14{fill:url(#_ÂÁ_Ï_ÌÌ_È_ËÂÌÚ_263-3);}.cls-15{fill:url(#_ÂÁ_Ï_ÌÌ_È_ËÂÌÚ_175);}.cls-16{fill:url(#_ÂÁ_Ï_ÌÌ_È_ËÂÌÚ_162-4);}.cls-17{fill:url(#_ÂÁ_Ï_ÌÌ_È_ËÂÌÚ_263-4);}.cls-18{fill:url(#_ÂÁ_Ï_ÌÌ_È_ËÂÌÚ_171-4);}.cls-19{fill:url(#_ÂÁ_Ï_ÌÌ_È_ËÂÌÚ_175-2);}.cls-20{fill:url(#_ÂÁ_Ï_ÌÌ_È_ËÂÌÚ_263-5);}.cls-21{fill:#0c0f38;}.cls-22{fill:url(#_ÂÁ_Ï_ÌÌ_È_ËÂÌÚ_263-6);}.cls-23{fill:url(#_ÂÁ_Ï_ÌÌ_È_ËÂÌÚ_263-7);}.cls-24{fill:url(#_ÂÁ_Ï_ÌÌ_È_ËÂÌÚ_260-2);}.cls-25{mix-blend-mode:multiply;}.cls-26{clip-path:url(#clip-path);}.cls-27{fill:#fff;}.cls-28{fill:#fefeff;}.cls-29{fill:#fefefe;}.cls-30{fill:#fdfdfe;}.cls-31{fill:#fdfdfd;}.cls-32{fill:#fdfcfd;}.cls-33{fill:#fcfcfd;}.cls-34{fill:#fbfbfc;}.cls-35{fill:#fafafc;}.cls-36{fill:#fafafb;}.cls-37{fill:#f9f9fb;}.cls-38{fill:#f9f9fa;}.cls-39{fill:#f9f8fa;}.cls-40{fill:#f8f8fa;}.cls-41{fill:#f7f7f9;}.cls-42{fill:#f6f6f9;}.cls-43{fill:#f6f6f8;}.cls-44{fill:#f5f5f8;}.cls-45{fill:#f5f5f7;}.cls-46{fill:#f4f4f7;}.cls-47{fill:#f3f3f6;}.cls-48{fill:#f3f2f6;}.cls-49{fill:#f2f2f5;}.cls-50{fill:#f1f1f5;}.cls-51{fill:#f0f0f4;}.cls-52{fill:#efeff3;}.cls-53{fill:#eeeef2;}.cls-54{fill:#eeedf2;}.cls-55{fill:#ededf2;}.cls-56{fill:#ececf1;}.cls-57{fill:#ebebf0;}.cls-58{fill:#eaeaf0;}.cls-59{fill:#eaeaef;}.cls-60{fill:#e9e9ef;}.cls-61{fill:#e8e8ee;}.cls-62{fill:#e7e7ed;}.cls-63{fill:#e6e6ed;}.cls-64{fill:#e6e6ec;}.cls-65{fill:#e5e5ec;}.cls-66{fill:#e4e4eb;}.cls-67{fill:#e3e3ea;}.cls-68{fill:#e2e2ea;}.cls-69{fill:#e1e1e9;}.cls-70{fill:#e0e0e8;}.cls-71{fill:#dfdfe7;}.cls-72{fill:#dedee7;}.cls-73{fill:#dedee6;}.cls-74{fill:#dddde6;}.cls-75{fill:#dcdce5;}.cls-76{fill:#dbdbe4;}.cls-77{fill:#dadae4;}.cls-78{fill:#dad9e3;}.cls-79{fill:#d9d9e3;}.cls-80{fill:#d8d8e2;}.cls-81{fill:#d7d7e1;}.cls-82{fill:#d6d6e1;}.cls-83{fill:#d5d5e0;}.cls-84{fill:#d5d4e0;}.cls-85{fill:#d4d4df;}.cls-86{fill:#d3d3de;}.cls-87{fill:#d2d2de;}.cls-88{fill:#d1d1dd;}.cls-89{fill:#d0d0dc;}.cls-90{fill:#cfcfdc;}.cls-91{fill:#cecedb;}.cls-92{fill:#cecdda;}.cls-93{fill:#cdccda;}.cls-94{fill:#cccbd9;}.cls-95{fill:#cbcad8;}.cls-96{fill:#cacad8;}.cls-97{fill:#c9c9d7;}.cls-98{fill:#c8c8d6;}.cls-99{fill:#c7c7d5;}.cls-100{fill:#c6c6d5;}.cls-101{fill:#c5c5d4;}.cls-102{fill:#c4c4d3;}.cls-103{fill:#c3c3d2;}.cls-104{fill:#c2c2d2;}.cls-105{fill:#c1c1d1;}.cls-106{fill:#c0c0d0;}.cls-107{fill:#bfbfcf;}.cls-108{fill:#bebecf;}.cls-109{fill:#bdbdce;}.cls-110{fill:#bcbccd;}.cls-111{fill:#bbbacc;}.cls-112{fill:#bab9cc;}.cls-113{fill:#b9b8cb;}.cls-114{fill:#b8b7ca;}.cls-115{fill:#b7b6c9;}.cls-116{fill:#b5b5c8;}.cls-117{fill:#b4b4c8;}.cls-118{fill:#b3b3c7;}.cls-119{fill:#b2b2c6;}.cls-120{fill:#b1b1c5;}.cls-121{fill:#b0b0c4;}.cls-122{fill:#afafc4;}.cls-123{fill:#aeadc3;}.cls-124{fill:#adacc2;}.cls-125{fill:#ababc1;}.cls-126{fill:#aaaac0;}.cls-127{fill:#a9a9bf;}.cls-128{fill:#a8a8be;}.cls-129{fill:#a7a6be;}.cls-130{fill:#a6a5bd;}.cls-131{fill:#a5a4bc;}.cls-132{fill:#a3a3bb;}.cls-133{fill:#a2a2ba;}.cls-134{fill:#a1a1b9;}.cls-135{fill:#a09fb8;}.cls-136{fill:#9f9eb7;}.cls-137{fill:#9d9db7;}.cls-138{fill:#9c9cb6;}.cls-139{fill:#9b9ab5;}.cls-140{fill:#9a99b4;}.cls-141{fill:#9898b3;}.cls-142{fill:#9797b2;}.cls-143{fill:#9695b1;}.cls-144{fill:#9594b0;}.cls-145{fill:#9393af;}.cls-146{fill:#9292ae;}.cls-147{fill:#9190ad;}.cls-148{fill:#908fac;}.cls-149{fill:#8e8eab;}.cls-150{fill:#8d8caa;}.cls-151{fill:#8c8ba9;}.cls-152{fill:#8a8aa8;}.cls-153{fill:#8989a7;}.cls-154{fill:#8887a6;}.cls-155{fill:#8686a6;}.cls-156{fill:#8585a5;}.cls-157{fill:#8483a4;}.cls-158{fill:#8282a3;}.cls-159{fill:#8180a2;}.cls-160{fill:#807fa1;}.cls-161{fill:#7e7ea0;}.cls-162{fill:#7d7c9e;}.cls-163{fill:#7c7b9d;}.cls-164{fill:#7a7a9c;}.cls-165{fill:#79789b;}.cls-166{fill:#77779a;}.cls-167{fill:#767599;}.cls-168{fill:#757498;}.cls-169{fill:#737397;}.cls-170{fill:#727196;}.cls-171{fill:#707095;}.cls-172{fill:#6f6e94;}.cls-173{fill:#6e6d93;}.cls-174{fill:#6c6b92;}.cls-175{fill:#6b6a91;}.cls-176{fill:#696990;}.cls-177{fill:#68678f;}.cls-178{fill:#66668e;}.cls-179{fill:#65648d;}.cls-180{fill:#63638b;}.cls-181{fill:#62618a;}.cls-182{fill:#606089;}.cls-183{fill:#5f5e88;}.cls-184{fill:#5d5d87;}.cls-185{fill:#5c5b86;}.cls-186{fill:#5a5a85;}.cls-187{fill:#595884;}.cls-188{fill:#575783;}.cls-189{fill:#565581;}.cls-190{fill:#545380;}.cls-191{fill:#53527f;}.cls-192{fill:#51507e;}.cls-193{fill:#504f7d;}.cls-194{fill:#4e4d7c;}.cls-195{fill:#4d4c7b;}.cls-196{fill:#4b4a79;}.cls-197{fill:#494978;}.cls-198{fill:#484777;}.cls-199{fill:#464576;}.cls-200{fill:#454475;}.cls-201{fill:#434274;}.cls-202{fill:#414172;}.cls-203{fill:#403f71;}.cls-204{fill:#3e3d70;}.cls-205{fill:#3d3c6f;}.cls-206{fill:#3b3a6e;}.cls-207{fill:#39386c;}.cls-208{fill:#38376b;}.cls-209{fill:#36356a;}.cls-210{fill:#343469;}.cls-211{fill:#333267;}.cls-212{fill:#313066;}.cls-213{fill:#2f2f65;}.cls-214{fill:#2e2d64;}.cls-215{fill:#2c2b63;}.cls-216{fill:#2a2a61;}.cls-217{fill:#292860;}.cls-218{fill:#27265f;}.cls-219{fill:#25245e;}.cls-220{fill:#24235c;}.cls-221{fill:#22215b;}.cls-222{fill:url(#_ÂÁ_Ï_ÌÌ_È_ËÂÌÚ_277);}.cls-223{fill:url(#_ÂÁ_Ï_ÌÌ_È_ËÂÌÚ_175-3);}.cls-224{fill:url(#_ÂÁ_Ï_ÌÌ_È_ËÂÌÚ_175-4);}</style><radialGradient id="_ÂÁ_Ï_ÌÌ_È_ËÂÌÚ_162" cx="-1331.38" cy="169.6" r="42.98" gradientTransform="matrix(-1, 0, 0, 1, -1273.28, 0)" gradientUnits="userSpaceOnUse"><stop offset="0" stop-color="#f3f3ff"/><stop offset="1" stop-color="#ceceef"/></radialGradient><linearGradient id="_ÂÁ_Ï_ÌÌ_È_ËÂÌÚ_263" x1="-1320.62" y1="387.01" x2="-1320.62" y2="202.65" gradientTransform="matrix(-1, 0, 0, 1, -1273.28, 0)" gradientUnits="userSpaceOnUse"><stop offset="0" stop-color="#161242"/><stop offset="0.2" stop-color="#181546"/><stop offset="0.4" stop-color="#201d52"/><stop offset="0.59" stop-color="#2c2a66"/><stop offset="0.79" stop-color="#3e3c81"/><stop offset="0.99" stop-color="#5454a5"/><stop offset="1" stop-color="#5656a8"/></linearGradient><linearGradient id="_ÂÁ_Ï_ÌÌ_È_ËÂÌÚ_171" x1="-1386.13" y1="368.9" x2="-1306.31" y2="230.63" gradientTransform="matrix(-1, 0, 0, 1, -1273.28, 0)" gradientUnits="userSpaceOnUse"><stop offset="0" stop-color="#161242"/><stop offset="0.4" stop-color="#181446"/><stop offset="0.8" stop-color="#1e1b52"/><stop offset="1" stop-color="#22215b"/></linearGradient><radialGradient id="_ÂÁ_Ï_ÌÌ_È_ËÂÌÚ_162-2" cx="-1354.14" cy="82.06" r="42.98" xlink:href="#_ÂÁ_Ï_ÌÌ_È_ËÂÌÚ_162"/><linearGradient id="_ÂÁ_Ï_ÌÌ_È_ËÂÌÚ_263-2" x1="-1343.38" y1="299.48" x2="-1343.38" y2="115.12" xlink:href="#_ÂÁ_Ï_ÌÌ_È_ËÂÌÚ_263"/><linearGradient id="_ÂÁ_Ï_ÌÌ_È_ËÂÌÚ_171-2" x1="-1408.89" y1="281.36" x2="-1329.06" y2="143.09" xlink:href="#_ÂÁ_Ï_ÌÌ_È_ËÂÌÚ_171"/><linearGradient id="_ÂÁ_Ï_ÌÌ_È_ËÂÌÚ_260" x1="-1502.52" y1="-948.34" x2="-1498.52" y2="-805.68" gradientTransform="matrix(0.87, 0.5, -0.87, 0.5, 768.59, 1283.05)" gradientUnits="userSpaceOnUse"><stop offset="0" stop-color="#161242"/><stop offset="0.09" stop-color="#1e1a49"/><stop offset="0.24" stop-color="#34315c"/><stop offset="0.42" stop-color="#59567b"/><stop offset="0.64" stop-color="#8c8aa7"/><stop offset="0.87" stop-color="#cbcbdd"/><stop offset="1" stop-color="#f3f3ff"/></linearGradient><radialGradient id="_ÂÁ_Ï_ÌÌ_È_ËÂÌÚ_162-3" cx="212.81" cy="-7.2" r="121.55" gradientTransform="matrix(1, 0, 0, 1, 0, 0)" xlink:href="#_ÂÁ_Ï_ÌÌ_È_ËÂÌÚ_162"/><linearGradient id="_ÂÁ_Ï_ÌÌ_È_ËÂÌÚ_171-3" x1="243.26" y1="259.86" x2="243.26" y2="37.79" gradientTransform="matrix(1, 0, 0, 1, 0, 0)" xlink:href="#_ÂÁ_Ï_ÌÌ_È_ËÂÌÚ_171"/><linearGradient id="_ÂÁ_Ï_ÌÌ_È_ËÂÌÚ_263-3" x1="149.28" y1="248.61" x2="245.44" y2="82.06" gradientTransform="matrix(1, 0, 0, 1, 0, 0)" xlink:href="#_ÂÁ_Ï_ÌÌ_È_ËÂÌÚ_263"/><linearGradient id="_ÂÁ_Ï_ÌÌ_È_ËÂÌÚ_175" x1="211.07" y1="368.55" x2="211.07" y2="86.29" gradientUnits="userSpaceOnUse"><stop offset="0" stop-color="#161242"/><stop offset="0.33" stop-color="#6d6a88"/><stop offset="0.66" stop-color="#bbbac8"/><stop offset="0.89" stop-color="#ececf0"/><stop offset="1" stop-color="#fff"/></linearGradient><radialGradient id="_ÂÁ_Ï_ÌÌ_È_ËÂÌÚ_162-4" cx="-1528.64" cy="174.42" r="42.98" xlink:href="#_ÂÁ_Ï_ÌÌ_È_ËÂÌÚ_162"/><linearGradient id="_ÂÁ_Ï_ÌÌ_È_ËÂÌÚ_263-4" x1="-1517.88" y1="391.83" x2="-1517.88" y2="207.47" xlink:href="#_ÂÁ_Ï_ÌÌ_È_ËÂÌÚ_263"/><linearGradient id="_ÂÁ_Ï_ÌÌ_È_ËÂÌÚ_171-4" x1="-1583.4" y1="373.72" x2="-1503.57" y2="235.45" xlink:href="#_ÂÁ_Ï_ÌÌ_È_ËÂÌÚ_171"/><linearGradient id="_ÂÁ_Ï_ÌÌ_È_ËÂÌÚ_175-2" x1="-1529.26" y1="391.83" x2="-1529.26" y2="207.47" gradientTransform="matrix(-1, 0, 0, 1, -1273.28, 0)" xlink:href="#_ÂÁ_Ï_ÌÌ_È_ËÂÌÚ_175"/><linearGradient id="_ÂÁ_Ï_ÌÌ_È_ËÂÌÚ_263-5" x1="285.55" y1="258.3" x2="304.99" y2="110.21" gradientTransform="matrix(1, 0, 0, 1, 0, 0)" xlink:href="#_ÂÁ_Ï_ÌÌ_È_ËÂÌÚ_263"/><linearGradient id="_ÂÁ_Ï_ÌÌ_È_ËÂÌÚ_263-6" x1="121.36" y1="542.93" x2="146.2" y2="438.8" gradientTransform="matrix(0.87, -0.5, 0, 1, -35.73, -132.31)" xlink:href="#_ÂÁ_Ï_ÌÌ_È_ËÂÌÚ_263"/><linearGradient id="_ÂÁ_Ï_ÌÌ_È_ËÂÌÚ_263-7" x1="143.22" y1="569.5" x2="159.92" y2="442.24" gradientTransform="matrix(0.87, -0.5, 0, 1, -35.73, -132.31)" xlink:href="#_ÂÁ_Ï_ÌÌ_È_ËÂÌÚ_263"/><linearGradient id="_ÂÁ_Ï_ÌÌ_È_ËÂÌÚ_260-2" x1="-34.38" y1="334.06" x2="181.62" y2="210.16" gradientTransform="matrix(1, 0, 0, 1, 0, 0)" xlink:href="#_ÂÁ_Ï_ÌÌ_È_ËÂÌÚ_260"/><clipPath id="clip-path"><path class="cls-1" d="M237.1,101.41c-11,6.34-28.8,6.34-39.79,0s-11-16.63,0-23,28.8-6.34,39.79,0S248.09,95.06,237.1,101.41Z"/></clipPath><radialGradient id="_ÂÁ_Ï_ÌÌ_È_ËÂÌÚ_277" cx="189.65" cy="47.07" r="46.5" gradientUnits="userSpaceOnUse"><stop offset="0" stop-color="#5656a8"/><stop offset="0.2" stop-color="#5151a1"/><stop offset="0.49" stop-color="#43438d"/><stop offset="0.84" stop-color="#2d2d6c"/><stop offset="1" stop-color="#22215b"/></radialGradient><linearGradient id="_ÂÁ_Ï_ÌÌ_È_ËÂÌÚ_175-3" x1="-1354.75" y1="254.59" x2="-1354.75" y2="115.12" gradientTransform="matrix(-1, 0, 0, 1, -1273.28, 0)" xlink:href="#_ÂÁ_Ï_ÌÌ_È_ËÂÌÚ_175"/><linearGradient id="_ÂÁ_Ï_ÌÌ_È_ËÂÌÚ_175-4" x1="-1332" y1="268.92" x2="-1332" y2="202.65" gradientTransform="matrix(-1, 0, 0, 1, -1273.28, 0)" xlink:href="#_ÂÁ_Ï_ÌÌ_È_ËÂÌÚ_175"/></defs><title>art@2x</title><g class="cls-2"><g id="Calque_2" data-name="Calque 2"><g id="_ÎÓÈ_1" data-name="—ÎÓÈ_1"><g class="cls-3"><polygon class="cls-4" points="58.72 215.79 81.48 202.65 58.72 189.51 35.96 202.66 58.72 215.79"/><polygon class="cls-5" points="58.72 387.01 58.72 215.79 35.96 202.66 35.96 387.01 58.72 387.01"/><polygon class="cls-6" points="58.72 387.01 58.72 215.79 81.48 202.66 81.48 387.01 58.72 387.01"/></g><g class="cls-3"><polygon class="cls-7" points="81.48 128.26 104.24 115.12 81.48 101.98 58.72 115.12 81.48 128.26"/><polygon class="cls-8" points="81.48 299.48 81.48 128.26 58.72 115.12 58.72 299.48 81.48 299.48"/><polygon class="cls-9" points="81.48 299.48 81.48 128.26 104.24 115.12 104.24 299.48 81.48 299.48"/></g><g class="cls-10"><path class="cls-11" d="M275.44,165.43v-19.1L304,129.82c29.19-16.85,29.19-44.27,0-61.12L201.58,9.55,218.12,0,320.57,59.15c38.31,22.12,38.31,58.11,0,80.22Z"/></g><polygon class="cls-12" points="211.07 123.45 146.71 86.29 211.07 49.13 275.44 86.29 211.07 123.45"/><polygon class="cls-13" points="211.07 308.36 211.07 123.45 275.44 86.29 275.44 308.36 211.07 308.36"/><polygon class="cls-14" points="211.07 308.36 211.07 123.45 146.71 86.29 146.71 308.36 211.07 308.36"/><polygon class="cls-15" points="210.66 368.55 211.93 123.98 275.44 86.29 211.07 122.42 146.71 86.29 210.17 123.94 210.66 368.55"/><g class="cls-3"><polygon class="cls-16" points="255.98 220.62 278.74 207.47 255.98 194.34 233.22 207.47 255.98 220.62"/><polygon class="cls-17" points="255.98 391.83 255.98 220.62 233.22 207.47 233.22 391.83 255.98 391.83"/><polygon class="cls-18" points="255.98 391.83 255.98 220.62 278.74 207.47 278.74 391.83 255.98 391.83"/><polygon class="cls-19" points="256.13 391.83 255.68 220.8 233.22 207.47 255.98 220.25 278.74 207.47 256.3 220.79 256.13 391.83"/></g><path class="cls-20" d="M275.24,165.49V322.71l3.4-2V176.35a11.61,11.61,0,0,1,5.25-9.1h0c2.9-1.68,5.25-.32,5.25,3v144.4l3.4-2V160l3.23-1.87v-2.21l27.83-16.07v-2.24Z"/><path class="cls-21" d="M183.35,217.07l-14.27-8.24v-15c0-4.89,3-7.14,6.64-5l1,.57c3.67,2.12,6.64,7.8,6.64,12.69Z"/><path class="cls-22" d="M169.08,208.9,0,306.51v2.24l20.47-11.82v2.21l3.23-1.87V415.41l3.4-2V303.69a11.61,11.61,0,0,1,5.25-9.1h0c2.9-1.68,5.25-.32,5.25,3V407.38l3.4-2V287.29l3.23-1.87v-2.21L69,268.93v2.21l3.23-1.87V394.59l3.4-2V275.68a11.61,11.61,0,0,1,5.25-9.1h0c2.9-1.68,5.25-.32,5.25,3V386.56l3.4-2V259.28l3.23-1.87v-2.21l24.74-14.28v2.21l3.23-1.87V407.21l3.4-2V247.68a11.61,11.61,0,0,1,5.25-9.1h0c2.9-1.68,5.25-.32,5.25,3V399.18l3.4-2V231.28l3.23-1.87V227.2l27.83-16.07Z"/><path class="cls-23" d="M183.35,217.07,14.27,314.68v2.24l20.47-11.82v2.21L38,305.45V417.2l3.4-2V311.86a11.61,11.61,0,0,1,5.25-9.1h0c2.9-1.68,5.25-.32,5.25,3V409.17l3.4-2V295.46l3.23-1.87v-2.21L83.25,277.1v2.21l3.23-1.87V407.21l3.4-2V283.85a11.61,11.61,0,0,1,5.25-9.1h0c2.9-1.68,5.25-.32,5.25,3V399.18l3.4-2V267.46l3.23-1.87v-2.21l24.74-14.28v2.21l3.23-1.87V402.21l3.4-2V255.85a11.61,11.61,0,0,1,5.25-9.1h0c2.9-1.68,5.25-.32,5.25,3v144.4l3.4-2V239.45l3.23-1.87v-2.21l27.83-16.07Z"/><path class="cls-24" d="M183.27,200.73l-14.19,8.1L0,306.51l14.27,8.17,169.08-97.62v-15A13.09,13.09,0,0,0,183.27,200.73Z"/><g class="cls-25"><g class="cls-26"><rect class="cls-27" x="186.32" y="72.09" width="61.77" height="35.66"/><ellipse class="cls-27" cx="217.2" cy="89.92" rx="13.44" ry="26.69" transform="translate(126.95 306.98) rotate(-89.91)"/><ellipse class="cls-27" cx="217.2" cy="89.92" rx="13.38" ry="26.57" transform="translate(126.95 306.98) rotate(-89.91)"/><ellipse class="cls-27" cx="217.2" cy="89.92" rx="13.32" ry="26.45" transform="translate(126.95 306.98) rotate(-89.91)"/><ellipse class="cls-27" cx="217.2" cy="89.92" rx="13.26" ry="26.33" transform="translate(126.95 306.98) rotate(-89.91)"/><ellipse class="cls-27" cx="217.2" cy="89.92" rx="13.2" ry="26.21" transform="translate(126.95 306.98) rotate(-89.91)"/><ellipse class="cls-27" cx="217.2" cy="89.92" rx="13.14" ry="26.09" transform="translate(126.95 306.98) rotate(-89.91)"/><ellipse class="cls-27" cx="217.2" cy="89.92" rx="13.08" ry="25.97" transform="translate(126.95 306.98) rotate(-89.91)"/><ellipse class="cls-28" cx="217.2" cy="89.92" rx="13.02" ry="25.85" transform="translate(126.95 306.98) rotate(-89.91)"/><ellipse class="cls-29" cx="217.2" cy="89.92" rx="12.96" ry="25.73" transform="translate(126.95 306.98) rotate(-89.91)"/><ellipse class="cls-29" cx="217.2" cy="89.92" rx="12.89" ry="25.61" transform="translate(126.95 306.98) rotate(-89.91)"/><ellipse class="cls-29" cx="217.2" cy="89.92" rx="12.83" ry="25.48" transform="translate(126.95 306.98) rotate(-89.91)"/><ellipse class="cls-29" cx="217.2" cy="89.92" rx="12.77" ry="25.36" transform="translate(126.95 306.98) rotate(-89.91)"/><ellipse class="cls-30" cx="217.2" cy="89.92" rx="12.71" ry="25.24" transform="translate(126.95 306.98) rotate(-89.91)"/><ellipse class="cls-30" cx="217.2" cy="89.92" rx="12.65" ry="25.12" transform="translate(126.95 306.98) rotate(-89.91)"/><ellipse class="cls-30" cx="217.2" cy="89.92" rx="12.59" ry="25" transform="translate(126.95 306.98) rotate(-89.91)"/><ellipse class="cls-31" cx="217.2" cy="89.92" rx="12.53" ry="24.88" transform="translate(126.95 306.98) rotate(-89.91)"/><ellipse class="cls-32" cx="217.2" cy="89.92" rx="12.47" ry="24.76" transform="translate(126.95 306.98) rotate(-89.91)"/><ellipse class="cls-33" cx="217.2" cy="89.92" rx="12.41" ry="24.64" transform="translate(126.95 306.98) rotate(-89.91)"/><ellipse class="cls-33" cx="217.2" cy="89.92" rx="12.35" ry="24.52" transform="translate(126.95 306.98) rotate(-89.91)"/><ellipse class="cls-33" cx="217.2" cy="89.92" rx="12.29" ry="24.4" transform="translate(126.95 306.98) rotate(-89.91)"/><ellipse class="cls-34" cx="217.2" cy="89.92" rx="12.23" ry="24.28" transform="translate(126.95 306.98) rotate(-89.91)"/><ellipse class="cls-34" cx="217.2" cy="89.92" rx="12.17" ry="24.16" transform="translate(126.95 306.98) rotate(-89.91)"/><ellipse class="cls-34" cx="217.2" cy="89.92" rx="12.11" ry="24.04" transform="translate(126.95 306.98) rotate(-89.91)"/><ellipse class="cls-35" cx="217.2" cy="89.92" rx="12.05" ry="23.92" transform="translate(126.95 306.98) rotate(-89.91)"/><ellipse class="cls-36" cx="217.2" cy="89.92" rx="11.99" ry="23.8" transform="translate(126.95 306.98) rotate(-89.91)"/><ellipse class="cls-36" cx="217.2" cy="89.92" rx="11.93" ry="23.68" transform="translate(126.95 306.98) rotate(-89.91)"/><ellipse class="cls-37" cx="217.2" cy="89.92" rx="11.87" ry="23.56" transform="translate(126.95 306.98) rotate(-89.91)"/><ellipse class="cls-38" cx="217.2" cy="89.92" rx="11.81" ry="23.44" transform="translate(126.95 306.98) rotate(-89.91)"/><ellipse class="cls-39" cx="217.2" cy="89.92" rx="11.74" ry="23.32" transform="translate(126.95 306.98) rotate(-89.91)"/><ellipse class="cls-40" cx="217.2" cy="89.92" rx="11.68" ry="23.2" transform="translate(126.95 306.98) rotate(-89.91)"/><ellipse class="cls-40" cx="217.2" cy="89.92" rx="11.62" ry="23.08" transform="translate(126.95 306.98) rotate(-89.91)"/><ellipse class="cls-41" cx="217.2" cy="89.92" rx="11.56" ry="22.96" transform="translate(126.95 306.98) rotate(-89.91)"/><ellipse class="cls-41" cx="217.2" cy="89.92" rx="11.5" ry="22.84" transform="translate(126.95 306.98) rotate(-89.91)"/><ellipse class="cls-42" cx="217.2" cy="89.92" rx="11.44" ry="22.72" transform="translate(126.95 306.98) rotate(-89.91)"/><ellipse class="cls-43" cx="217.2" cy="89.92" rx="11.38" ry="22.6" transform="translate(126.95 306.98) rotate(-89.91)"/><ellipse class="cls-44" cx="217.2" cy="89.92" rx="11.32" ry="22.48" transform="translate(126.95 306.98) rotate(-89.91)"/><ellipse class="cls-44" cx="217.2" cy="89.92" rx="11.26" ry="22.36" transform="translate(126.95 306.98) rotate(-89.91)"/><ellipse class="cls-45" cx="217.2" cy="89.92" rx="11.2" ry="22.24" transform="translate(126.95 306.98) rotate(-89.91)"/><ellipse class="cls-46" cx="217.2" cy="89.92" rx="11.14" ry="22.12" transform="translate(126.95 306.98) rotate(-89.91)"/><ellipse class="cls-46" cx="217.2" cy="89.92" rx="11.08" ry="22" transform="translate(126.95 306.98) rotate(-89.91)"/><ellipse class="cls-47" cx="217.2" cy="89.92" rx="11.02" ry="21.88" transform="translate(126.95 306.98) rotate(-89.91)"/><ellipse class="cls-48" cx="217.2" cy="89.92" rx="10.96" ry="21.76" transform="matrix(0, -1, 1, 0, 126.95, 306.98)"/><ellipse class="cls-49" cx="217.2" cy="89.92" rx="10.9" ry="21.64" transform="translate(126.95 306.98) rotate(-89.91)"/><ellipse class="cls-50" cx="217.2" cy="89.92" rx="10.84" ry="21.52" transform="translate(126.95 306.98) rotate(-89.91)"/><ellipse class="cls-50" cx="217.2" cy="89.92" rx="10.78" ry="21.4" transform="translate(126.95 306.98) rotate(-89.91)"/><ellipse class="cls-51" cx="217.2" cy="89.92" rx="10.72" ry="21.28" transform="translate(126.95 306.98) rotate(-89.91)"/><ellipse class="cls-51" cx="217.2" cy="89.92" rx="10.65" ry="21.16" transform="translate(126.95 306.98) rotate(-89.91)"/><ellipse class="cls-52" cx="217.2" cy="89.92" rx="10.59" ry="21.04" transform="translate(126.95 306.98) rotate(-89.91)"/><ellipse class="cls-52" cx="217.2" cy="89.92" rx="10.53" ry="20.92" transform="translate(126.95 306.98) rotate(-89.91)"/><ellipse class="cls-53" cx="217.2" cy="89.92" rx="10.47" ry="20.8" transform="translate(126.95 306.98) rotate(-89.91)"/><ellipse class="cls-54" cx="217.2" cy="89.92" rx="10.41" ry="20.68" transform="translate(126.95 306.98) rotate(-89.91)"/><ellipse class="cls-55" cx="217.2" cy="89.92" rx="10.35" ry="20.56" transform="translate(126.95 306.98) rotate(-89.91)"/><ellipse class="cls-56" cx="217.2" cy="89.92" rx="10.29" ry="20.44" transform="translate(126.95 306.98) rotate(-89.91)"/><ellipse class="cls-56" cx="217.2" cy="89.92" rx="10.23" ry="20.32" transform="translate(126.95 306.98) rotate(-89.91)"/><ellipse class="cls-57" cx="217.2" cy="89.92" rx="10.17" ry="20.2" transform="translate(126.95 306.98) rotate(-89.91)"/><ellipse class="cls-58" cx="217.2" cy="89.92" rx="10.11" ry="20.08" transform="translate(126.95 306.98) rotate(-89.91)"/><ellipse class="cls-59" cx="217.2" cy="89.92" rx="10.05" ry="19.96" transform="translate(126.95 306.98) rotate(-89.91)"/><ellipse class="cls-60" cx="217.2" cy="89.92" rx="9.99" ry="19.83" transform="translate(126.95 306.98) rotate(-89.91)"/><ellipse class="cls-61" cx="217.2" cy="89.92" rx="9.93" ry="19.71" transform="translate(126.95 306.98) rotate(-89.91)"/><ellipse class="cls-61" cx="217.2" cy="89.92" rx="9.87" ry="19.59" transform="translate(126.95 306.98) rotate(-89.91)"/><ellipse class="cls-62" cx="217.2" cy="89.92" rx="9.81" ry="19.47" transform="translate(126.95 306.98) rotate(-89.91)"/><ellipse class="cls-63" cx="217.2" cy="89.92" rx="9.75" ry="19.35" transform="translate(126.95 306.98) rotate(-89.91)"/><ellipse class="cls-64" cx="217.2" cy="89.92" rx="9.69" ry="19.23" transform="translate(126.95 306.98) rotate(-89.91)"/><ellipse class="cls-65" cx="217.2" cy="89.92" rx="9.63" ry="19.11" transform="translate(126.95 306.98) rotate(-89.91)"/><ellipse class="cls-66" cx="217.2" cy="89.92" rx="9.57" ry="18.99" transform="translate(126.95 306.98) rotate(-89.91)"/><ellipse class="cls-66" cx="217.2" cy="89.92" rx="9.5" ry="18.87" transform="translate(126.95 306.98) rotate(-89.91)"/><ellipse class="cls-67" cx="217.2" cy="89.92" rx="9.44" ry="18.75" transform="translate(126.95 306.98) rotate(-89.91)"/><ellipse class="cls-68" cx="217.2" cy="89.92" rx="9.38" ry="18.63" transform="translate(126.95 306.98) rotate(-89.91)"/><ellipse class="cls-69" cx="217.2" cy="89.92" rx="9.32" ry="18.51" transform="translate(126.95 306.98) rotate(-89.91)"/><ellipse class="cls-69" cx="217.2" cy="89.92" rx="9.26" ry="18.39" transform="translate(126.95 306.98) rotate(-89.91)"/><ellipse class="cls-70" cx="217.2" cy="89.92" rx="9.2" ry="18.27" transform="translate(126.95 306.98) rotate(-89.91)"/><ellipse class="cls-71" cx="217.2" cy="89.92" rx="9.14" ry="18.15" transform="translate(126.95 306.98) rotate(-89.91)"/><ellipse class="cls-72" cx="217.2" cy="89.92" rx="9.08" ry="18.03" transform="translate(126.95 306.98) rotate(-89.91)"/><ellipse class="cls-73" cx="217.2" cy="89.92" rx="9.02" ry="17.91" transform="translate(126.95 306.98) rotate(-89.91)"/><ellipse class="cls-74" cx="217.2" cy="89.92" rx="8.96" ry="17.79" transform="translate(126.95 306.98) rotate(-89.91)"/><ellipse class="cls-75" cx="217.2" cy="89.92" rx="8.9" ry="17.67" transform="translate(126.95 306.98) rotate(-89.91)"/><ellipse class="cls-76" cx="217.2" cy="89.92" rx="8.84" ry="17.55" transform="translate(126.95 306.98) rotate(-89.91)"/><ellipse class="cls-77" cx="217.2" cy="89.92" rx="8.78" ry="17.43" transform="matrix(0, -1, 1, 0, 126.95, 306.98)"/><ellipse class="cls-78" cx="217.2" cy="89.92" rx="8.72" ry="17.31" transform="translate(126.95 306.98) rotate(-89.91)"/><ellipse class="cls-79" cx="217.2" cy="89.92" rx="8.66" ry="17.19" transform="translate(126.95 306.98) rotate(-89.91)"/><ellipse class="cls-80" cx="217.2" cy="89.92" rx="8.6" ry="17.07" transform="translate(126.95 306.98) rotate(-89.91)"/><ellipse class="cls-81" cx="217.2" cy="89.92" rx="8.54" ry="16.95" transform="translate(126.95 306.98) rotate(-89.91)"/><ellipse class="cls-82" cx="217.2" cy="89.92" rx="8.48" ry="16.83" transform="translate(126.95 306.98) rotate(-89.91)"/><ellipse class="cls-83" cx="217.2" cy="89.92" rx="8.41" ry="16.71" transform="translate(126.95 306.98) rotate(-89.91)"/><ellipse class="cls-84" cx="217.2" cy="89.92" rx="8.35" ry="16.59" transform="translate(126.95 306.98) rotate(-89.91)"/><ellipse class="cls-85" cx="217.2" cy="89.92" rx="8.29" ry="16.47" transform="translate(126.95 306.98) rotate(-89.91)"/><ellipse class="cls-86" cx="217.2" cy="89.92" rx="8.23" ry="16.35" transform="translate(126.95 306.98) rotate(-89.91)"/><ellipse class="cls-87" cx="217.2" cy="89.92" rx="8.17" ry="16.23" transform="translate(126.95 306.98) rotate(-89.91)"/><ellipse class="cls-88" cx="217.2" cy="89.92" rx="8.11" ry="16.11" transform="translate(126.95 306.98) rotate(-89.91)"/><ellipse class="cls-89" cx="217.2" cy="89.92" rx="8.05" ry="15.99" transform="translate(126.95 306.98) rotate(-89.91)"/><ellipse class="cls-90" cx="217.2" cy="89.92" rx="7.99" ry="15.87" transform="translate(126.95 306.98) rotate(-89.91)"/><ellipse class="cls-91" cx="217.2" cy="89.92" rx="7.93" ry="15.75" transform="translate(126.95 306.98) rotate(-89.91)"/><ellipse class="cls-92" cx="217.2" cy="89.92" rx="7.87" ry="15.63" transform="translate(126.95 306.98) rotate(-89.91)"/><ellipse class="cls-93" cx="217.2" cy="89.92" rx="7.81" ry="15.51" transform="translate(126.95 306.98) rotate(-89.91)"/><ellipse class="cls-94" cx="217.2" cy="89.92" rx="7.75" ry="15.39" transform="translate(126.95 306.98) rotate(-89.91)"/><ellipse class="cls-95" cx="217.2" cy="89.92" rx="7.69" ry="15.27" transform="translate(126.95 306.98) rotate(-89.91)"/><ellipse class="cls-96" cx="217.2" cy="89.92" rx="7.63" ry="15.15" transform="translate(126.95 306.98) rotate(-89.91)"/><ellipse class="cls-97" cx="217.2" cy="89.92" rx="7.57" ry="15.03" transform="translate(126.95 306.98) rotate(-89.91)"/><ellipse class="cls-98" cx="217.2" cy="89.92" rx="7.51" ry="14.91" transform="translate(126.95 306.98) rotate(-89.91)"/><ellipse class="cls-99" cx="217.2" cy="89.92" rx="7.45" ry="14.79" transform="translate(126.95 306.98) rotate(-89.91)"/><ellipse class="cls-100" cx="217.2" cy="89.92" rx="7.39" ry="14.67" transform="translate(126.95 306.98) rotate(-89.91)"/><ellipse class="cls-101" cx="217.2" cy="89.92" rx="7.33" ry="14.55" transform="translate(126.95 306.98) rotate(-89.91)"/><ellipse class="cls-102" cx="217.2" cy="89.92" rx="7.26" ry="14.43" transform="translate(126.95 306.98) rotate(-89.91)"/><ellipse class="cls-103" cx="217.2" cy="89.92" rx="7.2" ry="14.31" transform="translate(126.95 306.98) rotate(-89.91)"/><ellipse class="cls-104" cx="217.2" cy="89.92" rx="7.14" ry="14.18" transform="translate(126.95 306.98) rotate(-89.91)"/><ellipse class="cls-105" cx="217.2" cy="89.92" rx="7.08" ry="14.06" transform="translate(126.95 306.98) rotate(-89.91)"/><ellipse class="cls-106" cx="217.2" cy="89.92" rx="7.02" ry="13.94" transform="translate(126.95 306.98) rotate(-89.91)"/><ellipse class="cls-107" cx="217.2" cy="89.92" rx="6.96" ry="13.82" transform="translate(126.95 306.98) rotate(-89.91)"/><ellipse class="cls-108" cx="217.2" cy="89.92" rx="6.9" ry="13.7" transform="translate(126.95 306.98) rotate(-89.91)"/><ellipse class="cls-109" cx="217.2" cy="89.92" rx="6.84" ry="13.58" transform="translate(126.95 306.98) rotate(-89.91)"/><ellipse class="cls-110" cx="217.2" cy="89.92" rx="6.78" ry="13.46" transform="translate(126.95 306.98) rotate(-89.91)"/><ellipse class="cls-111" cx="217.2" cy="89.92" rx="6.72" ry="13.34" transform="translate(126.95 306.98) rotate(-89.91)"/><ellipse class="cls-112" cx="217.2" cy="89.92" rx="6.66" ry="13.22" transform="translate(126.95 306.98) rotate(-89.91)"/><ellipse class="cls-113" cx="217.2" cy="89.92" rx="6.6" ry="13.1" transform="matrix(0, -1, 1, 0, 126.95, 306.98)"/><ellipse class="cls-114" cx="217.2" cy="89.92" rx="6.54" ry="12.98" transform="translate(126.95 306.98) rotate(-89.91)"/><ellipse class="cls-115" cx="217.2" cy="89.92" rx="6.48" ry="12.86" transform="translate(126.95 306.98) rotate(-89.91)"/><ellipse class="cls-116" cx="217.2" cy="89.92" rx="6.42" ry="12.74" transform="translate(126.95 306.98) rotate(-89.91)"/><ellipse class="cls-117" cx="217.2" cy="89.92" rx="6.36" ry="12.62" transform="translate(126.95 306.98) rotate(-89.91)"/><ellipse class="cls-118" cx="217.2" cy="89.92" rx="6.3" ry="12.5" transform="translate(126.95 306.98) rotate(-89.91)"/><ellipse class="cls-119" cx="217.2" cy="89.92" rx="6.24" ry="12.38" transform="translate(126.95 306.98) rotate(-89.91)"/><ellipse class="cls-120" cx="217.2" cy="89.92" rx="6.18" ry="12.26" transform="translate(126.95 306.98) rotate(-89.91)"/><ellipse class="cls-121" cx="217.2" cy="89.92" rx="6.11" ry="12.14" transform="translate(126.95 306.98) rotate(-89.91)"/><ellipse class="cls-122" cx="217.2" cy="89.92" rx="6.05" ry="12.02" transform="translate(126.95 306.98) rotate(-89.91)"/><ellipse class="cls-123" cx="217.2" cy="89.92" rx="5.99" ry="11.9" transform="translate(126.95 306.98) rotate(-89.91)"/><ellipse class="cls-124" cx="217.2" cy="89.92" rx="5.93" ry="11.78" transform="translate(126.95 306.98) rotate(-89.91)"/><ellipse class="cls-125" cx="217.2" cy="89.92" rx="5.87" ry="11.66" transform="translate(126.95 306.98) rotate(-89.91)"/><ellipse class="cls-126" cx="217.2" cy="89.92" rx="5.81" ry="11.54" transform="translate(126.95 306.98) rotate(-89.91)"/><ellipse class="cls-127" cx="217.2" cy="89.92" rx="5.75" ry="11.42" transform="translate(126.95 306.98) rotate(-89.91)"/><ellipse class="cls-128" cx="217.2" cy="89.92" rx="5.69" ry="11.3" transform="translate(126.95 306.98) rotate(-89.91)"/><ellipse class="cls-129" cx="217.2" cy="89.92" rx="5.63" ry="11.18" transform="translate(126.95 306.98) rotate(-89.91)"/><ellipse class="cls-130" cx="217.2" cy="89.92" rx="5.57" ry="11.06" transform="translate(126.95 306.98) rotate(-89.91)"/><ellipse class="cls-131" cx="217.2" cy="89.92" rx="5.51" ry="10.94" transform="translate(126.95 306.98) rotate(-89.91)"/><ellipse class="cls-132" cx="217.2" cy="89.92" rx="5.45" ry="10.82" transform="matrix(0, -1, 1, 0, 126.95, 306.98)"/><ellipse class="cls-133" cx="217.2" cy="89.92" rx="5.39" ry="10.7" transform="translate(126.95 306.98) rotate(-89.91)"/><ellipse class="cls-134" cx="217.2" cy="89.92" rx="5.33" ry="10.58" transform="translate(126.95 306.98) rotate(-89.91)"/><ellipse class="cls-135" cx="217.2" cy="89.92" rx="5.27" ry="10.46" transform="matrix(0, -1, 1, 0, 126.95, 306.98)"/><ellipse class="cls-136" cx="217.2" cy="89.92" rx="5.21" ry="10.34" transform="translate(126.95 306.98) rotate(-89.91)"/><ellipse class="cls-137" cx="217.2" cy="89.92" rx="5.15" ry="10.22" transform="translate(126.95 306.98) rotate(-89.91)"/><ellipse class="cls-138" cx="217.2" cy="89.92" rx="5.09" ry="10.1" transform="translate(126.95 306.98) rotate(-89.91)"/><ellipse class="cls-139" cx="217.2" cy="89.92" rx="5.02" ry="9.98" transform="translate(126.95 306.98) rotate(-89.91)"/><ellipse class="cls-140" cx="217.2" cy="89.92" rx="4.96" ry="9.86" transform="translate(126.95 306.98) rotate(-89.91)"/><ellipse class="cls-141" cx="217.2" cy="89.92" rx="4.9" ry="9.74" transform="translate(126.95 306.98) rotate(-89.91)"/><ellipse class="cls-142" cx="217.2" cy="89.92" rx="4.84" ry="9.62" transform="translate(126.95 306.98) rotate(-89.91)"/><ellipse class="cls-143" cx="217.2" cy="89.92" rx="4.78" ry="9.5" transform="translate(126.95 306.98) rotate(-89.91)"/><ellipse class="cls-144" cx="217.2" cy="89.92" rx="4.72" ry="9.38" transform="translate(126.95 306.98) rotate(-89.91)"/><ellipse class="cls-145" cx="217.2" cy="89.92" rx="4.66" ry="9.26" transform="matrix(0, -1, 1, 0, 126.95, 306.98)"/><ellipse class="cls-146" cx="217.2" cy="89.92" rx="4.6" ry="9.14" transform="translate(126.95 306.98) rotate(-89.91)"/><ellipse class="cls-147" cx="217.2" cy="89.92" rx="4.54" ry="9.02" transform="matrix(0, -1, 1, 0, 126.95, 306.98)"/><ellipse class="cls-148" cx="217.2" cy="89.92" rx="4.48" ry="8.9" transform="translate(126.95 306.98) rotate(-89.91)"/><ellipse class="cls-149" cx="217.2" cy="89.92" rx="4.42" ry="8.78" transform="translate(126.95 306.98) rotate(-89.91)"/><ellipse class="cls-150" cx="217.2" cy="89.92" rx="4.36" ry="8.66" transform="translate(126.95 306.98) rotate(-89.91)"/><ellipse class="cls-151" cx="217.2" cy="89.92" rx="4.3" ry="8.54" transform="translate(126.95 306.98) rotate(-89.91)"/><ellipse class="cls-152" cx="217.2" cy="89.92" rx="4.24" ry="8.41" transform="translate(126.95 306.98) rotate(-89.91)"/><ellipse class="cls-153" cx="217.2" cy="89.92" rx="4.18" ry="8.29" transform="translate(126.95 306.98) rotate(-89.91)"/><ellipse class="cls-154" cx="217.2" cy="89.92" rx="4.12" ry="8.17" transform="translate(126.95 306.98) rotate(-89.91)"/><ellipse class="cls-155" cx="217.2" cy="89.92" rx="4.06" ry="8.05" transform="translate(126.95 306.98) rotate(-89.91)"/><ellipse class="cls-156" cx="217.2" cy="89.92" rx="4" ry="7.93" transform="translate(126.95 306.98) rotate(-89.91)"/><ellipse class="cls-157" cx="217.2" cy="89.92" rx="3.94" ry="7.81" transform="translate(126.95 306.98) rotate(-89.91)"/><ellipse class="cls-158" cx="217.2" cy="89.92" rx="3.87" ry="7.69" transform="translate(126.95 306.98) rotate(-89.91)"/><ellipse class="cls-159" cx="217.2" cy="89.92" rx="3.81" ry="7.57" transform="translate(126.95 306.98) rotate(-89.91)"/><ellipse class="cls-160" cx="217.2" cy="89.92" rx="3.75" ry="7.45" transform="translate(126.95 306.98) rotate(-89.91)"/><ellipse class="cls-161" cx="217.2" cy="89.92" rx="3.69" ry="7.33" transform="translate(126.95 306.98) rotate(-89.91)"/><ellipse class="cls-162" cx="217.2" cy="89.92" rx="3.63" ry="7.21" transform="translate(126.95 306.98) rotate(-89.91)"/><ellipse class="cls-163" cx="217.2" cy="89.92" rx="3.57" ry="7.09" transform="translate(126.95 306.98) rotate(-89.91)"/><ellipse class="cls-164" cx="217.2" cy="89.92" rx="3.51" ry="6.97" transform="translate(126.95 306.98) rotate(-89.91)"/><ellipse class="cls-165" cx="217.2" cy="89.92" rx="3.45" ry="6.85" transform="translate(126.95 306.98) rotate(-89.91)"/><ellipse class="cls-166" cx="217.2" cy="89.92" rx="3.39" ry="6.73" transform="translate(126.95 306.98) rotate(-89.91)"/><ellipse class="cls-167" cx="217.2" cy="89.92" rx="3.33" ry="6.61" transform="translate(126.95 306.98) rotate(-89.91)"/><ellipse class="cls-168" cx="217.2" cy="89.92" rx="3.27" ry="6.49" transform="translate(126.95 306.98) rotate(-89.91)"/><ellipse class="cls-169" cx="217.2" cy="89.92" rx="3.21" ry="6.37" transform="translate(126.95 306.98) rotate(-89.91)"/><ellipse class="cls-170" cx="217.2" cy="89.92" rx="3.15" ry="6.25" transform="translate(126.95 306.98) rotate(-89.91)"/><ellipse class="cls-171" cx="217.2" cy="89.92" rx="3.09" ry="6.13" transform="translate(126.95 306.98) rotate(-89.91)"/><ellipse class="cls-172" cx="217.2" cy="89.92" rx="3.03" ry="6.01" transform="translate(126.95 306.98) rotate(-89.91)"/><ellipse class="cls-173" cx="217.2" cy="89.92" rx="2.97" ry="5.89" transform="translate(126.95 306.98) rotate(-89.91)"/><ellipse class="cls-174" cx="217.2" cy="89.92" rx="2.91" ry="5.77" transform="translate(126.95 306.98) rotate(-89.91)"/><ellipse class="cls-175" cx="217.2" cy="89.92" rx="2.85" ry="5.65" transform="translate(126.95 306.98) rotate(-89.91)"/><ellipse class="cls-176" cx="217.2" cy="89.92" rx="2.78" ry="5.53" transform="translate(126.95 306.98) rotate(-89.91)"/><ellipse class="cls-177" cx="217.2" cy="89.92" rx="2.72" ry="5.41" transform="translate(126.95 306.98) rotate(-89.91)"/><ellipse class="cls-178" cx="217.2" cy="89.92" rx="2.66" ry="5.29" transform="translate(126.95 306.98) rotate(-89.91)"/><ellipse class="cls-179" cx="217.2" cy="89.92" rx="2.6" ry="5.17" transform="translate(126.95 306.98) rotate(-89.91)"/><ellipse class="cls-180" cx="217.2" cy="89.92" rx="2.54" ry="5.05" transform="translate(126.95 306.98) rotate(-89.91)"/><ellipse class="cls-181" cx="217.2" cy="89.92" rx="2.48" ry="4.93" transform="translate(126.95 306.98) rotate(-89.91)"/><ellipse class="cls-182" cx="217.2" cy="89.92" rx="2.42" ry="4.81" transform="translate(126.95 306.98) rotate(-89.91)"/><ellipse class="cls-183" cx="217.2" cy="89.92" rx="2.36" ry="4.69" transform="translate(126.95 306.98) rotate(-89.91)"/><ellipse class="cls-184" cx="217.2" cy="89.92" rx="2.3" ry="4.57" transform="translate(126.95 306.98) rotate(-89.91)"/><ellipse class="cls-185" cx="217.2" cy="89.92" rx="2.24" ry="4.45" transform="translate(126.95 306.98) rotate(-89.91)"/><ellipse class="cls-186" cx="217.2" cy="89.92" rx="2.18" ry="4.33" transform="translate(126.95 306.98) rotate(-89.91)"/><ellipse class="cls-187" cx="217.2" cy="89.92" rx="2.12" ry="4.21" transform="translate(126.95 306.98) rotate(-89.91)"/><ellipse class="cls-188" cx="217.2" cy="89.92" rx="2.06" ry="4.09" transform="translate(126.95 306.98) rotate(-89.91)"/><ellipse class="cls-189" cx="217.2" cy="89.92" rx="2" ry="3.97" transform="translate(126.95 306.98) rotate(-89.91)"/><ellipse class="cls-190" cx="217.2" cy="89.92" rx="1.94" ry="3.85" transform="translate(126.95 306.98) rotate(-89.91)"/><ellipse class="cls-191" cx="217.2" cy="89.92" rx="1.88" ry="3.73" transform="translate(126.95 306.98) rotate(-89.91)"/><ellipse class="cls-192" cx="217.2" cy="89.92" rx="1.82" ry="3.61" transform="matrix(0, -1, 1, 0, 126.95, 306.98)"/><ellipse class="cls-193" cx="217.2" cy="89.92" rx="1.76" ry="3.49" transform="translate(126.95 306.98) rotate(-89.91)"/><ellipse class="cls-194" cx="217.2" cy="89.92" rx="1.7" ry="3.37" transform="translate(126.95 306.98) rotate(-89.91)"/><ellipse class="cls-195" cx="217.2" cy="89.92" rx="1.63" ry="3.25" transform="translate(126.95 306.98) rotate(-89.91)"/><ellipse class="cls-196" cx="217.2" cy="89.92" rx="1.57" ry="3.13" transform="matrix(0, -1, 1, 0, 126.95, 306.98)"/><ellipse class="cls-197" cx="217.2" cy="89.92" rx="1.51" ry="3.01" transform="translate(126.95 306.98) rotate(-89.91)"/><ellipse class="cls-198" cx="217.2" cy="89.92" rx="1.45" ry="2.89" transform="translate(126.95 306.98) rotate(-89.91)"/><ellipse class="cls-199" cx="217.2" cy="89.92" rx="1.39" ry="2.76" transform="translate(126.95 306.98) rotate(-89.91)"/><ellipse class="cls-200" cx="217.2" cy="89.92" rx="1.33" ry="2.64" transform="translate(126.95 306.98) rotate(-89.91)"/><ellipse class="cls-201" cx="217.2" cy="89.92" rx="1.27" ry="2.52" transform="translate(126.95 306.98) rotate(-89.91)"/><ellipse class="cls-202" cx="217.2" cy="89.92" rx="1.21" ry="2.4" transform="translate(126.95 306.98) rotate(-89.91)"/><ellipse class="cls-203" cx="217.2" cy="89.92" rx="1.15" ry="2.28" transform="translate(126.95 306.98) rotate(-89.91)"/><ellipse class="cls-204" cx="217.2" cy="89.92" rx="1.09" ry="2.16" transform="translate(126.95 306.98) rotate(-89.91)"/><ellipse class="cls-205" cx="217.2" cy="89.92" rx="1.03" ry="2.04" transform="translate(126.94 306.98) rotate(-89.91)"/><ellipse class="cls-206" cx="217.2" cy="89.92" rx="0.97" ry="1.92" transform="translate(126.95 306.98) rotate(-89.91)"/><ellipse class="cls-207" cx="217.2" cy="89.92" rx="0.91" ry="1.8" transform="matrix(0, -1, 1, 0, 126.95, 306.98)"/><ellipse class="cls-208" cx="217.2" cy="89.92" rx="0.85" ry="1.68" transform="translate(126.95 306.99) rotate(-89.91)"/><ellipse class="cls-209" cx="217.2" cy="89.92" rx="0.79" ry="1.56" transform="translate(126.95 306.98) rotate(-89.91)"/><ellipse class="cls-210" cx="217.2" cy="89.92" rx="0.73" ry="1.44" transform="translate(126.95 306.98) rotate(-89.91)"/><ellipse class="cls-211" cx="217.2" cy="89.92" rx="0.67" ry="1.32" transform="translate(126.94 306.98) rotate(-89.91)"/><ellipse class="cls-212" cx="217.2" cy="89.92" rx="0.61" ry="1.2" transform="translate(126.95 306.98) rotate(-89.91)"/><ellipse class="cls-213" cx="217.2" cy="89.92" rx="0.54" ry="1.08" transform="translate(126.95 306.98) rotate(-89.91)"/><ellipse class="cls-214" cx="217.2" cy="89.92" rx="0.48" ry="0.96" transform="translate(126.95 306.99) rotate(-89.91)"/><ellipse class="cls-215" cx="217.2" cy="89.92" rx="0.42" ry="0.84" transform="translate(126.94 306.98) rotate(-89.91)"/><ellipse class="cls-216" cx="217.2" cy="89.92" rx="0.36" ry="0.72" transform="translate(126.95 306.98) rotate(-89.91)"/><ellipse class="cls-217" cx="217.2" cy="89.92" rx="0.3" ry="0.6" transform="translate(126.95 306.99) rotate(-89.91)"/><ellipse class="cls-218" cx="217.2" cy="89.92" rx="0.24" ry="0.48" transform="translate(126.94 306.98) rotate(-89.91)"/><ellipse class="cls-219" cx="217.2" cy="89.92" rx="0.18" ry="0.36" transform="translate(126.95 306.98) rotate(-89.91)"/><ellipse class="cls-220" cx="217.2" cy="89.92" rx="0.12" ry="0.24" transform="translate(126.96 306.99) rotate(-89.92)"/><ellipse class="cls-221" cx="217.2" cy="89.92" rx="0.06" ry="0.12" transform="translate(126.92 306.97) rotate(-89.9)"/></g></g><circle class="cls-222" cx="210.43" cy="58.56" r="32.5"/><polygon class="cls-223" points="81.62 254.59 81.17 128.44 58.72 115.12 81.48 127.89 104.24 115.12 81.8 128.43 81.62 254.59"/><polygon class="cls-224" points="58.86 268.92 58.41 215.98 35.96 202.66 58.72 215.43 81.48 202.66 59.04 215.97 58.86 268.92"/></g></g></g></svg>