<svg xmlns="http://www.w3.org/2000/svg" xmlns:xlink="http://www.w3.org/1999/xlink" viewBox="0 0 260.54 295.37"><defs><style>.cls-1{isolation:isolate;}.cls-2,.cls-3,.cls-57,.cls-79{fill:#42e8e0;}.cls-20,.cls-3,.cls-4,.cls-51,.cls-52,.cls-53,.cls-54,.cls-55,.cls-56,.cls-59,.cls-60,.cls-61,.cls-62,.cls-63,.cls-64,.cls-66,.cls-67,.cls-68,.cls-69,.cls-70,.cls-71,.cls-73,.cls-74,.cls-75,.cls-76,.cls-77,.cls-78{opacity:0.5;}.cls-10,.cls-15,.cls-5{opacity:0.11;}.cls-6{fill:url(#_ÂÁ_Ï_ÌÌ_È_ËÂÌÚ_22);}.cls-7{fill:url(#_ÂÁ_Ï_ÌÌ_È_ËÂÌÚ_22-2);}.cls-8{fill:url(#_ÂÁ_Ï_ÌÌ_È_ËÂÌÚ_22-3);}.cls-9{fill:url(#_ÂÁ_Ï_ÌÌ_È_ËÂÌÚ_22-4);}.cls-10{fill:url(#_ÂÁ_Ï_ÌÌ_È_ËÂÌÚ_22-5);}.cls-11{fill:url(#_ÂÁ_Ï_ÌÌ_È_ËÂÌÚ_22-6);}.cls-12{fill:url(#_ÂÁ_Ï_ÌÌ_È_ËÂÌÚ_22-7);}.cls-13{fill:url(#_ÂÁ_Ï_ÌÌ_È_ËÂÌÚ_22-8);}.cls-14{fill:url(#_ÂÁ_Ï_ÌÌ_È_ËÂÌÚ_22-9);}.cls-15{fill:url(#_ÂÁ_Ï_ÌÌ_È_ËÂÌÚ_22-10);}.cls-16{fill:url(#_ÂÁ_Ï_ÌÌ_È_ËÂÌÚ_22-11);}.cls-17{fill:url(#_ÂÁ_Ï_ÌÌ_È_ËÂÌÚ_22-12);}.cls-18{fill:url(#_ÂÁ_Ï_ÌÌ_È_ËÂÌÚ_22-13);}.cls-19{fill:url(#_ÂÁ_Ï_ÌÌ_È_ËÂÌÚ_22-14);}.cls-20{fill:url(#_ÂÁ_Ï_ÌÌ_È_ËÂÌÚ_22-15);}.cls-21{fill:url(#_ÂÁ_Ï_ÌÌ_È_ËÂÌÚ_22-17);}.cls-22{fill:#180d5b;opacity:0.2;}.cls-23{fill:#160a5b;}.cls-24{fill:#24126a;}.cls-25{fill:url(#_ÂÁ_Ï_ÌÌ_È_ËÂÌÚ_22-18);}.cls-26{fill:url(#_ÂÁ_Ï_ÌÌ_È_ËÂÌÚ_22-19);}.cls-27{fill:#4846a5;}.cls-28{fill:#fcd1c5;}.cls-29{fill:#453c9e;}.cls-30{fill:url(#_ÂÁ_Ï_ÌÌ_È_ËÂÌÚ_22-20);}.cls-31{fill:#f0f6ff;}.cls-32{fill:#aa8383;}.cls-33{fill:#c4ccd6;}.cls-34{fill:#e2b1a6;}.cls-35{fill:#1b2b3a;}.cls-36{fill:#936d6d;}.cls-37{fill:url(#_ÂÁ_Ï_ÌÌ_È_ËÂÌÚ_22-21);}.cls-38{fill:url(#_ÂÁ_Ï_ÌÌ_È_ËÂÌÚ_22-22);}.cls-39{fill:url(#_ÂÁ_Ï_ÌÌ_È_ËÂÌÚ_22-23);}.cls-40{fill:url(#_ÂÁ_Ï_ÌÌ_È_ËÂÌÚ_22-24);}.cls-41{fill:url(#_ÂÁ_Ï_ÌÌ_È_ËÂÌÚ_22-25);}.cls-42{fill:url(#_ÂÁ_Ï_ÌÌ_È_ËÂÌÚ_22-26);}.cls-43{fill:#722318;}.cls-44{fill:url(#_ÂÁ_Ï_ÌÌ_È_ËÂÌÚ_22-27);}.cls-45{fill:url(#_ÂÁ_Ï_ÌÌ_È_ËÂÌÚ_22-28);}.cls-46{fill:#8686f2;mix-blend-mode:lighten;}.cls-47{fill:url(#_ÂÁ_Ï_ÌÌ_È_ËÂÌÚ_18);}.cls-48{fill:#bcbeff;}.cls-49{fill:#fff;}.cls-50{fill:#0f054c;}.cls-51{fill:url(#_ÂÁ_Ï_ÌÌ_È_ËÂÌÚ_254);}.cls-52{fill:url(#_ÂÁ_Ï_ÌÌ_È_ËÂÌÚ_254-2);}.cls-53{fill:url(#_ÂÁ_Ï_ÌÌ_È_ËÂÌÚ_254-3);}.cls-54{fill:url(#_ÂÁ_Ï_ÌÌ_È_ËÂÌÚ_254-4);}.cls-55{fill:url(#_ÂÁ_Ï_ÌÌ_È_ËÂÌÚ_254-5);}.cls-56{fill:url(#_ÂÁ_Ï_ÌÌ_È_ËÂÌÚ_254-6);}.cls-57{opacity:0.8;}.cls-58{fill:url(#_ÂÁ_Ï_ÌÌ_È_ËÂÌÚ_18-2);}.cls-59{fill:url(#_ÂÁ_Ï_ÌÌ_È_ËÂÌÚ_254-7);}.cls-60{fill:url(#_ÂÁ_Ï_ÌÌ_È_ËÂÌÚ_254-8);}.cls-61{fill:url(#_ÂÁ_Ï_ÌÌ_È_ËÂÌÚ_254-9);}.cls-62{fill:url(#_ÂÁ_Ï_ÌÌ_È_ËÂÌÚ_254-10);}.cls-63{fill:url(#_ÂÁ_Ï_ÌÌ_È_ËÂÌÚ_254-11);}.cls-64{fill:url(#_ÂÁ_Ï_ÌÌ_È_ËÂÌÚ_254-12);}.cls-65{fill:url(#_ÂÁ_Ï_ÌÌ_È_ËÂÌÚ_18-3);}.cls-66{fill:url(#_ÂÁ_Ï_ÌÌ_È_ËÂÌÚ_254-13);}.cls-67{fill:url(#_ÂÁ_Ï_ÌÌ_È_ËÂÌÚ_254-14);}.cls-68{fill:url(#_ÂÁ_Ï_ÌÌ_È_ËÂÌÚ_254-15);}.cls-69{fill:url(#_ÂÁ_Ï_ÌÌ_È_ËÂÌÚ_254-16);}.cls-70{fill:url(#_ÂÁ_Ï_ÌÌ_È_ËÂÌÚ_254-17);}.cls-71{fill:url(#_ÂÁ_Ï_ÌÌ_È_ËÂÌÚ_254-18);}.cls-72{fill:url(#_ÂÁ_Ï_ÌÌ_È_ËÂÌÚ_18-4);}.cls-73{fill:url(#_ÂÁ_Ï_ÌÌ_È_ËÂÌÚ_254-19);}.cls-74{fill:url(#_ÂÁ_Ï_ÌÌ_È_ËÂÌÚ_254-20);}.cls-75{fill:url(#_ÂÁ_Ï_ÌÌ_È_ËÂÌÚ_254-21);}.cls-76{fill:url(#_ÂÁ_Ï_ÌÌ_È_ËÂÌÚ_254-22);}.cls-77{fill:url(#_ÂÁ_Ï_ÌÌ_È_ËÂÌÚ_254-23);}.cls-78{fill:url(#_ÂÁ_Ï_ÌÌ_È_ËÂÌÚ_254-24);}.cls-79{opacity:0.5;}</style><linearGradient id="_ÂÁ_Ï_ÌÌ_È_ËÂÌÚ_22" x1="90.1" y1="258.95" x2="218.62" y2="258.95" gradientUnits="userSpaceOnUse"><stop offset="0" stop-color="#5761d7"/><stop offset="0.07" stop-color="#5472d8"/><stop offset="0.28" stop-color="#4e9cdb"/><stop offset="0.48" stop-color="#49bddd"/><stop offset="0.67" stop-color="#45d5df"/><stop offset="0.85" stop-color="#43e3e0"/><stop offset="1" stop-color="#42e8e0"/></linearGradient><linearGradient id="_ÂÁ_Ï_ÌÌ_È_ËÂÌÚ_22-2" x1="90.1" y1="249.06" x2="218.62" y2="249.06" xlink:href="#_ÂÁ_Ï_ÌÌ_È_ËÂÌÚ_22"/><linearGradient id="_ÂÁ_Ï_ÌÌ_È_ËÂÌÚ_22-3" x1="90.1" y1="239.17" x2="218.62" y2="239.17" xlink:href="#_ÂÁ_Ï_ÌÌ_È_ËÂÌÚ_22"/><linearGradient id="_ÂÁ_Ï_ÌÌ_È_ËÂÌÚ_22-4" x1="90.1" y1="229.29" x2="218.62" y2="229.29" xlink:href="#_ÂÁ_Ï_ÌÌ_È_ËÂÌÚ_22"/><linearGradient id="_ÂÁ_Ï_ÌÌ_È_ËÂÌÚ_22-5" x1="90.1" y1="244.12" x2="218.62" y2="244.12" xlink:href="#_ÂÁ_Ï_ÌÌ_È_ËÂÌÚ_22"/><linearGradient id="_ÂÁ_Ï_ÌÌ_È_ËÂÌÚ_22-6" x1="90.1" y1="218.05" x2="218.62" y2="218.05" xlink:href="#_ÂÁ_Ï_ÌÌ_È_ËÂÌÚ_22"/><linearGradient id="_ÂÁ_Ï_ÌÌ_È_ËÂÌÚ_22-7" x1="90.1" y1="208.16" x2="218.62" y2="208.16" xlink:href="#_ÂÁ_Ï_ÌÌ_È_ËÂÌÚ_22"/><linearGradient id="_ÂÁ_Ï_ÌÌ_È_ËÂÌÚ_22-8" x1="90.1" y1="198.27" x2="218.62" y2="198.27" xlink:href="#_ÂÁ_Ï_ÌÌ_È_ËÂÌÚ_22"/><linearGradient id="_ÂÁ_Ï_ÌÌ_È_ËÂÌÚ_22-9" x1="90.1" y1="188.39" x2="218.62" y2="188.39" xlink:href="#_ÂÁ_Ï_ÌÌ_È_ËÂÌÚ_22"/><linearGradient id="_ÂÁ_Ï_ÌÌ_È_ËÂÌÚ_22-10" x1="90.1" y1="203.22" x2="218.62" y2="203.22" xlink:href="#_ÂÁ_Ï_ÌÌ_È_ËÂÌÚ_22"/><linearGradient id="_ÂÁ_Ï_ÌÌ_È_ËÂÌÚ_22-11" x1="90.1" y1="177.15" x2="218.62" y2="177.15" xlink:href="#_ÂÁ_Ï_ÌÌ_È_ËÂÌÚ_22"/><linearGradient id="_ÂÁ_Ï_ÌÌ_È_ËÂÌÚ_22-12" x1="90.1" y1="167.26" x2="218.62" y2="167.26" xlink:href="#_ÂÁ_Ï_ÌÌ_È_ËÂÌÚ_22"/><linearGradient id="_ÂÁ_Ï_ÌÌ_È_ËÂÌÚ_22-13" x1="90.1" y1="157.37" x2="218.62" y2="157.37" xlink:href="#_ÂÁ_Ï_ÌÌ_È_ËÂÌÚ_22"/><linearGradient id="_ÂÁ_Ï_ÌÌ_È_ËÂÌÚ_22-14" x1="90.1" y1="147.49" x2="218.62" y2="147.49" xlink:href="#_ÂÁ_Ï_ÌÌ_È_ËÂÌÚ_22"/><linearGradient id="_ÂÁ_Ï_ÌÌ_È_ËÂÌÚ_22-15" x1="90.1" y1="162.32" x2="218.62" y2="162.32" xlink:href="#_ÂÁ_Ï_ÌÌ_È_ËÂÌÚ_22"/><linearGradient id="_ÂÁ_Ï_ÌÌ_È_ËÂÌÚ_22-17" x1="90.1" y1="165.31" x2="218.62" y2="165.31" xlink:href="#_ÂÁ_Ï_ÌÌ_È_ËÂÌÚ_22"/><linearGradient id="_ÂÁ_Ï_ÌÌ_È_ËÂÌÚ_22-18" x1="142.74" y1="121.49" x2="148.3" y2="121.49" xlink:href="#_ÂÁ_Ï_ÌÌ_È_ËÂÌÚ_22"/><linearGradient id="_ÂÁ_Ï_ÌÌ_È_ËÂÌÚ_22-19" x1="145.57" y1="109.26" x2="159.5" y2="109.26" xlink:href="#_ÂÁ_Ï_ÌÌ_È_ËÂÌÚ_22"/><linearGradient id="_ÂÁ_Ï_ÌÌ_È_ËÂÌÚ_22-20" x1="145.63" y1="95.54" x2="160.73" y2="95.54" xlink:href="#_ÂÁ_Ï_ÌÌ_È_ËÂÌÚ_22"/><linearGradient id="_ÂÁ_Ï_ÌÌ_È_ËÂÌÚ_22-21" x1="160.12" y1="200.52" x2="169.28" y2="200.52" gradientTransform="matrix(1, -0.09, 0.09, 1, -8.99, -40.42)" xlink:href="#_ÂÁ_Ï_ÌÌ_È_ËÂÌÚ_22"/><linearGradient id="_ÂÁ_Ï_ÌÌ_È_ËÂÌÚ_22-22" x1="170.7" y1="129.14" x2="171.99" y2="129.14" gradientTransform="matrix(1, -0.09, 0.09, 1, -8.99, -40.42)" xlink:href="#_ÂÁ_Ï_ÌÌ_È_ËÂÌÚ_22"/><linearGradient id="_ÂÁ_Ï_ÌÌ_È_ËÂÌÚ_22-23" x1="151.32" y1="175.03" x2="173.3" y2="175.03" gradientTransform="matrix(1, -0.09, 0.09, 1, -8.99, -40.42)" xlink:href="#_ÂÁ_Ï_ÌÌ_È_ËÂÌÚ_22"/><linearGradient id="_ÂÁ_Ï_ÌÌ_È_ËÂÌÚ_22-24" x1="172.16" y1="148.98" x2="177.36" y2="148.98" gradientTransform="matrix(1, -0.09, 0.09, 1, -8.99, -40.42)" xlink:href="#_ÂÁ_Ï_ÌÌ_È_ËÂÌÚ_22"/><linearGradient id="_ÂÁ_Ï_ÌÌ_È_ËÂÌÚ_22-25" x1="139.7" y1="195.58" x2="157.49" y2="195.58" gradientTransform="matrix(1, -0.09, 0.09, 1, -8.99, -40.42)" xlink:href="#_ÂÁ_Ï_ÌÌ_È_ËÂÌÚ_22"/><linearGradient id="_ÂÁ_Ï_ÌÌ_È_ËÂÌÚ_22-26" x1="149.69" y1="189.15" x2="151.95" y2="189.15" gradientTransform="matrix(1, -0.09, 0.09, 1, -8.99, -40.42)" xlink:href="#_ÂÁ_Ï_ÌÌ_È_ËÂÌÚ_22"/><linearGradient id="_ÂÁ_Ï_ÌÌ_È_ËÂÌÚ_22-27" x1="145.41" y1="184.86" x2="147.67" y2="184.86" gradientTransform="matrix(1, -0.09, 0.09, 1, -8.99, -40.42)" xlink:href="#_ÂÁ_Ï_ÌÌ_È_ËÂÌÚ_22"/><linearGradient id="_ÂÁ_Ï_ÌÌ_È_ËÂÌÚ_22-28" x1="149.74" y1="165.27" x2="166.56" y2="165.27" gradientTransform="matrix(1, -0.09, 0.09, 1, -8.99, -40.42)" xlink:href="#_ÂÁ_Ï_ÌÌ_È_ËÂÌÚ_22"/><linearGradient id="_ÂÁ_Ï_ÌÌ_È_ËÂÌÚ_18" x1="31.78" y1="130.96" x2="121.84" y2="130.96" gradientUnits="userSpaceOnUse"><stop offset="0" stop-color="#5761d7"/><stop offset="0.16" stop-color="#5e67da"/><stop offset="0.41" stop-color="#727ae2"/><stop offset="0.69" stop-color="#9297ee"/><stop offset="1" stop-color="#bcbeff"/></linearGradient><linearGradient id="_ÂÁ_Ï_ÌÌ_È_ËÂÌÚ_254" x1="57.27" y1="118.79" x2="111.32" y2="118.79" gradientUnits="userSpaceOnUse"><stop offset="0" stop-color="#42e8e0"/><stop offset="0.15" stop-color="#43e3e0"/><stop offset="0.33" stop-color="#45d5df"/><stop offset="0.52" stop-color="#49bddd"/><stop offset="0.72" stop-color="#4e9cdb"/><stop offset="0.93" stop-color="#5472d8"/><stop offset="1" stop-color="#5761d7"/></linearGradient><linearGradient id="_ÂÁ_Ï_ÌÌ_È_ËÂÌÚ_254-2" x1="84.29" y1="109.02" x2="111.32" y2="109.02" xlink:href="#_ÂÁ_Ï_ÌÌ_È_ËÂÌÚ_254"/><linearGradient id="_ÂÁ_Ï_ÌÌ_È_ËÂÌÚ_254-3" x1="57.27" y1="109.02" x2="84.29" y2="109.02" xlink:href="#_ÂÁ_Ï_ÌÌ_È_ËÂÌÚ_254"/><linearGradient id="_ÂÁ_Ï_ÌÌ_È_ËÂÌÚ_254-4" x1="57.27" y1="114.85" x2="111.32" y2="114.85" xlink:href="#_ÂÁ_Ï_ÌÌ_È_ËÂÌÚ_254"/><linearGradient id="_ÂÁ_Ï_ÌÌ_È_ËÂÌÚ_254-5" x1="84.29" y1="124.62" x2="111.32" y2="124.62" xlink:href="#_ÂÁ_Ï_ÌÌ_È_ËÂÌÚ_254"/><linearGradient id="_ÂÁ_Ï_ÌÌ_È_ËÂÌÚ_254-6" x1="57.27" y1="124.62" x2="84.29" y2="124.62" xlink:href="#_ÂÁ_Ï_ÌÌ_È_ËÂÌÚ_254"/><linearGradient id="_ÂÁ_Ï_ÌÌ_È_ËÂÌÚ_18-2" x1="31.78" y1="223.13" x2="121.84" y2="223.13" xlink:href="#_ÂÁ_Ï_ÌÌ_È_ËÂÌÚ_18"/><linearGradient id="_ÂÁ_Ï_ÌÌ_È_ËÂÌÚ_254-7" x1="57.27" y1="210.96" x2="111.32" y2="210.96" xlink:href="#_ÂÁ_Ï_ÌÌ_È_ËÂÌÚ_254"/><linearGradient id="_ÂÁ_Ï_ÌÌ_È_ËÂÌÚ_254-8" x1="84.29" y1="201.19" x2="111.32" y2="201.19" xlink:href="#_ÂÁ_Ï_ÌÌ_È_ËÂÌÚ_254"/><linearGradient id="_ÂÁ_Ï_ÌÌ_È_ËÂÌÚ_254-9" x1="57.27" y1="201.19" x2="84.29" y2="201.19" xlink:href="#_ÂÁ_Ï_ÌÌ_È_ËÂÌÚ_254"/><linearGradient id="_ÂÁ_Ï_ÌÌ_È_ËÂÌÚ_254-10" x1="57.27" y1="207.02" x2="111.32" y2="207.02" xlink:href="#_ÂÁ_Ï_ÌÌ_È_ËÂÌÚ_254"/><linearGradient id="_ÂÁ_Ï_ÌÌ_È_ËÂÌÚ_254-11" x1="84.29" y1="216.79" x2="111.32" y2="216.79" xlink:href="#_ÂÁ_Ï_ÌÌ_È_ËÂÌÚ_254"/><linearGradient id="_ÂÁ_Ï_ÌÌ_È_ËÂÌÚ_254-12" x1="57.27" y1="216.79" x2="84.29" y2="216.79" xlink:href="#_ÂÁ_Ï_ÌÌ_È_ËÂÌÚ_254"/><linearGradient id="_ÂÁ_Ï_ÌÌ_È_ËÂÌÚ_18-3" x1="172.63" y1="130.96" x2="262.69" y2="130.96" xlink:href="#_ÂÁ_Ï_ÌÌ_È_ËÂÌÚ_18"/><linearGradient id="_ÂÁ_Ï_ÌÌ_È_ËÂÌÚ_254-13" x1="198.12" y1="118.79" x2="252.17" y2="118.79" xlink:href="#_ÂÁ_Ï_ÌÌ_È_ËÂÌÚ_254"/><linearGradient id="_ÂÁ_Ï_ÌÌ_È_ËÂÌÚ_254-14" x1="225.14" y1="109.02" x2="252.17" y2="109.02" xlink:href="#_ÂÁ_Ï_ÌÌ_È_ËÂÌÚ_254"/><linearGradient id="_ÂÁ_Ï_ÌÌ_È_ËÂÌÚ_254-15" x1="198.12" y1="109.02" x2="225.14" y2="109.02" xlink:href="#_ÂÁ_Ï_ÌÌ_È_ËÂÌÚ_254"/><linearGradient id="_ÂÁ_Ï_ÌÌ_È_ËÂÌÚ_254-16" x1="198.12" y1="114.85" x2="252.17" y2="114.85" xlink:href="#_ÂÁ_Ï_ÌÌ_È_ËÂÌÚ_254"/><linearGradient id="_ÂÁ_Ï_ÌÌ_È_ËÂÌÚ_254-17" x1="225.14" y1="124.62" x2="252.17" y2="124.62" xlink:href="#_ÂÁ_Ï_ÌÌ_È_ËÂÌÚ_254"/><linearGradient id="_ÂÁ_Ï_ÌÌ_È_ËÂÌÚ_254-18" x1="198.12" y1="124.62" x2="225.14" y2="124.62" xlink:href="#_ÂÁ_Ï_ÌÌ_È_ËÂÌÚ_254"/><linearGradient id="_ÂÁ_Ï_ÌÌ_È_ËÂÌÚ_18-4" x1="172.63" y1="223.13" x2="262.69" y2="223.13" xlink:href="#_ÂÁ_Ï_ÌÌ_È_ËÂÌÚ_18"/><linearGradient id="_ÂÁ_Ï_ÌÌ_È_ËÂÌÚ_254-19" x1="198.12" y1="210.96" x2="252.17" y2="210.96" xlink:href="#_ÂÁ_Ï_ÌÌ_È_ËÂÌÚ_254"/><linearGradient id="_ÂÁ_Ï_ÌÌ_È_ËÂÌÚ_254-20" x1="225.14" y1="201.19" x2="252.17" y2="201.19" xlink:href="#_ÂÁ_Ï_ÌÌ_È_ËÂÌÚ_254"/><linearGradient id="_ÂÁ_Ï_ÌÌ_È_ËÂÌÚ_254-21" x1="198.12" y1="201.19" x2="225.14" y2="201.19" xlink:href="#_ÂÁ_Ï_ÌÌ_È_ËÂÌÚ_254"/><linearGradient id="_ÂÁ_Ï_ÌÌ_È_ËÂÌÚ_254-22" x1="198.12" y1="207.02" x2="252.17" y2="207.02" xlink:href="#_ÂÁ_Ï_ÌÌ_È_ËÂÌÚ_254"/><linearGradient id="_ÂÁ_Ï_ÌÌ_È_ËÂÌÚ_254-23" x1="225.14" y1="216.79" x2="252.17" y2="216.79" xlink:href="#_ÂÁ_Ï_ÌÌ_È_ËÂÌÚ_254"/><linearGradient id="_ÂÁ_Ï_ÌÌ_È_ËÂÌÚ_254-24" x1="198.12" y1="216.79" x2="225.14" y2="216.79" xlink:href="#_ÂÁ_Ï_ÌÌ_È_ËÂÌÚ_254"/></defs><title>CDP@2x</title><g class="cls-1"><g id="Calque_2" data-name="Calque 2"><g id="_ÎÓÈ_1" data-name="—ÎÓÈ_1"><path class="cls-2" d="M251.71,59.28q3.91,1,7.69,2.11V80q-3.78-1.1-7.69-2.11V59.28Z"/><path class="cls-3" d="M233.89,60.06q4.19.8,8.25,1.7V75.59q-4.07-.9-8.25-1.7V60.06Z"/><path class="cls-2" d="M214.94,44.92q4.42.58,8.74,1.26V72.11q-4.32-.68-8.74-1.26V44.92Z"/><path class="cls-3" d="M195,28.58q4.63.33,9.17.78V69.63q-4.54-.45-9.17-.78V28.58Z"/><path class="cls-3" d="M174.25,37.22q4.81.07,9.55.27V68.21q-4.74-.19-9.55-.27V37.22Z"/><path class="cls-2" d="M153.28,5.06q4.7-.19,9.46-.26V67.94q-4.76.07-9.46.26V5.06Z"/><path class="cls-2" d="M133,18.07q4.52-.44,9.12-.77V68.83q-4.6.33-9.12.77V18.07Z"/><path class="cls-2" d="M113.58,1.24Q117.89.57,122.3,0V70.81q-4.41.57-8.72,1.24V1.24Z"/><g class="cls-4"><g class="cls-5"><path class="cls-6" d="M159.33,223.84a9.86,9.86,0,0,0-9.85,0L90.79,257.64a1.39,1.39,0,0,0,0,2.4L150,294.21a8.69,8.69,0,0,0,8.69,0l59.27-34.13a1.39,1.39,0,0,0,0-2.4Z"/></g><g class="cls-5"><path class="cls-7" d="M159.33,214a9.86,9.86,0,0,0-9.85,0L90.79,247.76a1.39,1.39,0,0,0,0,2.4L150,284.32a8.69,8.69,0,0,0,8.69,0l59.27-34.13a1.39,1.39,0,0,0,0-2.4Z"/></g><g class="cls-5"><path class="cls-8" d="M159.33,204.07a9.86,9.86,0,0,0-9.85,0L90.79,237.87a1.39,1.39,0,0,0,0,2.4L150,274.44a8.69,8.69,0,0,0,8.69,0l59.27-34.13a1.39,1.39,0,0,0,0-2.4Z"/></g><g class="cls-5"><path class="cls-9" d="M159.33,194.18a9.86,9.86,0,0,0-9.85,0L90.79,228a1.39,1.39,0,0,0,0,2.4L150,264.55a8.69,8.69,0,0,0,8.69,0l59.27-34.13a1.39,1.39,0,0,0,0-2.4Z"/></g><path class="cls-10" d="M217.93,228l-58.6-33.83a9.86,9.86,0,0,0-9.85,0L90.79,228a1.37,1.37,0,0,0-.69,1.2v29.66a1.37,1.37,0,0,0,.69,1.2L150,294.21a8.69,8.69,0,0,0,8.69,0l59.27-34.13a1.37,1.37,0,0,0,.69-1.2V229.21h0A1.37,1.37,0,0,0,217.93,228Z"/></g><g class="cls-5"><path class="cls-11" d="M159.33,182.94a9.86,9.86,0,0,0-9.85,0L90.79,216.74a1.39,1.39,0,0,0,0,2.4L150,253.31a8.69,8.69,0,0,0,8.69,0l59.27-34.13a1.39,1.39,0,0,0,0-2.4Z"/></g><g class="cls-5"><path class="cls-12" d="M159.33,173.05a9.86,9.86,0,0,0-9.85,0L90.79,206.85a1.39,1.39,0,0,0,0,2.4L150,243.42a8.69,8.69,0,0,0,8.69,0l59.27-34.13a1.39,1.39,0,0,0,0-2.4Z"/></g><g class="cls-5"><path class="cls-13" d="M159.33,163.17a9.86,9.86,0,0,0-9.85,0L90.79,197a1.39,1.39,0,0,0,0,2.4L150,233.54a8.69,8.69,0,0,0,8.69,0l59.27-34.13a1.39,1.39,0,0,0,0-2.4Z"/></g><g class="cls-5"><path class="cls-14" d="M159.33,153.28a9.86,9.86,0,0,0-9.85,0L90.79,187.08a1.39,1.39,0,0,0,0,2.4L150,223.65a8.69,8.69,0,0,0,8.69,0l59.27-34.13a1.39,1.39,0,0,0,0-2.4Z"/></g><path class="cls-15" d="M217.93,187.11l-58.6-33.83a9.86,9.86,0,0,0-9.85,0L90.79,187.08a1.37,1.37,0,0,0-.69,1.2v29.66a1.37,1.37,0,0,0,.69,1.2L150,253.31a8.69,8.69,0,0,0,8.69,0l59.27-34.13a1.37,1.37,0,0,0,.69-1.2V188.31h0A1.37,1.37,0,0,0,217.93,187.11Z"/><g class="cls-5"><path class="cls-16" d="M159.33,142a9.86,9.86,0,0,0-9.85,0L90.79,175.84a1.39,1.39,0,0,0,0,2.4L150,212.41a8.69,8.69,0,0,0,8.69,0l59.27-34.13a1.39,1.39,0,0,0,0-2.4Z"/></g><g class="cls-5"><path class="cls-17" d="M159.33,132.15a9.86,9.86,0,0,0-9.85,0L90.79,166a1.39,1.39,0,0,0,0,2.4L150,202.52a8.69,8.69,0,0,0,8.69,0l59.27-34.13a1.39,1.39,0,0,0,0-2.4Z"/></g><g class="cls-5"><path class="cls-18" d="M159.33,122.27a9.86,9.86,0,0,0-9.85,0L90.79,156.07a1.39,1.39,0,0,0,0,2.4L150,192.63a8.69,8.69,0,0,0,8.69,0l59.27-34.13a1.39,1.39,0,0,0,0-2.4Z"/></g><g class="cls-5"><path class="cls-19" d="M159.33,112.38a9.86,9.86,0,0,0-9.85,0L90.79,146.18a1.39,1.39,0,0,0,0,2.4L150,182.75a8.69,8.69,0,0,0,8.69,0l59.27-34.13a1.39,1.39,0,0,0,0-2.4Z"/></g><path class="cls-20" d="M217.93,146.21l-58.6-33.83a9.86,9.86,0,0,0-9.85,0L90.79,146.18a1.37,1.37,0,0,0-.69,1.2V177a1.37,1.37,0,0,0,.69,1.2L150,212.41a8.69,8.69,0,0,0,8.69,0l59.27-34.13a1.37,1.37,0,0,0,.69-1.2V147.41h0A1.37,1.37,0,0,0,217.93,146.21Z"/><g class="cls-5"><path class="cls-19" d="M159.33,112.38a9.86,9.86,0,0,0-9.85,0L90.79,146.18a1.39,1.39,0,0,0,0,2.4L150,182.75a8.69,8.69,0,0,0,8.69,0l59.27-34.13a1.39,1.39,0,0,0,0-2.4Z"/></g><path class="cls-21" d="M217.93,147.25l-59.27,34.13a8.69,8.69,0,0,1-8.69,0L90.79,147.22a1.37,1.37,0,0,1-.51-.52,1.39,1.39,0,0,0,.51,1.88L150,182.75a8.69,8.69,0,0,0,8.69,0l59.27-34.13a1.39,1.39,0,0,0,.51-1.88A1.37,1.37,0,0,1,217.93,147.25Z"/><polygon class="cls-2" points="97 157.69 98.46 158.54 98.46 157.56 97 156.72 97 157.69"/><polygon class="cls-2" points="97 164.31 98.46 165.15 98.46 159.43 97 158.59 97 164.31"/><polygon class="cls-2" points="97 167.47 98.46 168.31 98.46 166.04 97 165.2 97 167.47"/><polygon class="cls-2" points="97 170.74 98.46 171.59 98.46 169.31 97 168.47 97 170.74"/><polygon class="cls-2" points="94.83 159.6 96.28 160.44 96.28 158.17 94.83 157.33 94.83 159.6"/><polygon class="cls-2" points="94.83 163.94 96.28 164.78 96.28 161.45 94.83 160.61 94.83 163.94"/><polygon class="cls-2" points="94.83 167.94 96.28 168.78 96.28 165.92 94.83 165.07 94.83 167.94"/><polygon class="cls-2" points="97 174.02 98.46 174.86 98.46 172.59 97 171.75 97 174.02"/><polygon class="cls-2" points="94.83 156.44 96.28 157.28 96.28 156.3 94.83 155.46 94.83 156.44"/><polygon class="cls-2" points="95.91 176.57 98.46 178.04 98.46 177.09 95.91 175.62 95.91 176.57"/><path class="cls-22" d="M132.08,160.35c12.3,7.1,32.26,7.1,44.56,0s12.31-18.62,0-25.73-32.26-7.1-44.56,0S119.78,153.25,132.08,160.35Z"/><path class="cls-23" d="M154.53,132.49l.06.28.09-.19a4,4,0,0,1,.06,2.2,17.4,17.4,0,0,1-1.69,2.66c-.78,1-2,3.16-2.35,3.57a8,8,0,0,1-4.61,2.25c-2.38.25-3-1.12-2.79-1.85a16.47,16.47,0,0,1,2.87-4.28,21.28,21.28,0,0,0,2.46-3.64Z"/><path class="cls-23" d="M147.38,126a11,11,0,0,1-.09,2.15c-.16.63-3.65.82-4.9,1a18,18,0,0,0-4.08,1.38c-.68.33-5.22.81-5.77-.86s2.28-3.08,4.2-3.52,5.06-1.4,5.06-1.4Z"/><path class="cls-24" d="M159.5,95.82a42.73,42.73,0,0,1-1.3,10.19,40.11,40.11,0,0,0-1.26,10s1.49,6.69.18,11.25-2.43,5.84-2.43,5.84a3.93,3.93,0,0,1-6.07.36,54.86,54.86,0,0,0,2.17-11.25,33.83,33.83,0,0,1-2.3-6.93s-.49,5.2-.79,7.3c0,0,.3,3.08-.52,4.33s-4.53,1.61-5.71-.56,1-1.11.33-11.07c0,0-3.41-4.25-3.9-12.08s-.44-10.93,0-12.45,8-7,8-7l4.27,5.45Z"/><path class="cls-25" d="M148.3,117.23a21.64,21.64,0,0,1-.53-2.18s-.49,5.2-.79,7.3c0,0,.3,3.08-.52,4.33-.53.8-2.25,1.23-3.73.86,1.58.76,3.82.32,4.44-.61.82-1.25.52-4.33.52-4.33C147.88,121.33,148.13,118.93,148.3,117.23Z"/><path class="cls-26" d="M159.5,95.82l-9.33-6.62-4.27-5.45-.33.24,3.88,5,9.33,6.62a42.74,42.74,0,0,1-1.3,10.19,40.11,40.11,0,0,0-1.26,10s1.49,6.69.18,11.25-2.43,5.84-2.43,5.84a4.15,4.15,0,0,1-4,1.55c2.74,1.26,4.68-1.3,4.68-1.3s1.12-1.28,2.43-5.84-.18-11.25-.18-11.25a40.11,40.11,0,0,1,1.26-10A42.73,42.73,0,0,0,159.5,95.82Z"/><path class="cls-23" d="M142.66,104.55c-1.23-1.48-1.92-6.1-1.92-6.1s1.92,3.89,3.3,5a9.34,9.34,0,0,1,2.81,4.87c.25,1.48,1.64,7,1.64,7s-.49,5.2-.79,7.3c0,0,.3,3.08-.52,4.33a1.92,1.92,0,0,1-.81.63c0-.06.21-6.88,0-9.77S143.89,106,142.66,104.55Z"/><path class="cls-27" d="M170.85,64.25s3.26,6.37,3.59,6.86,6.43,8.27,7,12.76c0,0,.46,1.74-1.64,3.28s-12.7,8.27-13.35,8.37-4.5-1.77-4.66-6c0,0,8.3-3.87,10.11-5.81,0,0-3.23-5.43-4.81-7a3.69,3.69,0,0,1-.76-2,10.92,10.92,0,0,1,3.54-9.58Z"/><path class="cls-24" d="M146.48,49.33s-5,1.87-6.77,1.23-6-1.18-8.86-2.81-15.59-4.9-17.46-5c0,0,0,.07.28.21a2.36,2.36,0,0,1,2,1.72A4.68,4.68,0,0,1,115,48c-.21.12-.34-.4-1.55-1a4.73,4.73,0,0,0-2-.52l-.46.58-.28.43A2.86,2.86,0,0,0,113,49.48c1.62.12,12.06,4.48,12.71,4.68s9.42,4,11.06,4.56a19.14,19.14,0,0,1,2.92,1.34s5.12-3.41,5.28-3.41S146.48,49.33,146.48,49.33Z"/><path class="cls-28" d="M100.86,40.62c.21,0,2.85.94,2.85.94s-1,.54-1.15,1a16.38,16.38,0,0,0,.31,3.31,3.77,3.77,0,0,0,.8.62c.16.1.57,1,1,.9a.87.87,0,0,0,.49-.59l.39-.21a6.62,6.62,0,0,1,2.6.52,4.28,4.28,0,0,0,2.63.43,11.45,11.45,0,0,0,1.63-.71,4.1,4.1,0,0,1,1,.29c.36.19,1.51,1,1.68,1s2.53-4.55-1.68-5.42a10.26,10.26,0,0,1-2.5-.52c-.75-.36-2.89-2-3.67-2a5.2,5.2,0,0,0-1.59.23s-4.76-1.36-5.15-.94S100.65,40.57,100.86,40.62Zm3.44,3.17a1.31,1.31,0,0,0,1-.58.65.65,0,0,0,.73-.06c0,.09.65.21.65.21s.3.25.66.52-.12,1.07-.12,1.07a2.42,2.42,0,0,1-1.13-.31,6.73,6.73,0,0,0-.9-.24A5.56,5.56,0,0,1,104.31,43.79Z"/><path class="cls-23" d="M137.89,90.77c.44-1.53,8-7,8-7L148,86.46l1.82,7.07,9.66,3h0s-.51,4.83-8.38,4.28-8.79-6.66-8.79-6.66-.87,2-4.75,2.53A21.61,21.61,0,0,1,137.89,90.77Z"/><path class="cls-29" d="M161.28,53.3l1.33,3.41s6.4,5.54,8.24,7.54a38.65,38.65,0,0,0-3.75,12.47,40,40,0,0,0-3.81,3.49c-.89,1.1-3.13,6.19-3.84,7.86s1.28,6.72,1.28,6.72-2.72,5-7.1,4.86-7.37-2.84-7.92-7.6-.39-5.45-.39-5.45-2,5.84-5,5.84-7.73-5.07-7.73-5.07-3.2-2.9-2.9-4.22,7.53-12.67,7.92-14.54,2-8.56,2-8.56l6.82-10.73,4.16.2Z"/><path class="cls-30" d="M153.44,98.45c-4.19-.16-7.08-2.63-7.81-7l.07.62c.56,4.76,3.54,7.43,7.92,7.6s7.1-4.86,7.1-4.86-.14-.37-.34-.93C159.75,94.88,157.21,98.59,153.44,98.45Z"/><path class="cls-31" d="M161.28,53.3a11.79,11.79,0,0,1-.77,4.05c-.8,2-3.43,13.39-9.38,17.27l-2.29,1.45V68.85a27.45,27.45,0,0,1,1.06-7.28,20.93,20.93,0,0,0,1-6.27s1.67-.46,1.67-.43S161.28,53.3,161.28,53.3Z"/><path class="cls-28" d="M153.95,58.58s-1.06.43-1.51-.26a5,5,0,0,1-.8-2.72s-2.82.14-3.38-1.34a2.45,2.45,0,0,1,.14-2.32,11.56,11.56,0,0,1,.55-2.54l0-.38s-.57-.49-.31-1,1.8-2.12,2-2.4,0-2.26.56-3.26A24.23,24.23,0,0,1,153,40s6-4.68,10.73,0-2.4,13.3-2.4,13.3-.57,2.78-1.95,3.89S153.95,58.58,153.95,58.58Z"/><path class="cls-32" d="M158.34,47.18a1.46,1.46,0,0,1,.07-.51,2.48,2.48,0,0,0-1-2.95c-1.8-1.31-5-2.49-4.89-3.81s5.12-4.56,8.83-2.82,7.19,6.14,4.66,10.79-4.76,5.41-4.76,5.41-.75-.16-.08-.93,1.91-2.73.89-3.35-2.79.71-3,1a3.72,3.72,0,0,0-.26.39.5.5,0,0,1-.64.2l-.09,0a.5.5,0,0,1-.26-.62l.44-1.21a1.54,1.54,0,0,0,.09-.56Z"/><path class="cls-33" d="M154.1,59.9a7.12,7.12,0,0,1,2.12,2.77A9.58,9.58,0,0,0,154,60.9s-1.58.74-1.58,1.23a32.53,32.53,0,0,1-.52,5,56.28,56.28,0,0,0-.33,7.17l-1,.66-.47-2.45.18-5.22.93-4.75s.17-1.8.25-1.89S154.1,59.9,154.1,59.9Z"/><path class="cls-24" d="M154.1,59.9s-1.53-1.62-2.3-1.66a1.29,1.29,0,0,0-1.2.48c0,.09-.74,2.64-.74,2.64a31.82,31.82,0,0,0-1.29,9.6c.15,5.17.27,5.13.27,5.13l1.89-1.2a23.81,23.81,0,0,1,.52-8c1-4.28.12-4.92.62-5.36S154.34,60.42,154.1,59.9Z"/><path class="cls-24" d="M163.29,80.21c-.89,1.1-3.08,6.18-3.79,7.85a2.62,2.62,0,0,0-.2,1l-.29.19-1-.94s.86-3.1,2.24-6.94,6.82-4.7,6.82-4.7A40,40,0,0,0,163.29,80.21Z"/><path class="cls-28" d="M161.81,89.69a17.75,17.75,0,0,0-2.05-2.56s.11.64-.77,1-5.52,2.19-5.68,2.4,0,.47.31.53a6.28,6.28,0,0,1-1.35.32c-.39,0-.92.49-.66.92s.48.39.48.39-.11.48.17.58a4.39,4.39,0,0,0,1,.12s-.14.48.25.66a14.46,14.46,0,0,0,2.26.39s1.47-.16,1.89-.16a22.22,22.22,0,0,0,3.14.34,24.63,24.63,0,0,0,3.76-1.23C164.81,93.28,161.81,89.69,161.81,89.69Z"/><path class="cls-24" d="M162.92,57.82l-.2,3.05-1.65.52,1.11.91S157.71,72.46,152,75.68c0,0,5.45-1.94,10.6-13.29,0,0-.54-.64-.71-.82l1.15-.51Z"/><path class="cls-24" d="M148.32,57.5s-2,10.37-.3,18.18c0,0-2.07-3.76-.2-18.18Z"/><path class="cls-34" d="M102.68,42.35a3.63,3.63,0,0,1,1-.79s2.16.88,2.53,1C106.24,42.6,104,42.37,102.68,42.35Z"/><path class="cls-34" d="M115.07,48.17c-.09,0-.43-.25-.8-.48h0c1.43-1.93-.14-4.71-.15-4.72C117.3,44.19,115.23,48.23,115.07,48.17Z"/><path class="cls-34" d="M164.54,93.44a26.91,26.91,0,0,1-2.84,1,15.56,15.56,0,0,1-.55-3.74c.16-.94.55-1.16.55-1.16l.11.15S164.81,93.28,164.54,93.44Z"/><path class="cls-27" d="M161.81,89.56a3.27,3.27,0,0,0,.62,2.88c1.1,1.26,1.22,1.42,1.22,1.42h1.26a13.71,13.71,0,0,0,.55-2C165.35,91.77,161.81,89.56,161.81,89.56Z"/><path class="cls-24" d="M150.1,60.53h0s-1.21,7.11-.94,9.72a45.6,45.6,0,0,1,.17,5.43L149,76l-.11.07s-.12,0-.27-5.13a31.82,31.82,0,0,1,1.29-9.6Z"/><path class="cls-23" d="M149.7,134.28a5.89,5.89,0,0,1-1.08-.79,54.86,54.86,0,0,0,2.17-11.25,33.83,33.83,0,0,1-2.3-6.93c.16.65,2.15,4.16,3,7.75S149.7,134.28,149.7,134.28Z"/><path class="cls-34" d="M158.51,52.15v0Z"/><path class="cls-34" d="M158.51,52.15a10.48,10.48,0,0,1-1.57,3.9c-1.06,1.23-1.87,2.42-1.87,2.42-.66.09-1.12.12-1.12.12s-1.06.43-1.51-.26a5,5,0,0,1-.8-2.72s3.8-.39,5.25-1.4A3.64,3.64,0,0,0,158.51,52.15Z"/><path class="cls-35" d="M159.88,87.15s-.2.43-.24.47-.09-.33-.09-.33.17-.35.18-.35S159.88,87.15,159.88,87.15Z"/><path class="cls-24" d="M148.84,76.08s-2.65,8.47-3.54,10.52l.05,2S148.73,78.12,148.84,76.08Z"/><ellipse class="cls-24" cx="147.11" cy="79.35" rx="0.94" ry="0.87" transform="translate(28.38 197.01) rotate(-73.08)"/><ellipse class="cls-24" cx="145.76" cy="83.01" rx="0.94" ry="0.87" transform="translate(23.94 198.32) rotate(-73.09)"/><path class="cls-36" d="M158.26,48.75a1.54,1.54,0,0,0,.09-.56l0-1a1.46,1.46,0,0,1,.07-.51,2.84,2.84,0,0,0,.14-.63s4.13,3,6.75,3.13c-2.2,3.52-4,4.14-4,4.14s-.75-.16-.08-.93,1.91-2.73.89-3.35-2.79.71-3,1a3.72,3.72,0,0,0-.26.39.5.5,0,0,1-.64.2l-.09,0a.5.5,0,0,1-.26-.62Z"/><path class="cls-23" d="M166.08,159.55a21.2,21.2,0,0,1-3.67.53c-1.81.07-6.71,1.06-6.59,2.89s2.69,4.48,5.9,4.87,7.35-.53,9.45-.48a2.94,2.94,0,0,0,2.71-4.14C173.07,161.19,166.08,159.55,166.08,159.55Z"/><path class="cls-23" d="M176.91,154.62s.69,1.11.35,1.79-1.24,2.37-4.18.73-8.57-4-8.57-4-3.24-1.72-3.06-3.75,3.16-1.72,3.16-1.72Z"/><path class="cls-24" d="M157.84,125.8s1.25,13.2,3.9,18.2,3.44,14.4,4,16.17,2.31,4.36,5.06,4.9,3.21-1.33,3.07-2.45-.9-2.93-.91-4.15a12.79,12.79,0,0,1,.31-2.34s3.15.93,3.63-1.51a6.89,6.89,0,0,1-.3-1.07c0-.36.27-9.2.35-10.27a45.26,45.26,0,0,0-1.38-9.69c-.87-2.82-.58-8.82-.58-8.82l-9-1.25Z"/><path class="cls-37" d="M175.59,133.59c-.87-2.82-.58-8.82-.58-8.82l-.78-.11c0,.83-.22,6.1.57,8.69a45.2,45.2,0,0,1,1.36,9.68c-.08,1.07-.4,9.9-.36,10.26a6.91,6.91,0,0,0,.3,1.07c-.48,2.44-3.63,1.51-3.63,1.51a12.78,12.78,0,0,0-.32,2.33c0,1.22.77,3,.9,4.15s-.32,3-3.07,2.45l-.25-.07a5.44,5.44,0,0,0,1.07.34c2.76.55,3.21-1.33,3.07-2.45s-.9-2.93-.91-4.15a14.41,14.41,0,0,1,.32-2.45s3.15,1,3.63-1.4a6.89,6.89,0,0,1-.3-1.07c0-.36.27-9.2.35-10.27A45.28,45.28,0,0,0,175.59,133.59Z"/><path class="cls-23" d="M172.35,125.72a10.16,10.16,0,0,1-.9,3.79,72.53,72.53,0,0,1-.7,10.57s1.16,7.13,1.89,9.38a27.09,27.09,0,0,1,.64,6.68,3.08,3.08,0,0,0,.87.15c.51,0,.55-8.72-.24-10.26s-1.38-8.35-1.09-10.42.19-8,.58-9a1.32,1.32,0,0,0-.49-1.59Z"/><path class="cls-23" d="M164.79,78.11a6.46,6.46,0,0,0-2.48,5.14l1.94-.42S163.68,79.23,164.79,78.11Z"/><path class="cls-23" d="M165.81,128.6c5.95.18,9.16-2.45,9.16-2.45,0-.83,0-1.38,0-1.38l-9-1.25-8.19,2.29s.25,2.6.75,5.93c1.46.16,2.89-3.43,2.89-3.43l4.08.26S159.86,128.42,165.81,128.6Z"/><path class="cls-29" d="M159,126s12.93,5.28,19.19-4.73a1.75,1.75,0,0,0,.25-1l-.08-2.33a2.45,2.45,0,0,1,.13-.87h0a3.71,3.71,0,0,0,.13-1.86c-.48-2.61-1.8-9.7-2.1-11.67-.37-2.4.9-12,3-16.17s-3.32-13.32-3.32-13.32a3.52,3.52,0,0,0-3.94-1.42s2.49,1.74,1.13,3.58-5.46,3.33-5.46,3.33-7.56,3.92-10.15,8.7a20,20,0,0,0-1,5.62c-.08,3.17.27,10.79.14,11.85s-.53,8.32-.49,8.66S159,126,159,126Z"/><path class="cls-38" d="M173.5,74a1.86,1.86,0,0,0,0-1.46,3.71,3.71,0,0,0-1.17.13A4.65,4.65,0,0,1,173.5,74Z"/><path class="cls-24" d="M162.91,127.07s7.62-20.57,7.25-28c-.35-7.28-11.12,14.75-11.12,14.75L159,126A23.24,23.24,0,0,0,162.91,127.07Z"/><path class="cls-39" d="M178.26,115.06a2.42,2.42,0,0,0-.12.86l.08,2.32a1.74,1.74,0,0,1-.25,1c-6.23,9.95-19.12,4.7-19.12,4.7s-1.77-8.09-2.33-10.71c0,.64,0,1.09,0,1.16,0,.34,2.51,11.62,2.51,11.62s12.93,5.28,19.19-4.73a1.75,1.75,0,0,0,.25-1l-.08-2.33a2.45,2.45,0,0,1,.13-.87,3.71,3.71,0,0,0,.13-1.86l-.18-1A3.61,3.61,0,0,1,178.26,115.06Z"/><path class="cls-40" d="M179.33,85.56c-2.14,4.13-3.41,13.68-3,16.06,0,.22.08.51.14.84,0-3.44,1.2-11.4,3.1-15.09a7,7,0,0,0,.27-4.36A5.26,5.26,0,0,1,179.33,85.56Z"/><path class="cls-27" d="M158.8,102.78a33.43,33.43,0,0,0,.46-5c0-2.93.86-7.78,6.15-6.94,7.48,1.19,4.28,11.67,3.46,13.5s-4.1,10.14-4.27,10.62-5.34,10.81-7.18,13.29a.45.45,0,0,1-.67.08c-.75-.64-2.43-2.16-2.65-3.12-.28-1.24.8-5.72.8-5.72s2.91-11.2,3.16-11.73S158.35,105.5,158.8,102.78Z"/><path class="cls-28" d="M164.92,78.34a2.64,2.64,0,0,0-2-1.49c-1.37-.14-2.15-.52-2.29-1a9.74,9.74,0,0,0-.48-1.88,13.93,13.93,0,0,1-.61-2.65s-1-.36-1.09-.82.49-2.1.43-2.22a4.12,4.12,0,0,1-.54-1.91,9.59,9.59,0,0,1,.59-2.86c.41-1,3.32-6.76,10.89-3.77s1.83,9.44,2.59,13.6c0,0,.68.88-.57,2.37S167,77.5,164.92,78.34Z"/><path class="cls-34" d="M171.88,75.68c1.25-1.49.57-2.37.57-2.37a5.75,5.75,0,0,1,0-1.85l-3,.57S165,68.1,165.36,70.2s-.76,2.49-.76,2.49l.91,1.15c.23.3.09.64-.09,1-1.26,2.17-4.33,1.52-4.33,1.52a4.36,4.36,0,0,0,1.87.52,2.64,2.64,0,0,1,2,1.49C167,77.5,170.63,77.17,171.88,75.68Z"/><path class="cls-32" d="M158.65,61.27s-.53,1.55.33,2.21,1.63,1.27,1.63,1.27v2a1.46,1.46,0,0,0,.23.8l1.08,1.66a2,2,0,0,1,.32,1.08v.81a.46.46,0,0,0,.41.46l.28,0a.46.46,0,0,0,.5-.41l.12-1.12s.57-.9,1.81.17l1.12.46a1.21,1.21,0,0,1,.67.71c.31.86,1,2.56,1.48,2.84.68.38,3.29-1,3.64-1.57s1.23-4.59,1.78-6.49.22-6.56-5.41-7.76S159.42,59.58,158.65,61.27Z"/><path class="cls-36" d="M172.28,72.64c.35-.6,1.23-4.59,1.78-6.49a13.8,13.8,0,0,1-5,1.88c-2.83.43-8.44-2.76-8.44-2.76v1.44a1.46,1.46,0,0,0,.23.8l1.08,1.66a2,2,0,0,1,.32,1.08v.81a.46.46,0,0,0,.41.46l.28,0a.46.46,0,0,0,.5-.41l.12-1.12s.57-.9,1.81.17l1.61.66s1,3,1.66,3.34S171.93,73.24,172.28,72.64Z"/><path class="cls-31" d="M172.39,72.83s2.19,1.35,1.1,3.27-9,5.35-9.44,5.86c0,0-.31-2.87.74-3.84,0,0,6.08-1.19,7-2.74A3.14,3.14,0,0,0,172.39,72.83Z"/><path class="cls-33" d="M172.39,72.83a3.14,3.14,0,0,1-.57,2.54c-.71,1.17-4.37,2.14-6.11,2.54h0a6.38,6.38,0,0,1,1.73,2.21c2.44-1.27,5.41-2.9,6.05-4C174.58,74.18,172.39,72.83,172.39,72.83Z"/><path class="cls-24" d="M173.87,79s-3.54,2-5.26,2.94S165,84,165,84l-.66-.66-.79,1.75a23.65,23.65,0,0,0-4,3,13.89,13.89,0,0,0-2.38,3.56s3.39-4.45,6.07-5.77l.72-.36.41-1.38.66.69S172.8,80.16,173.87,79Z"/><path class="cls-41" d="M164.75,139h0a1.77,1.77,0,0,0-.47-.76L149.71,126c-.38-.32-.75-.08-.83.55l-1.7,14.23a2.28,2.28,0,0,0,.57,1.8L160,153.18l-.42,4.11,3.66-1.68h0a.89.89,0,0,0,.32-.7L164.89,140A2.51,2.51,0,0,0,164.75,139Z"/><path class="cls-29" d="M145.75,127.42l3.44-1.49.11,0a.47.47,0,0,1,.41.13l14.56,12.22a1.77,1.77,0,0,1,.47.76l-.52.25h0l-3,1.43L148.5,129.78h0Z"/><path class="cls-24" d="M144.17,144.2l14.89,13c.41.36.79.08.86-.61l1.45-14.95a2.32,2.32,0,0,0-.61-1.8l-14.53-12.28c-.38-.32-.76-.08-.83.55l-1.79,14.3A2.29,2.29,0,0,0,144.17,144.2Z"/><path class="cls-23" d="M161.77,155.69l1.4-14.91a2.31,2.31,0,0,0-.61-1.79L148,126.73a.52.52,0,0,0-.34-.14.45.45,0,0,1,.47.11L162.68,139a2.31,2.31,0,0,1,.61,1.79l-1.4,14.91c0,.47-.23.77-.48.78C161.6,156.35,161.73,156.08,161.77,155.69Z"/><path class="cls-23" d="M156.43,133.74l.76-.38a.73.73,0,0,1,.47-.08h.06c.08,0,.12.1.1.21v.14l-2.14,1.07v-.14a.66.66,0,0,1,.16-.35l.07-.08A1.76,1.76,0,0,1,156.43,133.74Z"/><polygon class="cls-23" points="156.71 135.58 155.68 134.71 157.8 133.33 158.82 134.18 156.71 135.58"/><path class="cls-42" d="M157.46,134.6l.76-.38a.73.73,0,0,1,.47-.09h.06c.08,0,.12.1.1.22v.14l-2.14,1.07v-.14a.66.66,0,0,1,.16-.35L157,135A1.76,1.76,0,0,1,157.46,134.6Z"/><polygon class="cls-43" points="157.92 134.97 157.98 134.34 157.92 134.38 157.85 135 157.92 134.97"/><polygon class="cls-43" points="157.98 134.34 156.93 133.49 156.87 133.52 157.92 134.38 157.98 134.34"/><path class="cls-23" d="M151.81,129.85l.76-.38a.73.73,0,0,1,.47-.08h.06c.08,0,.11.1.1.21l0,.14L151,130.81l0-.14a.65.65,0,0,1,.16-.34l.07-.08A1.77,1.77,0,0,1,151.81,129.85Z"/><polygon class="cls-23" points="152.06 131.67 151.05 130.81 153.17 129.45 154.17 130.29 152.06 131.67"/><path class="cls-44" d="M152.82,130.7l.76-.38a.73.73,0,0,1,.47-.08h.06c.08,0,.11.1.1.21l0,.14-2.14,1.06,0-.14a.66.66,0,0,1,.16-.34l.07-.08A1.77,1.77,0,0,1,152.82,130.7Z"/><polygon class="cls-43" points="153.28 131.07 153.34 130.45 153.28 130.48 153.21 131.1 153.28 131.07"/><polygon class="cls-43" points="153.34 130.45 152.3 129.61 152.25 129.63 153.28 130.48 153.34 130.45"/><path class="cls-29" d="M158.39,131.36l-.27,2.65-.69-.58.27-2.58a1.38,1.38,0,0,0-.41-1.08l-3-2.48c-.26-.22-.51-.1-.55.27l-.28,2.55-.68-.57.29-2.62c.09-.82.64-1.09,1.22-.6l3.16,2.64A3,3,0,0,1,158.39,131.36Z"/><path class="cls-29" d="M153.29,127.12l1.22-.12,3.53,3.29.15,2-.07,1.7-.79.4,0-2.12,0-1.45-.73-1s-1.32-1.07-1.34-1.1S153.29,127.12,153.29,127.12Z"/><polygon class="cls-29" points="152.7 130.51 153.49 130.12 153.69 128.24 152.94 128.3 152.72 128.34 152.7 130.51"/><path class="cls-29" d="M152.72,126.54l.85-.42-.23.46-.28.1Z"/><path class="cls-23" d="M157.61,131.75l-.28,2.66-.69-.58.27-2.58a1.38,1.38,0,0,0-.41-1.09l-3-2.48c-.26-.22-.51-.1-.55.27l-.29,2.55-.68-.57.3-2.62c.09-.82.64-1.09,1.22-.6l3.16,2.64A3.05,3.05,0,0,1,157.61,131.75Z"/><path class="cls-28" d="M154.29,125.06a16.4,16.4,0,0,0-.36,3.25,4.31,4.31,0,0,0,2.13,2.14c.75.23.44-.66.61-1.22a8.09,8.09,0,0,0,.14-1.78Z"/><path class="cls-34" d="M156.81,127.45l-2.52-2.39s-.1.53-.2,1.17a6.26,6.26,0,0,0,2.65,2.69A10.24,10.24,0,0,0,156.81,127.45Z"/><path class="cls-27" d="M154.11,125.26s.89,2.79,3.13,3.06l-.76-3.06-2-.54C154.47,124.71,154.11,125.26,154.11,125.26Z"/><path class="cls-45" d="M168.68,92.44c2.08,6.32-3.12,16.15-3.87,19s-8.66,16.31-8.66,16.31h0l-.07.13a4.58,4.58,0,0,0,.52.35,1.55,1.55,0,0,0,.36.13h0a.45.45,0,0,0,.46-.19c1.85-2.49,7-12.85,7.18-13.29s3.45-8.77,4.27-10.62C169.52,102.83,171.72,95.76,168.68,92.44Z"/><path class="cls-46" d="M84.29,153.26a3,3,0,0,1-1.47-.34l-33.09-19.1a1.16,1.16,0,0,1-.66-1,1.51,1.51,0,0,1,.88-1.23L82.6,112.74a3.66,3.66,0,0,1,3.34-.13L119,131.72a1.16,1.16,0,0,1,.66,1,1.51,1.51,0,0,1-.88,1.23L86.16,152.79A3.83,3.83,0,0,1,84.29,153.26Zm-1.22-.79a3.2,3.2,0,0,0,2.83-.13l32.64-18.85c.39-.23.63-.52.63-.79a.69.69,0,0,0-.41-.55l-33.09-19.1a3.21,3.21,0,0,0-2.83.13L50.21,132c-.39.23-.63.52-.63.79a.69.69,0,0,0,.41.55Z"/><polygon class="cls-47" points="119.43 118.78 119.43 122.84 84.3 143.13 49.16 122.84 49.16 118.78 119.43 118.78"/><polygon class="cls-48" points="84.3 139.07 49.16 118.78 84.29 98.5 119.43 118.78 84.3 139.07"/><polygon class="cls-49" points="84.3 138.6 49.57 118.55 49.16 118.78 84.3 139.07 119.43 118.78 119.02 118.55 84.3 138.6"/><polygon class="cls-50" points="84.3 134.39 57.27 118.79 84.29 103.19 111.32 118.79 84.3 134.39"/><polygon class="cls-51" points="84.3 134.39 57.27 118.79 84.29 103.19 111.32 118.79 84.3 134.39"/><polygon class="cls-52" points="84.29 99.25 111.32 114.86 111.32 118.79 84.29 103.19 84.29 99.25"/><polygon class="cls-53" points="84.3 103.19 57.27 118.79 57.27 114.85 84.29 99.25 84.3 103.19"/><polygon class="cls-54" points="84.3 130.46 57.27 114.85 84.29 99.25 111.32 114.86 84.3 130.46"/><polygon class="cls-3" points="84.29 121.09 73.5 114.85 84.29 108.62 95.09 114.86 84.29 121.09"/><polygon class="cls-3" points="84.29 109.19 94.6 115.14 95.09 114.86 84.29 108.62 73.5 114.85 73.99 115.14 84.29 109.19"/><polygon class="cls-55" points="84.3 130.46 84.3 134.39 111.32 118.79 111.32 114.86 84.3 130.46"/><polygon class="cls-56" points="57.27 114.85 57.27 118.79 84.3 134.39 84.3 130.46 57.27 114.85"/><polygon class="cls-57" points="84.3 130.03 57.64 114.64 57.27 114.85 84.3 130.46 111.32 114.86 110.95 114.64 84.3 130.03"/><path class="cls-46" d="M84.29,245.43a3,3,0,0,1-1.47-.34L49.73,226a1.16,1.16,0,0,1-.66-1,1.51,1.51,0,0,1,.88-1.23L82.6,204.91a3.66,3.66,0,0,1,3.34-.13L119,223.88a1.16,1.16,0,0,1,.66,1,1.51,1.51,0,0,1-.88,1.23L86.16,245A3.83,3.83,0,0,1,84.29,245.43Zm-1.22-.79a3.2,3.2,0,0,0,2.83-.13l32.64-18.85c.39-.23.63-.52.63-.79a.69.69,0,0,0-.41-.55l-33.09-19.1a3.21,3.21,0,0,0-2.83.13L50.21,224.2c-.39.23-.63.52-.63.79a.69.69,0,0,0,.41.55Z"/><polygon class="cls-58" points="119.43 210.95 119.43 215.01 84.3 235.3 49.16 215.01 49.16 210.95 119.43 210.95"/><polygon class="cls-48" points="84.3 231.24 49.16 210.95 84.29 190.66 119.43 210.95 84.3 231.24"/><polygon class="cls-49" points="84.3 230.76 49.57 210.72 49.16 210.95 84.3 231.24 119.43 210.95 119.02 210.72 84.3 230.76"/><polygon class="cls-50" points="84.3 226.56 57.27 210.96 84.29 195.35 111.32 210.96 84.3 226.56"/><polygon class="cls-59" points="84.3 226.56 57.27 210.96 84.29 195.35 111.32 210.96 84.3 226.56"/><polygon class="cls-60" points="84.29 191.42 111.32 207.02 111.32 210.96 84.29 195.35 84.29 191.42"/><polygon class="cls-61" points="84.3 195.35 57.27 210.96 57.27 207.02 84.29 191.42 84.3 195.35"/><polygon class="cls-62" points="84.3 222.63 57.27 207.02 84.29 191.42 111.32 207.02 84.3 222.63"/><polygon class="cls-3" points="84.29 213.26 73.5 207.02 84.29 200.79 95.09 207.02 84.29 213.26"/><polygon class="cls-3" points="84.29 201.36 94.6 207.31 95.09 207.02 84.29 200.79 73.5 207.02 73.99 207.31 84.29 201.36"/><polygon class="cls-63" points="84.3 222.63 84.3 226.56 111.32 210.96 111.32 207.02 84.3 222.63"/><polygon class="cls-64" points="57.27 207.02 57.27 210.96 84.3 226.56 84.3 222.63 57.27 207.02"/><polygon class="cls-57" points="84.3 222.2 57.64 206.81 57.27 207.02 84.3 222.63 111.32 207.02 110.95 206.81 84.3 222.2"/><path class="cls-46" d="M225.14,153.26a3,3,0,0,1-1.47-.34l-33.09-19.1a1.16,1.16,0,0,1-.66-1,1.51,1.51,0,0,1,.88-1.23l32.64-18.85a3.66,3.66,0,0,1,3.34-.13l33.09,19.1a1.16,1.16,0,0,1,.66,1,1.51,1.51,0,0,1-.88,1.23L227,152.79A3.83,3.83,0,0,1,225.14,153.26Zm-1.22-.79a3.2,3.2,0,0,0,2.83-.13L259.4,133.5c.39-.23.63-.52.63-.79a.69.69,0,0,0-.41-.55l-33.09-19.1a3.21,3.21,0,0,0-2.83.13L191.06,132c-.39.23-.63.52-.63.79a.69.69,0,0,0,.41.55Z"/><polygon class="cls-65" points="260.28 118.78 260.28 122.84 225.14 143.13 190 122.84 190 118.78 260.28 118.78"/><polygon class="cls-48" points="225.14 139.07 190 118.78 225.14 98.5 260.28 118.78 225.14 139.07"/><polygon class="cls-49" points="225.14 138.6 190.41 118.55 190 118.78 225.14 139.07 260.28 118.78 259.87 118.55 225.14 138.6"/><polygon class="cls-50" points="225.14 134.39 198.12 118.79 225.14 103.19 252.17 118.79 225.14 134.39"/><polygon class="cls-66" points="225.14 134.39 198.12 118.79 225.14 103.19 252.17 118.79 225.14 134.39"/><polygon class="cls-67" points="225.14 99.25 252.17 114.86 252.17 118.79 225.14 103.19 225.14 99.25"/><polygon class="cls-68" points="225.14 103.19 198.12 118.79 198.12 114.85 225.14 99.25 225.14 103.19"/><polygon class="cls-69" points="225.14 130.46 198.12 114.85 225.14 99.25 252.17 114.86 225.14 130.46"/><polygon class="cls-3" points="225.14 121.09 214.34 114.85 225.14 108.62 235.94 114.86 225.14 121.09"/><polygon class="cls-3" points="225.14 109.19 235.44 115.14 235.94 114.86 225.14 108.62 214.34 114.85 214.84 115.14 225.14 109.19"/><polygon class="cls-70" points="225.14 130.46 225.14 134.39 252.17 118.79 252.17 114.86 225.14 130.46"/><polygon class="cls-71" points="198.12 114.85 198.12 118.79 225.14 134.39 225.14 130.46 198.12 114.85"/><polygon class="cls-57" points="225.14 130.03 198.49 114.64 198.12 114.85 225.14 130.46 252.17 114.86 251.8 114.64 225.14 130.03"/><path class="cls-46" d="M225.14,245.43a3,3,0,0,1-1.47-.34L190.58,226a1.16,1.16,0,0,1-.66-1,1.51,1.51,0,0,1,.88-1.23l32.64-18.85a3.66,3.66,0,0,1,3.34-.13l33.09,19.1a1.16,1.16,0,0,1,.66,1,1.51,1.51,0,0,1-.88,1.23L227,245A3.83,3.83,0,0,1,225.14,245.43Zm-1.22-.79a3.2,3.2,0,0,0,2.83-.13l32.64-18.85c.39-.23.63-.52.63-.79a.69.69,0,0,0-.41-.55l-33.09-19.1a3.21,3.21,0,0,0-2.83.13L191.06,224.2c-.39.23-.63.52-.63.79a.69.69,0,0,0,.41.55Z"/><polygon class="cls-72" points="260.28 210.95 260.28 215.01 225.14 235.3 190 215.01 190 210.95 260.28 210.95"/><polygon class="cls-48" points="225.14 231.24 190 210.95 225.14 190.66 260.28 210.95 225.14 231.24"/><polygon class="cls-49" points="225.14 230.76 190.41 210.72 190 210.95 225.14 231.24 260.28 210.95 259.87 210.72 225.14 230.76"/><polygon class="cls-50" points="225.14 226.56 198.12 210.96 225.14 195.35 252.17 210.96 225.14 226.56"/><polygon class="cls-73" points="225.14 226.56 198.12 210.96 225.14 195.35 252.17 210.96 225.14 226.56"/><polygon class="cls-74" points="225.14 191.42 252.17 207.02 252.17 210.96 225.14 195.35 225.14 191.42"/><polygon class="cls-75" points="225.14 195.35 198.12 210.96 198.12 207.02 225.14 191.42 225.14 195.35"/><polygon class="cls-76" points="225.14 222.63 198.12 207.02 225.14 191.42 252.17 207.02 225.14 222.63"/><polygon class="cls-3" points="225.14 213.26 214.34 207.02 225.14 200.79 235.94 207.02 225.14 213.26"/><polygon class="cls-3" points="225.14 201.36 235.44 207.31 235.94 207.02 225.14 200.79 214.34 207.02 214.84 207.31 225.14 201.36"/><polygon class="cls-77" points="225.14 222.63 225.14 226.56 252.17 210.96 252.17 207.02 225.14 222.63"/><polygon class="cls-78" points="198.12 207.02 198.12 210.96 225.14 226.56 225.14 222.63 198.12 207.02"/><polygon class="cls-57" points="225.14 222.2 198.49 206.81 198.12 207.02 225.14 222.63 252.17 207.02 251.8 206.81 225.14 222.2"/><g class="cls-4"><path class="cls-79" d="M54.84,17.13c24.28-7.31,38.72,20.2,24.54,46.72C67.34,86.35,38,102.61,30.32,79c-4.52-13.91-.77-48,22.19-60.84-6.19,3.2-10.73,7.73-15.19,15.14,8.47,10.42,9.16,11.27,16.47,19.68,8.66-20.46,9.37-22.13,15.77-36a20.87,20.87,0,0,0-14.72.15Zm-1.7.7-.55.26.55-.26Zm1.24-.52.41-.16-.41.16Zm-.58.24-.57.25.57-.25Zm0,0,.46-.19-.46.19Z"/><path class="cls-2" d="M13.79,43.22q2.13-2.23,4.56-4.39v70.81q-2.43,2.16-4.56,4.39V43.22Z"/><path class="cls-2" d="M6.51,77.34a54.78,54.78,0,0,1,3.33-4.69v45.91a54.78,54.78,0,0,0-3.33,4.69V77.34Z"/><path class="cls-79" d="M0,130.71l.07.16.09-4.65L0,126v4.73ZM0,144.4V73.6q0-.68,0-1.36A36.46,36.46,0,0,1,1.69,62.7V133.5A36.46,36.46,0,0,0,0,143q0,.68,0,1.36Z"/><polygon class="cls-2" points="0 130.71 0.07 130.87 0.16 126.22 0 125.97 0 130.71 0 130.71"/><path class="cls-2" d="M52.59,18.09l-.08,0,.08,0Zm2.19-.94.06,0-.06,0Zm-1.56.64-.09,0,.09,0Zm1-.44h.12l-.12,0Z"/><path class="cls-2" d="M53.79,17.54A20.78,20.78,0,0,1,69.56,17c-9.05,19.95-10,22-15.77,36C44.87,42.57,43.5,41,37.32,33.26c1.75-2.91,7.07-11.75,16.47-15.72Z"/><path class="cls-79" d="M110,191.72c-7.28,2.16-12-2.26-13.67-3.57C82.93,176.82,71.22,163,57.8,151.74c-4-3.33-6.39-2-7.77-1.59-25,9.92-25,9.92-29,3.87-7.35-13-7.6-14.06-11-22.2-.78-1.86-3.43-4.67-4.6-4.52C-.22,128.88.52,130,0,130.71V126c6.62-2.55,7.3-2.86,10,3.3,12.36,26.23,14.53,25.65,17.41,25,26.33-10.53,26-9.76,32.71-2.79,11.61,12.09,35,35.62,42.25,37.49a25,25,0,0,0,7.83-.56c25.42-8.51,35.5-13.87,60.37-24.58l2.23,3.61c-9.21,4-37,15-62.64,23Zm79.44,28.55V149.46q-11.73.66-23.91.57C73.49,149.3,0,115.21,0,73.6V144.4C0,186,73.49,220.11,165.51,220.84q12.16.1,23.91-.57Z"/><path class="cls-2" d="M110,191.72c-6.55,1.68-12.74,3.26-51.29-38.2-4.88-4.9-4.88-4.9-29.91,5.07-2.84.69-7.14,1.73-19-26.5C6.15,123.75.06,130.63,0,130.71V126a16.36,16.36,0,0,1,5.32-2.13A2.35,2.35,0,0,1,7,124c.83.43,1.67,1.41,3.13,4.52C17,143,17,143,21.89,151c2.89,4.29,2.89,4.29,26.39-5,1.61-.43,4.94-1.33,10,2.69,14.15,11.29,25.67,25.4,39.63,36.89,5.24,3.73,8.41,6,72.68-21.71l2.23,3.61c-9.21,4-37.22,16.23-62.83,24.3Z"/></g></g></g></g></svg>