<svg xmlns="http://www.w3.org/2000/svg" xmlns:xlink="http://www.w3.org/1999/xlink" viewBox="0 0 234.54 234.73"><defs><style>.cls-1{fill:#172f78;}.cls-1,.cls-11{opacity:0.4;}.cls-2{fill:#03a7d3;}.cls-3{fill:url(#_ÂÁ_Ï_ÌÌ_È_ËÂÌÚ_515);}.cls-4{fill:url(#_ÂÁ_Ï_ÌÌ_È_ËÂÌÚ_19);}.cls-5{fill:url(#_ÂÁ_Ï_ÌÌ_È_ËÂÌÚ_515-2);}.cls-18,.cls-6{fill:#fff;}.cls-18,.cls-7,.cls-9{opacity:0.5;}.cls-8,.cls-9{fill:#380031;}.cls-10,.cls-11{fill:#06033e;}.cls-10{opacity:0.2;}.cls-12{fill:url(#_ÂÁ_Ï_ÌÌ_È_ËÂÌÚ_515-3);}.cls-13{fill:url(#_ÂÁ_Ï_ÌÌ_È_ËÂÌÚ_47);}.cls-14{fill:url(#_ÂÁ_Ï_ÌÌ_È_ËÂÌÚ_89);}.cls-15{fill:url(#_ÂÁ_Ï_ÌÌ_È_ËÂÌÚ_515-4);}.cls-16{fill:#8b1e64;}.cls-17{fill:#fb8488;}</style><linearGradient id="_ÂÁ_Ï_ÌÌ_È_ËÂÌÚ_515" x1="-438.63" y1="81.16" x2="-288.37" y2="81.16" gradientTransform="translate(522.91)" gradientUnits="userSpaceOnUse"><stop offset="0" stop-color="#b6246e"/><stop offset="1" stop-color="#f9636b"/></linearGradient><linearGradient id="_ÂÁ_Ï_ÌÌ_È_ËÂÌÚ_19" x1="-409.15" y1="155.21" x2="-324.77" y2="155.21" gradientTransform="translate(522.91)" gradientUnits="userSpaceOnUse"><stop offset="0" stop-color="#f9636b"/><stop offset="0.32" stop-color="#b7256e"/><stop offset="1" stop-color="#b6246e"/></linearGradient><linearGradient id="_ÂÁ_Ï_ÌÌ_È_ËÂÌÚ_515-2" x1="-313.64" y1="145.96" x2="-474.42" y2="154.55" xlink:href="#_ÂÁ_Ï_ÌÌ_È_ËÂÌÚ_515"/><linearGradient id="_ÂÁ_Ï_ÌÌ_È_ËÂÌÚ_515-3" x1="30.71" y1="58.75" x2="-3.18" y2="49.65" gradientTransform="matrix(1, 0, 0, 1, 0, 0)" xlink:href="#_ÂÁ_Ï_ÌÌ_È_ËÂÌÚ_515"/><radialGradient id="_ÂÁ_Ï_ÌÌ_È_ËÂÌÚ_47" cx="30.41" cy="60.4" r="25.24" gradientUnits="userSpaceOnUse"><stop offset="0" stop-color="#f9636b"/><stop offset="1" stop-color="#b6246e"/></radialGradient><linearGradient id="_ÂÁ_Ï_ÌÌ_È_ËÂÌÚ_89" x1="5.66" y1="50.11" x2="41.6" y2="50.11" gradientUnits="userSpaceOnUse"><stop offset="0" stop-color="#a31c5a"/><stop offset="1" stop-color="#f9636b"/></linearGradient><linearGradient id="_ÂÁ_Ï_ÌÌ_È_ËÂÌÚ_515-4" x1="35.09" y1="56.32" x2="0.96" y2="51.05" gradientTransform="matrix(1, 0, 0, 1, 0, 0)" xlink:href="#_ÂÁ_Ï_ÌÌ_È_ËÂÌÚ_515"/></defs><title>CMs@2x</title><g id="Calque_2" data-name="Calque 2"><g id="_ÎÓÈ_1" data-name="—ÎÓÈ_1"><path class="cls-1" d="M121.55,234.73a6.16,6.16,0,0,1-3-.69L1.28,166.34A2.23,2.23,0,0,1,0,164.45a3,3,0,0,1,1.76-2.39L77,118.61a7.7,7.7,0,0,1,6.92-.28L201.17,186a2.23,2.23,0,0,1,1.28,1.89,3,3,0,0,1-1.76,2.39l-75.25,43.45A8,8,0,0,1,121.55,234.73Zm-2.77-1.13a7.15,7.15,0,0,0,6.42-.28l75.25-43.45a2.53,2.53,0,0,0,1.51-2,1.76,1.76,0,0,0-1-1.46L83.68,118.77a7.14,7.14,0,0,0-6.42.28L2,162.49a2.53,2.53,0,0,0-1.51,2,1.76,1.76,0,0,0,1,1.46Z"/><path class="cls-2" d="M121.55,223.85a6.17,6.17,0,0,1-3-.69L1.28,155.46A2.23,2.23,0,0,1,0,153.57a3,3,0,0,1,1.76-2.39L77,107.73a7.7,7.7,0,0,1,6.92-.28l117.25,67.69a2.23,2.23,0,0,1,1.28,1.89,3,3,0,0,1-1.76,2.4l-75.25,43.45A8,8,0,0,1,121.55,223.85Zm-2.77-1.13a7.15,7.15,0,0,0,6.42-.28L200.44,179a2.53,2.53,0,0,0,1.51-2,1.76,1.76,0,0,0-1-1.45L83.68,107.89a7.14,7.14,0,0,0-6.42.28L2,151.61a2.53,2.53,0,0,0-1.51,2,1.76,1.76,0,0,0,1,1.46Z"/><path class="cls-3" d="M232.2,67.88,115.41.45A3,3,0,0,0,113,.11h0l-2.16.75.76.18a3.78,3.78,0,0,0-.71,1.34L84.49,88.13a5.17,5.17,0,0,0,2.14,5.77l116.79,67.43a3.43,3.43,0,0,0,.86.35l-.29.63,2.07-.73h0a3.3,3.3,0,0,0,1.88-2.18l26.41-85.75A5.17,5.17,0,0,0,232.2,67.88Z"/><path class="cls-4" d="M199.24,164.53l0,0L83.92,98a7.36,7.36,0,0,0-6.62.27l-74.53,43-2.49-.95.7,3.49H1a2.09,2.09,0,0,0,1.12,1.4l116.42,67.22a7.36,7.36,0,0,0,6.62-.27L199.87,169a3,3,0,0,0,1.58-1.85h0l.71-3.39Z"/><path class="cls-5" d="M118.65,209.37,1.4,141.67c-1.71-1-1.49-2.71.48-3.85L77.13,94.38a7.41,7.41,0,0,1,6.67-.28L201,161.79c1.71,1,1.49,2.71-.48,3.85l-75.25,43.45A7.41,7.41,0,0,1,118.65,209.37Z"/><path class="cls-6" d="M1.4,139.7,118.65,207.4a7.41,7.41,0,0,0,6.67-.28l75.25-43.45a3.7,3.7,0,0,0,1.29-1.17c.71,1,.27,2.24-1.29,3.13l-75.25,43.45a7.41,7.41,0,0,1-6.67.28L1.4,141.67A1.78,1.78,0,0,1,.6,139,2.56,2.56,0,0,0,1.4,139.7Z"/><path class="cls-2" d="M201.43,162,84.64,94.6a5.17,5.17,0,0,1-2.14-5.77L108.91,3.08a3,3,0,0,1,4.51-1.93L230.21,68.58a5.17,5.17,0,0,1,2.14,5.77L205.94,160.1A3,3,0,0,1,201.43,162Z"/><path class="cls-2" d="M203,162.73a3.46,3.46,0,0,1-1.73-.49L84.52,94.82a5.44,5.44,0,0,1-2.25-6.06L108.67,3a3.53,3.53,0,0,1,2-2.35,3.23,3.23,0,0,1,2.84.28L230.33,68.36a5.44,5.44,0,0,1,2.25,6.06l-26.41,85.75a3.53,3.53,0,0,1-2,2.35A3,3,0,0,1,203,162.73Zm-1.48-.92a2.75,2.75,0,0,0,2.4.25,3,3,0,0,0,1.74-2l26.41-85.75a4.91,4.91,0,0,0-2-5.48L113.29,1.37a2.74,2.74,0,0,0-2.4-.25,3,3,0,0,0-1.74,2L82.74,88.9a4.92,4.92,0,0,0,2,5.48Z"/><g class="cls-7"><path class="cls-8" d="M59.89,129.26,56,127c-.31-.18-.27-.49.09-.7l4.58-2.64a1.35,1.35,0,0,1,1.21-.05l3.88,2.24c.31.18.27.49-.09.7l-4.58,2.64A1.35,1.35,0,0,1,59.89,129.26Z"/><path class="cls-8" d="M65.87,132.72,62,130.48c-.31-.18-.27-.49.09-.7l4.58-2.64a1.35,1.35,0,0,1,1.21-.05l3.88,2.24c.31.18.27.49-.09.7l-4.58,2.64A1.35,1.35,0,0,1,65.87,132.72Z"/><path class="cls-8" d="M71.86,136.18,68,133.94c-.31-.18-.27-.49.09-.7l4.58-2.64a1.35,1.35,0,0,1,1.21-.05l3.88,2.24c.31.18.27.49-.09.7l-4.58,2.64A1.35,1.35,0,0,1,71.86,136.18Z"/><path class="cls-8" d="M80.14,133.32l-3.88-2.24c-.31-.18-.27-.49.09-.7l3.84-2.22a1.35,1.35,0,0,1,1.21-.05l3.88,2.24c.31.18.27.49-.09.7l-3.84,2.22A1.35,1.35,0,0,1,80.14,133.32Z"/><path class="cls-8" d="M86.13,136.78l-3.88-2.24c-.31-.18-.27-.49.09-.7l3.84-2.22a1.35,1.35,0,0,1,1.21-.05l3.88,2.24c.31.18.27.49-.09.7l-3.84,2.22A1.35,1.35,0,0,1,86.13,136.78Z"/><path class="cls-8" d="M92.12,140.23,88.24,138c-.31-.18-.27-.49.09-.7l3.84-2.22a1.35,1.35,0,0,1,1.21-.05l3.88,2.24c.31.18.27.49-.09.7l-3.84,2.22A1.35,1.35,0,0,1,92.12,140.23Z"/><path class="cls-8" d="M98.11,143.69l-3.88-2.24c-.31-.18-.27-.49.09-.7l3.84-2.22a1.35,1.35,0,0,1,1.21-.05l3.88,2.24c.31.18.27.49-.09.7l-3.84,2.22A1.35,1.35,0,0,1,98.11,143.69Z"/><path class="cls-8" d="M104.1,147.15l-3.88-2.24c-.31-.18-.27-.49.09-.7l3.84-2.22a1.35,1.35,0,0,1,1.21-.05l3.88,2.24c.31.18.27.49-.09.7l-3.84,2.22A1.35,1.35,0,0,1,104.1,147.15Z"/><path class="cls-8" d="M110.08,150.61l-3.88-2.24c-.31-.18-.27-.49.09-.7l3.84-2.22a1.35,1.35,0,0,1,1.21-.05l3.88,2.24c.31.18.27.49-.09.7l-3.84,2.22A1.35,1.35,0,0,1,110.08,150.61Z"/><path class="cls-8" d="M116.07,154.06l-3.88-2.24c-.31-.18-.27-.49.09-.7l3.84-2.22a1.35,1.35,0,0,1,1.21-.05l3.88,2.24c.31.18.27.49-.09.7L117.29,154A1.35,1.35,0,0,1,116.07,154.06Z"/><path class="cls-8" d="M122.06,157.52l-3.88-2.24c-.31-.18-.27-.49.09-.7l3.84-2.22a1.35,1.35,0,0,1,1.21-.05l3.88,2.24c.31.18.27.49-.09.7l-3.84,2.22A1.35,1.35,0,0,1,122.06,157.52Z"/><path class="cls-8" d="M128,161l-3.88-2.24c-.31-.18-.27-.49.09-.7l3.84-2.22a1.35,1.35,0,0,1,1.21-.05l3.88,2.24c.31.18.27.49-.09.7l-3.84,2.22A1.35,1.35,0,0,1,128,161Z"/><path class="cls-8" d="M134,164.44l-3.88-2.24c-.31-.18-.27-.49.09-.7l3.84-2.22a1.35,1.35,0,0,1,1.21-.05l3.88,2.24c.31.18.27.49-.09.7l-3.84,2.22A1.35,1.35,0,0,1,134,164.44Z"/><path class="cls-8" d="M89,131.68l-3.88-2.24c-.31-.18-.27-.49.09-.7L89,126.53a1.35,1.35,0,0,1,1.21-.05l3.88,2.24c.31.18.27.49-.09.7l-3.84,2.22A1.35,1.35,0,0,1,89,131.68Z"/><path class="cls-8" d="M82.89,128.17,79,125.94c-.31-.18-.27-.49.09-.7L82.94,123a1.35,1.35,0,0,1,1.21-.05L88,125.2c.31.18.27.49-.09.7l-3.84,2.22A1.35,1.35,0,0,1,82.89,128.17Z"/><path class="cls-8" d="M76.8,124.66l-8.35-4.82c-.31-.18-.27-.49.09-.7l3.84-2.22a1.35,1.35,0,0,1,1.21-.05l8.35,4.82c.31.18.27.49-.09.7L78,124.61A1.35,1.35,0,0,1,76.8,124.66Z"/><path class="cls-8" d="M81.06,120.39l-6.78-3.91c-.31-.18-.27-.49.09-.7l3.84-2.22a1.35,1.35,0,0,1,1.21-.05l6.78,3.91c.31.18.27.49-.09.7l-3.84,2.22A1.35,1.35,0,0,1,81.06,120.39Z"/><path class="cls-8" d="M95,135.14l-3.88-2.24c-.31-.18-.27-.49.09-.7L95,130a1.35,1.35,0,0,1,1.21-.05l3.88,2.24c.31.18.27.49-.09.7l-3.84,2.22A1.35,1.35,0,0,1,95,135.14Z"/><path class="cls-8" d="M100.94,138.6l-3.88-2.24c-.31-.18-.27-.49.09-.7l3.84-2.22a1.35,1.35,0,0,1,1.21-.05l3.88,2.24c.31.18.27.49-.09.7l-3.84,2.22A1.35,1.35,0,0,1,100.94,138.6Z"/><path class="cls-8" d="M106.93,142.06l-3.88-2.24c-.31-.18-.27-.49.09-.7L107,136.9a1.35,1.35,0,0,1,1.21-.05l3.88,2.24c.31.18.27.49-.09.7L108.15,142A1.35,1.35,0,0,1,106.93,142.06Z"/><path class="cls-8" d="M112.92,145.51,109,143.27c-.31-.18-.27-.49.09-.7l3.84-2.22a1.35,1.35,0,0,1,1.21-.05l3.88,2.24c.31.18.27.49-.09.7l-3.84,2.22A1.35,1.35,0,0,1,112.92,145.51Z"/><path class="cls-8" d="M118.91,149,115,146.73c-.31-.18-.27-.49.09-.7l3.84-2.22a1.35,1.35,0,0,1,1.21-.05l3.88,2.24c.31.18.27.49-.09.7l-3.84,2.22A1.35,1.35,0,0,1,118.91,149Z"/><path class="cls-8" d="M124.89,152.43,121,150.19c-.31-.18-.27-.49.09-.7l3.84-2.22a1.35,1.35,0,0,1,1.21-.05l3.88,2.24c.31.18.27.49-.09.7l-3.84,2.22A1.35,1.35,0,0,1,124.89,152.43Z"/><path class="cls-8" d="M130.88,155.88,127,153.65c-.31-.18-.27-.49.09-.7l3.84-2.22a1.35,1.35,0,0,1,1.21-.05l3.88,2.24c.31.18.27.49-.09.7l-3.84,2.22A1.35,1.35,0,0,1,130.88,155.88Z"/><path class="cls-8" d="M136.87,159.34,133,157.1c-.31-.18-.27-.49.09-.7l3.84-2.22a1.35,1.35,0,0,1,1.21-.05l3.88,2.24c.31.18.27.49-.09.7l-3.84,2.22A1.35,1.35,0,0,1,136.87,159.34Z"/><path class="cls-8" d="M142.86,162.8,139,160.56c-.31-.18-.27-.49.09-.7l3.84-2.22a1.35,1.35,0,0,1,1.21-.05l3.88,2.24c.31.18.27.49-.09.7l-3.84,2.22A1.35,1.35,0,0,1,142.86,162.8Z"/><path class="cls-8" d="M153.5,168.94,145,164.06c-.31-.18-.27-.49.09-.7l3.84-2.22a1.35,1.35,0,0,1,1.21-.05l8.46,4.88c.31.18.27.49-.09.7l-3.84,2.22A1.35,1.35,0,0,1,153.5,168.94Z"/><path class="cls-8" d="M165.16,162.21,158,158.09c-.31-.18-.27-.49.09-.7l3.84-2.22a1.35,1.35,0,0,1,1.21-.05l7.14,4.12c.31.18.27.49-.09.7l-3.84,2.22A1.35,1.35,0,0,1,165.16,162.21Z"/><path class="cls-8" d="M105.44,134.46l-3.88-2.24c-.31-.18-.27-.49.09-.7l3.84-2.22a1.35,1.35,0,0,1,1.21-.05l3.88,2.24c.31.18.27.49-.09.7l-3.84,2.22A1.35,1.35,0,0,1,105.44,134.46Z"/><path class="cls-8" d="M99.3,130.92l-3.88-2.24c-.31-.18-.27-.49.09-.7l3.84-2.22a1.35,1.35,0,0,1,1.21-.05l3.88,2.24c.31.18.27.49-.09.7l-3.84,2.22A1.35,1.35,0,0,1,99.3,130.92Z"/><path class="cls-8" d="M93.17,127.38l-3.88-2.24c-.31-.18-.27-.49.09-.7l3.84-2.22a1.35,1.35,0,0,1,1.21-.05l3.88,2.24c.31.18.27.49-.09.7l-3.84,2.22A1.35,1.35,0,0,1,93.17,127.38Z"/><path class="cls-8" d="M87,123.83l-3.88-2.24c-.31-.18-.27-.49.09-.7l3.84-2.22a1.35,1.35,0,0,1,1.21-.05l3.88,2.24c.31.18.27.49-.09.7l-3.84,2.22A1.35,1.35,0,0,1,87,123.83Z"/><path class="cls-8" d="M111.43,137.92l-3.88-2.24c-.31-.18-.27-.49.09-.7l3.84-2.22a1.35,1.35,0,0,1,1.21-.05l3.88,2.24c.31.18.27.49-.09.7l-3.84,2.22A1.35,1.35,0,0,1,111.43,137.92Z"/><path class="cls-8" d="M117.42,141.38l-3.88-2.24c-.31-.18-.27-.49.09-.7l3.84-2.22a1.35,1.35,0,0,1,1.21-.05l3.88,2.24c.31.18.27.49-.09.7l-3.84,2.22A1.35,1.35,0,0,1,117.42,141.38Z"/><path class="cls-8" d="M123.4,144.84l-3.88-2.24c-.31-.18-.27-.49.09-.7l3.84-2.22a1.35,1.35,0,0,1,1.21-.05l3.88,2.24c.31.18.27.49-.09.7l-3.84,2.22A1.35,1.35,0,0,1,123.4,144.84Z"/><path class="cls-8" d="M129.39,148.29l-3.88-2.24c-.31-.18-.27-.49.09-.7l3.84-2.22a1.35,1.35,0,0,1,1.21-.05l3.88,2.24c.31.18.27.49-.09.7l-3.84,2.22A1.35,1.35,0,0,1,129.39,148.29Z"/><path class="cls-8" d="M135.38,151.75l-3.88-2.24c-.31-.18-.27-.49.09-.7l3.84-2.22a1.35,1.35,0,0,1,1.21-.05l3.88,2.24c.31.18.27.49-.09.7l-3.84,2.22A1.35,1.35,0,0,1,135.38,151.75Z"/><path class="cls-8" d="M141.37,155.21,137.49,153c-.31-.18-.27-.49.09-.7l3.84-2.22a1.35,1.35,0,0,1,1.21-.05l3.88,2.24c.31.18.27.49-.09.7l-3.84,2.22A1.35,1.35,0,0,1,141.37,155.21Z"/><path class="cls-8" d="M147.36,158.66l-3.88-2.24c-.31-.18-.27-.49.09-.7l3.84-2.22a1.35,1.35,0,0,1,1.21-.05l3.88,2.24c.31.18.27.49-.09.7l-3.84,2.22A1.35,1.35,0,0,1,147.36,158.66Z"/><path class="cls-8" d="M153.35,162.12l-3.88-2.24c-.31-.18-.27-.49.09-.7L153.4,157a1.35,1.35,0,0,1,1.21-.05l3.88,2.24c.31.18.27.49-.09.7l-3.84,2.22A1.35,1.35,0,0,1,153.35,162.12Z"/><path class="cls-8" d="M159.33,165.58l-3.88-2.24c-.31-.18-.27-.49.09-.7l3.84-2.22a1.35,1.35,0,0,1,1.21-.05l3.88,2.24c.31.18.27.49-.09.7l-3.84,2.22A1.35,1.35,0,0,1,159.33,165.58Z"/><path class="cls-8" d="M102.29,125.91l-3.88-2.24c-.31-.18-.27-.49.09-.7l3.84-2.22a1.35,1.35,0,0,1,1.21-.05l3.88,2.24c.31.18.27.49-.09.7l-3.84,2.22A1.35,1.35,0,0,1,102.29,125.91Z"/><path class="cls-8" d="M96.33,122.47l-3.88-2.24c-.31-.18-.27-.49.09-.7l3.84-2.22a1.35,1.35,0,0,1,1.21-.05l3.88,2.24c.31.18.27.49-.09.7l-3.84,2.22A1.35,1.35,0,0,1,96.33,122.47Z"/><path class="cls-8" d="M90.37,119l-3.88-2.24c-.31-.18-.27-.49.09-.7l3.84-2.22a1.35,1.35,0,0,1,1.21-.05l3.88,2.24c.31.18.27.49-.09.7L91.59,119A1.35,1.35,0,0,1,90.37,119Z"/><path class="cls-8" d="M84.41,115.59l-3.88-2.24c-.31-.18-.27-.49.09-.7l3.84-2.22a1.35,1.35,0,0,1,1.21-.05l3.88,2.24c.31.18.27.49-.09.7l-3.84,2.22A1.35,1.35,0,0,1,84.41,115.59Z"/><path class="cls-8" d="M90.54,112.06l-3.88-2.24c-.31-.18-.27-.49.09-.7l1.27-.73a1.35,1.35,0,0,1,1.21-.05l3.88,2.24c.31.18.27.49-.09.7l-1.27.73A1.35,1.35,0,0,1,90.54,112.06Z"/><path class="cls-8" d="M98.32,116.54l-3.88-2.24c-.31-.18-.27-.49.09-.7l1.27-.73a1.35,1.35,0,0,1,1.21-.05l3.88,2.24c.31.18.27.49-.09.7l-1.27.73A1.35,1.35,0,0,1,98.32,116.54Z"/><path class="cls-8" d="M104.25,120l-3.88-2.24c-.31-.18-.27-.49.09-.7l1.27-.73a1.35,1.35,0,0,1,1.21-.05l3.88,2.24c.31.18.27.49-.09.7l-1.27.73A1.35,1.35,0,0,1,104.25,120Z"/><path class="cls-8" d="M110.18,123.4l-3.88-2.24c-.31-.18-.27-.49.09-.7l1.27-.73a1.35,1.35,0,0,1,1.21-.05l3.88,2.24c.31.18.27.49-.09.7l-1.27.73A1.35,1.35,0,0,1,110.18,123.4Z"/><path class="cls-8" d="M116.12,126.82l-3.88-2.24c-.31-.18-.27-.49.09-.7l1.27-.73a1.35,1.35,0,0,1,1.21-.05l3.88,2.24c.31.18.27.49-.09.7l-1.27.73A1.35,1.35,0,0,1,116.12,126.82Z"/><path class="cls-8" d="M149.24,145.95l-3.88-2.24c-.31-.18-.27-.49.09-.7l1.27-.73a1.35,1.35,0,0,1,1.21-.05l3.88,2.24c.31.18.27.49-.09.7l-1.27.73A1.35,1.35,0,0,1,149.24,145.95Z"/><path class="cls-8" d="M155.17,149.37l-3.88-2.24c-.31-.18-.27-.49.09-.7l1.27-.73a1.35,1.35,0,0,1,1.21-.05l3.88,2.24c.31.18.27.49-.09.7l-1.27.73A1.35,1.35,0,0,1,155.17,149.37Z"/><path class="cls-8" d="M161.11,152.8l-3.88-2.24c-.31-.18-.27-.49.09-.7l1.27-.73a1.35,1.35,0,0,1,1.21-.05l3.88,2.24c.31.18.27.49-.09.7l-1.27.73A1.35,1.35,0,0,1,161.11,152.8Z"/><path class="cls-8" d="M167,156.22,163.16,154c-.31-.18-.27-.49.09-.7l1.27-.73a1.35,1.35,0,0,1,1.21-.05l3.88,2.24c.31.18.27.49-.09.7l-1.27.73A1.35,1.35,0,0,1,167,156.22Z"/><path class="cls-8" d="M108.28,129.37l-3.88-2.24c-.31-.18-.27-.49.09-.7l3.84-2.22a1.35,1.35,0,0,1,1.21-.05l3.88,2.24c.31.18.27.49-.09.7l-3.84,2.22A1.35,1.35,0,0,1,108.28,129.37Z"/><path class="cls-8" d="M114.26,132.83l-3.88-2.24c-.31-.18-.27-.49.09-.7l3.84-2.22a1.35,1.35,0,0,1,1.21-.05l3.88,2.24c.31.18.27.49-.09.7l-3.84,2.22A1.35,1.35,0,0,1,114.26,132.83Z"/><path class="cls-8" d="M120.25,136.28,116.37,134c-.31-.18-.27-.49.09-.7l3.84-2.22a1.35,1.35,0,0,1,1.21-.05l3.88,2.24c.31.18.27.49-.09.7l-3.84,2.22A1.35,1.35,0,0,1,120.25,136.28Z"/><path class="cls-8" d="M126.24,139.74l-3.88-2.24c-.31-.18-.27-.49.09-.7l3.84-2.22a1.35,1.35,0,0,1,1.21-.05l3.88,2.24c.31.18.27.49-.09.7l-3.84,2.22A1.35,1.35,0,0,1,126.24,139.74Z"/><path class="cls-8" d="M132.23,143.2,128.35,141c-.31-.18-.27-.49.09-.7l3.84-2.22a1.35,1.35,0,0,1,1.21-.05l3.88,2.24c.31.18.27.49-.09.7l-3.84,2.22A1.35,1.35,0,0,1,132.23,143.2Z"/><path class="cls-8" d="M138.22,146.66l-3.88-2.24c-.31-.18-.27-.49.09-.7l3.84-2.22a1.35,1.35,0,0,1,1.21-.05l3.88,2.24c.31.18.27.49-.09.7l-3.84,2.22A1.35,1.35,0,0,1,138.22,146.66Z"/><path class="cls-8" d="M144.2,150.11l-3.88-2.24c-.31-.18-.27-.49.09-.7l3.84-2.22a1.35,1.35,0,0,1,1.21-.05l3.88,2.24c.31.18.27.49-.09.7l-3.84,2.22A1.35,1.35,0,0,1,144.2,150.11Z"/><path class="cls-8" d="M150.19,153.57l-3.88-2.24c-.31-.18-.27-.49.09-.7l3.84-2.22a1.35,1.35,0,0,1,1.21-.05l3.88,2.24c.31.18.27.49-.09.7l-3.84,2.22A1.35,1.35,0,0,1,150.19,153.57Z"/><path class="cls-8" d="M156.18,157l-3.88-2.24c-.31-.18-.27-.49.09-.7l3.84-2.22a1.35,1.35,0,0,1,1.21-.05l3.88,2.24c.31.18.27.49-.09.7L157.39,157A1.35,1.35,0,0,1,156.18,157Z"/><path class="cls-8" d="M74,129.8,62.62,123.2c-.31-.18-.27-.49.09-.7l3.84-2.22a1.35,1.35,0,0,1,1.21-.05l11.42,6.59c.31.18.27.49-.09.7l-3.84,2.22A1.35,1.35,0,0,1,74,129.8Z"/><path class="cls-8" d="M147.61,172.27l-11.42-6.59c-.31-.18-.27-.49.09-.7l3.84-2.22a1.35,1.35,0,0,1,1.21-.05l11.42,6.59c.31.18.27.49-.09.7l-3.84,2.22A1.35,1.35,0,0,1,147.61,172.27Z"/><path class="cls-8" d="M123.66,166.08l-3.88-2.24c-.31-.18-.27-.49.09-.7l4.58-2.64a1.35,1.35,0,0,1,1.21-.05l3.88,2.24c.31.18.27.49-.09.7L124.87,166A1.35,1.35,0,0,1,123.66,166.08Z"/><path class="cls-8" d="M80.17,141,74,137.39c-.31-.18-.27-.49.09-.7l4.58-2.64a1.35,1.35,0,0,1,1.21-.05l6.2,3.58c.31.18.27.49-.09.7l-4.58,2.64A1.35,1.35,0,0,1,80.17,141Z"/><path class="cls-8" d="M117.89,162.75l-6.2-3.58c-.31-.18-.27-.49.09-.7l4.58-2.64a1.35,1.35,0,0,1,1.21-.05l6.2,3.58c.31.18.27.49-.09.7l-4.58,2.64A1.35,1.35,0,0,1,117.89,162.75Z"/><path class="cls-8" d="M88.81,146l-6.2-3.58c-.31-.18-.27-.49.09-.7L87.28,139a1.35,1.35,0,0,1,1.21-.05l6.2,3.58c.31.18.27.49-.09.7L90,145.91A1.35,1.35,0,0,1,88.81,146Z"/><path class="cls-8" d="M88.53,139l27,15.57a.37.37,0,0,1,0,.7L110.83,158a1.34,1.34,0,0,1-1.21,0l-27-15.57Z"/><path class="cls-8" d="M140.39,172.35l4.32,2.49c.26.15.22.4-.07.57l-1.87,1.08a1.11,1.11,0,0,1-1,0L137.46,174c-.26-.15-.22-.4.07-.57l1.87-1.08A1.11,1.11,0,0,1,140.39,172.35Z"/><path class="cls-8" d="M134.36,168.86l4.32,2.49c.26.15.22.4-.07.57L136.73,173a1.11,1.11,0,0,1-1,0l-4.32-2.49c-.26-.15-.22-.4.07-.57l1.87-1.08A1.11,1.11,0,0,1,134.36,168.86Z"/><path class="cls-8" d="M128.37,165.41l4.32,2.49c.26.15.22.4-.07.57l-1.87,1.08a1.11,1.11,0,0,1-1,0l-4.32-2.49c-.26-.15-.22-.4.07-.57l1.87-1.08A1.11,1.11,0,0,1,128.37,165.41Z"/><path class="cls-8" d="M137.66,167l4.32,2.49c.26.15.22.4-.07.57L140,171.1a1.11,1.11,0,0,1-1,0l-4.32-2.49c-.26-.15-.22-.4.07-.57l1.87-1.08A1.11,1.11,0,0,1,137.66,167Z"/></g><path class="cls-9" d="M89.11,178.78a5.58,5.58,0,0,1-2.75-.64L56.27,160.76a2.11,2.11,0,0,1-1.2-1.79,2.78,2.78,0,0,1,1.62-2.24l15.49-8.94a6.85,6.85,0,0,1,6.26-.24l30.09,17.38a2.11,2.11,0,0,1,1.2,1.79,2.78,2.78,0,0,1-1.62,2.24l-15.49,8.94A7.18,7.18,0,0,1,89.11,178.78Zm-2.38-1.27a6.16,6.16,0,0,0,5.53-.24l15.49-8.94c.8-.46,1.26-1,1.26-1.61a1.44,1.44,0,0,0-.84-1.16L78.08,148.17a6.16,6.16,0,0,0-5.53.24l-15.49,8.94c-.8.46-1.26,1-1.26,1.61a1.44,1.44,0,0,0,.84,1.16Z"/><path class="cls-6" d="M125.55,33.87l-3.42-2a.89.89,0,0,1-.38-1h0a.51.51,0,0,1,.77-.32l3.42,2a.89.89,0,0,1,.38,1h0A.51.51,0,0,1,125.55,33.87Z"/><path class="cls-6" d="M133.69,38.57l-5-2.91a.89.89,0,0,1-.38-1h0a.51.51,0,0,1,.77-.32l5,2.91a.89.89,0,0,1,.38,1h0A.51.51,0,0,1,133.69,38.57Z"/><path class="cls-6" d="M118.66,49.08l-3.42-2a.89.89,0,0,1-.38-1h0a.51.51,0,0,1,.77-.32l3.42,2a.89.89,0,0,1,.38,1h0A.51.51,0,0,1,118.66,49.08Z"/><path class="cls-6" d="M125.92,53.27l-5-2.91a.89.89,0,0,1-.38-1h0a.51.51,0,0,1,.77-.32l5,2.91a.89.89,0,0,1,.38,1h0A.51.51,0,0,1,125.92,53.27Z"/><path class="cls-6" d="M115.32,31.16l-2.13-1.23a.89.89,0,0,1-.38-1h0a.51.51,0,0,1,.77-.32l2.13,1.23a.89.89,0,0,1,.38,1h0A.51.51,0,0,1,115.32,31.16Z"/><path class="cls-6" d="M121.74,38.07l-6.52-3.76a.89.89,0,0,1-.38-1h0a.51.51,0,0,1,.77-.32l6.52,3.76a.89.89,0,0,1,.38,1h0A.51.51,0,0,1,121.74,38.07Z"/><path class="cls-6" d="M115.73,41l-2.13-1.23a.89.89,0,0,1-.38-1h0a.51.51,0,0,1,.77-.32l2.13,1.23a.89.89,0,0,1,.38,1h0A.51.51,0,0,1,115.73,41Z"/><path class="cls-6" d="M126.7,60.12,121,56.83a.89.89,0,0,1-.38-1h0a.51.51,0,0,1,.77-.32l5.7,3.29a.89.89,0,0,1,.38,1h0A.51.51,0,0,1,126.7,60.12Z"/><path class="cls-6" d="M113.34,46,112,45.22a.89.89,0,0,1-.38-1h0a.51.51,0,0,1,.77-.32l1.37.79a.89.89,0,0,1,.38,1h0A.51.51,0,0,1,113.34,46Z"/><path class="cls-6" d="M112,51.65l-1.7-1a.89.89,0,0,1-.38-1h0a.51.51,0,0,1,.77-.32l1.7,1a.89.89,0,0,1,.38,1h0A.51.51,0,0,1,112,51.65Z"/><path class="cls-6" d="M118.66,55.48l-4.49-2.59a.89.89,0,0,1-.38-1h0a.51.51,0,0,1,.77-.32L119,54.17a.89.89,0,0,1,.38,1h0A.51.51,0,0,1,118.66,55.48Z"/><path class="cls-6" d="M112.75,55.26l-3.22-1.86a.89.89,0,0,1-.38-1h0a.51.51,0,0,1,.77-.32L113.14,54a.89.89,0,0,1,.38,1h0A.51.51,0,0,1,112.75,55.26Z"/><path class="cls-6" d="M131.59,63l-2.07-1.2a.89.89,0,0,1-.38-1h0a.51.51,0,0,1,.77-.32l2.07,1.2a.89.89,0,0,1,.38,1h0A.51.51,0,0,1,131.59,63Z"/><path class="cls-6" d="M123.67,45.58,118,42.28a.89.89,0,0,1-.38-1h0a.51.51,0,0,1,.77-.32l5.7,3.29a.89.89,0,0,1,.38,1h0A.51.51,0,0,1,123.67,45.58Z"/><path class="cls-6" d="M124.34,42.77,114.41,37a.89.89,0,0,1-.38-1h0a.51.51,0,0,1,.77-.32l9.93,5.74a.89.89,0,0,1,.38,1h0A.51.51,0,0,1,124.34,42.77Z"/><path class="cls-6" d="M118.48,45.78l-5.7-3.29a.89.89,0,0,1-.38-1h0a.51.51,0,0,1,.77-.32l5.7,3.29a.89.89,0,0,1,.38,1h0A.51.51,0,0,1,118.48,45.78Z"/><path class="cls-6" d="M128,48.07l-2.07-1.2a.89.89,0,0,1-.38-1h0a.51.51,0,0,1,.77-.32l2.07,1.2a.89.89,0,0,1,.38,1h0A.51.51,0,0,1,128,48.07Z"/><path class="cls-6" d="M144.09,44.55l-7.3-4.19a.89.89,0,0,1-.38-1h0a.51.51,0,0,1,.77-.32l7.3,4.19a.89.89,0,0,1,.38,1h0A.51.51,0,0,1,144.09,44.55Z"/><path class="cls-6" d="M118,51.9l-6.85-4a.89.89,0,0,1-.38-1h0a.51.51,0,0,1,.77-.32l6.85,4a.89.89,0,0,1,.38,1h0A.51.51,0,0,1,118,51.9Z"/><path class="cls-6" d="M119,30.11l-5-2.91a.89.89,0,0,1-.38-1h0a.51.51,0,0,1,.77-.32l5,2.91a.89.89,0,0,1,.38,1h0A.51.51,0,0,1,119,30.11Z"/><path class="cls-6" d="M111.7,57.85l-5.83-3.37a.89.89,0,0,1-.38-1h0a.51.51,0,0,1,.77-.32l5.83,3.37a.89.89,0,0,1,.38,1h0A.51.51,0,0,1,111.7,57.85Z"/><path class="cls-6" d="M116.62,64.1l-3.42-2a.89.89,0,0,1-.38-1h0a.51.51,0,0,1,.77-.32l3.42,2a.89.89,0,0,1,.38,1h0A.51.51,0,0,1,116.62,64.1Z"/><path class="cls-6" d="M124.76,68.8l-5-2.91a.89.89,0,0,1-.38-1h0a.51.51,0,0,1,.77-.32l5,2.91a.89.89,0,0,1,.38,1h0A.51.51,0,0,1,124.76,68.8Z"/><path class="cls-6" d="M109.73,79.31l-3.42-2a.89.89,0,0,1-.38-1h0a.51.51,0,0,1,.77-.32l3.42,2a.89.89,0,0,1,.38,1h0A.51.51,0,0,1,109.73,79.31Z"/><path class="cls-6" d="M117,83.5l-5-2.91a.89.89,0,0,1-.38-1h0a.51.51,0,0,1,.77-.32l5,2.91a.89.89,0,0,1,.38,1h0A.51.51,0,0,1,117,83.5Z"/><path class="cls-6" d="M106.39,61.39l-2.13-1.23a.89.89,0,0,1-.38-1h0a.51.51,0,0,1,.77-.32l2.13,1.23a.89.89,0,0,1,.38,1h0A.51.51,0,0,1,106.39,61.39Z"/><path class="cls-6" d="M112.81,68.29l-6.52-3.76a.89.89,0,0,1-.38-1h0a.51.51,0,0,1,.77-.32L113.2,67a.89.89,0,0,1,.38,1h0A.51.51,0,0,1,112.81,68.29Z"/><path class="cls-6" d="M106.79,71.22,104.66,70a.89.89,0,0,1-.38-1h0a.51.51,0,0,1,.77-.32l2.13,1.23a.89.89,0,0,1,.38,1h0A.51.51,0,0,1,106.79,71.22Z"/><path class="cls-6" d="M117.77,90.35l-5.7-3.29a.89.89,0,0,1-.38-1h0a.51.51,0,0,1,.77-.32l5.7,3.29a.89.89,0,0,1,.38,1h0A.51.51,0,0,1,117.77,90.35Z"/><path class="cls-6" d="M104.4,76.23,103,75.44a.89.89,0,0,1-.38-1h0a.51.51,0,0,1,.77-.32l1.37.79a.89.89,0,0,1,.38,1h0A.51.51,0,0,1,104.4,76.23Z"/><path class="cls-6" d="M103.1,81.88l-1.7-1a.89.89,0,0,1-.38-1h0a.51.51,0,0,1,.77-.32l1.7,1a.89.89,0,0,1,.38,1h0A.51.51,0,0,1,103.1,81.88Z"/><path class="cls-6" d="M109.72,85.7l-4.49-2.59a.89.89,0,0,1-.38-1h0a.51.51,0,0,1,.77-.32l4.49,2.59a.89.89,0,0,1,.38,1h0A.51.51,0,0,1,109.72,85.7Z"/><path class="cls-6" d="M103.81,85.49l-3.22-1.86a.89.89,0,0,1-.38-1h0a.51.51,0,0,1,.77-.32l3.22,1.86a.89.89,0,0,1,.38,1h0A.51.51,0,0,1,103.81,85.49Z"/><path class="cls-6" d="M122.66,93.18,120.59,92a.89.89,0,0,1-.38-1h0a.51.51,0,0,1,.77-.32l2.07,1.2a.89.89,0,0,1,.38,1h0A.51.51,0,0,1,122.66,93.18Z"/><path class="cls-6" d="M114.73,75.8,109,72.51a.89.89,0,0,1-.38-1h0a.51.51,0,0,1,.77-.32l5.7,3.29a.89.89,0,0,1,.38,1h0A.51.51,0,0,1,114.73,75.8Z"/><path class="cls-6" d="M115.41,73l-9.93-5.74a.89.89,0,0,1-.38-1h0a.51.51,0,0,1,.77-.32l9.93,5.74a.89.89,0,0,1,.38,1h0A.51.51,0,0,1,115.41,73Z"/><path class="cls-6" d="M109.54,76l-5.7-3.29a.89.89,0,0,1-.38-1h0a.51.51,0,0,1,.77-.32l5.7,3.29a.89.89,0,0,1,.38,1h0A.51.51,0,0,1,109.54,76Z"/><path class="cls-6" d="M119.05,78.3,117,77.1a.89.89,0,0,1-.38-1h0a.51.51,0,0,1,.77-.32l2.07,1.2a.89.89,0,0,1,.38,1h0A.51.51,0,0,1,119.05,78.3Z"/><path class="cls-6" d="M109.07,82.13l-6.85-4a.89.89,0,0,1-.38-1h0a.51.51,0,0,1,.77-.32l6.85,4a.89.89,0,0,1,.38,1h0A.51.51,0,0,1,109.07,82.13Z"/><path class="cls-6" d="M110.1,60.34l-5-2.91a.89.89,0,0,1-.38-1h0a.51.51,0,0,1,.77-.32l5,2.91a.89.89,0,0,1,.38,1h0A.51.51,0,0,1,110.1,60.34Z"/><path class="cls-6" d="M102.76,88.08l-5.83-3.37a.89.89,0,0,1-.38-1h0a.51.51,0,0,1,.77-.32l5.83,3.37a.89.89,0,0,1,.38,1h0A.51.51,0,0,1,102.76,88.08Z"/><path class="cls-6" d="M195.79,141.34a4.27,4.27,0,0,1-2.13-.6l-54.81-31.64a6.59,6.59,0,0,1-2.79-7.3l15.4-50.46a4.16,4.16,0,0,1,2.4-2.77,4,4,0,0,1,3.48.35l54.81,31.64a6.59,6.59,0,0,1,2.79,7.3l-15.4,50.46a4.16,4.16,0,0,1-2.4,2.77A3.63,3.63,0,0,1,195.79,141.34Zm-1.88-1a3.46,3.46,0,0,0,3,.32,3.67,3.67,0,0,0,2.11-2.45l15.4-50.46A6.06,6.06,0,0,0,211.89,81L157.09,49.34a3.46,3.46,0,0,0-3-.32,3.67,3.67,0,0,0-2.11,2.46l-15.4,50.46a6.06,6.06,0,0,0,2.56,6.72Z"/><path class="cls-6" d="M204.3,98a3,3,0,0,1-1.51-.43L154.85,69.9a4.62,4.62,0,0,1-2-5.12l2-6.43a2.94,2.94,0,0,1,1.7-2,2.8,2.8,0,0,1,2.46.25L207,84.32a4.62,4.62,0,0,1,2,5.12l-2,6.43a2.94,2.94,0,0,1-1.7,2A2.58,2.58,0,0,1,204.3,98ZM157.5,56.72a2.09,2.09,0,0,0-.77.14,2.45,2.45,0,0,0-1.4,1.64l-2,6.43a4.09,4.09,0,0,0,1.73,4.54L203,97.14a2.31,2.31,0,0,0,2,.21,2.45,2.45,0,0,0,1.4-1.64l2-6.43a4.09,4.09,0,0,0-1.73-4.54L158.76,57.08A2.51,2.51,0,0,0,157.5,56.72Z"/><path class="cls-6" d="M197.6,114.79l-9-5.19a4.35,4.35,0,0,1-1.84-4.82l2-6.43a2.51,2.51,0,0,1,3.79-1.57l9,5.19a4.35,4.35,0,0,1,1.84,4.82l-2,6.43A2.51,2.51,0,0,1,197.6,114.79Z"/><path class="cls-6" d="M193.66,132.86a3,3,0,0,1-1.51-.42l-9-5.19a4.61,4.61,0,0,1-2-5.11l2-6.43a2.94,2.94,0,0,1,1.7-2,2.8,2.8,0,0,1,2.46.24l9,5.19a4.61,4.61,0,0,1,2,5.11l-2,6.43a2.94,2.94,0,0,1-1.7,2A2.59,2.59,0,0,1,193.66,132.86ZM192.4,132a2.31,2.31,0,0,0,2,.21,2.45,2.45,0,0,0,1.4-1.64l2-6.43a4.09,4.09,0,0,0-1.73-4.53l-9-5.19a2.31,2.31,0,0,0-2-.21,2.45,2.45,0,0,0-1.4,1.64l-2,6.43a4.09,4.09,0,0,0,1.73,4.53Z"/><path class="cls-6" d="M172.68,121.41a3,3,0,0,1-1.51-.42L144,105.32a4.62,4.62,0,0,1-2-5.11l7.45-24.42a2.94,2.94,0,0,1,1.7-2,2.8,2.8,0,0,1,2.46.25l27.13,15.67a4.62,4.62,0,0,1,2,5.12l-7.45,24.42a2.94,2.94,0,0,1-1.7,2A2.58,2.58,0,0,1,172.68,121.41Zm-1.26-.86a2.32,2.32,0,0,0,2,.21,2.45,2.45,0,0,0,1.4-1.64l7.45-24.42a4.09,4.09,0,0,0-1.73-4.54L153.44,74.51a2.31,2.31,0,0,0-2-.21,2.45,2.45,0,0,0-1.4,1.64l-7.45,24.42a4.09,4.09,0,0,0,1.73,4.53Z"/><path class="cls-6" d="M210.22,70.07a1.8,1.8,0,0,1-.89-.24,1.92,1.92,0,0,1-.88-2.35,1.43,1.43,0,0,1,.87-.79,1.71,1.71,0,0,1,1.38.17,1.92,1.92,0,0,1,.88,2.35h0a1.42,1.42,0,0,1-.87.79A1.54,1.54,0,0,1,210.22,70.07Zm-.42-3a1,1,0,0,0-.33.05.93.93,0,0,0-.57.52,1.42,1.42,0,0,0,.67,1.71,1.21,1.21,0,0,0,1,.13.93.93,0,0,0,.57-.52,1.42,1.42,0,0,0-.67-1.71A1.31,1.31,0,0,0,209.8,67.11Z"/><path class="cls-6" d="M214.18,72.33a1.8,1.8,0,0,1-.89-.24,1.92,1.92,0,0,1-.88-2.35,1.42,1.42,0,0,1,.87-.79,1.7,1.7,0,0,1,1.38.17,1.92,1.92,0,0,1,.88,2.35,1.42,1.42,0,0,1-.87.79A1.54,1.54,0,0,1,214.18,72.33Zm-.42-3a1,1,0,0,0-.33.05.93.93,0,0,0-.57.52,1.41,1.41,0,0,0,.67,1.71,1.21,1.21,0,0,0,1,.13.93.93,0,0,0,.57-.52h0a1.41,1.41,0,0,0-.67-1.71A1.31,1.31,0,0,0,213.76,69.37Z"/><path class="cls-6" d="M219.26,73.62a1.29,1.29,0,0,1-1.89.51,1.67,1.67,0,0,1-.78-2,1.29,1.29,0,0,1,1.89-.51A1.67,1.67,0,0,1,219.26,73.62Z"/><path class="cls-1" d="M19.19,119.65A20.87,20.87,0,0,1,9,117.21c-2.77-1.6-4.3-3.74-4.3-6s1.53-4.43,4.3-6c5.62-3.25,14.78-3.25,20.41,0,2.77,1.6,4.3,3.74,4.3,6s-1.53,4.43-4.3,6h0A20.87,20.87,0,0,1,19.19,119.65Zm0-16.45a20.35,20.35,0,0,0-10,2.38c-2.61,1.51-4,3.5-4,5.6s1.44,4.09,4,5.6c5.49,3.17,14.42,3.17,19.91,0h0c2.61-1.51,4-3.5,4-5.6s-1.44-4.09-4-5.6A20.35,20.35,0,0,0,19.19,103.2Z"/><path class="cls-2" d="M19.19,111.42A20.88,20.88,0,0,1,9,109c-2.77-1.6-4.3-3.75-4.3-6s1.53-4.43,4.3-6c5.63-3.25,14.78-3.25,20.41,0,2.77,1.6,4.3,3.74,4.3,6s-1.53,4.43-4.3,6h0A20.87,20.87,0,0,1,19.19,111.42Zm0-16.45a20.35,20.35,0,0,0-10,2.38c-2.61,1.51-4,3.5-4,5.6s1.44,4.09,4,5.6c5.49,3.17,14.42,3.17,19.91,0h0c2.61-1.51,4-3.5,4-5.6s-1.44-4.09-4-5.6A20.35,20.35,0,0,0,19.19,95Z"/><path class="cls-2" d="M35.74,57.23H2.65L5.72,93.06h0c0,2,1.31,4,3.94,5.5,5.26,3,13.79,3,19,0,2.63-1.52,3.94-3.51,3.94-5.5Z"/><path class="cls-10" d="M35.74,57.23H2.65l.51,5.89a12.87,12.87,0,0,0,3.07,2.76c6.32,4.2,16.76,5,23.88,2L29,94.08a5.15,5.15,0,0,1-1.18,3.12c-1.07,1.26-3.14,2.75-7.11,3.59a18.68,18.68,0,0,0,8-2.22c2.63-1.52,3.94-3.51,3.94-5.5l2.47-28.74h0Z"/><path class="cls-11" d="M30.89,64C24.43,67.72,14,67.72,7.49,64S1,54.21,7.49,50.48s16.94-3.73,23.4,0S37.35,60.26,30.89,64Z"/><path class="cls-11" d="M29.27,59.68c-5.57,3.21-14.59,3.21-20.16,0S3.55,51.26,9.11,48s14.59-3.21,20.16,0S34.84,56.47,29.27,59.68Z"/><path class="cls-12" d="M36.72,56.78h0v-.08L36.4,53.5v0c-.14-2.43-1.81-4.83-5-6.69C24.64,43,13.75,43,7,46.85c-3.29,1.9-5,4.38-5,6.87H2l-.3,2.86c0,.07,0,.15,0,.22v0h0c-.18,2.72,1.52,5.48,5.12,7.55,6.85,4,18,4,24.81,0C35.22,62.3,36.93,59.52,36.72,56.78Z"/><path class="cls-13" d="M29.27,59.85c-5.57,3.21-14.59,3.21-20.16,0s-5.57-8.42,0-11.64,14.59-3.21,20.16,0S34.84,56.64,29.27,59.85Z"/><path class="cls-11" d="M10.8,49.27c5.57-3.21,14.59-3.21,20.16,0l.2.13A11.38,11.38,0,0,0,29.27,48c-5.57-3.21-14.59-3.21-20.16,0s-5.55,8.29-.2,11.51C5.34,56.37,6,52.07,10.8,49.27Z"/><path class="cls-14" d="M9.11,49.47c5.57-3.21,14.59-3.21,20.16,0,2.47,1.42,3.84,3.24,4.12,5.1.35-2.34-1-4.74-4.12-6.53-5.57-3.21-14.59-3.21-20.16,0C6,49.84,4.65,52.24,5,54.58,5.28,52.72,6.65,50.9,9.11,49.47Z"/><path class="cls-15" d="M31.46,46.92c-6.71-4-17.64-4-24.42-.22S.21,56.85,6.92,60.81s17.64,4,24.42.22S38.17,50.88,31.46,46.92ZM29.27,59.68a18.58,18.58,0,0,1-6.48,2.14L22.53,61a.82.82,0,0,0-.78-.58H16.63a.82.82,0,0,0-.78.58l-.26.85a18.57,18.57,0,0,1-6.48-2.14c-5.57-3.21-5.57-8.42,0-11.64s14.59-3.21,20.16,0S34.84,56.47,29.27,59.68Z"/><rect class="cls-16" x="17.28" y="61.44" width="3.83" height="0.83" rx="0.39" ry="0.39"/><path class="cls-17" d="M20.72,61.44H17.66a.39.39,0,0,0-.39.39v.05a.37.37,0,0,0,0,.1.38.38,0,0,1,.37-.28h3.06a.38.38,0,0,1,.37.28.38.38,0,0,0,0-.1v-.05A.39.39,0,0,0,20.72,61.44Z"/><path class="cls-18" d="M20.32,62s11.44-3.83,6.81-17-13.65-17.14-10-27.66c0,0-5.69,8.51-.37,20s6.48,10.19,6.42,15.7A9.93,9.93,0,0,1,17.8,62Z"/><path class="cls-18" d="M21.35,17.59S20.11,9.44,27.76,1.23c0,0-6.76,15.1-4.55,22.56C23.21,23.79,21.42,19,21.35,17.59Z"/></g></g></svg>