<svg xmlns="http://www.w3.org/2000/svg" viewBox="0 0 512 512"><defs><style>.cls-1{fill:#999;}</style></defs><title>mail@2x</title><g id="Calque_2" data-name="Calque 2"><g id="Calque_2-2" data-name="Calque 2"><path class="cls-1" d="M256,512a250.32,250.32,0,0,1-68.1-9.22,259.69,259.69,0,0,1-61.18-25.86,256.34,256.34,0,0,1-91.65-91.65A259.61,259.61,0,0,1,9.22,324.1a256.18,256.18,0,0,1,0-136.19,259.59,259.59,0,0,1,25.86-61.18,256.34,256.34,0,0,1,91.65-91.65A259.59,259.59,0,0,1,187.9,9.22a255.65,255.65,0,0,1,167.68,11A255.72,255.72,0,0,1,491.78,156.42a255.65,255.65,0,0,1,11,167.68,259.78,259.78,0,0,1-25.86,61.18,256.34,256.34,0,0,1-91.65,91.65,259.6,259.6,0,0,1-61.19,25.86A250.3,250.3,0,0,1,256,512ZM379.39,150.53H136.7a8.87,8.87,0,0,0-6.14,2.3,8.17,8.17,0,0,0-2.56,6.4v27.14q0,2,1.54,2L257,261.12l1,.51a2.09,2.09,0,0,0,1.54-.51L383,188.42a3.92,3.92,0,0,1,1.54-.51,3.94,3.94,0,0,0,1.54-.51,1.81,1.81,0,0,0,2-2V159.23a8.17,8.17,0,0,0-2.56-6.4A8.87,8.87,0,0,0,379.39,150.53ZM205.31,259.58a2.09,2.09,0,0,0,.51-1.54c0-1-.34-1.54-1-1.54l-73.22-42a3.3,3.3,0,0,0-2.56,0q-1,0-1,1.54V326.14a2,2,0,0,0,1.54,2h1q1,0,1-.51Zm89.09,8.19q-.51-1.54-2.56-.51l-28.16,16.38q-5.12,3.07-10.75,0l-24.58-13.82q-1.54-1-2.56,0l-93.7,87a3,3,0,0,0-.51,2q0,.51,1,1.54a16.81,16.81,0,0,0,4.1,1H376.83a2.94,2.94,0,0,0,2-1,4.06,4.06,0,0,0-.51-2.56Zm92.16-55.3h-2L314.88,254c-.68,0-1,.51-1,1.54q-.51.51.51,1.53L384,332.29c.68.68,1.19,1,1.54,1h1c1-1,1.54-1.71,1.54-2V214.53Q388.09,213.5,386.56,212.48Z"/></g></g></svg>