<svg xmlns="http://www.w3.org/2000/svg" xmlns:xlink="http://www.w3.org/1999/xlink" viewBox="0 0 393.83 310.41"><defs><style>.cls-1{fill:none;}.cls-11,.cls-2{opacity:0.4;}.cls-11,.cls-3{fill:#fff;}.cls-4{fill:#7dc3ea;}.cls-5{fill:#396caa;}.cls-6{fill:#173d7a;}.cls-7{fill:url(#_ÂÁ_Ï_ÌÌ_È_ËÂÌÚ_21);}.cls-8{fill:#d4ecff;}.cls-9{fill:url(#_ÂÁ_Ï_ÌÌ_È_ËÂÌÚ_28);}.cls-10{fill:#ff2c9c;}.cls-12{fill:#5793ce;}.cls-13{fill:url(#_ÂÁ_Ï_ÌÌ_È_ËÂÌÚ_31);}.cls-14{fill:url(#_ÂÁ_Ï_ÌÌ_È_ËÂÌÚ_9);}.cls-15{clip-path:url(#clip-path);}.cls-16{fill:#092e63;}.cls-17{fill:#b70083;}.cls-18{fill:url(#_ÂÁ_Ï_ÌÌ_È_ËÂÌÚ_31-2);}.cls-19{fill:#79b1e0;}</style><linearGradient id="_ÂÁ_Ï_ÌÌ_È_ËÂÌÚ_21" x1="174.27" y1="172.48" x2="383.62" y2="172.48" gradientUnits="userSpaceOnUse"><stop offset="0" stop-color="#86b8e0"/><stop offset="0.12" stop-color="#98c4e7"/><stop offset="0.33" stop-color="#b2d6f2"/><stop offset="0.54" stop-color="#c5e2f9"/><stop offset="0.76" stop-color="#d0eafe"/><stop offset="1" stop-color="#d4ecff"/></linearGradient><radialGradient id="_ÂÁ_Ï_ÌÌ_È_ËÂÌÚ_28" cx="363.18" cy="131.62" r="203.92" gradientUnits="userSpaceOnUse"><stop offset="0" stop-color="#173d7a"/><stop offset="0.42" stop-color="#153b76"/><stop offset="0.82" stop-color="#0e336b"/><stop offset="1" stop-color="#092e63"/></radialGradient><linearGradient id="_ÂÁ_Ï_ÌÌ_È_ËÂÌÚ_31" x1="175.51" y1="11.5" x2="201.49" y2="45.44" gradientUnits="userSpaceOnUse"><stop offset="0" stop-color="#ff2c9c"/><stop offset="0.31" stop-color="#fb289b"/><stop offset="0.6" stop-color="#f01d97"/><stop offset="0.88" stop-color="#dd0a91"/><stop offset="1" stop-color="#d3008d"/></linearGradient><linearGradient id="_ÂÁ_Ï_ÌÌ_È_ËÂÌÚ_9" x1="120.75" y1="23.16" x2="188.1" y2="56.61" gradientUnits="userSpaceOnUse"><stop offset="0" stop-color="#d4ecff"/><stop offset="0.24" stop-color="#d0eafe"/><stop offset="0.46" stop-color="#c5e2f9"/><stop offset="0.67" stop-color="#b2d6f2"/><stop offset="0.88" stop-color="#98c4e7"/><stop offset="1" stop-color="#86b8e0"/></linearGradient><clipPath id="clip-path"><path class="cls-1" d="M156.71,70.2c0,14.71-10.33,20.67-23.06,13.31s-23.06-25.24-23.06-39.94,10.33-20.67,23.06-13.31S156.71,55.49,156.71,70.2Z"/></clipPath><linearGradient id="_ÂÁ_Ï_ÌÌ_È_ËÂÌÚ_31-2" x1="187.46" y1="124.05" x2="272.89" y2="124.05" xlink:href="#_ÂÁ_Ï_ÌÌ_È_ËÂÌÚ_31"/></defs><title>Marketing digital@2x</title><g id="Calque_2" data-name="Calque 2"><g id="_ÎÓÈ_1" data-name="—ÎÓÈ_1"><g class="cls-2"><path class="cls-3" d="M355.93,92.15l-.28-.16-31-17.9L355.93,56l31.29,18.06ZM326.86,74.09l29.07,16.78L385,74.09,355.93,57.31Z"/><path class="cls-3" d="M295.58,92.15,264.3,74.09,295.58,56l31.28,18.06ZM266.51,74.09l29.07,16.78,29.07-16.78L295.58,57.31Z"/><path class="cls-3" d="M325.76,109.58l-.28-.16-31-17.9,31.28-18.06.28.16,31,17.9ZM296.69,91.51l29.07,16.78,29.07-16.78L325.76,74.73Z"/><path class="cls-3" d="M355.94,127l-.28-.16-31-17.9,31.28-18.06.28.16,31,17.9Zm-29.07-18.06,29.07,16.78L385,108.94,355.93,92.15Z"/><path class="cls-3" d="M235.23,92.15,235,92l-31-17.9L235.23,56l31.29,18.06ZM206.16,74.09l29.07,16.78L264.3,74.09,235.23,57.31Z"/><path class="cls-3" d="M265.4,109.57,234.12,91.51,265.4,73.45l31.28,18.06ZM236.33,91.51,265.4,108.3l29.07-16.78L265.4,74.73Z"/><path class="cls-3" d="M295.58,127,264.3,108.93l31.28-18.06.28.16,31,17.9Zm-29.07-18.06,29.07,16.78,29.07-16.78L295.58,92.15Z"/><path class="cls-3" d="M325.76,144.42l-.28-.16-31-17.9,31.28-18.06.28.16,31,17.9Zm-29.07-18.06,29.07,16.78,29.07-16.78-29.07-16.78Z"/><path class="cls-3" d="M355.94,161.84l-.28-.16-31-17.9,31.28-18.06.28.16,31,17.9Zm-29.07-18.06,29.07,16.78L385,143.78,355.94,127Z"/><path class="cls-3" d="M174.87,92.15,174.6,92l-31-17.9L174.87,56l.28.16,31,17.9ZM145.8,74.09l29.07,16.78,29.07-16.78L174.87,57.31Z"/><path class="cls-3" d="M205,109.57l-.28-.16-31-17.9L205,73.45l.28.16,31,17.9ZM176,91.51,205,108.3l29.07-16.78L205,74.73Z"/><path class="cls-3" d="M235.23,127l-.28-.16-31-17.9,31.28-18.06,31.28,18.06Zm-29.07-18.06,29.07,16.78,29.07-16.78L235.23,92.15Z"/><path class="cls-3" d="M265.4,144.42l-31.28-18.06L265.4,108.3l31.29,18.06Zm-29.07-18.06,29.07,16.78,29.07-16.78L265.4,109.57Z"/><path class="cls-3" d="M295.58,161.84,264.3,143.78l31.28-18.06.28.16,31,17.9Zm-29.07-18.06,29.07,16.78,29.07-16.78L295.58,127Z"/><path class="cls-3" d="M325.76,179.27l-.28-.16-31-17.9,31.28-18.06.28.16,31,17.9ZM296.69,161.2,325.76,178l29.07-16.78-29.07-16.78Z"/><path class="cls-3" d="M355.94,196.69l-.28-.16-31-17.9,31.28-18.06.28.16,31,17.9Zm-29.07-18.06,29.07,16.78L385,178.63l-29.07-16.78Z"/><path class="cls-3" d="M114.52,92.15l-.28-.16-31-17.9L114.52,56,145.8,74.09ZM85.45,74.09l29.07,16.78,29.07-16.78L114.52,57.3Z"/><path class="cls-3" d="M144.7,109.57l-.28-.16-31-17.9,31.28-18.06.28.16,31,17.9ZM115.62,91.51l29.07,16.78,29.07-16.78L144.69,74.73Z"/><path class="cls-3" d="M174.87,127l-31.29-18.06,31.28-18.06.28.16,31,17.9ZM145.8,108.93l29.07,16.78,29.07-16.78L174.87,92.15Z"/><path class="cls-3" d="M205.05,144.42l-.28-.16-31-17.9L205,108.3l.28.16,31,17.9ZM176,126.36l29.07,16.78,29.07-16.78L205,109.57Z"/><path class="cls-3" d="M235.23,161.84l-31.28-18.06,31.28-18.06,31.28,18.06Zm-29.07-18.06,29.07,16.78,29.07-16.78L235.23,127Z"/><path class="cls-3" d="M265.41,179.27l-.28-.16-31-17.9,31.28-18.06,31.29,18.06ZM236.33,161.2,265.41,178l29.07-16.78L265.4,144.42Z"/><path class="cls-3" d="M295.58,196.69l-.28-.16-31-17.9,31.28-18.06.28.16,31,17.9Zm-29.07-18.06,29.07,16.78,29.07-16.78-29.07-16.78Z"/><path class="cls-3" d="M325.76,214.11,294.48,196,325.76,178l.28.16,31,17.9ZM296.69,196l29.07,16.78,29.07-16.78-29.07-16.78Z"/><path class="cls-3" d="M355.94,231.54l-.28-.16-31-17.9,31.28-18.06.28.16,31,17.9Zm-29.07-18.06,29.07,16.78L385,213.47l-29.07-16.78Z"/><path class="cls-3" d="M54.16,92.15,22.88,74.09,54.16,56l.28.16,31,17.9ZM25.09,74.09,54.16,90.87,83.23,74.09,54.16,57.3Z"/><path class="cls-3" d="M84.34,109.57l-.28-.16-31-17.9L84.34,73.45l.28.16,31,17.9ZM55.27,91.51l29.07,16.78,29.07-16.78L84.34,74.73Z"/><path class="cls-3" d="M114.52,127l-.28-.16-31-17.9,31.28-18.06.28.16,31,17.9ZM85.45,108.93l29.07,16.78,29.07-16.78L114.52,92.15Z"/><path class="cls-3" d="M144.7,144.42l-.28-.16-31-17.9,31.28-18.06L176,126.36Zm-29.07-18.06,29.07,16.78,29.07-16.78L144.7,109.57Z"/><path class="cls-3" d="M174.87,161.84l-.28-.16-31-17.9,31.28-18.06.28.16,31,17.9ZM145.8,143.78l29.07,16.78,29.07-16.78L174.87,127Z"/><path class="cls-3" d="M205.05,179.27,173.77,161.2l31.28-18.06,31.28,18.06ZM176,161.2,205.05,178l29.07-16.78-29.07-16.78Z"/><path class="cls-3" d="M235.23,196.69l-.28-.16-31-17.9,31.28-18.06.28.16,31,17.9Zm-29.07-18.06,29.07,16.78,29.07-16.78-29.07-16.78Z"/><path class="cls-3" d="M265.41,214.11l-.28-.16-31-17.9L265.41,178l.28.16,31,17.9ZM236.34,196l29.07,16.78L294.48,196l-29.07-16.78Z"/><path class="cls-3" d="M295.58,231.53l-.28-.16-31-17.9,31.28-18.06,31.29,18.06Zm-29.07-18.06,29.07,16.78,29.07-16.78-29.07-16.78Z"/><path class="cls-3" d="M325.76,249l-.28-.16-31-17.9,31.28-18.06.28.16,31,17.9Zm-29.07-18.06,29.07,16.78,29.07-16.78-29.07-16.78Z"/><path class="cls-3" d="M355.94,266.38l-31.29-18.06,31.28-18.06.28.16,31,17.9Zm-29.07-18.06,29.07,16.78L385,248.32l-29.07-16.78Z"/><path class="cls-3" d="M54.16,127,22.88,108.93,54.16,90.87l.28.16,31,17.9ZM25.09,108.93l29.07,16.78,29.07-16.78L54.16,92.15Z"/><path class="cls-3" d="M84.34,144.42l-.28-.16-31-17.9,31.28-18.06.28.16,31,17.9ZM55.27,126.36l29.07,16.78,29.07-16.78L84.34,109.57Z"/><path class="cls-3" d="M114.52,161.84l-.28-.16-31-17.9,31.28-18.06.28.16,31,17.9ZM85.45,143.78l29.07,16.78,29.07-16.78L114.52,127Z"/><path class="cls-3" d="M144.7,179.26l-.28-.16-31-17.9,31.28-18.06.28.16,31,17.9ZM115.63,161.2,144.7,178l29.07-16.78L144.7,144.42Z"/><path class="cls-3" d="M174.87,196.69l-31.28-18.06,31.28-18.06,31.28,18.06ZM145.8,178.63l29.07,16.78,29.07-16.78-29.07-16.78Z"/><path class="cls-3" d="M205.05,214.11,173.77,196,205.05,178l.28.16,31,17.9ZM176,196l29.07,16.78L234.12,196l-29.07-16.78Z"/><path class="cls-3" d="M235.23,231.53l-.28-.16-31-17.9,31.28-18.06.28.16,31,17.9Zm-29.07-18.06,29.07,16.78,29.07-16.78-29.07-16.78Z"/><path class="cls-3" d="M265.41,249l-.28-.16-31-17.9,31.28-18.06.28.16,31,17.9Zm-29.07-18.06,29.07,16.78,29.07-16.78-29.07-16.78Z"/><path class="cls-3" d="M295.58,266.38l-.28-.16-31-17.9,31.28-18.06.28.16,31,17.9Zm-29.07-18.06,29.07,16.78,29.07-16.78-29.07-16.78Z"/><path class="cls-3" d="M325.76,283.8l-.28-.16-31-17.9,31.28-18.06L357,265.74Zm-29.07-18.06,29.07,16.78,29.07-16.78L325.76,249Z"/><path class="cls-3" d="M355.94,301.23l-31.29-18.06,31.28-18.06.28.16,31,17.9Zm-29.07-18.06,29.07,16.78L385,283.16l-29.07-16.78Z"/><path class="cls-3" d="M54.16,161.84l-.28-.16-31-17.9,31.28-18.06.28.16,31,17.9ZM25.09,143.78l29.07,16.78,29.07-16.78L54.16,127Z"/><path class="cls-3" d="M84.34,179.26,53.06,161.2l31.28-18.06.28.16,31,17.9ZM55.27,161.2,84.34,178l29.07-16.78L84.34,144.42Z"/><path class="cls-3" d="M114.52,196.69l-.28-.16-31-17.9,31.28-18.06.28.16,31,17.9ZM85.45,178.63l29.07,16.78,29.07-16.78-29.07-16.78Z"/><path class="cls-3" d="M144.7,214.11l-.28-.16-31-17.9L144.7,178,176,196ZM115.63,196l29.07,16.78L173.77,196,144.7,179.26Z"/><path class="cls-3" d="M174.87,231.53l-31.28-18.06,31.28-18.06,31.29,18.06Zm-29.07-18.06,29.07,16.78,29.07-16.78-29.07-16.78Z"/><path class="cls-3" d="M205.05,249l-.28-.16-31-17.9,31.28-18.06.28.16,31,17.9ZM176,230.89l29.07,16.78,29.07-16.78-29.07-16.78Z"/><path class="cls-3" d="M235.23,266.38l-31.29-18.06,31.28-18.06.28.16,31,17.9Zm-29.07-18.06,29.07,16.78,29.07-16.78-29.07-16.78Z"/><path class="cls-3" d="M265.41,283.8l-.28-.16-31-17.9,31.28-18.06.28.16,31,17.9Zm-29.07-18.06,29.07,16.78,29.07-16.78L265.41,249Z"/><path class="cls-3" d="M295.59,301.23l-.28-.16-31-17.9,31.28-18.06.28.16,31,17.9Zm-29.07-18.06,29.07,16.78,29.07-16.78-29.07-16.78Z"/><path class="cls-3" d="M54.17,196.69l-.28-.16-31-17.9,31.28-18.06,31.29,18.06ZM25.1,178.62l29.07,16.78,29.07-16.78L54.16,161.84Z"/><path class="cls-3" d="M84.34,214.11l-.28-.16-31-17.9L84.34,178l.28.16,31,17.9ZM55.27,196l29.07,16.78L113.41,196,84.34,179.26Z"/><path class="cls-3" d="M114.52,231.53,83.24,213.47l31.28-18.06.28.16,31,17.9ZM85.45,213.47l29.07,16.78,29.07-16.78-29.07-16.78Z"/><path class="cls-3" d="M144.7,249l-31.28-18.06,31.28-18.06L176,230.89Zm-29.07-18.06,29.07,16.78,29.07-16.78L144.7,214.11Z"/><path class="cls-3" d="M174.88,266.38l-.28-.16-31-17.9,31.28-18.06.28.16,31,17.9Zm-29.07-18.06,29.07,16.78,29.07-16.78-29.07-16.78Z"/><path class="cls-3" d="M205.05,283.8l-.28-.16-31-17.9,31.28-18.06,31.29,18.06ZM176,265.74l29.07,16.78,29.07-16.78L205.05,249Z"/><path class="cls-3" d="M235.23,301.22l-.28-.16-31-17.9,31.28-18.06.28.16,31,17.9Zm-29.07-18.06,29.07,16.78,29.07-16.78-29.07-16.78Z"/><path class="cls-3" d="M54.17,231.53l-.28-.16-31-17.9,31.28-18.06.28.16,31,17.9ZM25.1,213.47l29.07,16.78,29.07-16.78L54.17,196.69Z"/><path class="cls-3" d="M84.34,249l-.28-.16-31-17.9,31.28-18.06,31.29,18.06ZM55.27,230.89l29.07,16.78,29.07-16.78L84.34,214.11Z"/><path class="cls-3" d="M114.52,266.38,83.24,248.32l31.28-18.06,31.28,18.06ZM85.45,248.32l29.07,16.78,29.07-16.78-29.07-16.78Z"/><path class="cls-3" d="M144.7,283.8l-.28-.16-31-17.9,31.28-18.06.28.16,31,17.9Zm-29.07-18.06,29.07,16.78,29.07-16.78L144.7,249Z"/><path class="cls-3" d="M174.88,301.22l-.28-.16-31-17.9,31.28-18.06.28.16,31,17.9Zm-29.07-18.06,29.07,16.78,29.07-16.78-29.07-16.78Z"/><path class="cls-3" d="M54.17,266.38l-.28-.16-31-17.9,31.28-18.06.28.16,31,17.9ZM25.1,248.32,54.17,265.1l29.07-16.78L54.17,231.53Z"/><path class="cls-3" d="M84.35,283.8l-.28-.16-31-17.9,31.28-18.06,31.28,18.06ZM55.28,265.74l29.07,16.78,29.07-16.78L84.34,249Z"/><path class="cls-3" d="M114.52,301.22,83.24,283.16l31.28-18.06.28.16,31,17.9ZM85.45,283.16l29.07,16.78,29.07-16.78-29.07-16.78Z"/><path class="cls-3" d="M54.17,301.22l-.28-.16-31-17.9L54.17,265.1l.28.16,31,17.9ZM25.1,283.16l29.07,16.78,29.07-16.78L54.17,266.38Z"/></g><path class="cls-4" d="M361.22,174.09l-84.08-48.69c-4.57-2.65-12.55-2.33-17.83.71L82.86,227.67c-5.28,3-5.86,7.65-1.29,10.29l84.08,48.69c4.57,2.65,12.55,2.33,17.83-.71L359.93,184.39C365.21,181.35,365.79,176.74,361.22,174.09Z"/><path class="cls-3" d="M173.43,278a17.28,17.28,0,0,1-8.53-2L80.83,227.35c-2.46-1.43-3.82-3.47-3.81-5.75,0-2.64,1.87-5.22,5.11-7.09L258.58,113c5.77-3.33,14.25-3.64,19.3-.71L362,160.93c2.46,1.43,3.82,3.47,3.81,5.75,0,2.64-1.87,5.22-5.11,7.09L184.21,275.33A22.1,22.1,0,0,1,173.43,278Zm96-164.83a19.36,19.36,0,0,0-9.35,2.3L83.59,217.06c-2.28,1.31-3.63,3-3.64,4.54s1.27,2.58,2.35,3.2l84.08,48.69c4.08,2.36,11.57,2,16.36-.72L359.2,171.23c2.28-1.31,3.63-3,3.64-4.54s-1.27-2.58-2.35-3.2l-84.08-48.69A14.34,14.34,0,0,0,269.4,113.21Z"/><path class="cls-5" d="M163.2,256.73,75.7,206.06c-2.87-1.67-4.21-3.91-4.12-6.24h0l0-12.7,4.87,5.7c.32-.21.63-.42,1-.61l179-103c7.11-4.09,17.85-4.52,24-1l86.27,50,5.41-5.95,0,12.42h0c.13,2.8-1.86,5.78-5.88,8.09l-179,103C180.08,259.86,169.34,260.29,163.2,256.73Z"/><path class="cls-6" d="M115.88,225.65l5,2.91c.67.39,1.21,0,1.21-.92h0a2.9,2.9,0,0,0-1.21-2.32l-5-2.91c-.67-.39-1.21,0-1.21.92h0A2.9,2.9,0,0,0,115.88,225.65Z"/><path class="cls-7" d="M256.44,89.2c7.11-4.09,17.85-4.52,24-1l86.27,50,5.41-5.95,0,12.42h0c.13,2.8-1.86,5.78-5.88,8.09l-179,103a27.68,27.68,0,0,1-12.92,3.36l.17-122.74Z"/><path class="cls-8" d="M368,126.14l-87.5-50.67c-6.14-3.56-16.89-3.13-24,1l-179,103c-7.11,4.09-7.89,10.29-1.74,13.85L163.23,244c6.14,3.56,16.89,3.13,24-1l179-103C373.33,135.9,374.11,129.7,368,126.14Z"/><path class="cls-3" d="M163.17,245.32l-87.5-50.67c-3.17-1.84-4.48-4.37-4-7,.16,2.1,1.5,4.09,4.12,5.61L163.23,244c6.14,3.56,16.89,3.13,24-1l179-103c3.44-2,5.38-4.46,5.79-6.89.21,2.84-1.77,5.89-5.86,8.24l-179,103C180.05,248.45,169.31,248.88,163.17,245.32Z"/><path class="cls-9" d="M361.22,128.14,277.15,79.45c-4.57-2.65-12.55-2.33-17.83.71L82.86,181.72c-5.28,3-5.86,7.65-1.29,10.29l84.08,48.69c4.57,2.65,12.55,2.33,17.83-.71L359.93,138.43C365.21,135.39,365.79,130.79,361.22,128.14Z"/><polygon class="cls-8" points="186.82 215.41 127.49 181.16 131.28 178.97 190.61 213.22 186.82 215.41"/><polygon class="cls-8" points="145.54 205.42 115.5 188.08 119.29 185.89 149.33 203.24 145.54 205.42"/><polygon class="cls-10" points="160.12 213.84 150.38 208.22 154.16 206.03 163.91 211.66 160.12 213.84"/><polygon class="cls-3" points="174.83 222.33 165.09 216.71 168.87 214.52 178.62 220.15 174.83 222.33"/><polygon class="cls-3" points="145.88 198.69 121.5 184.62 125.28 182.43 149.66 196.51 145.88 198.69"/><polygon class="cls-8" points="175.64 215.88 151.26 201.8 155.04 199.62 179.43 213.69 175.64 215.88"/><path class="cls-10" d="M157.59,185.79a4.88,4.88,0,0,1-4.42,0,1.35,1.35,0,0,1,0-2.55,4.88,4.88,0,0,1,4.42,0A1.35,1.35,0,0,1,157.59,185.79Z"/><path class="cls-3" d="M164.19,189.6a4.88,4.88,0,0,1-4.42,0,1.35,1.35,0,0,1,0-2.55,4.88,4.88,0,0,1,4.42,0A1.35,1.35,0,0,1,164.19,189.6Z"/><path class="cls-8" d="M170.79,193.41a4.88,4.88,0,0,1-4.42,0,1.35,1.35,0,0,1,0-2.55,4.88,4.88,0,0,1,4.42,0A1.35,1.35,0,0,1,170.79,193.41Z"/><path class="cls-10" d="M177.39,197.22a4.88,4.88,0,0,1-4.42,0,1.35,1.35,0,0,1,0-2.55,4.88,4.88,0,0,1,4.42,0A1.35,1.35,0,0,1,177.39,197.22Z"/><path class="cls-3" d="M184,201a4.88,4.88,0,0,1-4.42,0,1.35,1.35,0,0,1,0-2.55,4.88,4.88,0,0,1,4.42,0A1.35,1.35,0,0,1,184,201Z"/><polygon class="cls-10" points="316.69 128.52 306.7 122.75 310.58 120.51 320.57 126.27 316.69 128.52"/><polygon class="cls-3" points="330.6 136.55 320.61 130.78 324.49 128.54 334.48 134.31 330.6 136.55"/><polygon class="cls-3" points="272.07 102.51 262.08 96.75 265.96 94.5 275.95 100.27 272.07 102.51"/><polygon class="cls-3" points="314.46 134.33 300.55 126.3 304.43 124.06 318.34 132.09 314.46 134.33"/><polygon class="cls-8" points="324.45 140.1 318.35 136.57 322.23 134.33 328.33 137.85 324.45 140.1"/><path class="cls-3" d="M343.28,216.72a1.36,1.36,0,0,1-1.2-2,15.26,15.26,0,0,1,5.54-6.1,7.15,7.15,0,0,1,3.91-1.08c1.78.07,3.93-1.23,5.83-3.52a13.44,13.44,0,0,1,3.53-3.06,7,7,0,0,1,3.91-1.08c1.77.06,3.93-1.23,5.83-3.52a13.44,13.44,0,0,1,3.53-3.06,7.1,7.1,0,0,1,3.91-1.08c1.78.05,3.93-1.23,5.83-3.52a13.45,13.45,0,0,1,3.53-3.06A6.21,6.21,0,0,1,393,185a1.36,1.36,0,1,1-1.08,2.49,3.64,3.64,0,0,0-3.15.56,10.71,10.71,0,0,0-2.8,2.44c-2.48,3-5.41,4.63-8.05,4.5a4.51,4.51,0,0,0-2.42.72,10.71,10.71,0,0,0-2.79,2.44c-2.48,3-5.39,4.62-8.05,4.5a4.47,4.47,0,0,0-2.41.72,10.71,10.71,0,0,0-2.8,2.44c-2.48,3-5.4,4.63-8.05,4.5A4.49,4.49,0,0,0,349,211a12.5,12.5,0,0,0-4.5,5A1.36,1.36,0,0,1,343.28,216.72Z"/><path class="cls-3" d="M263.59,268.87A5.77,5.77,0,0,1,261,273.4c-1.44.83-2.61.16-2.61-1.51a5.77,5.77,0,0,1,2.61-4.52C262.43,266.53,263.59,267.21,263.59,268.87Z"/><path class="cls-3" d="M272.06,264a5.77,5.77,0,0,1-2.61,4.52c-1.44.83-2.61.16-2.61-1.51a5.77,5.77,0,0,1,2.61-4.52C270.89,261.64,272.06,262.32,272.06,264Z"/><path class="cls-3" d="M280.53,259.1a5.77,5.77,0,0,1-2.61,4.52c-1.44.83-2.61.16-2.61-1.51a5.77,5.77,0,0,1,2.61-4.52C279.36,256.76,280.53,257.43,280.53,259.1Z"/><path class="cls-3" d="M289,254.21a5.77,5.77,0,0,1-2.61,4.52c-1.44.83-2.61.16-2.61-1.51a5.77,5.77,0,0,1,2.61-4.52C287.82,251.87,289,252.54,289,254.21Z"/><path class="cls-3" d="M243,47.65a5.77,5.77,0,0,1-2.61,4.52c-1.44.83-2.61.16-2.61-1.51a5.77,5.77,0,0,1,2.61-4.52C241.79,45.31,243,46,243,47.65Z"/><path class="cls-3" d="M250.17,43.49A5.77,5.77,0,0,1,247.56,48c-1.44.83-2.61.16-2.61-1.51A5.77,5.77,0,0,1,247.56,42C249,41.15,250.17,41.82,250.17,43.49Z"/><path class="cls-3" d="M243,39.33a5.77,5.77,0,0,1-2.61,4.52c-1.44.83-2.61.16-2.61-1.51a5.77,5.77,0,0,1,2.61-4.52C241.79,37,243,37.66,243,39.33Z"/><path class="cls-3" d="M250.17,35.17a5.77,5.77,0,0,1-2.61,4.52c-1.44.83-2.61.16-2.61-1.51a5.77,5.77,0,0,1,2.61-4.52C249,32.83,250.17,33.5,250.17,35.17Z"/><polygon class="cls-3" points="84.2 143.68 78.98 146.7 78.98 140.67 84.2 137.65 84.2 143.68"/><polygon class="cls-3" points="92.67 138.79 87.45 141.81 87.45 135.78 92.67 132.76 92.67 138.79"/><polygon class="cls-3" points="101.14 133.91 95.91 136.92 95.91 130.89 101.14 127.88 101.14 133.91"/><polygon class="cls-3" points="109.6 129.02 104.38 132.03 104.38 126 109.6 122.99 109.6 129.02"/><polygon class="cls-3" points="208.32 299.57 203.1 302.59 203.1 296.56 208.32 293.54 208.32 299.57"/><polygon class="cls-3" points="215.57 295.33 210.35 298.35 210.35 292.32 215.57 289.3 215.57 295.33"/><polygon class="cls-3" points="208.37 307.4 203.14 310.41 203.14 304.38 208.37 301.37 208.37 307.4"/><polygon class="cls-3" points="215.57 303.24 210.35 306.25 210.35 300.22 215.57 297.2 215.57 303.24"/><path class="cls-3" d="M330,26a10,10,0,0,0-2.55,2.19c-.12-5-3.73-7-8.17-4.47a14.87,14.87,0,0,0-3.93,3.43c-2-3.46-6.08-4.26-10.83-1.52-6.68,3.86-12.1,13.24-12.1,21a14.41,14.41,0,0,0,.12,1.8,4.56,4.56,0,0,0-3.39.68,12.79,12.79,0,0,0-5.79,10c0,3.69,2.59,5.19,5.79,3.34L330,38.85a12.3,12.3,0,0,0,5.56-9.64C335.55,25.67,333.06,24.23,330,26Z"/><path class="cls-11" d="M90,270.53a10.58,10.58,0,0,0-2.7,2.32c-.13-5.33-3.95-7.46-8.66-4.74a15.75,15.75,0,0,0-4.16,3.63c-2.1-3.66-6.44-4.51-11.47-1.61-7.07,4.08-12.81,14-12.81,22.19a15.26,15.26,0,0,0,.13,1.91,4.83,4.83,0,0,0-3.59.72,13.55,13.55,0,0,0-6.13,10.62c0,3.91,2.74,5.49,6.13,3.54l43.26-25a13,13,0,0,0,5.89-10.21C95.91,270.18,93.27,268.66,90,270.53Z"/><path class="cls-4" d="M155,126.61l60.09-34.69c6.5-3.76,5.69-10.32-1.82-14.65h0c-7.51-4.34-18.87-4.81-25.38-1.05L127.83,110.9c-6.5,3.76-5.69,10.32,1.82,14.65h0C137.16,129.89,148.53,130.36,155,126.61Z"/><path class="cls-3" d="M144,120a30.83,30.83,0,0,1-15.06-3.81c-4.42-2.55-6.95-6-6.95-9.56,0-3,1.82-5.73,5.13-7.64l60.09-34.69c7-4.05,18.81-3.59,26.85,1.05,4.42,2.55,6.95,6,6.95,9.56,0,3-1.82,5.73-5.13,7.64l-60.09,34.69A23.94,23.94,0,0,1,144,120Zm55-55.51a21,21,0,0,0-10.28,2.36l-60.09,34.69c-2.39,1.38-3.66,3.14-3.66,5.09,0,2.45,2,5,5.48,7,7.09,4.09,17.82,4.57,23.91,1.05L214.38,80c2.39-1.38,3.66-3.14,3.66-5.09,0-2.45-2-5-5.48-7A28,28,0,0,0,198.94,64.52Z"/><path class="cls-12" d="M188.06,73.25V68.89l5.15-26-5.09-3.15-10.2,5.63-.07,33.47c0,2.25.84,3.78,2.14,4.27h0L184.53,86l.57-2.16.78-3.93A12.46,12.46,0,0,0,188.06,73.25Z"/><path class="cls-12" d="M188,85.9h0c-2.82,1.55-5.09-.18-5.09-3.88L183,48.55l10.2-5.63-.07,33.47C193.15,80.09,190.86,84.35,188,85.9Z"/><path class="cls-13" d="M215.57,24.89c0-8.5-6-18.83-13.32-23.08C198.44-.38,195-.52,192.58,1h0L152.19,24.36,173,55.67l38.59-22.13.1-.06.09,0h0C214.13,32,215.57,29.06,215.57,24.89Z"/><path class="cls-14" d="M196.55,36.24c0-8.74-6.13-19.36-13.7-23.73-3.44-2-6.58-2.33-9-1.31h0l0,0-.06,0-.31.15a96,96,0,0,1-46.08,9.77L122.84,21,159.6,84l2-3.85a96,96,0,0,1,30.88-35C195,43.73,196.55,40.65,196.55,36.24Z"/><path class="cls-8" d="M163.88,69.75c0-16.76-11.77-37.15-26.29-45.53C130.36,20,123.8,19.64,119,22.36h0l0,0,0,0-4.31,2.53,1.51-.31c-3.07,3.19-4.87,8.23-4.87,14.79,0,16.76,11.77,37.15,26.29,45.53,5.7,3.29,11,4.24,15.28,3.17l-.68,1,4-2.32.06,0,.14-.08h0C161,83.87,163.88,78,163.88,69.75Z"/><path class="cls-3" d="M160.81,71.55C160.81,54.78,149,34.4,134.52,26c-7.14-4.12-13.62-4.57-18.36-2l-.66.39c-.23.14-.45.29-.66.45l1.34-.28c-3.07,3.19-4.87,8.23-4.87,14.79,0,16.76,11.77,37.15,26.29,45.53,5.7,3.29,11,4.24,15.28,3.17l-.62.92C157.51,86.5,160.81,80.42,160.81,71.55Z"/><path class="cls-12" d="M159.94,72.06c0,16.76-11.77,23.56-26.29,15.18s-26.29-28.77-26.29-45.53,11.77-23.56,26.29-15.18S159.94,55.3,159.94,72.06Z"/><path class="cls-6" d="M156.71,70.2c0,14.71-10.33,20.67-23.06,13.31s-23.06-25.24-23.06-39.94,10.33-20.67,23.06-13.31S156.71,55.49,156.71,70.2Z"/><path class="cls-3" d="M134.73,83C122,75.7,111.66,57.81,111.66,43.11c0-7.72,2.85-13,7.4-15.27-5.17,1.9-8.47,7.42-8.47,15.73,0,14.71,10.33,32.59,23.06,39.94,6,3.49,11.55,4,15.67,2C145.34,86.93,140.26,86.25,134.73,83Z"/><g class="cls-15"><polygon class="cls-8" points="130.2 51.37 163.66 25.5 175.81 46.58 136.53 62.69 130.2 51.37"/><path class="cls-12" d="M138.25,59.54c0,2.94-2.06,4.13-4.61,2.66a10.18,10.18,0,0,1-4.61-8c0-2.94,2.06-4.13,4.61-2.66A10.18,10.18,0,0,1,138.25,59.54Z"/></g><path class="cls-3" d="M180.49,73.53l-.18-.1a2.9,2.9,0,0,1-1.22-2.31l0-6.46c0-.89.54-1.3,1.21-.92l.18.1a2.9,2.9,0,0,1,1.22,2.31l0,6.46C181.7,73.51,181.16,73.92,180.49,73.53Z"/><path class="cls-16" d="M254.48,177c-13.42,7.75-35.18,7.75-48.6,0s-13.42-20.31,0-28.06,35.18-7.75,48.6,0S267.9,169.24,254.48,177Z"/><path class="cls-10" d="M272.89,136V124h-2.26a27.28,27.28,0,0,0-10.25-9.59c-16.68-9.63-43.73-9.63-60.41,0A27.28,27.28,0,0,0,189.72,124h-2.26V136h0c0,6.33,4.14,12.67,12.51,17.5,16.68,9.63,43.73,9.63,60.41,0C268.73,148.67,272.9,142.36,272.89,136Z"/><path class="cls-17" d="M260.38,114.46c-8.34-4.82-19.27-7.22-30.2-7.22v53.47c10.93,0,21.86-2.41,30.21-7.22S272.9,142.36,272.89,136V124h-2.26A27.28,27.28,0,0,0,260.38,114.46Z"/><path class="cls-18" d="M260.38,141.49c-16.68,9.63-43.73,9.63-60.41,0s-16.68-25.25,0-34.88,43.73-9.63,60.41,0S277.07,131.86,260.38,141.49Z"/><path class="cls-3" d="M260.38,141.49c-16.68,9.63-43.73,9.63-60.41,0-8-4.62-12.12-10.61-12.45-16.66-.36,6.57,3.76,13.21,12.45,18.22,16.68,9.63,43.73,9.63,60.41,0,8.69-5,12.81-11.65,12.45-18.22C272.5,130.88,268.38,136.87,260.38,141.49Z"/><path class="cls-3" d="M213.15,125.13l16.72-9.66c1.89-1.09,5.12-.62,5.88.86l7,13.72c.79,1.55-1.7,3-4.38,2.53l-23.76-4.06C212.07,128.08,211.26,126.22,213.15,125.13Z"/><polygon class="cls-19" points="223.49 200.71 155.29 161.33 157.1 160.29 225.3 199.67 223.49 200.71"/><polygon class="cls-8" points="177.29 175.18 154.3 161.9 158.08 159.72 181.07 172.99 177.29 175.18"/><polygon class="cls-3" points="176.39 175.9 175.42 175.35 181.36 171.92 182.33 172.47 176.39 175.9"/><path class="cls-3" d="M1.37,271.39a1.37,1.37,0,0,1-1.21-2,15.39,15.39,0,0,1,5.6-6.16,7.17,7.17,0,0,1,3.94-1.09c1.77.1,4-1.24,5.88-3.55a13.38,13.38,0,0,1,3.56-3.09,7.11,7.11,0,0,1,3.94-1.09c1.8.09,4-1.24,5.88-3.55a13.37,13.37,0,0,1,3.56-3.09,7.11,7.11,0,0,1,3.94-1.09c1.78.08,4-1.24,5.88-3.55A13.35,13.35,0,0,1,45.91,240a6.26,6.26,0,0,1,5.64-.7,1.37,1.37,0,1,1-1.09,2.51,3.67,3.67,0,0,0-3.18.56,10.8,10.8,0,0,0-2.82,2.46c-2.5,3-5.44,4.68-8.13,4.54a4.67,4.67,0,0,0-2.44.73,10.82,10.82,0,0,0-2.82,2.46c-2.5,3-5.43,4.68-8.13,4.54a4.7,4.7,0,0,0-2.44.73,10.8,10.8,0,0,0-2.82,2.46c-2.5,3-5.44,4.67-8.13,4.54a4.61,4.61,0,0,0-2.44.73,12.62,12.62,0,0,0-4.54,5.05A1.37,1.37,0,0,1,1.37,271.39Z"/><path class="cls-3" d="M347.12,89.14a5.71,5.71,0,0,1-2.89-.75c-2-1.18-3.17-3.56-3.17-6.71,0-6,4.08-13.09,9.3-16.1,2.72-1.57,5.35-1.79,7.4-.61s3.17,3.56,3.17,6.71c0,6-4.08,13.09-9.3,16.1A9.13,9.13,0,0,1,347.12,89.14Zm7.73-22.37a6.62,6.62,0,0,0-3.22,1c-4.42,2.55-8,8.79-8,13.9,0,2.2.67,3.79,1.9,4.5s2.95.49,4.85-.61c4.42-2.55,8-8.79,8-13.89,0-2.2-.67-3.8-1.9-4.5A3.2,3.2,0,0,0,354.86,66.77Z"/></g></g></svg>