<svg width="364" height="293" viewBox="0 0 364 293" fill="none" xmlns="http://www.w3.org/2000/svg">
<g clip-path="url(#clip0)">
<path d="M30.3675 116.085C17.4701 119.388 3.51747 116.811 3.51747 99.0529C3.86922 83.7194 17.0011 77.0308 30.0158 73.7392C38.6922 71.701 48.4239 72.2164 53.7001 80.5332C54.4388 80.1115 55.1892 79.7015 55.9278 79.3033C50.6516 71.455 43.7339 67.9759 30.0158 71.1621C16.8839 74.6411 1.17249 81.9038 1.17249 99.1232C1.17249 117.924 15.2424 122.551 30.3675 118.65C42.7959 115.335 59.3281 116.87 59.3281 134.78C59.3281 150.219 43.7339 157.587 30.9538 160.949C20.2841 163.456 9.37993 160.891 1.75874 152.339C1.17249 152.913 0.586246 153.476 0 154.038C6.33145 161.09 15.2541 165.752 26.979 164.241C28.2688 164.077 29.5937 163.854 30.9538 163.526C38.6805 161.418 47.9432 157.88 54.2746 151.766C58.6949 147.49 61.6848 141.949 61.6848 134.757C61.6731 115.675 45.3754 112.09 30.3675 116.085Z" fill="#FED931"/>
<path d="M164.583 64.8951L183.354 73.7859L202.126 64.8951L215.527 107.475L218.634 108.892L184.351 0.0117139V0V0.0117139H182.358V0V0.0117139L148.086 108.881L151.193 107.463L164.583 64.8951ZM183.342 5.27126L201.352 62.4703L183.342 70.998L165.333 62.4703L183.342 5.27126Z" fill="#FED931"/>
<path d="M144.064 159.649C132.89 159.649 123.452 169.887 123.452 182.011C123.452 195.611 133.922 204.056 144.052 204.373H144.064H144.076C155.402 204.197 164.618 194.158 164.618 182.011C164.618 171.211 156.364 159.649 144.064 159.649ZM144.064 202.264C132.843 202.264 125.844 191.956 125.562 182.011C125.562 172.23 132.996 161.757 144.064 161.757C154.065 161.757 162.507 171.035 162.507 182.011C162.507 191.792 155.097 202.264 144.064 202.264Z" fill="#FED931"/>
<path d="M182.299 159.649V204.373H183.342H184.386V159.649H183.342H182.299Z" fill="#FED931"/>
<path d="M215.68 180.968V183.065H243.82V187.469L247.021 190.667L244.523 193.162V200.741H251.476H252.648V199.57C252.648 199.078 252.789 194.814 256.998 194.814H258.171V188.161H259.343V194.814H260.516C264.725 194.814 264.866 199.078 264.866 199.558V200.73H273.003V193.151L270.506 190.656L273.706 187.458V183.053H286.873V180.957H215.68V180.968ZM271.361 186.486L267.187 190.656L270.658 194.123V198.387H267.105C266.918 197.251 266.437 195.529 265.136 194.228C264.221 193.303 263.06 192.741 261.688 192.542V185.806H259.414H255.826V188.149V192.542C254.454 192.741 253.305 193.303 252.379 194.228C251.077 195.529 250.585 197.251 250.409 198.387H246.856V194.123L250.327 190.656L246.153 186.486V183.053H271.35V186.486H271.361Z" fill="#FED931"/>
<path d="M209.817 159.649H207.836V204.373H232.88V202.393H209.817V159.649Z" fill="#FED931"/>
<path d="M32.5484 201.093H20.8235V229.593H22.7698V218.851H32.8181C37.7777 218.851 40.8379 214.224 40.8379 209.948C40.8379 208.437 40.4158 206.891 39.6654 205.521C38.2819 203.014 35.761 201.093 32.5484 201.093ZM32.8181 216.918H22.7698V203.037H32.5484C35.9252 203.037 38.9033 206.27 38.9033 209.96C38.9033 213.369 36.6287 216.918 32.8181 216.918Z" fill="#FED931"/>
<path d="M76.2237 226.77C76.2237 224.919 75.6022 223.01 74.4884 221.44C73.0345 219.378 70.7481 217.902 67.9341 217.902H56.2092V246.414H58.1556V235.672H67.4182L74.3594 246.414H76.6809L69.6577 235.543C73.4566 234.77 76.2237 231.162 76.2237 226.77ZM58.1438 233.728V219.847H67.9224C71.2992 219.847 74.2773 223.08 74.2773 226.77C74.2773 230.19 72.0027 233.728 68.1921 233.728H58.1438Z" fill="#FED931"/>
<path d="M110.777 238.038C108.948 236.433 106.685 235.309 104.105 234.993C103.613 234.934 103.121 234.899 102.605 234.899C95.3704 234.899 89.2617 241.517 89.2617 249.342C89.2617 258.128 96.0387 263.586 102.593 263.785H102.605H102.616C109.944 263.668 115.912 257.19 115.912 249.342C115.912 245.184 114.001 240.861 110.777 238.038ZM102.605 261.841C95.687 261.841 91.3839 255.48 91.2081 249.33C91.2081 243.286 95.7925 236.82 102.605 236.82C108.76 236.82 113.966 242.548 113.966 249.33C113.966 255.375 109.405 261.841 102.605 261.841Z" fill="#FED931"/>
<path d="M264.362 234.817C263.775 234.817 263.201 234.875 262.626 234.957C260.293 235.297 258.147 236.328 256.33 237.839C253.129 240.51 251.019 244.668 251.019 249.26C251.019 258.046 257.796 263.504 264.35 263.703H264.362H264.373C271.701 263.586 277.669 257.108 277.669 249.26C277.658 242.29 272.311 234.817 264.362 234.817ZM264.362 261.771C257.444 261.771 253.141 255.41 252.965 249.26C252.965 243.216 257.549 236.75 264.362 236.75C270.517 236.75 275.723 242.478 275.723 249.26C275.711 255.305 271.15 261.771 264.362 261.771Z" fill="#FED931"/>
<path d="M167.795 264.523H165.849V292.988H167.795V264.523Z" fill="#FED931"/>
<path d="M203.064 277.584C197.6 277.584 194.821 275.616 194.821 271.751C194.892 268.74 196.85 267.299 198.937 266.632C200.414 266.151 201.95 266.046 202.947 266.046C205.338 266.046 208.551 266.585 210.239 269.127L210.509 269.537L212.362 268.764L211.94 268.166C209.911 265.285 207.308 264.102 202.947 264.102C201.211 264.102 199.511 264.383 197.999 264.933L196.639 265.578L196.205 265.788C194.024 267.135 192.875 269.185 192.875 271.739C192.875 273.508 193.332 274.995 194.2 276.179C195.572 278.053 197.987 279.166 201.34 279.447C201.891 279.494 202.454 279.529 203.052 279.529C207.132 279.529 211.986 280.513 211.986 285.175C211.986 289.814 206.487 291.055 203.24 291.055C199.793 291.055 196.369 289.638 194.071 287.272L193.684 286.873L192.207 288.15L192.652 288.595C194.669 290.61 198.139 293 203.24 293C208.563 293 213.921 290.587 213.921 285.175C213.945 280.278 210.087 277.584 203.064 277.584Z" fill="#FED931"/>
<path d="M232.657 248.639V248.651V277.104H234.604V248.639H232.693H232.657Z" fill="#FED931"/>
<path d="M334.242 215.266C328.778 215.266 326 213.298 326 209.433C326.129 204.138 332.249 203.728 334.125 203.728C336.517 203.728 339.729 204.267 341.418 206.821L341.687 207.231L343.54 206.458L343.118 205.86C341.242 203.201 338.862 202.006 335.086 201.831C334.77 201.819 334.465 201.795 334.125 201.795C332.378 201.795 330.678 202.077 329.165 202.627L327.395 203.47C326.082 204.279 325.155 205.345 324.616 206.622C324.252 207.465 324.065 208.414 324.065 209.433C324.065 214.458 327.676 217.223 334.242 217.223C338.322 217.223 343.177 218.207 343.177 222.869C343.177 227.507 337.678 228.749 334.43 228.749C330.983 228.749 327.559 227.332 325.261 224.966L324.874 224.567L323.397 225.844L323.842 226.289C325.859 228.304 329.329 230.694 334.43 230.694C339.753 230.694 345.111 228.269 345.111 222.869C345.111 217.972 341.254 215.266 334.242 215.266Z" fill="#FED931"/>
<path d="M308.072 242.818L291.434 221.288H289.957V246.472H291.903V225.001V225.013L308.483 246.461V246.472H310.018V221.288H308.072V242.818Z" fill="#FED931"/>
<path d="M148.074 255.082L139.972 273.696L128.962 248.499H126.875L139.163 276.706H140.781L149.844 255.902L148.074 255.082Z" fill="#FED931"/>
<path d="M281.82 44.5599L279.358 43.4354L239.634 80.3225L234.498 73.8564V22.9243L231.954 21.7646V114.984L234.498 116.155V77.9445V77.9328L282.16 137.943L287.225 140.251L241.228 82.3373L281.82 44.5599Z" fill="#FED931"/>
<path d="M79.6004 51.1547L129.936 117.174L132.726 115.898V22.6782L130.029 23.9082V113.262L79.577 47.09L77.0796 48.2848V141.34L79.6004 140.18V51.1547Z" fill="#FED931"/>
<path d="M364 84.5743V82.1261L363.848 82.0675L302.444 53.9893V54.0595V147.162V147.22L364 175.357V172.604L304.801 145.451V111.352L345.111 129.767V127.33L304.801 108.892V57.6206L364 84.5743Z" fill="#FED931"/>
<path d="M105.184 173.225C105.184 167.802 100.764 163.386 95.3353 163.386C89.9067 163.386 85.4864 167.802 85.4864 173.225C85.4864 173.413 85.5098 173.6 85.5216 173.788C83.9739 172.769 82.1213 172.171 80.1164 172.171C74.6878 172.171 70.2675 176.587 70.2675 182.011C70.2675 187.434 74.6878 191.851 80.1164 191.851C82.1096 191.851 83.9622 191.253 85.5216 190.234C85.5098 190.421 85.4864 190.609 85.4864 190.796C85.4864 196.22 89.9067 200.636 95.3353 200.636C100.764 200.636 105.184 196.22 105.184 190.796C105.184 187.645 103.672 184.857 101.362 183.053H117.589V180.957H101.374C103.683 179.164 105.184 176.376 105.184 173.225ZM80.1164 189.742C75.8485 189.742 72.3779 186.275 72.3779 182.011C72.3779 177.747 75.8485 174.28 80.1164 174.28C84.3843 174.28 87.8548 177.747 87.8548 182.011C87.8666 186.275 84.3843 189.742 80.1164 189.742ZM103.085 190.796C103.085 195.06 99.6149 198.527 95.347 198.527C91.0792 198.527 87.6086 195.06 87.6086 190.796C87.6086 186.532 91.0792 183.065 95.347 183.065C99.6149 183.065 103.085 186.532 103.085 190.796ZM95.3353 180.957C91.0675 180.957 87.5969 177.489 87.5969 173.225C87.5969 168.962 91.0675 165.494 95.3353 165.494C99.6032 165.494 103.074 168.962 103.074 173.225C103.085 177.489 99.6149 180.957 95.3353 180.957Z" fill="#FED931"/>
<path d="M156.645 180.968H131.425V183.065H156.645V180.968Z" fill="#FED931"/>
<path d="M176.436 180.968H170.48V183.065H176.436V180.968Z" fill="#FED931"/>
<path d="M201.973 180.968H190.249V183.065H201.973V180.968Z" fill="#FED931"/>
</g>
<defs>
<clipPath id="clip0">
<rect width="364" height="293" fill="white"/>
</clipPath>
</defs>
</svg>
