<svg width="181" height="256" viewBox="0 0 181 256" fill="none" xmlns="http://www.w3.org/2000/svg">
<g clip-path="url(#clip0)">
<path d="M178.42 136.87C176.07 123.43 171.99 111.02 169.77 104.83C169.64 104.47 169.62 104.09 169.7 103.71L174.88 81.1202C175.68 77.6402 175.53 74.0102 174.45 70.6002C171.92 62.6102 165.23 47.0501 154.55 24.3501C153.9 22.9701 153.15 21.6301 152.32 20.3501L142.7 5.48015C140.49 2.06015 136.69 0.000149013 132.62 0.000149013C129.12 0.000149013 125.8 1.53015 123.52 4.18015L114.31 14.9001C111.98 17.6201 110.17 20.7401 108.97 24.1201L95.8 61.3401C95.38 62.5401 94.24 63.3401 92.97 63.3401H90.08H87.19C85.92 63.3401 84.79 62.5401 84.36 61.3401L71.18 24.1201C69.98 20.7401 68.17 17.6201 65.84 14.9001L56.85 4.44015C54.74 1.98015 51.78 0.310149 48.54 0.040149C44.07 -0.329851 39.85 1.76015 37.45 5.47015L27.81 20.3401C26.98 21.6201 26.23 22.9701 25.58 24.3501C14.91 47.0501 8.22005 62.6102 5.69005 70.6102C4.61005 74.0202 4.46005 77.6501 5.26005 81.1301L10.44 103.72C10.53 104.09 10.5 104.48 10.37 104.84C8.15005 111.03 4.07005 123.43 1.72005 136.87C-1.47995 155.21 -0.239953 169.12 5.42005 178.23C6.91005 180.64 8.60005 183.55 10.56 186.92C17.59 199.03 27.22 215.62 39.84 229.4C55.59 246.61 72.49 255.34 90.07 255.34C107.65 255.34 124.55 246.61 140.3 229.4C152.92 215.61 162.55 199.03 169.58 186.92C171.54 183.55 173.23 180.64 174.72 178.23C180.38 169.12 181.62 155.21 178.42 136.87ZM170.48 175.59C168.95 178.06 167.24 181 165.26 184.4C158.34 196.31 148.87 212.63 136.62 226.02C121.86 242.16 106.2 250.34 90.08 250.34C73.96 250.34 58.3 242.16 43.54 226.02C31.29 212.63 21.81 196.31 14.9 184.4C12.92 181 11.22 178.06 9.68005 175.59C-1.70995 157.24 10.94 118.1 15.09 106.54C15.55 105.27 15.63 103.91 15.33 102.6L10.15 80.0102C9.55005 77.4002 9.66005 74.6702 10.47 72.1202C12.93 64.3402 19.55 48.9901 30.13 26.4901C30.68 25.3201 31.32 24.1701 32.03 23.0701L41.67 8.20015C42.97 6.20015 45.16 5.01015 47.55 5.01015C49.59 5.01015 51.52 5.90015 52.86 7.45015L62.07 18.1701C64.01 20.4301 65.5 22.9901 66.49 25.8001L81.56 68.3502H90.11H98.66L113.73 25.8001C114.72 22.9901 116.21 20.4301 118.15 18.1701L127.36 7.45015C128.69 5.90015 130.63 5.01015 132.67 5.01015C135.05 5.01015 137.25 6.20015 138.55 8.20015L148.19 23.0701C148.9 24.1701 149.54 25.3201 150.09 26.4901C160.67 48.9901 167.28 64.3402 169.75 72.1202C170.56 74.6802 170.67 77.4102 170.07 80.0102L164.89 102.6C164.59 103.91 164.67 105.27 165.13 106.54C169.22 118.1 181.87 157.24 170.48 175.59Z" fill="black"/>
<path d="M161.91 101.93L167.09 79.34C167.21 78.82 167.29 78.29 167.34 77.76C167.49 76.17 167.31 74.56 166.83 73.02C163.47 62.4 152.57 38.93 147.32 27.76C146.82 26.7 146.25 25.68 145.62 24.7L135.98 9.83C135.2 8.62 133.92 8 132.62 8C131.51 8 130.39 8.46 129.59 9.39L120.38 20.11C119.11 21.59 118.06 23.23 117.24 24.99C116.97 25.58 116.72 26.18 116.51 26.79L101.44 69.34C101.17 70.09 100.63 70.68 99.95 71.02C99.54 71.22 99.09 71.34 98.61 71.34H90.06H81.51C81.03 71.34 80.58 71.23 80.17 71.02C79.49 70.68 78.95 70.09 78.68 69.34L63.64 26.79C63.42 26.18 63.18 25.58 62.91 24.99C62.1 23.23 61.04 21.59 59.77 20.11L50.56 9.39C49.76 8.46 48.64 8 47.53 8C46.24 8 44.95 8.62 44.17 9.82L34.53 24.7C33.89 25.68 33.33 26.7 32.83 27.76C27.58 38.93 16.68 62.4 13.32 73.02C12.83 74.56 12.66 76.16 12.81 77.76C12.86 78.29 12.94 78.82 13.06 79.34L18.24 101.93C18.67 103.8 18.55 105.75 17.9 107.56C14.11 118.12 1.47002 156.69 12.22 174.01C24.74 194.18 49.91 247.34 90.07 247.34C130.24 247.34 155.4 194.17 167.92 174.01C178.67 156.69 166.03 118.12 162.24 107.56C161.6 105.75 161.48 103.8 161.91 101.93ZM107.77 109.86C108.56 108.87 110.05 108.86 110.86 109.83L119.06 119.6C119.99 120.71 120 122.31 119.08 123.43C115.72 127.53 107.99 136.85 105.99 138.34C104.16 139.7 102.15 136.02 101.15 133.77C100.84 133.07 99.9 132.97 99.44 133.58L95.41 138.93C95.41 126.58 104.13 114.4 107.77 109.86ZM84.74 138.92L80.71 133.57C80.25 132.96 79.31 133.07 79 133.76C77.99 136.01 75.99 139.69 74.16 138.33C72.15 136.84 64.42 127.52 61.07 123.42C60.16 122.3 60.17 120.7 61.09 119.59L69.29 109.82C70.1 108.85 71.59 108.87 72.38 109.85C76.02 114.4 84.74 126.58 84.74 138.92ZM162.83 161.34C158.16 176.67 126.25 240.63 90.08 240.63C53.91 240.63 22 176.67 17.33 161.34C12.66 146.01 22.66 134.34 30 134.34C37.34 134.34 35.75 141.17 35.75 144.42C35.75 147.67 35.83 152.75 41.33 156.92C46.83 161.09 66.75 157.92 74.91 154.34C83.08 150.76 82.24 161.42 82.24 167.59C82.24 173.76 90.07 173.34 90.07 173.34C90.07 173.34 97.9 173.76 97.9 167.59C97.9 161.42 97.07 150.76 105.23 154.34C113.39 157.92 133.31 161.09 138.81 156.92C144.31 152.75 144.39 147.67 144.39 144.42C144.39 141.17 142.81 134.34 150.14 134.34C157.49 134.34 167.49 146.01 162.83 161.34Z" fill="black"/>
<path d="M164.83 102.6L170.01 80.0102C170.61 77.4002 170.5 74.6802 169.69 72.1202C167.23 64.3402 160.62 48.9902 150.03 26.4902C149.48 25.3102 148.84 24.1702 148.13 23.0702L138.5 8.2002C137.21 6.2002 135 5.0002 132.62 5.0002C130.58 5.0002 128.64 5.8902 127.32 7.4402L118.11 18.1602C116.18 20.4102 114.68 23.0002 113.69 25.7902L99.09 67.0102C98.81 67.8102 98.05 68.3402 97.2 68.3402H90.07H82.94C82.09 68.3402 81.34 67.8102 81.05 67.0102L66.46 25.7902C65.47 23.0002 63.97 20.4102 62.04 18.1602L52.97 7.5902C51.89 6.3402 50.45 5.4102 48.82 5.1102C45.96 4.6002 43.18 5.8302 41.66 8.1902L32.02 23.0602C31.31 24.1602 30.67 25.3102 30.12 26.4802C19.52 49.0102 12.9 64.3702 10.45 72.1502C9.65 74.7002 9.54 77.4102 10.14 80.0102L15.32 102.6C15.62 103.91 15.54 105.26 15.09 106.52C10.95 118.05 -1.72 157.23 9.68 175.59C11.21 178.06 12.92 181 14.9 184.4C21.82 196.31 31.29 212.63 43.54 226.02C58.3 242.16 73.96 250.34 90.08 250.34C106.2 250.34 121.86 242.16 136.62 226.02C148.87 212.63 158.35 196.31 165.26 184.4C167.24 181 168.94 178.06 170.48 175.59C181.88 157.23 169.21 118.06 165.07 106.52C164.61 105.26 164.54 103.9 164.83 102.6ZM167.93 174.01C155.41 194.18 130.24 247.34 90.08 247.34C49.91 247.34 24.75 194.17 12.23 174.01C1.48 156.69 14.12 118.12 17.91 107.56C18.56 105.75 18.68 103.8 18.25 101.93L13.07 79.3402C12.95 78.8202 12.87 78.2902 12.82 77.7602C12.67 76.1702 12.85 74.5602 13.33 73.0202C16.69 62.4002 27.59 38.9302 32.84 27.7602C33.34 26.7002 33.91 25.6802 34.54 24.7002L44.18 9.8302C44.95 8.6202 46.24 8.0002 47.53 8.0002C48.64 8.0002 49.76 8.4602 50.56 9.3902L59.77 20.1102C61.04 21.5902 62.09 23.2302 62.91 24.9902C63.18 25.5802 63.43 26.1802 63.64 26.7902L78.7 69.3402C78.97 70.0902 79.51 70.6802 80.19 71.0202C80.6 71.2202 81.05 71.3402 81.53 71.3402H90.08H98.63C99.11 71.3402 99.56 71.2302 99.97 71.0202C100.65 70.6802 101.19 70.0902 101.46 69.3402L116.53 26.7902C116.75 26.1802 116.99 25.5802 117.26 24.9902C118.07 23.2302 119.13 21.5902 120.4 20.1102L129.61 9.3902C130.41 8.4502 131.53 8.0002 132.64 8.0002C133.93 8.0002 135.22 8.6202 136 9.8202L145.64 24.6902C146.28 25.6702 146.84 26.6902 147.34 27.7502C152.59 38.9202 163.49 62.3902 166.85 73.0102C167.34 74.5502 167.51 76.1502 167.36 77.7502C167.31 78.2802 167.23 78.8102 167.11 79.3302L161.93 101.92C161.5 103.79 161.62 105.74 162.27 107.55C166.04 118.11 178.68 156.69 167.93 174.01Z" fill="white"/>
<path d="M69.29 109.83L61.09 119.6C60.16 120.71 60.15 122.31 61.07 123.43C64.43 127.53 72.16 136.85 74.16 138.34C75.99 139.7 78 136.02 79 133.77C79.31 133.07 80.25 132.97 80.71 133.58L84.74 138.93C84.74 126.59 76.02 114.41 72.38 109.87C71.6 108.88 70.11 108.86 69.29 109.83Z" fill="#FCFCFC"/>
<path d="M53.8101 80.1504C54.4001 79.6104 55.0301 79.1204 55.7001 78.6804L70.9201 68.8604C71.6401 68.4004 71.9801 67.5304 71.7801 66.7004L66.4301 49.9804C66.3601 49.7104 66.2901 49.4504 66.2101 49.1904L58.8601 26.2104C58.6201 25.4704 58.1801 24.8204 57.5801 24.3304L50.0101 17.3204C48.6901 16.2404 46.7201 16.4804 45.7001 17.8504L36.5101 31.5604C35.8901 32.4004 35.3701 33.3204 34.9901 34.2904L17.9301 76.3204C17.4101 77.6404 17.2401 79.0804 17.4601 80.4904L21.4901 93.6904C21.6901 94.9704 22.6901 95.9804 23.9701 96.1904L32.1501 98.0204C33.3601 98.2204 34.6001 97.8504 35.5101 97.0104L40.7201 92.2104C41.6701 91.3304 41.5501 89.7904 40.4701 89.0704L37.4601 87.0704C34.8601 85.3404 33.2101 82.4904 33.0101 79.3704L32.2101 66.7704C32.1201 65.3204 32.3401 63.8704 32.8701 62.5204L38.6901 47.5304C39.4701 45.5304 42.0301 44.9704 43.5701 46.4604L47.1101 49.8804C48.4301 51.1504 49.3301 52.7904 49.6901 54.5904L52.6601 69.3604C53.2701 72.4204 51.2201 74.9304 48.1001 74.9304C45.6601 74.9304 44.4501 77.9004 46.2001 79.6004L48.8301 82.1704C49.5901 82.9104 50.8001 82.9304 51.5801 82.2104L53.8101 80.1504Z" fill="white"/>
<path d="M150.16 134.34C142.83 134.34 144.41 141.17 144.41 144.42C144.41 147.67 144.33 152.75 138.83 156.92C133.33 161.09 113.41 157.92 105.25 154.34C97.0901 150.76 97.9201 161.42 97.9201 167.59C97.9201 173.76 90.0901 173.34 90.0901 173.34C90.0901 173.34 82.2601 173.76 82.2601 167.59C82.2601 161.42 83.0901 150.76 74.9301 154.34C66.7601 157.92 46.8501 161.09 41.3501 156.92C35.8501 152.75 35.7701 147.67 35.7701 144.42C35.7701 141.17 37.3501 134.34 30.0201 134.34C22.6901 134.34 12.6901 146.01 17.3501 161.34C22.0201 176.67 53.9301 240.63 90.1001 240.63C126.27 240.63 158.18 176.67 162.85 161.34C167.49 146.01 157.49 134.34 150.16 134.34ZM77.4901 235.08C66.2601 229.7 63.6301 217.54 63.0401 213.32C62.8901 212.25 62.6101 211.2 62.1901 210.21L44.5401 182.23C44.0801 181.16 45.5201 180.3 46.2401 181.22L69.9401 208.51L70.7501 209.41C71.3201 210.04 72.1301 210.41 72.9801 210.41H73.5001C74.0501 210.41 74.5001 210.86 74.5001 211.41V222.73C74.5001 222.73 74.7301 228.95 78.6701 233.53C79.3901 234.35 78.4701 235.55 77.4901 235.08ZM90.0801 220.34C87.5901 220.34 87.7101 216.9 87.7101 216.9V211.4C87.7101 210.85 88.1601 210.4 88.7101 210.4H91.4601C92.0101 210.4 92.4601 210.85 92.4601 211.4V216.9C92.4501 216.9 92.5601 220.34 90.0801 220.34ZM90.0801 206.53C82.6401 206.53 74.5201 201.84 74.5201 189.84C74.5201 177.84 88.5201 178.15 88.5201 178.15H90.0801H91.6401C91.6401 178.15 105.64 177.84 105.64 189.84C105.64 201.84 97.5101 206.53 90.0801 206.53ZM135.61 182.23L117.96 210.21C117.54 211.21 117.26 212.25 117.11 213.32C116.53 217.55 113.89 229.7 102.66 235.08C101.68 235.55 100.76 234.35 101.47 233.52C105.41 228.93 105.64 222.72 105.64 222.72V211.4C105.64 210.85 106.09 210.4 106.64 210.4H107.16C108.01 210.4 108.82 210.04 109.39 209.4L110.2 208.5L133.9 181.21C134.63 180.3 136.06 181.16 135.61 182.23Z" fill="white"/>
<path d="M101.15 133.77C102.16 136.02 104.16 139.7 105.99 138.34C108 136.85 115.73 127.53 119.08 123.43C119.99 122.31 119.98 120.71 119.06 119.6L110.86 109.83C110.05 108.86 108.56 108.88 107.77 109.86C104.14 114.4 95.4102 126.58 95.4102 138.92L99.4402 133.57C99.9002 132.96 100.84 133.07 101.15 133.77Z" fill="#FCFCFC"/>
<path d="M91.64 178.15H90.08H88.52C88.52 178.15 74.52 177.84 74.52 189.84C74.52 201.84 82.64 206.53 90.08 206.53C97.52 206.53 105.64 201.84 105.64 189.84C105.64 177.84 91.64 178.15 91.64 178.15Z" fill="black"/>
<path d="M74.5101 222.72V211.4C74.5101 210.85 74.0601 210.4 73.5101 210.4H72.9901C72.1401 210.4 71.3301 210.04 70.7601 209.4L69.9501 208.5L46.2501 181.21C45.5301 180.3 44.0901 181.15 44.5501 182.22L62.2001 210.2C62.6201 211.2 62.9001 212.24 63.0501 213.31C63.6301 217.54 66.2701 229.69 77.5001 235.07C78.4801 235.54 79.4001 234.34 78.6901 233.51C74.7501 228.94 74.5101 222.72 74.5101 222.72Z" fill="black"/>
<path d="M133.9 181.22L110.2 208.51L109.39 209.41C108.82 210.04 108.01 210.41 107.16 210.41H106.64C106.09 210.41 105.64 210.86 105.64 211.41V222.73C105.64 222.73 105.41 228.95 101.47 233.53C100.76 234.35 101.69 235.56 102.66 235.09C113.89 229.71 116.52 217.55 117.11 213.33C117.26 212.26 117.54 211.21 117.96 210.22L135.61 182.24C136.06 181.16 134.63 180.3 133.9 181.22Z" fill="black"/>
<path d="M92.4499 211.4C92.4499 210.85 91.9999 210.4 91.4499 210.4H88.6999C88.1499 210.4 87.6999 210.85 87.6999 211.4V216.9C87.6999 216.9 87.59 220.34 90.07 220.34C92.55 220.34 92.44 216.9 92.44 216.9V211.4H92.4499Z" fill="black"/>
<path d="M126.34 80.1504C125.75 79.6104 125.12 79.1204 124.45 78.6804L109.23 68.8604C108.51 68.4004 108.17 67.5304 108.37 66.7004L113.72 49.9804C113.79 49.7104 113.86 49.4504 113.94 49.1904L121.29 26.2104C121.53 25.4704 121.97 24.8204 122.57 24.3304L130.14 17.3204C131.46 16.2404 133.43 16.4804 134.45 17.8504L143.64 31.5604C144.26 32.4004 144.78 33.3204 145.16 34.2904L162.22 76.3004C162.74 77.6204 162.91 79.0604 162.69 80.4704L158.66 93.6704C158.46 94.9504 157.46 95.9604 156.18 96.1704L148 98.0204C146.79 98.2204 145.55 97.8504 144.64 97.0104L139.43 92.2104C138.48 91.3304 138.6 89.7904 139.68 89.0704L142.69 87.0704C145.29 85.3404 146.94 82.4904 147.14 79.3704L147.94 66.7704C148.03 65.3204 147.81 63.8704 147.28 62.5204L141.46 47.5304C140.68 45.5304 138.12 44.9704 136.58 46.4604L133.04 49.8804C131.72 51.1504 130.82 52.7904 130.46 54.5904L127.49 69.3604C126.88 72.4204 128.93 74.9304 132.05 74.9304C134.49 74.9304 135.7 77.9004 133.95 79.6004L131.32 82.1704C130.56 82.9104 129.35 82.9304 128.57 82.2104L126.34 80.1504Z" fill="white"/>
<path d="M124.08 147.67C128.471 147.67 132.03 144.111 132.03 139.72C132.03 135.329 128.471 131.77 124.08 131.77C119.689 131.77 116.13 135.329 116.13 139.72C116.13 144.111 119.689 147.67 124.08 147.67Z" fill="white"/>
<path d="M124.08 143.59C126.217 143.59 127.95 141.857 127.95 139.72C127.95 137.583 126.217 135.85 124.08 135.85C121.943 135.85 120.21 137.583 120.21 139.72C120.21 141.857 121.943 143.59 124.08 143.59Z" fill="black"/>
<path d="M56.07 147.67C60.4607 147.67 64.02 144.111 64.02 139.72C64.02 135.329 60.4607 131.77 56.07 131.77C51.6793 131.77 48.12 135.329 48.12 139.72C48.12 144.111 51.6793 147.67 56.07 147.67Z" fill="white"/>
<path d="M56.0701 143.59C58.2074 143.59 59.9401 141.857 59.9401 139.72C59.9401 137.583 58.2074 135.85 56.0701 135.85C53.9327 135.85 52.2001 137.583 52.2001 139.72C52.2001 141.857 53.9327 143.59 56.0701 143.59Z" fill="black"/>
</g>
<defs>
<clipPath id="clip0">
<rect width="180.15" height="255.34" fill="white"/>
</clipPath>
</defs>
</svg>
