<svg width="265" height="315" viewBox="0 0 265 315" fill="none" xmlns="http://www.w3.org/2000/svg">
<g clip-path="url(#clip0)">
<path d="M70.0238 10.8233C71.5062 10.2579 73.1773 10.6079 74.3362 11.6849H84.3088V4.76562H55.9005V11.6849H67.7597L70.0238 10.8233Z" fill="white"/>
<path d="M4.77063 146.273C4.77063 147.942 6.14522 149.315 7.8163 149.315H22.856C24.527 149.315 25.9016 147.942 25.9016 146.273V125.73H4.77063V146.273Z" fill="white"/>
<path d="M74.4438 11.7653L78.2171 15.5346L80.8585 18.173C81.6401 18.9538 82.0714 20.0038 82.0714 21.1076V29.723L83.6077 28.7269L84.3085 16.2076V11.6846H74.3359C74.3629 11.7115 74.4168 11.7384 74.4438 11.7653Z" fill="#FF7F00"/>
<path d="M59.4306 46.604L58.0291 46.6579L59.0263 60.6848C59.0263 60.7655 59.0533 60.8194 59.0533 60.9002C59.5115 60.4155 60.1314 60.0386 60.8052 59.7963L63.5544 58.9348L65.1176 54.654L59.4306 46.604Z" fill="#FF7F00"/>
<path d="M67.9209 60.8462C67.8939 60.9539 67.84 61.0346 67.7861 61.1423C67.84 61.0346 67.8939 60.927 67.9209 60.8462Z" fill="#FF7F00"/>
<path d="M57.5177 33.25L65.4957 35.6462L65.927 22.5616L62.7465 21.2693C61.1563 20.6231 60.1321 19.1154 60.1321 17.3923C60.1591 15.6693 61.1833 14.1616 62.8004 13.5423L67.7597 11.6577H55.9005V17.0693L57.0595 33.1423C57.1942 33.1693 57.356 33.2231 57.5177 33.25Z" fill="#FF7F00"/>
<path d="M159.776 64.7498L154.924 62.4075C154.493 62.1921 154.035 62.0844 153.55 62.0306L141.933 60.846L138.133 58.3421L130.748 58.2075L134.764 60.846L146.38 62.0306C146.865 62.0844 147.324 62.2191 147.755 62.4075L159.965 68.2767L159.776 64.7498Z" fill="#FFD400"/>
<path d="M153.551 62.0038C154.036 62.0577 154.494 62.1923 154.925 62.3808L159.777 64.7231L159.453 57.9923L159.426 57.5615L146.354 58.3692L144.845 58.45C144.791 58.45 144.602 58.45 144.548 58.45L138.107 58.3423L141.907 60.8461L153.551 62.0038Z" fill="#FF0000"/>
<path d="M247.022 35.9693L249.879 29.5347L244.327 33.977L244.219 34.0847L246.591 35.2154L247.022 35.9693Z" fill="#FFD400"/>
<path d="M246.726 36.6422L247.023 35.9692L246.618 35.2153L244.247 34.0576L246.403 38.0153C246.403 37.5576 246.538 37.073 246.726 36.6422Z" fill="#FF0000"/>
<path d="M252.225 121.935L251.12 108.419L246.268 107.315L247.777 126.162L252.225 121.935Z" fill="#FFD400"/>
<path d="M253.033 121.154C253.869 120.346 255.028 119.943 256.16 120.023C257.049 120.077 257.885 120.427 258.532 120.993L254.246 109.146L251.093 108.419L252.171 121.935L253.033 121.154Z" fill="#FF0000"/>
<path d="M245.54 128.288L247.777 126.162L246.268 107.315L243.815 106.75L245.54 128.288Z" fill="#FF0000"/>
<path d="M84.8748 35.3502C84.9287 35.4309 84.9826 35.4579 85.0365 35.5386C85.0904 35.6194 85.1174 35.7271 85.1713 35.8348L87.058 38.6886L91.2087 36.3194L90.1845 34.7848L100.076 28.4579L102.286 24.0425L95.575 18.7925L96.5723 22.7502C97.0035 24.4732 96.2758 26.2771 94.7934 27.2463L84.5244 33.8156C84.5244 33.8425 84.5244 33.8694 84.5244 33.8694C84.4974 34.354 84.5783 34.8925 84.8748 35.3502Z" fill="#FFD400"/>
<path d="M86.0061 39.2809L87.0842 38.6616L85.1975 35.8078C85.1436 35.727 85.1167 35.6193 85.0627 35.5116C85.0088 35.4578 84.928 35.404 84.901 35.3232C84.6045 34.8655 84.5237 34.354 84.5776 33.8424C84.5776 33.8155 84.5776 33.7886 84.5776 33.7886L83.0682 34.7578L86.0061 39.2809Z" fill="#FF0000"/>
<path d="M91.2083 36.2922L98.1352 32.3614L100.103 28.4307L90.1841 34.7576L91.2083 36.2922Z" fill="#FF0000"/>
<path d="M224.732 261.477C223.924 261.154 223.25 260.588 222.765 259.835L218.56 253.158L220.528 261.208L220.878 262.688L220.959 263.065L227.913 267.831L233.222 266.538L227.508 262.635L224.732 261.477Z" fill="#FFD400"/>
<path d="M233.25 266.512L235.757 265.919L227.563 262.608L233.25 266.512Z" fill="#FF0000"/>
<path d="M220.906 262.688L220.528 261.208L218.561 253.158L214.814 247.208L218.237 261.154L220.852 262.931L220.986 263.038L220.906 262.688Z" fill="#FF0000"/>
<path d="M88.7285 207.146L94.3886 206.877L93.2566 205.288L95.5206 203.134L95.2781 198.369L91.1004 196.054C92.0707 197.696 91.8012 199.823 90.3996 201.142L86.8688 204.534L86.0872 205.288L87.4618 207.227L88.7285 207.146Z" fill="#FFD400"/>
<path d="M94.3615 206.877L95.6553 206.796L95.4935 203.107L93.2295 205.261L94.3615 206.877Z" fill="#FF0000"/>
<path d="M165.733 74.4961L167.511 74.4692C171.069 74.3884 171.797 71.3192 171.959 70.1615C171.986 69.8922 171.986 69.7307 171.986 69.7307L170.988 48.2999C170.934 47.1692 170.422 46.1192 169.587 45.3922C168.751 44.6653 167.619 44.2884 166.514 44.3692L161.474 44.7999C161.797 44.9615 162.121 45.1499 162.417 45.3922C163.253 46.1192 163.765 47.1961 163.819 48.2999L164.25 57.7499L164.681 67.1192L164.816 69.7576C164.816 69.9192 164.627 74.2807 160.665 74.6038H160.692L165.733 74.4961Z" fill="#FFD400"/>
<path d="M135.411 85.9923L146.219 80.5807C147.324 80.0423 148.105 79.0192 148.402 77.8346C148.618 76.8923 148.402 75.7346 147.971 74.873L140.882 75.0346C141.313 75.8961 141.421 76.8923 141.206 77.8346C140.936 79.0461 140.127 80.0423 139.022 80.5807L128.214 85.9923C128.053 86.0731 127.864 86.1538 127.702 86.2077L133.389 86.4231C134.117 86.45 134.791 86.2884 135.411 85.9923Z" fill="#FFD400"/>
<path d="M84.308 84.8345L101.18 109.604L108.215 109.388L91.6931 85.1037L84.308 84.8345Z" fill="#FFD400"/>
<path d="M182.794 15.4001L181.285 13.0039L174.978 20.1654C174.196 21.0539 173.064 21.5654 171.878 21.5654H177.511L182.794 15.4001Z" fill="#FFD400"/>
<path d="M162.418 35.673L162.822 35.8884L167.701 34.7037L163.119 31.9307L162.633 32.9807C162.256 33.8422 162.202 34.7845 162.418 35.673Z" fill="#FFD400"/>
<path d="M173.253 33.7077C173.388 34.1385 173.442 34.5962 173.442 35.0539C173.442 35.2154 173.415 35.4039 173.388 35.5654C173.118 37.2346 171.905 38.5539 170.288 38.9577L167.135 39.7385L167.997 40.1962C168.617 40.5192 169.264 40.6808 169.965 40.6808C170.288 40.6808 170.639 40.6539 170.962 40.5731L177.512 38.9577C179.156 38.5539 180.369 37.2346 180.611 35.5654C180.881 33.8962 180.099 32.2808 178.67 31.3923L169.722 25.9539C169.587 25.8731 169.426 25.7923 169.291 25.7116C169.129 25.5769 168.941 25.4423 168.725 25.3616C167.997 25.0385 167.189 25.0923 166.542 25.4692C166.38 25.5231 166.218 25.55 166.084 25.6308L163.604 26.6L171.501 31.3923C172.337 31.9308 172.956 32.7654 173.253 33.7077Z" fill="#FFD400"/>
<path d="M183.872 122.877L182.417 123.685L187.241 125.946L188.077 122.958L187.646 122.742C186.433 122.204 185.004 122.258 183.872 122.877Z" fill="#FFD400"/>
<path d="M141.987 35.4847L146.057 32.4963C145.949 31.4732 146.542 30.4501 147.539 30.0463L151.447 28.5117L160.935 21.5386H153.738L134.791 35.4578L133.605 39.7655L140.639 45.877L147.189 45.3386L140.774 39.7924L141.987 35.4847Z" fill="#FFD400"/>
<path d="M183.387 23.0732L182.956 23.5847C182.093 24.5809 182.201 26.0885 183.198 26.9501C183.657 27.327 184.196 27.5155 184.762 27.5155C185.139 27.5155 185.489 27.4347 185.813 27.2732C186.082 27.1385 186.352 26.9501 186.568 26.7078L188.643 24.2847L188.697 24.2309V22.6962L188.751 22.7501V17.6616L187.942 17.7693L185.436 20.7039L183.387 23.0732Z" fill="#FFD400"/>
<path d="M162.66 32.9537L163.145 31.9037H163.118L161.609 30.9883L160.773 32.819L160.046 34.4075L162.417 35.6729C162.202 34.7844 162.256 33.8421 162.66 32.9537Z" fill="#FF0000"/>
<path d="M141.61 160.354L139.481 146.354C139.211 144.631 140.074 142.934 141.583 142.1L176.649 122.877C177.808 122.257 179.209 122.204 180.395 122.769L182.363 123.684L183.818 122.877C184.977 122.257 186.379 122.204 187.565 122.769L187.996 122.984L197.645 89.0075L197.618 54.896L189.182 39.146C189.155 39.0921 189.155 39.0383 189.128 39.0113C188.966 38.796 188.858 38.5537 188.777 38.2844L188.427 36.9921L188.616 24.2844L186.54 26.7075C186.325 26.9498 186.055 27.1383 185.786 27.2729C185.462 27.4344 185.085 27.5152 184.735 27.5152C184.195 27.5152 183.629 27.3267 183.171 26.9498C182.174 26.0883 182.066 24.5806 182.929 23.5844L183.36 23.0729L185.408 20.7037L187.942 17.769L187.106 17.8498C187.052 17.8498 187.026 17.8498 186.972 17.8498L179.371 26.6806C178.913 27.219 178.239 27.5152 177.565 27.5152C177.026 27.5152 176.46 27.3267 176.002 26.9498C175.005 26.0883 174.897 24.5806 175.759 23.5844L177.484 21.5652H171.851H160.962L151.475 28.5383L158.86 25.6575C159.022 25.6037 159.183 25.5498 159.318 25.496C159.965 25.119 160.773 25.0383 161.501 25.3883C161.717 25.469 161.905 25.6037 162.067 25.7383C162.229 25.819 162.364 25.8729 162.498 25.9806L163.55 26.6267L166.029 25.6575C166.191 25.6037 166.353 25.5498 166.487 25.496C167.134 25.119 167.943 25.0383 168.671 25.3883C168.886 25.469 169.075 25.6037 169.237 25.7383C169.398 25.819 169.533 25.8729 169.668 25.9806L178.616 31.419C180.045 32.3075 180.826 33.9229 180.557 35.5921C180.287 37.2614 179.074 38.5806 177.457 38.9844L170.908 40.5998C170.584 40.6806 170.234 40.7075 169.91 40.7075C169.237 40.7075 168.563 40.546 167.943 40.2229L167.08 39.7652L163.711 40.5998C163.388 40.6806 163.037 40.7075 162.714 40.7075C162.04 40.7075 161.366 40.546 160.747 40.2229L157.243 38.3383C155.841 37.5844 155.033 36.1306 155.059 34.6229C155.059 34.0844 155.167 33.519 155.41 32.9806L155.895 31.9037L153.254 32.9267L149.211 34.5152C147.998 34.9998 146.596 34.3806 146.111 33.169C146.03 32.9537 145.976 32.7383 145.976 32.5229L141.907 35.5113L140.721 39.819L147.135 45.3652L159.21 44.369C159.938 44.3152 160.693 44.4767 161.366 44.7998L166.407 44.369C167.512 44.2883 168.644 44.6383 169.479 45.3921C170.315 46.119 170.827 47.196 170.881 48.2998L171.878 69.7306C171.878 69.7306 171.878 69.8921 171.851 70.1613C171.689 71.319 170.962 74.3883 167.404 74.469L165.625 74.496L160.558 74.5767H160.531C160.423 74.5767 160.315 74.6037 160.207 74.6037L147.917 74.8729C148.348 75.7344 148.564 76.8921 148.348 77.8344C148.079 79.046 147.27 80.0421 146.165 80.5806L135.357 85.9921C134.737 86.3152 134.063 86.4767 133.336 86.4229L127.648 86.2075C127.163 86.369 126.678 86.4498 126.166 86.4229L91.6395 85.1037L108.162 109.388L117.056 109.119C117.487 109.119 117.919 109.2 118.323 109.307L124.252 109.119C125.384 109.119 126.463 109.496 127.271 110.277C128.08 111.057 128.538 112.108 128.538 113.238V154.592V158.2V158.738V159.384L141.745 161.538L141.61 160.704V160.354Z" fill="#FF0000"/>
<path d="M128.592 158.227V154.619V113.266C128.592 112.135 128.134 111.085 127.325 110.304C126.516 109.523 125.438 109.119 124.306 109.146L118.377 109.335C118.538 109.389 118.673 109.442 118.835 109.496C118.889 109.523 118.916 109.55 118.97 109.55C119.077 109.604 119.158 109.631 119.266 109.685C119.32 109.712 119.374 109.739 119.428 109.766C119.509 109.819 119.589 109.873 119.67 109.927C119.724 109.954 119.778 110.008 119.832 110.035C119.913 110.089 119.994 110.169 120.048 110.223C120.102 110.277 120.155 110.331 120.209 110.385C120.236 110.412 120.29 110.466 120.317 110.492C120.614 110.816 120.856 111.192 121.045 111.677C121.287 112.242 121.395 112.889 121.395 113.508V113.777L123.821 113.696V113.912V115.258V154.135V157.446V158.039V158.604L128.592 159.385V158.739V158.227V158.227Z" fill="#FFD400"/>
<path d="M123.821 157.446V154.107V115.257V113.884V113.669L121.396 113.75V113.965V157.042V157.688V158.227L123.821 158.63V158.038V157.446Z" fill="#FF0000"/>
<path d="M146.058 32.4961C146.085 32.7115 146.112 32.9269 146.192 33.1423C146.678 34.3538 148.052 34.973 149.292 34.4884L153.335 32.8999L155.976 31.8769L155.491 32.9538C155.249 33.4923 155.141 34.0307 155.141 34.5961C155.114 36.1038 155.922 37.5576 157.324 38.3115L160.828 40.1961C161.448 40.5192 162.095 40.6807 162.795 40.6807C163.119 40.6807 163.469 40.6538 163.793 40.573L167.162 39.7384L170.315 38.9576C171.959 38.5538 173.172 37.2346 173.415 35.5653C173.442 35.3769 173.442 35.2153 173.469 35.0538C173.469 34.5961 173.415 34.1384 173.28 33.7076C172.983 32.7653 172.364 31.9576 171.474 31.4192L163.577 26.6269L162.526 25.9807C162.391 25.8999 162.229 25.8192 162.095 25.7384C161.933 25.6038 161.744 25.4692 161.529 25.3884C160.801 25.0653 159.992 25.1192 159.345 25.4961C159.184 25.5499 159.022 25.5769 158.887 25.6576L151.475 28.5384L147.567 30.073C146.543 30.4499 145.95 31.473 146.058 32.4961ZM160.774 32.8192L161.609 30.9884L163.119 31.9038H163.146L167.728 34.6769L162.849 35.8615L162.445 35.6461L160.073 34.3807L160.774 32.8192Z" fill="black"/>
<path d="M75.6838 39.8461C76.735 39.0923 77.3549 37.9077 77.4088 36.6154L77.4627 34.8923C77.3549 34.5423 77.301 34.1923 77.3549 33.8423C77.3549 33.7346 77.301 33.6269 77.301 33.5192V21.35L73.5276 17.5807L73.312 17.3654L71.3175 15.373L65.9539 17.4192L68.0831 18.2807C69.7003 18.9269 70.7515 20.5154 70.6975 22.2654L70.2124 36.6154C70.1854 37.7192 69.7003 38.7423 68.8917 39.4961L72.0452 40.4384C73.312 40.8154 74.6327 40.6 75.6838 39.8461Z" fill="#FFD400"/>
<path d="M56.4932 37.9346L51.9921 42.1346L59.5119 41.8384L61.9376 39.55L56.4932 37.9346Z" fill="#FFD400"/>
<path d="M85.3055 67.8732C84.8473 66.2847 83.5267 65.127 81.8825 64.8847L72.0448 63.5116L72.476 63.377C73.6889 63.0001 74.6861 62.0309 75.1174 60.8463L76.8963 55.9732C77.3545 54.7078 77.1658 53.2809 76.3842 52.177L70.3198 43.5886C69.5112 42.4309 68.1636 41.7578 66.762 41.8386L61.1019 42.0539C61.9105 42.3232 62.6113 42.8616 63.1234 43.5886L69.1878 52.177C69.9694 53.2809 70.1581 54.7078 69.6999 55.9732L67.921 60.8193C67.894 60.927 67.8401 61.0078 67.7862 61.1155C67.7593 61.1693 67.7323 61.2232 67.7323 61.277C67.7323 61.277 67.7323 61.277 67.7323 61.3039C67.3011 62.1386 66.6003 62.8116 65.7378 63.2155C65.603 63.2693 65.4413 63.3501 65.2796 63.377L64.8484 63.5116L74.6861 64.8847C76.3303 65.1001 77.6509 66.2847 78.1091 67.8732L81.5052 79.9616L83.2571 80.0155L88.7825 80.2309L85.3055 67.8732Z" fill="#FFD400"/>
<path d="M70.3196 43.5882L76.384 52.1767C77.1656 53.2805 77.3543 54.7075 76.8961 55.9729L75.1172 60.8459C74.6859 62.0575 73.6887 62.9998 72.4758 63.3767L72.0446 63.5113L81.8823 64.8844C83.5264 65.0998 84.8471 66.2844 85.3053 67.8729L88.7822 80.2575L89.1326 80.2844L106.436 80.9305L106.275 80.6613L98.4853 66.8767L78.0011 35.8075C77.9472 35.7267 77.9203 35.619 77.8664 35.5113C77.8125 35.4575 77.7316 35.4036 77.7046 35.3229C77.6238 35.1882 77.5429 35.0267 77.489 34.8921L77.4351 36.6152C77.3812 37.9075 76.7613 39.0921 75.7101 39.8459C74.659 40.5998 73.3383 40.8152 72.0985 40.4382L68.945 39.4959C68.8102 39.6306 68.6755 39.7382 68.5407 39.8459C67.4895 40.5998 66.1688 40.8152 64.929 40.4382L61.9642 39.5498L59.5385 41.8382H59.5924C60.1314 41.8113 60.6435 41.8921 61.1287 42.0536L66.7888 41.8382C68.1364 41.7575 69.484 42.4306 70.3196 43.5882Z" fill="#FF0000"/>
<path d="M141.394 286.435L136.354 297.096L145.195 293.408C145.221 293.408 145.248 293.381 145.275 293.381L148.564 286.435H141.394V286.435Z" fill="#FFD400"/>
<path d="M87.0034 218.992C87.5694 218.588 88.0276 218.077 88.351 217.485C88.917 216.408 88.9979 215.088 88.4858 213.877L87.6233 211.938L87.3537 211.965C85.8983 212.046 84.6046 211.4 83.769 210.242L79.2949 203.942L77.7585 201.788L74.8746 197.75L67.8938 204.292L73.7965 203.781C74.3625 203.754 74.9015 203.835 75.4137 203.996C75.6023 204.05 75.791 204.131 75.9797 204.212C76.8422 204.642 77.5699 205.315 77.9742 206.231L81.3433 213.85C82.1519 215.681 81.5319 217.808 79.8878 218.938L67.5165 227.338L68.7563 233.585L74.2008 228.658L74.8207 228.092L77.4351 225.75C77.5699 225.642 77.7046 225.535 77.8394 225.427L87.0034 218.992Z" fill="#FFD400"/>
<path d="M103.203 235.765C104.496 234.823 105.116 233.235 104.82 231.646C104.523 230.058 103.364 228.819 101.801 228.415L88.4054 224.862C87.0578 224.512 85.6293 224.835 84.6051 225.75L94.6316 228.415C96.1948 228.819 97.3268 230.058 97.6503 231.646C97.9467 233.235 97.3268 234.796 96.0331 235.765L91.4511 239.131L95.9792 253.131L100.858 246.023L98.6206 239.131L103.203 235.765Z" fill="#FFD400"/>
<path d="M129.05 215.493L132.554 206.527C132.661 206.258 132.742 205.962 132.796 205.666L134.413 194.843C134.602 193.55 134.171 192.231 133.254 191.289L128.996 187.035L128.619 186.658L128.241 186.281C127.379 186.254 126.516 185.931 125.815 185.393L121.422 181.893V186.658L126.058 191.289C126.974 192.204 127.433 193.55 127.217 194.843L125.6 205.666C125.546 205.962 125.465 206.258 125.357 206.527L121.853 215.493C121.638 216.058 121.314 216.516 120.91 216.92L123.821 217.916C125.95 218.643 128.241 217.566 129.05 215.493Z" fill="#FFD400"/>
<path d="M136.543 186.173L158.617 180.815L156.892 179.496L132.877 185.311L132.958 185.392C133.982 186.173 135.303 186.469 136.543 186.173Z" fill="#FFD400"/>
<path d="M115.385 238.108C114.118 238.188 112.986 238.861 112.259 239.884L112.124 240.073L120.641 249.334L122.042 243.061L118.727 239.454C117.865 238.484 116.652 238 115.385 238.108Z" fill="#FFD400"/>
<path d="M167.296 293.084H160.099C161.42 293.084 162.66 293.704 163.442 294.781C164.223 295.831 164.439 297.204 164.062 298.469L162.256 304.284L171.096 295.615C170.961 295.319 170.827 295.05 170.638 294.808C169.856 293.731 168.617 293.084 167.296 293.084Z" fill="#FFD400"/>
<path d="M169.398 286.408C169.506 286.408 169.587 286.434 169.695 286.434C170.396 286.434 171.043 286.111 171.501 285.573C171.609 285.492 171.716 285.411 171.824 285.331L196.567 262.231C197.645 261.234 198.103 259.754 197.78 258.327C197.456 256.873 196.432 255.742 195.031 255.284L175.409 248.796C174.034 248.338 172.525 248.634 171.42 249.577L171.177 249.765L187.834 255.284C189.236 255.742 190.26 256.9 190.583 258.327C190.907 259.781 190.449 261.234 189.37 262.231L172.444 278.034L169.21 281.05L164.628 285.304C164.52 285.384 164.412 285.465 164.304 285.546C163.846 286.084 163.172 286.408 162.499 286.408H168.994C169.129 286.434 169.264 286.408 169.398 286.408Z" fill="#FFD400"/>
<path d="M182.956 291.039L182.309 291.685L190.368 298.846C191.096 299.492 191.527 300.327 191.689 301.189L194.222 298.981L191.985 293.865L188.643 290.877C186.972 289.45 184.492 289.504 182.956 291.039Z" fill="#FFD400"/>
<path d="M156.057 238.7L144.602 234.877C144.036 234.688 143.416 234.634 142.823 234.688L138.349 235.173L148.86 238.673C149.912 239.023 150.774 239.75 151.259 240.746L158.213 254.638L163.253 250.384L158.456 240.773C157.971 239.804 157.108 239.05 156.057 238.7Z" fill="#FFD400"/>
<path d="M233.68 127.184L246.133 147.538C246.267 147.781 246.456 147.996 246.537 148.265L241.416 134.507C241.389 134.454 241.389 134.427 241.389 134.373C241.281 134.131 241.254 133.888 241.227 133.646C241.227 133.565 241.173 133.484 241.173 133.377L240.095 119.888C239.691 120.373 239.179 120.777 238.586 121.046C237.265 121.638 235.756 121.504 234.57 120.696L233.061 119.673C232.629 120.265 232.063 120.723 231.389 121.046C230.069 121.638 228.559 121.504 227.373 120.696L226.511 120.104C226.43 121.207 225.918 122.257 225.029 122.984L222.387 125.165L222.684 125.138C223.384 125.084 224.085 125.219 224.705 125.515L229.88 125.138C231.416 125.111 232.872 125.865 233.68 127.184Z" fill="#FF0000"/>
<path d="M256.672 181.919C255.782 183.104 254.111 183.723 252.629 183.454L252.278 183.373L260.014 193.416C260.095 193.523 260.176 193.658 260.256 193.792V184.962L257.588 177.854C258.1 179.254 257.588 180.681 256.672 181.919Z" fill="#FF0000"/>
<path d="M231.067 40.6805C231.983 39.9536 232.549 38.8766 232.603 37.7189C232.684 36.5613 232.252 35.4305 231.444 34.5689L224.059 26.8689L220.636 25.0382C218.722 24.0151 217.941 21.6459 218.83 19.6805L219.854 17.4189L213.089 22.9651L224.274 34.5959C225.083 35.4305 225.487 36.5882 225.433 37.7459C225.353 38.9036 224.787 39.9805 223.897 40.7074L218.533 44.9882L227.266 53.7113L227.751 47.0343L225.703 44.9882L231.067 40.6805Z" fill="#FFD400"/>
<path d="M238.56 121.1C239.179 120.831 239.692 120.427 240.069 119.942L238.802 104.246C238.802 104.219 238.802 104.165 238.802 104.138C238.775 104.031 238.802 103.923 238.802 103.842C238.802 103.707 238.802 103.573 238.802 103.438C238.802 103.357 238.802 103.277 238.802 103.196C238.829 103.115 238.856 103.061 238.883 103.007C238.91 102.9 238.91 102.792 238.964 102.684L247.616 76.0305L248.532 73.2305L251.659 58.0459C251.686 57.9651 251.686 57.8844 251.686 57.8305L248.424 51.8536L242.144 44.6382C241.039 43.3728 239.287 42.8882 237.697 43.4267C236.727 43.7497 235.945 44.3959 235.46 45.2305L243.519 54.492C244.354 55.4613 244.705 56.7805 244.462 58.0459L240.743 76.0305L236.888 94.6344L233.708 117.923C233.627 118.623 233.358 119.242 232.953 119.781L234.463 120.804C235.729 121.557 237.239 121.692 238.56 121.1Z" fill="#FFD400"/>
<path d="M220.42 199.689C220.474 199.796 220.554 199.904 220.608 200.039L233.141 227.5L240.257 227.312L236.888 219.908L234.516 219.827C232.845 219.773 231.389 218.723 230.797 217.189L223.223 197.696C222.01 197.939 221.013 198.666 220.42 199.689Z" fill="#FFD400"/>
<path d="M256.321 220.285L260.256 211.508V193.792C260.175 193.658 260.094 193.523 260.013 193.415L252.278 183.373L252.628 183.454C254.084 183.723 255.755 183.104 256.671 181.919C257.615 180.708 258.1 179.254 257.588 177.854L250.391 158.577L246.537 148.265C246.456 148.023 246.268 147.781 246.133 147.538L233.681 127.185C232.872 125.865 231.417 125.111 229.853 125.219L224.678 125.596C225.406 125.919 226.053 126.485 226.511 127.211L238.963 147.565C239.098 147.808 239.233 148.05 239.314 148.292L250.122 177.961C250.634 179.361 250.337 180.923 249.394 182.054C248.424 183.185 246.941 183.723 245.459 183.454L245.109 183.373L252.844 193.415C253.437 194.169 253.733 195.111 253.706 196.054L253.167 216.273C253.14 217.377 252.682 218.427 251.874 219.181C251.415 219.611 250.876 219.935 250.283 220.096L256.078 220.285C256.132 220.311 256.213 220.285 256.321 220.285Z" fill="#FFD400"/>
<path d="M226.485 120.185L216.97 113.777L218.965 118.192C219.719 119.888 219.261 121.908 217.806 123.092L214.491 125.838L222.361 125.273L225.002 123.092C225.892 122.338 226.404 121.261 226.485 120.185Z" fill="#FFD400"/>
<path d="M237.777 43.3998C239.368 42.8883 241.12 43.346 242.225 44.6114L248.505 51.8268L239.449 35.2152L224.112 26.896L231.497 34.596C232.306 35.4306 232.71 36.5883 232.656 37.746C232.576 38.9037 232.01 39.9806 231.12 40.7075L225.757 44.9883L227.805 47.0345C227.94 45.3652 229.045 43.9383 230.635 43.4268C232.225 42.9152 233.977 43.3729 235.082 44.6383L235.594 45.2306C236.026 44.3691 236.807 43.7229 237.777 43.3998Z" fill="#FF0000"/>
<path d="M248.586 73.1769L252.898 59.8769L251.739 57.7769C251.739 57.8576 251.712 57.9384 251.712 57.9922L248.586 73.1769Z" fill="#FF0000"/>
<path d="M253.33 226.962L256.321 220.285C256.241 220.285 256.133 220.312 256.052 220.312L250.257 220.123C249.826 220.258 249.368 220.338 248.855 220.312L236.888 219.908L240.258 227.312L253.33 226.962Z" fill="#FF0000"/>
<path d="M192.066 198.638C193.386 198.181 194.383 197.104 194.734 195.758L197.887 183.454L198.992 179.173C199.37 177.719 198.912 176.211 197.887 175.215C197.402 174.731 196.782 174.354 196.082 174.165L153.954 162.535L153.82 161.673L153.227 157.769L151.448 146.084L182.551 129.042L178.697 127.211L146.785 144.685C146.65 145.223 146.596 145.788 146.677 146.354L148.591 158.981L148.968 161.538L148.995 161.781L146.569 161.431L146.596 161.673L146.731 162.535L149.211 163.208L188.858 174.165C191.014 174.758 192.335 177.019 191.769 179.2L187.511 195.785C187.376 196.269 187.187 196.7 186.918 197.077L188.157 198.019C189.289 198.854 190.745 199.096 192.066 198.638Z" fill="#FFD400"/>
<path d="M148.968 161.538L148.59 158.981L146.677 146.354C146.596 145.788 146.623 145.223 146.785 144.685L144.278 146.058L146.569 161.135V161.161L146.596 161.431L149.022 161.781L148.968 161.538Z" fill="#FF0000"/>
<path d="M206.728 234.069C206.62 233.666 206.593 233.235 206.701 232.858C206.701 232.777 206.701 232.723 206.728 232.642L207.402 229.062L212.765 200.981C213.116 199.204 214.544 197.858 216.35 197.642C218.021 197.427 219.611 198.262 220.42 199.689C221.013 198.665 222.01 197.939 223.196 197.696L218.749 186.254L197.887 150.015L187.025 131.142L185.92 130.631C185.893 130.631 185.866 130.604 185.839 130.604L184.195 129.823L182.578 129.069L151.474 146.112L153.253 157.796L153.846 161.7L153.981 162.562L196.108 174.192C196.809 174.381 197.429 174.758 197.914 175.242C198.911 176.239 199.397 177.746 199.019 179.2L197.914 183.481L194.761 195.785C194.41 197.131 193.413 198.208 192.092 198.666C190.772 199.123 189.316 198.881 188.211 198.019L186.971 197.077C186.486 197.804 185.758 198.369 184.896 198.666C183.575 199.123 182.12 198.881 181.015 198.019L158.644 180.842L136.57 186.2C135.33 186.523 134.009 186.227 133.012 185.419L132.931 185.339L129.4 186.2C129.158 186.254 128.888 186.308 128.619 186.308C128.484 186.308 128.376 186.308 128.241 186.308L128.619 186.685L128.996 187.062L133.254 191.315C134.171 192.231 134.629 193.577 134.413 194.869L132.796 205.692C132.742 205.989 132.661 206.285 132.554 206.554L129.05 215.519C128.241 217.592 125.95 218.669 123.848 217.942L120.937 216.946C119.859 218.023 118.215 218.481 116.651 217.942L98.7009 211.804L97.7306 211.481L92.7713 211.75L87.6233 212.019L88.4858 213.958C89.0248 215.142 88.944 216.462 88.351 217.565C88.0545 218.158 87.5963 218.669 87.0034 219.073L77.7855 225.535C78.7828 224.835 80.0226 224.619 81.2355 224.942L82.7718 225.346L84.6046 225.831C85.6557 224.915 87.0573 224.566 88.4049 224.942L101.8 228.496C103.364 228.9 104.496 230.139 104.819 231.727C105.116 233.316 104.496 234.877 103.202 235.846L98.62 239.212L100.857 246.104L105.089 239.965C105.816 238.915 106.948 238.269 108.215 238.189C109.482 238.108 110.695 238.592 111.557 239.508L112.15 240.154L112.285 239.965C113.013 238.915 114.145 238.269 115.412 238.189C116.678 238.108 117.891 238.592 118.754 239.508L122.069 243.116L122.985 238.996C123.363 237.273 124.818 235.981 126.57 235.766L135.653 234.769C136.246 234.689 136.866 234.769 137.432 234.958L138.375 235.281L142.85 234.796C143.443 234.716 144.062 234.796 144.628 234.985L156.083 238.808C157.135 239.158 157.997 239.885 158.482 240.881L163.253 250.385L164.223 249.55C165.328 248.608 166.865 248.312 168.212 248.769L171.177 249.739L171.42 249.55C172.525 248.608 174.061 248.312 175.409 248.769L195.03 255.258C196.432 255.715 197.456 256.873 197.779 258.3C198.103 259.754 197.645 261.208 196.567 262.204L171.824 285.304C171.716 285.385 171.608 285.466 171.5 285.546C171.042 286.085 170.368 286.408 169.695 286.408C169.587 286.408 169.506 286.381 169.398 286.381C169.263 286.381 169.129 286.408 168.994 286.408H162.525H161.824H148.564L145.275 293.354C145.761 293.166 146.273 293.058 146.785 293.058H153.981H160.126H167.323C168.643 293.058 169.883 293.677 170.665 294.754C170.854 294.996 171.015 295.292 171.123 295.562L175.759 291.012C177.295 289.477 179.802 289.423 181.419 290.877L182.282 291.658L182.928 291.012C184.465 289.477 186.971 289.423 188.589 290.877L191.931 293.866L189.208 287.673C188.696 286.489 188.75 285.169 189.37 284.039C189.99 282.908 191.068 282.127 192.335 281.939L210.501 279.004L213.655 262.689L206.728 234.419C206.755 234.285 206.755 234.177 206.728 234.069Z" fill="#FF0000"/>
<path d="M42.2349 133.458C43.1513 134.158 43.7442 135.208 43.8251 136.392C43.9329 137.523 43.5286 138.654 42.8009 139.488L47.7063 141.588L44.1216 133.458H42.2349Z" fill="#FFD400"/>
<path d="M164.871 278.6L165.41 278.089L160.963 276.42L158.24 275.396L152.203 275.531L162.175 281.131L164.871 278.6Z" fill="#FFD400"/>
<path d="M60.5903 150.931C61.8301 150.069 62.5039 148.615 62.3692 147.108C62.3153 146.596 62.1535 146.112 61.911 145.681L55.4962 131.115C55.5232 131.089 55.5501 131.062 55.5501 131.008L56.4935 128.881L53.4208 120.481L51.1298 119.754C51.9654 120.939 52.1541 122.5 51.5341 123.873L48.3268 131.008C48.2998 131.035 48.2728 131.062 48.2728 131.115L50.9681 137.254L52.4236 140.539L54.6876 145.654C54.9032 146.112 55.0919 146.569 55.1458 147.081C55.3075 148.589 54.6068 150.042 53.3669 150.904C53.1513 151.039 52.9357 151.146 52.6931 151.227L41.6425 154.485L41.8042 159.789L48.5963 154.512C49.2162 154.027 49.9709 153.731 50.7795 153.65L52.1001 153.542L59.8895 151.254C60.1321 151.173 60.3747 151.065 60.5903 150.931Z" fill="#FFD400"/>
<path d="M69.7265 152.627L64.7672 153.058C65.6027 153.489 66.3035 154.162 66.6809 155.05L71.8828 166.654C71.9906 166.896 72.0714 167.112 72.1253 167.354L77.2194 163.289L77.1655 162.4L73.8503 155.023C73.1495 153.462 71.5054 152.465 69.7265 152.627Z" fill="#FFD400"/>
<path d="M71.3439 138.169L103.58 127.696C104.927 127.265 105.951 126.162 106.302 124.788L108.431 116.469L109.024 114.127L101.774 114.342L99.1053 124.762C98.755 126.135 97.7307 127.238 96.3831 127.669L67.1663 137.173C68.2444 138.25 69.8346 138.681 71.3439 138.169Z" fill="#FFD400"/>
<path d="M108.458 116.469L106.329 124.789C105.979 126.162 104.954 127.266 103.607 127.696L71.3712 138.169C69.8618 138.654 68.2716 138.223 67.1935 137.2L64.1748 138.169C62.0455 138.869 59.7815 137.766 58.9998 135.666L56.5202 128.881L55.5768 131.008C55.5499 131.035 55.5229 131.062 55.5229 131.116L61.9377 145.681C62.1533 146.139 62.342 146.596 62.3959 147.108C62.5576 148.616 61.8568 150.069 60.617 150.931C60.4014 151.066 60.1857 151.173 59.9432 151.254L52.1538 153.542L62.5845 152.627C63.3662 152.546 64.1478 152.735 64.8216 153.058L69.7809 152.627C71.5598 152.466 73.204 153.462 73.9317 155.05L77.2469 162.427L76.8965 156.019C76.8156 154.754 77.3277 153.542 78.2711 152.708C79.2144 151.873 80.4543 151.496 81.721 151.712L85.8987 152.412L116.706 157.473V156.962V156.262V114.127V113.885L109.132 114.127L108.458 116.469Z" fill="#FF0000"/>
<path d="M241.928 266.161C241.928 265.946 241.928 265.703 241.901 265.488C241.713 264.034 240.742 262.796 239.368 262.23L228.802 257.976L226.727 257.142L223.034 251.272L214.976 238.484L211.526 233.019L212.28 229.088L217.105 203.807L218.749 207.415L228.641 229.088L228.991 229.869C229.692 231.376 231.147 232.319 232.872 232.292L253.842 231.753C255.432 231.699 256.86 230.757 257.507 229.303L257.588 229.088L258.504 227.042L264.623 213.392C264.865 212.853 265 212.288 265 211.696V184.961C265 184.476 264.919 183.992 264.73 183.507L246.295 134.103L248.235 132.273L252.683 128.046L255.809 125.057L255.917 125.192L257.049 126.619C258.343 128.234 260.499 128.638 262.305 127.642C264.111 126.619 264.892 124.573 264.191 122.607L263.248 119.996L259.124 108.58L258.612 107.18C258.127 105.861 257.022 104.865 255.647 104.542L246.268 102.388L244.246 101.93L252.683 75.9764L257.507 61.0879C257.534 60.9802 257.561 60.8456 257.588 60.7379C257.884 60.1994 257.965 59.5533 257.75 58.9071L255.189 50.9379L251.173 38.3648L252.332 35.7533L254.03 31.9841L255.297 29.1571C256.106 27.3802 255.593 25.3879 254.057 24.1764C252.521 22.9917 250.445 22.9917 248.936 24.2302L240.958 30.611L225.838 22.3994L223.439 21.1071L223.978 19.9494L225.352 16.9341C226.161 15.1571 225.649 13.111 224.113 11.9264C222.522 10.7687 220.393 10.7956 218.884 12.0341L209.531 19.7071C208.642 20.4341 208.103 21.511 208.022 22.6687C207.941 23.8264 208.372 24.9571 209.181 25.7917L220.366 37.4225L215.003 41.7033C214.086 42.4302 213.52 43.5341 213.439 44.7187C213.385 45.9033 213.817 47.0341 214.652 47.8687L224.84 58.0456C225.999 59.2033 227.697 59.5802 229.207 58.9879C230.743 58.4225 231.767 57.0494 231.902 55.4071L232.198 51.4764L232.387 48.8648L234.597 51.4225L239.772 57.3725L235.918 76.0033L232.279 93.6379C232.279 93.6917 232.252 93.8533 232.225 93.9071L229.18 116.253L217.833 108.58C216.269 107.53 214.275 107.638 212.846 108.849C211.418 110.061 210.96 111.999 211.741 113.723L214.41 119.699L209.962 123.361C208.561 124.519 208.076 126.403 208.749 128.099C209.423 129.769 211.067 130.819 212.9 130.684L222.63 129.984L234.84 149.907L245.271 178.553L244.381 178.392C242.683 178.069 240.985 178.823 240.069 180.303C239.152 181.784 239.26 183.615 240.311 184.988L248.909 196.134L248.397 215.519L237.185 215.142L235.082 215.061L223.196 184.53C223.115 184.342 223.034 184.126 222.927 183.965L197.888 140.457L192.605 131.276L191.904 130.038L191.634 129.58L191.5 129.338L191.284 128.961L191.634 127.696L191.958 126.565L192.416 125.003L192.847 123.523L197.888 105.753L202.281 90.2725C202.389 89.8956 202.443 89.5187 202.443 89.1418V75.9764V54.7341L193.494 37.0187V29.1033V20.7302V18.6033V16.9879C193.494 15.8033 192.982 14.6994 192.12 13.8917C191.23 13.111 190.071 12.7341 188.885 12.8687L186.945 13.0841L184.896 9.88021C184.195 8.77637 183.037 7.9956 181.716 7.86098C180.395 7.72637 179.101 8.23791 178.212 9.23406L171.528 16.7994H153.523C152.634 16.7994 151.798 17.0687 151.07 17.6071L131.799 31.7687C131.045 32.3071 130.506 33.1148 130.263 34.0033L128.942 38.9033C128.538 40.4379 129.023 42.0802 130.236 43.1302L137.783 49.6456C138.618 50.3725 139.723 50.7494 140.855 50.6417L159.102 49.1341L159.264 52.7956L144.656 53.6841L129.32 53.4148L117.002 49.1879C115.87 48.811 114.63 49.3225 114.091 50.3994C113.552 51.4764 113.903 52.7687 114.927 53.4417L132.284 64.8841C132.85 65.261 133.497 65.4764 134.144 65.5571L145.707 66.6879L152.553 69.9994L139.696 70.2956C138.133 70.3225 136.732 71.211 136.058 72.6379C135.411 73.9302 135.519 75.4648 136.273 76.6764L126.247 81.6841L112.043 81.1456L111.881 80.8764L102.663 64.561C102.636 64.5071 102.528 64.3456 102.502 64.2917L88.6208 43.3187L89.6989 42.6994L100.669 36.4264C101.37 36.0225 101.962 35.4033 102.313 34.6764L102.717 33.8687L106.787 25.7379C107.407 24.4994 107.326 23.0456 106.679 21.8879C106.41 21.4033 106.059 20.9725 105.628 20.6225L97.111 13.9456C95.6825 12.8417 93.7958 12.761 92.2864 13.7302C90.7771 14.6994 90.0763 16.4764 90.5345 18.1994L91.8552 23.4764L88.5669 25.5764L89.079 16.4225V0.0263672H51.1295V17.1764L52.4232 35.2417L47.5448 39.8456C46.278 41.0302 45.8737 42.861 46.5745 44.4764C47.2483 46.0917 48.8115 47.0879 50.5635 47.0071L53.2587 46.8994L54.256 61.061C54.6872 66.8764 61.4794 67.8994 61.4794 67.8994L73.6351 69.5956L76.5729 80.0956C77.112 82.0071 77.9206 83.811 78.9987 85.4802L79.6725 86.5571L97.3535 112.538L94.5774 123.334L65.118 132.919L63.2313 133.538L59.0806 122.203L57.7599 118.649C57.3017 117.438 56.3583 116.523 55.1185 116.119L50.1322 114.53C48.2725 113.938 46.3049 114.692 45.3077 116.361C44.3104 118.03 44.6069 120.13 46.0084 121.476L46.9787 122.392L45.4963 125.73C43.4479 124.249 40.9413 123.361 38.246 123.361C35.389 123.361 32.7477 124.357 30.6453 125.999V121.046H0V146.353C0 150.661 3.50387 154.161 7.81631 154.161H22.856C27.1684 154.161 30.6723 150.661 30.6723 146.353V145.384C32.7746 147.026 35.416 148.023 38.273 148.023C40.9144 148.023 43.3401 147.188 45.3616 145.788L49.0811 147.376L39.3241 150.257C39.0816 150.338 38.839 150.446 38.6503 150.58C37.4375 151.442 36.7367 152.869 36.8714 154.215L37.0871 161.43C37.2218 162.938 38.1652 164.257 39.5667 164.849C40.9683 165.442 42.5585 165.253 43.7714 164.311L51.399 158.388L62.5305 157.419L67.409 168.296L62.0723 175.511C61.3715 176.48 61.4794 177.799 62.3418 178.634C62.8 179.065 63.393 179.307 63.986 179.307C64.4981 179.307 65.0371 179.146 65.4684 178.796L80.4541 166.869C80.8584 166.546 81.1819 166.142 81.4514 165.711C81.8557 165.011 82.0443 164.23 82.0174 163.396L81.6401 156.557L84.0658 156.961L118.107 162.534L118.619 162.615C118.997 162.669 119.563 162.776 120.102 162.857L121.153 163.019L121.368 163.046H121.395L121.638 163.073C121.692 163.073 121.719 163.099 121.773 163.099C121.827 163.099 121.854 163.099 121.854 163.099L141.556 166.303C141.556 166.303 144.467 166.815 145.33 167.057L187.026 178.553L183.144 193.63L159.561 175.511C158.563 174.73 157.297 174.461 156.057 174.757L128.538 181.461L123.39 177.342C122.123 176.346 120.452 176.157 118.997 176.857C117.541 177.557 116.652 178.984 116.652 180.599V186.926C116.652 188.03 117.083 189.08 117.865 189.861L122.447 194.438L120.91 204.83L117.649 213.23L100.48 207.361L100.453 206.957L99.9949 197.803C99.968 197.507 99.941 197.238 99.8602 196.969C99.5906 195.892 98.8629 194.949 97.8656 194.384L90.9927 190.588C89.2677 189.646 87.1654 189.996 85.8716 191.476C84.5779 192.93 84.4701 195.057 85.6291 196.646L86.6802 198.099L84.0389 200.63L83.2572 201.384L81.2627 198.557L78.3518 194.465C77.651 193.496 76.5729 192.876 75.387 192.742C74.2011 192.607 73.0152 193.011 72.1257 193.846L63.3121 202.084C61.9915 203.296 61.6141 205.153 62.3688 206.796C63.0965 208.438 64.7137 209.38 66.5195 209.246L73.7698 208.626L76.7616 215.384L64.4711 223.73C63.0965 224.672 62.3958 226.342 62.7461 227.957L64.2824 235.684C64.5789 237.138 65.6301 238.349 67.0586 238.807C68.4871 239.265 70.0503 238.942 71.1554 237.946L75.953 233.611L80.4272 229.572L80.4811 229.599L92.2325 232.723L88.3244 235.576C86.8689 236.626 86.2759 238.484 86.842 240.18L91.9091 255.796C92.3942 257.303 93.688 258.38 95.2512 258.622C96.8145 258.838 98.3778 258.192 99.2672 256.873L102.798 251.757L108.674 243.249L109.482 244.111L118.08 253.453C119.131 254.584 120.722 255.042 122.204 254.638C123.713 254.234 124.845 253.049 125.169 251.542L126.112 247.342L127.648 240.423L130.02 240.153L136.166 239.48L147.243 243.169L154.44 257.546C155.006 258.703 156.057 259.484 157.324 259.753C158.59 260.023 159.857 259.672 160.827 258.838L167.188 253.426L185.489 259.484L169.425 274.48L159.938 270.899C159.426 270.711 158.887 270.63 158.375 270.63L149.965 270.819C148.079 270.872 146.489 272.111 146.03 273.969C145.572 275.799 146.381 277.657 148.025 278.572L153.55 281.669H141.125C139.535 281.669 138.052 282.611 137.378 284.038L131.476 296.503C130.748 298.065 131.018 299.896 132.23 301.134C133.416 302.399 135.222 302.776 136.839 302.103L147.055 297.849H159.426L157.135 305.199C156.569 307.057 157.27 308.969 158.941 309.965C160.585 310.961 162.633 310.746 164.008 309.372L169.776 303.692L178.832 294.807L179.021 294.996L186.891 302.022L180.368 311.257C179.667 312.253 179.829 313.599 180.719 314.407C181.177 314.811 181.743 315.026 182.309 315.026C182.875 315.026 183.414 314.838 183.872 314.434L197.807 302.292C198.292 301.888 198.642 301.376 198.885 300.811C199.343 299.788 199.37 298.576 198.885 297.499L194.087 286.515L196.243 286.165L211.876 283.634C213.574 283.365 214.949 282.019 215.272 280.322L215.461 279.38L217.94 266.619L219.989 268.019L225.595 271.869C226.296 272.353 227.104 272.596 227.94 272.596C228.263 272.596 228.587 272.569 228.91 272.488L238.883 270.092C240.635 269.661 241.901 268.18 242.036 266.376C241.928 266.296 241.928 266.242 241.928 266.161ZM25.9016 146.273C25.9016 147.942 24.5271 149.315 22.856 149.315H7.81631C6.14524 149.315 4.77065 147.942 4.77065 146.273V125.73H25.9016V146.273ZM246.268 107.315L251.146 108.419L254.3 109.146L258.585 120.992C257.911 120.426 257.076 120.103 256.213 120.023C255.054 119.942 253.922 120.346 253.087 121.153L252.251 121.934L247.804 126.161L245.567 128.288L243.842 106.749L246.268 107.315ZM244.327 33.9764L249.879 29.5341L246.996 35.9687L246.699 36.6417C246.51 37.0725 246.403 37.5571 246.349 38.0148L244.192 34.0571L244.327 33.9764ZM147.728 62.4071C147.297 62.1917 146.839 62.0841 146.354 62.0302L134.737 60.8456L130.721 58.2071L138.106 58.3417L144.548 58.4494C144.602 58.4494 144.79 58.4494 144.844 58.4494L146.354 58.3687L159.426 57.561L159.453 57.9917L159.776 64.7225L159.938 68.2494L147.728 62.4071ZM94.793 27.2187C96.3024 26.2494 97.0032 24.4456 96.5719 22.7225L95.5747 18.7648L102.286 24.0148L100.076 28.4302L98.1082 32.361L91.1814 36.3187L87.0306 38.6879L85.9525 39.3071L82.9607 34.7841L84.4701 33.8148L94.793 27.2187ZM55.9001 11.6841V4.76483H84.3353V11.6841V16.2071L83.6346 28.7264L82.0983 29.7225V21.1071C82.0983 20.0033 81.667 18.9533 80.8854 18.1725L78.244 15.5341L74.4706 11.7648C74.4437 11.7379 74.4167 11.711 74.3898 11.6841C73.2308 10.6071 71.5597 10.2571 70.0773 10.8225L67.8133 11.6841L62.8539 13.5687C61.2368 14.1879 60.1856 15.6956 60.1856 17.4187C60.1587 19.1417 61.1829 20.6494 62.8 21.2956L65.9805 22.561L65.5492 35.6456L57.5712 33.2494C57.4095 33.1956 57.2478 33.1687 57.086 33.1417L55.9271 17.0687V11.6841H55.9001ZM60.8055 59.7956C60.1048 60.011 59.5118 60.3879 59.0536 60.8994C59.0266 60.8187 59.0266 60.7648 59.0266 60.6841L58.0294 46.6571L59.4309 46.6033L65.118 54.6533L63.5547 58.9341L60.8055 59.7956ZM81.5053 79.961L78.1092 67.8725C77.651 66.2841 76.3303 65.1264 74.6862 64.8841L64.8485 63.511L65.2797 63.3764C65.4414 63.3225 65.5762 63.2687 65.7379 63.2148C66.6004 62.8379 67.3012 62.1648 67.7324 61.3033C67.7324 61.3033 67.7324 61.3033 67.7324 61.2764C67.7594 61.2225 67.7863 61.1687 67.7863 61.1148C67.8402 61.0071 67.8672 60.9264 67.9211 60.8187L69.7 55.9725C70.1582 54.7071 69.9695 53.2802 69.1879 52.1764L63.1235 43.5879C62.6114 42.861 61.9106 42.3494 61.102 42.0533C60.6169 41.8917 60.1048 41.811 59.5657 41.8379H59.5118L52.0189 42.1341L56.4931 37.9071L61.9376 39.5494L64.9024 40.4379C66.1422 40.8148 67.4629 40.5994 68.514 39.8456C68.6488 39.7379 68.8105 39.6302 68.9183 39.4956C69.7269 38.7417 70.1851 37.7187 70.239 36.6148L70.7242 22.2648C70.7781 20.5418 69.7269 18.9264 68.1097 18.2802L65.9805 17.4187L71.3441 15.3725L73.3386 17.3648L73.5542 17.5802L77.3276 21.3494V33.5187C77.3276 33.6264 77.3546 33.7341 77.3815 33.8417C77.3546 34.1917 77.3815 34.5417 77.4893 34.8917C77.5432 35.0533 77.5971 35.1879 77.7049 35.3225C77.7589 35.4033 77.8128 35.4302 77.8667 35.511C77.9206 35.5917 77.9475 35.6994 78.0014 35.8071L98.5125 66.8225L106.302 80.6071L106.464 80.8764L89.1599 80.2302L88.8095 80.2033L83.2842 79.9879L81.5053 79.961ZM39.6476 128.692C37.68 128.692 36.009 130.038 35.6047 131.976C35.2004 133.915 36.1707 135.826 37.9496 136.634L38.5964 136.93C37.8417 137.765 37.4375 138.896 37.5453 140.08C37.6531 141.373 38.3808 142.503 39.432 143.176C39.0546 143.23 38.6773 143.284 38.2999 143.284C34.1223 143.284 30.6992 139.892 30.6992 135.692C30.6992 131.492 34.0953 128.099 38.2999 128.099C39.3781 128.099 40.4023 128.342 41.3456 128.746H39.6476V128.692ZM42.8011 139.488C43.5557 138.653 43.9331 137.549 43.8253 136.392C43.7175 135.207 43.1514 134.157 42.2351 133.457H44.1217L47.7065 141.588L42.8011 139.488ZM116.625 114.126V156.261V156.961V157.446L85.8447 152.384L81.667 151.684C80.4272 151.469 79.1604 151.846 78.217 152.68C77.2737 153.515 76.7886 154.726 76.8425 155.992L77.1928 162.399L77.2467 163.288L72.1527 167.353C72.0988 167.111 72.0179 166.869 71.9101 166.653L66.7082 155.049C66.3039 154.161 65.6031 153.488 64.7946 153.057C64.1207 152.707 63.366 152.546 62.5575 152.626L52.1267 153.542L50.806 153.649C49.9975 153.73 49.2697 154.026 48.6229 154.511L41.8308 159.788L41.669 154.484L52.7197 151.226C52.9623 151.146 53.1779 151.038 53.3935 150.903C54.6333 150.042 55.3072 148.588 55.1724 147.08C55.1185 146.569 54.9568 146.084 54.7142 145.653L52.4502 140.538L50.9947 137.253L48.2994 131.115C48.3264 131.088 48.3533 131.061 48.3533 131.007L51.5607 123.873C52.1806 122.499 51.992 120.938 51.1564 119.753L53.4474 120.48L56.52 128.88L58.9997 135.665C59.7813 137.765 62.0454 138.869 64.1746 138.169L67.1934 137.199L96.4102 127.696C97.7578 127.265 98.782 126.161 99.1324 124.788L101.801 114.369L109.051 114.153L116.625 113.911V114.126ZM128.592 159.384L123.821 158.603L121.395 158.199V157.661V157.042V113.965V113.749V113.48C121.395 112.861 121.288 112.215 121.045 111.649C120.856 111.192 120.587 110.788 120.317 110.465C120.29 110.438 120.236 110.384 120.21 110.357C120.156 110.303 120.102 110.249 120.048 110.196C119.967 110.142 119.886 110.061 119.832 110.007C119.778 109.98 119.724 109.926 119.67 109.899C119.59 109.846 119.509 109.792 119.428 109.738C119.374 109.711 119.32 109.684 119.266 109.657C119.158 109.603 119.078 109.549 118.97 109.523C118.916 109.496 118.889 109.469 118.835 109.469C118.7 109.415 118.538 109.361 118.377 109.307C117.972 109.199 117.541 109.119 117.11 109.119L108.216 109.388L101.181 109.603L84.3084 84.8071L91.6935 85.0764L126.22 86.3956C126.732 86.4225 127.244 86.3417 127.702 86.1802C127.891 86.1264 128.053 86.0456 128.215 85.9648L139.023 80.5533C140.128 80.0148 140.909 78.9917 141.206 77.8071C141.421 76.8648 141.314 75.8687 140.882 75.0071L147.971 74.8456L160.261 74.5764C160.369 74.5764 160.477 74.5764 160.585 74.5494C164.574 74.2264 164.736 69.8648 164.736 69.7033L164.601 67.0648L164.17 57.6956L163.738 48.2456C163.684 47.1148 163.172 46.0648 162.337 45.3379C162.067 45.0956 161.744 44.9071 161.393 44.7456C160.72 44.4225 159.992 44.261 159.237 44.3148L147.162 45.311L140.613 45.8494L133.578 39.7379L134.764 35.4302L153.712 21.511H160.908H171.797C172.983 21.511 174.115 20.9994 174.897 20.111L181.204 12.9494L182.713 15.3456L177.403 21.511L175.678 23.5302C174.816 24.5264 174.924 26.0341 175.921 26.8956C176.379 27.2725 176.918 27.461 177.484 27.461C178.158 27.461 178.832 27.1917 179.29 26.6264L186.891 17.7956C186.945 17.7956 186.972 17.7956 187.026 17.7956L187.861 17.7148L188.643 17.6341V22.7225L188.589 22.6687V24.1764L188.535 24.2302L188.346 36.9379L188.697 38.2302C188.777 38.4994 188.885 38.7417 189.047 38.9571C189.074 39.011 189.074 39.0648 189.101 39.0917L197.537 54.8417L197.564 88.9533L187.915 122.93L187.079 125.919L182.255 123.657L180.287 122.742C179.101 122.176 177.7 122.23 176.541 122.849L141.475 142.073C139.966 142.907 139.103 144.603 139.373 146.326L141.502 160.326L141.556 160.676L141.799 161.538L128.592 159.384ZM86.842 204.507L90.3728 201.115C91.7743 199.769 92.0438 197.642 91.0735 196.026L95.2512 198.342L95.4938 203.107L95.6825 206.796L94.3887 206.849L88.7286 207.119L87.4349 207.172L86.0603 205.234L86.842 204.507ZM152.203 275.53L158.24 275.396L160.962 276.419L165.409 278.088L164.843 278.599L162.148 281.13L152.203 275.53ZM210.555 279.003L192.389 281.938C191.122 282.153 190.017 282.907 189.424 284.038C188.804 285.169 188.751 286.488 189.263 287.672L191.985 293.865L194.222 298.98L191.688 301.188C191.527 300.299 191.095 299.465 190.368 298.846L182.309 291.684L181.446 290.903C179.829 289.449 177.323 289.503 175.786 291.038L171.15 295.588L162.31 304.257L164.116 298.442C164.52 297.176 164.277 295.803 163.496 294.753C162.714 293.703 161.474 293.057 160.154 293.057H154.008H146.812C146.3 293.057 145.788 293.165 145.303 293.353C145.276 293.353 145.249 293.38 145.222 293.38L136.381 297.069L141.421 286.407H148.618H161.879H162.579C163.28 286.407 163.927 286.084 164.385 285.546C164.493 285.465 164.601 285.384 164.709 285.303L169.291 281.049L172.525 278.034L189.451 262.23C190.529 261.234 190.988 259.753 190.664 258.326C190.341 256.872 189.317 255.742 187.915 255.284L171.258 249.765L168.293 248.796C166.919 248.338 165.409 248.634 164.304 249.576L163.253 250.384L158.213 254.665L151.259 240.772C150.774 239.776 149.912 239.049 148.86 238.699L138.349 235.199L137.405 234.876C136.839 234.688 136.219 234.634 135.627 234.688L126.543 235.684C124.792 235.872 123.336 237.165 122.959 238.915L122.042 243.034L120.641 249.307L112.124 240.046L111.531 239.399C110.668 238.457 109.455 237.972 108.189 238.08C106.922 238.161 105.79 238.834 105.062 239.857L100.83 245.996L95.952 253.103L91.4239 239.103L96.0059 235.738C97.2996 234.796 97.9196 233.207 97.6231 231.619C97.3266 230.03 96.1676 228.792 94.6044 228.388L84.5779 225.722L82.7451 225.238L81.2088 224.834C80.0229 224.511 78.7561 224.753 77.7589 225.426C77.6241 225.534 77.4893 225.642 77.3546 225.749L74.7401 228.092L74.1202 228.657L68.6758 233.584L67.4359 227.338L79.8073 218.938C81.4514 217.807 82.0713 215.653 81.2627 213.849L77.8936 206.23C77.4893 205.315 76.7616 204.615 75.8991 204.211C75.7104 204.13 75.5218 204.049 75.3331 203.996C74.821 203.834 74.2819 203.753 73.7159 203.78L67.8133 204.292L74.794 197.749L77.678 201.788L79.2143 203.942L83.6885 210.242C84.524 211.399 85.8177 212.046 87.2732 211.965L87.5427 211.938L92.6907 211.669L97.65 211.399L98.6203 211.722L116.571 217.861C118.134 218.399 119.751 217.942 120.856 216.865C121.261 216.461 121.584 216.003 121.8 215.438L125.304 206.473C125.411 206.203 125.492 205.907 125.546 205.611L127.163 194.788C127.352 193.496 126.921 192.176 126.004 191.234L121.368 186.603V181.838L125.762 185.338C126.463 185.903 127.325 186.199 128.188 186.226C128.295 186.226 128.43 186.226 128.565 186.226C128.834 186.199 129.077 186.172 129.347 186.119L132.877 185.257L156.892 179.442L158.617 180.761L180.988 197.938C182.093 198.799 183.549 199.015 184.869 198.584C185.732 198.288 186.433 197.722 186.945 196.996C187.214 196.592 187.43 196.161 187.538 195.703L191.796 179.119C192.362 176.938 191.042 174.703 188.885 174.084L149.238 163.126L146.758 162.453L146.623 161.592L146.596 161.349L146.569 161.08V161.053L144.278 145.976L146.785 144.603L178.697 127.13L182.551 128.961L184.169 129.715L185.813 130.496C185.84 130.496 185.867 130.523 185.894 130.523L186.999 131.034L197.861 149.907L218.722 186.146L223.169 197.588L230.743 217.08C231.336 218.615 232.818 219.665 234.462 219.719L236.834 219.799L248.801 220.203C249.287 220.23 249.745 220.149 250.203 220.015C250.796 219.826 251.335 219.53 251.793 219.099C252.602 218.346 253.06 217.296 253.087 216.192L253.626 195.973C253.653 195.03 253.356 194.088 252.763 193.334L245.028 183.292L245.378 183.373C246.834 183.642 248.343 183.103 249.313 181.972C250.284 180.842 250.553 179.28 250.041 177.88L239.233 148.211C239.152 147.969 239.017 147.726 238.883 147.484L226.431 127.13C225.999 126.403 225.352 125.865 224.598 125.515C223.978 125.246 223.304 125.111 222.576 125.138L222.28 125.165L214.41 125.73L217.725 122.984C219.153 121.799 219.638 119.78 218.884 118.084L216.889 113.669L226.404 120.076L227.266 120.669C228.452 121.476 229.961 121.611 231.282 121.019C231.956 120.723 232.522 120.238 232.953 119.646C233.33 119.107 233.6 118.461 233.708 117.788L236.888 94.4994L240.742 75.8956L244.462 57.911C244.731 56.6456 244.381 55.3264 243.519 54.3571L235.46 45.0956L234.948 44.5033C233.843 43.2379 232.091 42.7533 230.5 43.2917C228.91 43.8302 227.805 45.2302 227.67 46.8994L227.185 53.5764L218.453 44.8533L223.816 40.5725C224.733 39.8456 225.299 38.7687 225.352 37.611C225.433 36.4533 225.002 35.3225 224.193 34.461L213.008 22.8302L219.773 17.2841L218.749 19.5456C217.86 21.511 218.641 23.8802 220.555 24.9033L224.005 26.761L239.341 35.0802L248.397 51.6917L251.658 57.6687L252.817 59.7687L248.505 73.0687L247.588 75.8687L238.937 102.523C238.91 102.63 238.883 102.738 238.856 102.846C238.829 102.926 238.775 102.98 238.775 103.034C238.748 103.115 238.775 103.196 238.775 103.276C238.748 103.411 238.775 103.546 238.775 103.68C238.775 103.788 238.748 103.896 238.775 103.976C238.775 104.003 238.775 104.057 238.775 104.084L240.042 119.78L241.12 133.269C241.12 133.349 241.174 133.43 241.174 133.538C241.201 133.78 241.228 134.023 241.335 134.265C241.362 134.319 241.362 134.346 241.362 134.399L246.483 148.157L250.338 158.469L257.534 177.746L260.202 184.853V193.684V211.399L256.267 220.176L253.276 226.853L240.203 227.176L233.088 227.365L220.555 199.903C220.501 199.796 220.42 199.688 220.366 199.553C219.531 198.126 217.967 197.292 216.296 197.507C214.49 197.723 213.062 199.069 212.712 200.846L207.348 228.926L206.674 232.507C206.674 232.588 206.674 232.642 206.647 232.723C206.539 233.126 206.566 233.53 206.674 233.934C206.701 234.042 206.701 234.149 206.728 234.257L213.655 262.526L210.555 279.003ZM233.25 266.511L227.94 267.803L220.986 263.038L220.851 262.93L218.237 261.153L214.814 247.18L218.56 253.13L222.765 259.807C223.223 260.561 223.924 261.126 224.733 261.449L227.563 262.58L235.783 265.892L233.25 266.511Z" fill="black"/>
</g>
<defs>
<clipPath id="clip0">
<rect width="265" height="315" fill="white"/>
</clipPath>
</defs>
</svg>
