<svg width="478" height="102" viewBox="0 0 478 102" fill="none" xmlns="http://www.w3.org/2000/svg">
<g clip-path="url(#clip0)">
<path fill-rule="evenodd" clip-rule="evenodd" d="M477.534 39.458C477.012 38.6568 476.127 38.1723 475.168 38.1723H472.699C472.121 38.1723 471.572 38.3587 471.078 38.7127C470.593 39.0667 470.239 39.5232 470.044 40.0542L458.808 67.4628C458.547 68.1429 458.315 68.8044 458.119 69.4286C458.082 69.5404 458.044 69.6522 458.016 69.764C457.988 69.6522 457.961 69.5497 457.923 69.4379C457.737 68.7951 457.504 68.1429 457.243 67.5001L445.672 40.0542C445.477 39.5884 445.16 39.1692 444.741 38.7872C444.284 38.3866 443.66 38.1723 442.896 38.1723H439.943C438.983 38.1723 438.098 38.6568 437.567 39.4673C437.045 40.2778 436.962 41.2933 437.344 42.1784L453.312 78.8846C453.526 79.3877 453.526 79.956 453.302 80.4591L447.396 93.3902C446.986 94.2752 447.06 95.3 447.582 96.1198C448.104 96.949 448.998 97.4334 449.967 97.4334H451.905C452.818 97.4334 453.517 97.2192 453.982 96.7999C454.411 96.418 454.774 95.8962 455.054 95.2627V95.2534L477.758 42.1504C478.149 41.2654 478.056 40.2592 477.534 39.458ZM423.853 70.6956C423.853 71.208 423.658 71.6924 423.313 72.0372C422.689 72.6613 422.046 73.239 421.403 73.7514C420.537 74.4408 419.615 75.0463 418.664 75.5308C417.714 76.0152 416.699 76.3972 415.627 76.658C414.556 76.9189 413.363 77.0493 412.068 77.0493C411.118 77.0493 410.224 76.9282 409.423 76.6953C408.64 76.4717 407.951 76.1084 407.373 75.6239C406.805 75.1395 406.339 74.506 406.003 73.7327C405.659 72.9595 405.491 72.0185 405.491 70.9378C405.491 69.8199 405.808 68.8323 406.451 67.9193C407.093 67.0063 408.165 66.2051 409.618 65.5157C411.109 64.817 413.084 64.2394 415.478 63.8015C417.304 63.4661 419.466 63.2612 421.888 63.1773C421.906 63.1773 421.925 63.1773 421.953 63.1773C422.447 63.1773 422.913 63.3637 423.267 63.7177C423.639 64.081 423.844 64.5748 423.844 65.0965V70.6956H423.853ZM428.251 42.1131C426.928 40.6318 425.279 39.4673 423.35 38.6381C421.422 37.8183 419.195 37.3991 416.717 37.3991C413.317 37.3991 410.168 37.9953 407.364 39.1599C405.128 40.0915 402.976 41.4237 400.973 43.11C399.939 43.9857 399.668 45.495 400.339 46.6968L400.777 47.4793C401.038 47.9358 401.392 48.3271 401.83 48.6439C402.864 49.3799 404.345 49.296 405.696 48.3458C406.348 47.8893 407.149 47.3489 408.072 46.7713C408.966 46.203 410.037 45.6813 411.276 45.2248C412.488 44.7683 414.006 44.5447 415.786 44.5447C418.45 44.5447 420.472 45.3645 421.813 46.9949C423.173 48.6439 423.863 51.15 423.863 54.42V55.4914C423.863 56.5162 423.034 57.3733 422.009 57.4012C418.096 57.5037 414.658 57.9043 411.798 58.5658C408.379 59.367 405.575 60.4011 403.451 61.6588C401.299 62.9258 399.715 64.4164 398.737 66.0747C397.758 67.7423 397.265 69.4938 397.265 71.3012C397.265 73.3414 397.6 75.1395 398.262 76.6487C398.923 78.158 399.836 79.425 400.963 80.4125C402.091 81.4001 403.432 82.1547 404.951 82.6391C406.46 83.1236 408.09 83.3751 409.814 83.3751C411.491 83.3751 413.037 83.2261 414.416 82.9372C415.795 82.6484 417.118 82.2106 418.338 81.633C419.559 81.0647 420.733 80.3473 421.841 79.5182L422.223 79.2294C422.754 78.8194 423.434 78.717 424.058 78.9499C424.683 79.1828 425.121 79.6858 425.251 80.338L425.288 80.5057C425.456 81.4001 425.847 82.0056 426.434 82.3037C426.956 82.5646 427.627 82.695 428.437 82.695H429.443C431.008 82.695 432.275 81.4094 432.275 79.8349V54.3361C432.275 51.8673 431.94 49.5569 431.269 47.4793C430.58 45.3925 429.574 43.5851 428.251 42.1131ZM389.979 38.1723H387.511C386.868 38.1723 386.299 38.3587 385.824 38.722C385.349 39.0853 385.014 39.5418 384.846 40.1008L376.387 68.1522C376.126 69.0466 375.884 70.0341 375.651 71.0589C375.586 71.3291 375.53 71.5993 375.474 71.8695C375.418 71.6272 375.353 71.385 375.297 71.1335C375.055 70.1553 374.766 69.1398 374.458 68.1336L365.533 39.9052C365.356 39.3835 365.049 38.9549 364.602 38.6102C364.155 38.2562 363.577 38.0792 362.906 38.0792H359.617C358.975 38.0792 358.425 38.2562 357.978 38.6102C357.549 38.9549 357.251 39.3928 357.083 39.9052L347.944 68.1336C347.627 69.1677 347.329 70.1646 347.05 71.1241C346.975 71.385 346.891 71.6552 346.826 71.916C346.78 71.6645 346.733 71.413 346.677 71.1614C346.481 70.2298 346.277 69.2609 346.053 68.2547C346.034 68.1895 346.025 68.1243 346.006 68.0498L337.743 40.0729C337.575 39.5605 337.249 39.104 336.774 38.7313C336.299 38.3493 335.684 38.1537 334.948 38.1537H332.227C331.314 38.1537 330.476 38.5823 329.936 39.3276C329.395 40.0729 329.246 41.0045 329.535 41.8895L342.01 80.692C342.392 81.8752 343.472 82.6671 344.702 82.6671H348.699C349.435 82.6671 350.413 82.3596 350.888 80.8877L360.577 51.3829C360.791 50.7494 360.978 50.0879 361.117 49.4264C361.257 50.0693 361.443 50.7121 361.658 51.327L371.216 80.8597C371.645 82.3503 372.53 82.6578 373.201 82.6578H377.496C378.725 82.6578 379.815 81.8659 380.188 80.6827L392.662 41.8802C392.942 41.0045 392.802 40.0635 392.262 39.3182C391.731 38.6009 390.892 38.1723 389.979 38.1723ZM316.986 54.5132C316.623 54.951 316.082 55.2026 315.523 55.2026H297.468C296.863 55.2026 296.294 54.9138 295.931 54.42C295.577 53.9449 295.465 53.3486 295.633 52.7803C296.304 50.4885 297.375 48.5787 298.819 47.116C300.822 45.085 303.626 44.0509 307.157 44.0509C308.825 44.0509 310.316 44.3397 311.601 44.8894C312.887 45.4484 313.986 46.2496 314.871 47.2651C315.766 48.2899 316.455 49.5196 316.911 50.9264C317.126 51.5785 317.293 52.2772 317.405 52.9946C317.498 53.5443 317.34 54.0939 316.986 54.5132ZM320.163 42.7187C318.533 41.0324 316.567 39.7188 314.322 38.8245C312.086 37.9301 309.617 37.4829 306.971 37.4829C303.785 37.4829 300.878 38.0512 298.325 39.1785C295.773 40.3058 293.574 41.8802 291.804 43.8553C290.034 45.8303 288.655 48.1874 287.714 50.8705C286.773 53.5443 286.298 56.4603 286.298 59.544C286.298 63.3357 286.829 66.7455 287.863 69.6801C288.907 72.6241 290.379 75.1302 292.251 77.1332C294.124 79.1362 296.378 80.6827 298.95 81.7168C301.512 82.7509 304.353 83.282 307.39 83.282C308.974 83.282 310.595 83.1422 312.207 82.872C313.818 82.5925 315.402 82.1733 316.921 81.6236C318.439 81.0647 319.883 80.3566 321.216 79.4902C321.886 79.0617 322.52 78.5865 323.088 78.0741C324.206 77.0866 324.365 75.3724 323.461 74.1799L322.585 73.034C321.84 71.9626 320.526 71.6831 318.765 72.8477C318.123 73.2762 317.293 73.7514 316.315 74.2638C315.346 74.7668 314.172 75.242 312.822 75.6705C311.499 76.0991 309.887 76.3133 308.033 76.3133C306.058 76.3133 304.241 75.9873 302.658 75.3351C301.083 74.6923 299.704 73.7048 298.558 72.4098C297.412 71.1055 296.49 69.4379 295.829 67.4722C295.391 66.1586 295.074 64.6679 294.906 63.0469C294.85 62.4972 295.027 61.9476 295.391 61.547C295.754 61.1371 296.257 60.9135 296.807 60.9135H323.07C323.945 60.9135 324.57 60.634 324.914 60.0936C325.222 59.5999 325.371 58.7614 325.371 57.4292C325.371 54.2896 324.905 51.4481 323.992 48.9886C323.088 46.5198 321.803 44.405 320.163 42.7187ZM280.401 38.1723H277.988C277.317 38.1723 276.74 38.3587 276.274 38.722C275.827 39.076 275.491 39.5325 275.295 40.0635L264.19 68.1057C263.79 69.1491 263.454 70.2112 263.194 71.2639C263.11 71.5993 263.026 71.9347 262.951 72.2607C262.877 71.9347 262.812 71.5993 262.737 71.2732C262.504 70.2205 262.178 69.1584 261.777 68.1057L250.803 40.0635C250.607 39.5605 250.263 39.1133 249.806 38.7499C249.322 38.368 248.725 38.1723 248.027 38.1723H245.316C244.375 38.1723 243.49 38.6475 242.968 39.43C242.437 40.2219 242.334 41.2188 242.698 42.1038L258.396 80.897C258.834 81.9777 259.868 82.6764 261.023 82.6764H264.712C265.867 82.6764 266.901 81.9777 267.339 80.897L283.037 42.1038C283.391 41.2188 283.298 40.2219 282.767 39.43C282.217 38.6382 281.342 38.1723 280.401 38.1723ZM234.229 21.8129C233.689 21.2725 233.055 20.844 232.357 20.5272C230.931 19.903 229.217 19.903 227.82 20.5272C227.13 20.8347 226.506 21.2632 225.975 21.8036C225.435 22.3439 225.006 22.9867 224.699 23.7134C224.391 24.4401 224.233 25.2227 224.233 26.0239C224.233 26.8344 224.391 27.5983 224.699 28.297C225.006 28.9958 225.435 29.62 225.966 30.1603C226.497 30.7006 227.121 31.1292 227.81 31.4366C228.509 31.7534 229.273 31.9025 230.074 31.9025C230.875 31.9025 231.639 31.7441 232.347 31.4366C233.055 31.1292 233.679 30.7006 234.22 30.151C234.751 29.6106 235.189 28.9864 235.505 28.297C235.832 27.589 235.999 26.8251 235.999 26.0145C235.999 25.204 235.832 24.4214 235.515 23.6948C235.198 22.9867 234.76 22.3532 234.229 21.8129ZM231.462 38.1723H228.602C227.037 38.1723 225.77 39.458 225.77 41.0324V79.8349C225.77 81.4094 227.037 82.695 228.602 82.695H231.462C233.027 82.695 234.294 81.4094 234.294 79.8349V41.0231C234.294 39.4487 233.027 38.1723 231.462 38.1723ZM215.634 38.1258C215.326 38.014 215.019 37.9115 214.702 37.8183C213.696 37.5388 212.559 37.3898 211.33 37.3898C208.311 37.3898 205.628 38.2841 203.374 40.0449C202.684 40.5853 202.032 41.1908 201.417 41.8523C200.886 42.4206 200.113 42.6162 199.386 42.3554C198.669 42.1038 198.184 41.4703 198.128 40.6691C197.998 39.7841 197.746 39.1599 197.355 38.7686C196.945 38.3587 196.284 38.163 195.315 38.163H193.331C191.765 38.163 190.498 39.4487 190.498 41.0138V79.8163C190.498 81.3907 191.765 82.6764 193.331 82.6764H196.191C197.756 82.6764 199.023 81.3907 199.023 79.8163V54.9603C199.023 54.6902 199.079 54.42 199.181 54.1871C200.308 51.5412 201.706 49.473 203.327 48.0663C205.013 46.6036 207.147 45.8583 209.662 45.8583C211.087 45.8583 212.196 45.9887 212.979 46.2403C213.854 46.5291 214.506 46.6781 214.963 46.6781C215.848 46.6781 216.482 46.1751 216.752 45.2155L217.423 41.284C217.655 39.9238 216.901 38.5916 215.634 38.1258ZM172.891 28.7349C170.207 25.9959 166.956 23.8438 163.211 22.3439C159.466 20.8533 155.273 20.0987 150.746 20.0987H130.231C128.666 20.0987 127.399 21.375 127.399 22.9495V79.8163C127.399 81.3907 128.666 82.6671 130.231 82.6671H150.746C155.283 82.6671 159.475 81.9125 163.211 80.4218C166.956 78.9312 170.207 76.7885 172.891 74.0588C175.574 71.3291 177.67 68.0032 179.142 64.1742C180.604 60.3545 181.35 56.0503 181.35 51.4015C181.35 46.7433 180.604 42.4485 179.142 38.6288C177.67 34.8091 175.574 31.4832 172.891 28.7349ZM170.412 61.4072C169.416 64.3139 167.981 66.8014 166.155 68.7951C164.329 70.7888 162.093 72.3353 159.494 73.388C156.885 74.4501 153.941 74.9904 150.746 74.9904H138.551C137.498 74.9904 136.65 74.1333 136.65 73.0713V29.7131C136.65 28.6604 137.507 27.794 138.551 27.794H150.746C153.941 27.794 156.885 28.3343 159.494 29.3964C162.093 30.4584 164.338 32.0049 166.155 34.0079C167.981 36.0203 169.416 38.5077 170.412 41.4144C171.419 44.3304 171.922 47.6936 171.922 51.4108C171.922 55.128 171.409 58.4912 170.412 61.4072Z" fill="#1A9FFF"/>
<path fill-rule="evenodd" clip-rule="evenodd" d="M50.8468 67.146C63.4891 67.146 75.4792 71.3849 85.1961 79.1734C87.8046 81.2602 91.6802 80.6174 93.4597 77.7852C103.67 61.5842 103.736 40.8274 93.6646 24.5611C91.7641 21.4961 87.4599 21.0582 84.9073 23.6109L47.7911 60.7178C45.4154 63.0934 47.1017 67.146 50.4555 67.146H50.8468V67.146Z" fill="#37DB90"/>
<path fill-rule="evenodd" clip-rule="evenodd" d="M22.5438 92.6263C39.5647 104.225 62.1195 104.225 79.1404 92.6263C81.2179 91.2102 81.3391 88.1638 79.3826 86.5893C71.3147 80.0959 61.3462 76.5557 50.8374 76.5557C40.3286 76.5557 30.3695 80.0865 22.2922 86.5893C20.3451 88.1638 20.4662 91.2102 22.5438 92.6263Z" fill="#FED931"/>
<path fill-rule="evenodd" clip-rule="evenodd" d="M15.2587 15.4311C-1.56662 32.2471 -3.97955 58.016 8.00124 77.4219C9.91108 80.5056 14.2245 80.9808 16.7865 78.4095L78.2463 16.959C80.8083 14.397 80.3425 10.0836 77.2588 8.17372C57.8529 -3.80706 32.0839 -1.39413 15.2587 15.4311Z" fill="#1A9FFF"/>
</g>
<defs>
<clipPath id="clip0">
<rect width="477.48" height="100.635" fill="white" transform="translate(0.52002 0.692383)"/>
</clipPath>
</defs>
</svg>
