<svg width="204" height="204" viewBox="0 0 204 204" fill="none" xmlns="http://www.w3.org/2000/svg">
<g clip-path="url(#clip0)">
<path d="M19.3955 203.962L15.1313 188.737H17.6219L19.9993 197.2L22.6785 188.888L22.7163 188.737L22.9049 188.813L23.0559 188.737L23.0936 188.888L25.8106 197.2L28.1502 188.737H30.6408L26.3766 203.962H25.5087L22.9049 195.991L20.3012 203.962H19.3955Z" fill="white"/>
<path d="M43.6599 188.284H50.9429V190.664H46.075V196.482H50.9429V198.862H46.075V201.582H50.9429V204H43.6599V188.284Z" fill="white"/>
<path d="M63.9628 188.209H74.1892V190.665H70.2647V203.887H67.8873V190.665H63.9628V188.209Z" fill="white"/>
<path d="M90.6795 204C90.0002 204 89.3965 203.925 88.8682 203.736C88.3398 203.585 87.7738 203.245 87.17 202.829V199.882C87.5474 200.26 87.8116 200.525 88.038 200.676C88.2266 200.827 88.4908 200.978 88.7549 201.129C89.0568 201.28 89.3587 201.431 89.6983 201.507C90.038 201.62 90.3776 201.658 90.7172 201.658C91.4342 201.658 92.0002 201.431 92.4531 200.94C92.9059 200.449 93.1323 199.882 93.1323 199.202C93.1323 198.674 92.9436 198.22 92.5663 197.88C92.1889 197.54 91.5474 197.162 90.6795 196.709C90.1512 196.445 89.6983 196.18 89.3587 195.991C88.9814 195.765 88.6417 195.5 88.3021 195.16C87.9625 194.82 87.6983 194.442 87.5097 193.989C87.321 193.536 87.2078 193.007 87.2078 192.402C87.2455 191.798 87.3965 191.231 87.6606 190.74C87.9248 190.211 88.2644 189.758 88.7172 189.38C89.17 189.002 89.6606 188.7 90.2644 188.474C90.8304 188.247 91.4342 188.171 92.0757 188.171C92.5663 188.171 92.9814 188.247 93.3587 188.36C93.7361 188.474 94.1889 188.7 94.6795 189.002V191.458C94.3776 191.269 94.1889 191.156 94.0757 191.08C93.9625 191.043 93.8115 190.967 93.6229 190.854C93.4342 190.74 93.17 190.665 92.9059 190.551C92.6417 190.476 92.3776 190.438 92.0757 190.438C91.3965 190.438 90.8304 190.665 90.3776 191.08C89.9248 191.496 89.6983 191.987 89.6983 192.516C89.6983 193.045 89.887 193.46 90.2644 193.762C90.6417 194.065 91.2455 194.405 92.0757 194.82C92.6417 195.085 93.0946 195.311 93.4719 195.538C93.8115 195.765 94.1889 195.991 94.5285 196.331C94.8681 196.671 95.17 197.087 95.3587 197.578C95.5851 198.069 95.6983 198.674 95.6983 199.354C95.6983 199.996 95.5474 200.563 95.321 201.129C95.0568 201.696 94.6795 202.187 94.2266 202.64C93.7738 203.056 93.2078 203.396 92.604 203.66C91.9625 203.887 91.3587 204 90.6795 204Z" fill="white"/>
<path d="M115.887 199.203V188.209H118.264V199.203C118.264 200.525 117.812 201.658 116.868 202.603C115.925 203.509 114.83 204.001 113.51 204.001C112.189 204.001 111.057 203.547 110.113 202.603C109.17 201.658 108.717 200.525 108.717 199.203V188.209H111.095V199.203C111.095 199.883 111.321 200.412 111.812 200.903C112.264 201.356 112.83 201.621 113.51 201.621C114.189 201.621 114.717 201.394 115.208 200.903C115.661 200.412 115.887 199.845 115.887 199.203Z" fill="white"/>
<path d="M133.661 188.209H131.283V204H133.661V188.209Z" fill="white"/>
<path d="M146.68 188.209H156.906V190.665H152.981V203.887H150.604V190.665H146.68V188.209Z" fill="white"/>
<path d="M173.433 204C172.754 204 172.15 203.925 171.622 203.736C171.094 203.585 170.528 203.245 169.924 202.829V199.882C170.301 200.26 170.565 200.525 170.792 200.676C170.981 200.827 171.245 200.978 171.509 201.129C171.811 201.28 172.113 201.431 172.452 201.507C172.792 201.62 173.132 201.658 173.471 201.658C174.188 201.658 174.754 201.431 175.207 200.94C175.66 200.449 175.886 199.882 175.886 199.202C175.886 198.674 175.698 198.22 175.32 197.88C174.943 197.54 174.301 197.162 173.433 196.709C172.905 196.445 172.452 196.18 172.113 195.991C171.735 195.765 171.396 195.5 171.056 195.16C170.716 194.82 170.452 194.442 170.226 193.989C170.037 193.536 169.924 193.007 169.924 192.402C169.962 191.798 170.113 191.231 170.377 190.74C170.641 190.211 170.981 189.758 171.433 189.38C171.886 189.002 172.377 188.7 172.981 188.474C173.547 188.247 174.15 188.171 174.792 188.171C175.282 188.171 175.698 188.247 176.075 188.36C176.452 188.474 176.905 188.7 177.396 189.002V191.458C177.094 191.269 176.905 191.156 176.792 191.08C176.679 191.005 176.528 190.967 176.339 190.854C176.15 190.74 175.924 190.665 175.622 190.551C175.358 190.476 175.094 190.438 174.792 190.438C174.113 190.438 173.547 190.665 173.094 191.08C172.641 191.496 172.415 191.987 172.415 192.516C172.415 193.045 172.603 193.46 172.981 193.762C173.358 194.065 173.962 194.405 174.792 194.82C175.358 195.085 175.811 195.311 176.188 195.538C176.528 195.765 176.905 195.991 177.245 196.331C177.584 196.671 177.886 197.087 178.075 197.578C178.301 198.069 178.415 198.674 178.415 199.354C178.415 199.996 178.264 200.563 178.037 201.129C177.773 201.696 177.396 202.187 176.943 202.64C176.49 203.056 175.924 203.396 175.32 203.66C174.716 203.887 174.075 204 173.433 204Z" fill="white"/>
<path d="M119.887 121.191C119.887 120.511 119.849 119.793 119.811 119.113C119.811 118.887 119.811 118.66 119.774 118.433C119.547 114.618 118.83 110.953 117.698 107.402C117.283 106.042 116.792 104.72 116.226 103.436C115.736 102.302 115.17 101.169 114.604 100.073C113.208 97.3911 111.585 94.86 109.698 92.4422C108.83 91.3467 107.925 90.2889 106.981 89.2689C106.943 89.2311 106.943 89.1556 106.906 89.1178L106.415 88.6267L102.038 84.4711C102.792 84.0933 103.509 83.7156 104.226 83.3378C112.038 78.9933 118.415 72.9111 122.641 65.7333C124.528 62.5222 125.962 59.1222 126.943 55.5711C127.849 52.2844 128.302 48.8467 128.302 45.2956C128.302 43.4067 128.151 41.5178 127.887 39.6667C127.585 37.4378 127.057 35.2467 126.377 33.0933C126.226 32.64 126.075 32.1867 125.925 31.7711C121.66 20.0222 111.925 10.3133 99.3207 4.83556C96.3773 3.55111 93.2453 2.49333 90 1.73778C89.0566 1.51111 88.1132 1.32222 87.1698 1.13333C83.5094 0.377778 79.6981 0 75.8113 0C71.8868 0 68.0755 0.377778 64.4151 1.09556C63.3962 1.28444 62.3774 1.51111 61.3962 1.77556C57.7736 2.68222 54.2641 3.89111 51.0189 5.40222C48.5283 6.57333 46.1132 7.89556 43.8868 9.36889C42.8679 10.0489 41.8868 10.7289 40.9434 11.4844C39.5849 12.5422 38.3019 13.6378 37.0566 14.7711C36 15.6778 35.0566 16.6978 34.1132 17.7178C33.7358 18.1711 33.3585 18.6244 32.9811 19.0778C32.0755 20.1733 31.2453 21.2689 30.4528 22.44C28.9434 24.6311 27.6604 26.9356 26.6038 29.3533C26 30.7889 25.434 32.2622 24.9811 33.7733C24.2264 36.2289 23.7358 38.7978 23.4717 41.4044C23.3585 42.6889 23.283 43.9733 23.283 45.2578C23.283 48.9222 23.8113 52.4733 24.7547 55.9111C25.1698 57.3844 25.6604 58.8578 26.2641 60.2556C27.4717 63.24 29.0189 66.0733 30.9057 68.7178C32.2264 70.6067 33.7358 72.42 35.3585 74.12C34.7924 74.3467 34.1887 74.5733 33.6226 74.8378C26.6038 77.8222 20.3396 81.94 15.1698 86.9267C13.283 88.7778 11.5472 90.7044 9.96226 92.7822C8.56604 94.5956 7.32075 96.4844 6.18868 98.4489C6.11321 98.6 6 98.7511 5.92453 98.8644C5.58491 99.4689 5.28302 100.036 4.98113 100.64C4.9434 100.716 4.90566 100.791 4.86792 100.867C3.73585 103.133 2.79245 105.476 2.03774 107.856C0.716981 112.087 0 116.544 0 121.191C0 139.74 11.3585 155.984 28.3774 165.089C28.5283 165.164 28.6415 165.24 28.7925 165.316C32.6038 167.318 36.6415 168.942 40.9434 170.189C43.3208 170.869 45.7736 171.436 48.3019 171.851C50.3774 172.191 52.4906 172.456 54.6415 172.607C55.1321 172.644 55.6226 172.682 56.1132 172.72C57.1698 172.758 58.2641 172.796 59.3585 172.833C59.5472 172.833 59.7358 172.833 59.9245 172.833C60.0377 172.833 60.1509 172.833 60.2641 172.833C61.8491 172.833 63.3962 172.758 64.9434 172.644C65.6981 172.607 66.4151 172.531 67.1321 172.456C76.1509 171.511 84.566 168.867 91.9245 164.862C92.1132 164.749 92.3019 164.636 92.4906 164.56C93.9245 163.767 95.283 162.936 96.6038 162.029C97.2075 161.651 97.7736 161.236 98.3396 160.82C102.075 158.138 105.396 155.078 108.302 151.678C115.057 143.707 119.245 134.036 119.811 123.533C119.849 122.74 119.887 121.947 119.887 121.191ZM55.434 36.7956C55.4717 36.0778 55.5094 35.3978 55.5472 34.68C55.5472 34.5289 55.5849 34.4156 55.5849 34.2644C56.3774 27.1622 59.5472 20.8533 64.1887 16.2444C65.6604 14.8089 67.283 13.5244 69.0189 12.4289C70.6415 11.4467 72.3396 10.6156 74.1132 10.0111C76.4151 9.44444 78.8679 9.10444 81.3585 9.10444C84.717 9.10444 87.9245 9.67111 90.8679 10.6533C93.283 11.4844 95.5094 12.58 97.5094 13.94C98.7924 14.8089 100 15.7911 101.057 16.8867C101.774 17.6044 102.415 18.3222 103.019 19.1156C103.057 19.1156 103.094 19.1533 103.132 19.1911C104.604 21.1178 105.887 23.2711 106.868 25.6133C106.906 25.6511 106.906 25.6889 106.906 25.7267C108.453 29.3911 109.321 33.4711 109.321 37.74C109.321 43.3311 107.849 48.5444 105.358 52.9644C104.679 54.1356 103.962 55.2311 103.132 56.2889C102.415 57.2333 101.623 58.14 100.792 58.9711C100.604 59.0844 100.453 59.2356 100.34 59.4244C99.434 60.3311 98.4528 61.1622 97.3962 61.88C96.3773 62.5978 95.3207 63.2778 94.2641 63.8444C90.9811 65.5822 87.3207 66.64 83.434 66.8289L58.1509 42.8778C57.8113 42.6133 57.4717 42.3111 57.1698 41.9711C56.717 41.4422 56.3019 40.8378 56 40.1956C55.6226 39.3267 55.3962 38.3822 55.3585 37.3622C55.434 37.2111 55.434 36.9844 55.434 36.7956ZM85.434 136.378C85.0566 137.851 84.566 139.287 84 140.684C83.8868 140.949 83.7736 141.251 83.6604 141.516C77.5094 153.756 64.8302 162.18 50.1887 162.18C43.8491 162.18 37.8491 160.593 32.6038 157.798C32.5283 157.76 32.4528 157.722 32.3774 157.684C20.8679 151.451 12.9811 139.362 12.717 125.384C12.7547 124.213 12.7925 123.042 12.9057 121.909C12.9434 121.456 13.0189 121.04 13.0566 120.587C13.3585 118.282 13.8868 116.053 14.566 113.9C15.0943 112.313 15.6981 110.764 16.3774 109.253C17.5472 106.836 18.8679 104.644 20.3774 102.567C20.8302 101.962 21.283 101.358 21.7736 100.791C22.2264 100.262 22.717 99.7333 23.1698 99.2044C24.9057 97.3533 26.7925 95.6911 28.8302 94.2556C33.2075 91.12 38.3019 88.9667 43.7736 88.06C45.3208 87.7956 46.9057 87.6444 48.4906 87.6067C48.9057 87.6067 49.3208 87.5689 49.7358 87.5689C49.8113 87.5689 49.9245 87.5689 50 87.5689C50.717 87.8333 52.4528 89.1556 52.717 89.3822L86.5283 121.38C86.6792 122.702 86.7547 124.024 86.7924 125.384C86.7924 125.611 86.7924 125.8 86.7924 126.027C86.7924 129.616 86.3396 133.091 85.434 136.378ZM105.811 136.151C105.434 136.944 105.057 137.738 104.604 138.493C103.396 140.571 101.925 142.536 100.151 144.311C99.6226 144.84 99.0943 145.331 98.5283 145.784C97.7358 146.464 96.9434 147.107 96.0755 147.673C94.6415 148.656 93.1321 149.487 91.5472 150.167C92.5283 149.411 93.4717 148.618 94.3774 147.711C94.717 147.371 95.0566 146.993 95.3962 146.653C96.4906 145.444 97.4717 144.122 98.3019 142.8H98.3396C98.3396 142.762 98.3396 142.762 98.3396 142.724C98.9434 141.742 99.4717 140.76 99.9623 139.74C100.075 139.476 100.151 139.211 100.302 138.984C100.792 137.889 101.17 136.756 101.509 135.584C103.472 128.671 102.717 121.153 99.2075 114.731C98.3774 113.22 97.434 111.747 96.3019 110.349L91.0566 105.4L41.0189 57.9889C37.2075 53.9089 34.7547 48.5444 34.3396 42.6133C34.3019 42.0467 34.2641 41.4422 34.2641 40.8756C34.2641 35.02 36.2641 29.6556 39.6226 25.3867C40.566 24.1778 41.6226 23.0822 42.7924 22.0622C43.4717 21.4578 44.1509 20.9289 44.9057 20.4C45.6226 19.9089 46.3774 19.4178 47.1321 19.0022C46.4906 19.6067 45.9245 20.2111 45.3585 20.8911C43.7736 22.7422 42.4528 24.8578 41.4717 27.1244C40.1132 30.1844 39.3962 33.5844 39.3962 37.1356C39.3962 38.4578 39.5094 39.7422 39.6981 41.0267C39.7358 41.3667 39.8113 41.6689 39.8868 42.0089C40.4151 44.6533 41.3208 47.1089 42.6038 49.3756C43.0566 50.2067 43.5849 51 44.1132 51.7556C44.1509 51.8311 44.2264 51.9067 44.2641 51.9822L44.7547 52.4733L98.1132 102.982L98.717 103.549L100.906 105.627C101.887 106.684 102.792 107.818 103.585 108.989C106.151 112.804 107.66 117.111 108.151 121.531C108.679 126.48 107.887 131.542 105.811 136.151Z" fill="#4CF5D7"/>
<path d="M198.793 1.70001L184.981 11.9378L150.076 172.833H182.943C182.076 171.209 179.925 167.884 176.83 167.884C168.755 167.884 168.83 164.182 169.019 163.162C169.057 163.011 169.057 162.936 169.094 162.898C169.094 162.898 199.887 21.8356 203.396 5.66668C203.623 4.64668 203.774 3.96668 203.849 3.62668C203.849 3.62668 203.849 3.62668 203.849 3.5889V3.55113C205.245 -3.13554 198.793 1.70001 198.793 1.70001Z" fill="#4CF5D7"/>
<path d="M175.887 18.662L135.962 48.2042C134.264 54.4375 143.736 53.4931 145.698 48.4309C147.434 44.0109 156.151 46.1642 158.415 46.8064L132.792 163.502L132.755 163.729L132.49 164.938C131.887 166.298 130.075 167.846 124.906 167.846C121.811 167.846 119.66 171.171 118.792 172.795H143.396L176.981 17.8687L175.887 18.662Z" fill="#4CF5D7"/>
</g>
<defs>
<clipPath id="clip0">
<rect width="204" height="204" fill="white"/>
</clipPath>
</defs>
</svg>
