<svg width="32" height="32" viewBox="0 0 32 32" fill="none" xmlns="http://www.w3.org/2000/svg">
<path d="M12.2896 24.1273C19.8368 24.1273 23.9648 17.8745 23.9648 12.4521C23.9648 12.2745 23.9648 12.0977 23.9528 11.9217C24.7559 11.3408 25.4491 10.6216 26 9.79766C25.2511 10.1295 24.4567 10.3471 23.6432 10.4433C24.4998 9.93045 25.1409 9.12388 25.4472 8.17366C24.6417 8.65163 23.7605 8.98847 22.8416 9.16966C22.2229 8.51181 21.4047 8.0762 20.5135 7.93023C19.6223 7.78427 18.7078 7.93609 17.9116 8.36221C17.1154 8.78832 16.4819 9.46497 16.109 10.2875C15.7361 11.1099 15.6446 12.0324 15.8488 12.9121C14.2174 12.8303 12.6214 12.4063 11.1645 11.6677C9.70759 10.9291 8.42227 9.89242 7.392 8.62486C6.86727 9.52819 6.70656 10.5976 6.94258 11.6152C7.17861 12.6329 7.79362 13.5223 8.6624 14.1025C8.00939 14.0831 7.37062 13.907 6.8 13.5889C6.8 13.6057 6.8 13.6233 6.8 13.6409C6.80026 14.5882 7.12821 15.5064 7.72823 16.2395C8.32824 16.9726 9.16338 17.4757 10.092 17.6633C9.4879 17.828 8.85406 17.8521 8.2392 17.7337C8.50141 18.549 9.01189 19.262 9.69926 19.7729C10.3866 20.2839 11.2165 20.5672 12.0728 20.5833C10.6198 21.7252 8.82485 22.3451 6.9768 22.3433C6.65032 22.3426 6.32416 22.3229 6 22.2841C7.87651 23.4883 10.0599 24.127 12.2896 24.1241" fill="#373737"/>
</svg>
