<svg width="178" height="178" viewBox="0 0 178 178" fill="none" xmlns="http://www.w3.org/2000/svg">
<g clip-path="url(#clip0)">
<path d="M173.54 31.99C175.5 31.99 177.08 30.41 177.08 28.45V21.37C177.08 19.41 175.49 17.83 173.54 17.83C165.72 17.83 159.37 11.49 159.37 3.67V3.54C159.37 1.59 157.78 0 155.83 0H148.75C146.79 0 145.21 1.58 145.21 3.54V3.68C145.21 11.5 138.87 17.84 131.04 17.84C123.22 17.84 116.87 11.5 116.87 3.68V3.54C116.87 1.59 115.29 0 113.33 0H106.25C104.29 0 102.71 1.58 102.71 3.54V3.68C102.71 11.5 96.37 17.84 88.54 17.84C80.72 17.84 74.37 11.5 74.37 3.68V3.54C74.37 1.59 72.78 0 70.83 0H63.75C61.79 0 60.21 1.58 60.21 3.54V3.68C60.21 11.5 53.87 17.84 46.04 17.84C38.22 17.84 31.87 11.5 31.87 3.68V3.54C31.87 1.59 30.28 0 28.33 0H21.25C19.29 0 17.71 1.58 17.71 3.54V3.68C17.71 11.5 11.37 17.84 3.54 17.84C1.59 17.83 0 19.42 0 21.37V28.45C0 30.4 1.59 31.99 3.54 31.99H3.55C11.37 31.99 17.71 38.33 17.71 46.14C17.71 53.96 11.37 60.29 3.54 60.29C1.59 60.3 0 61.88 0 63.84V70.92C0 72.87 1.59 74.46 3.54 74.46H3.55C11.37 74.47 17.71 80.8 17.71 88.61C17.71 96.43 11.37 102.77 3.54 102.77C1.58 102.77 0 104.35 0 106.31V113.39C0 115.34 1.59 116.93 3.54 116.93H3.55C11.37 116.94 17.71 123.27 17.71 131.09C17.71 138.91 11.37 145.24 3.54 145.24C1.58 145.24 0 146.82 0 148.78V155.86C0 157.82 1.59 159.4 3.54 159.4H3.55C11.37 159.41 17.71 165.74 17.71 173.55C17.71 175.51 19.3 177.09 21.25 177.09H28.33C30.29 177.09 31.87 175.51 31.87 173.55C31.87 165.73 38.21 159.4 46.04 159.4C53.86 159.4 60.21 165.74 60.21 173.55C60.21 175.51 61.8 177.09 63.75 177.09H70.83C72.79 177.09 74.37 175.51 74.37 173.55C74.37 165.73 80.71 159.4 88.54 159.4C96.36 159.4 102.71 165.74 102.71 173.55C102.71 175.51 104.3 177.09 106.25 177.09H113.33C115.29 177.09 116.87 175.51 116.87 173.55C116.87 165.73 123.21 159.4 131.04 159.4C138.86 159.4 145.21 165.74 145.21 173.55C145.21 175.51 146.8 177.09 148.75 177.09H155.83C157.79 177.09 159.37 175.51 159.37 173.55C159.37 165.73 165.71 159.4 173.54 159.4C175.5 159.4 177.08 157.82 177.08 155.86V148.78C177.08 146.83 175.49 145.24 173.54 145.24C165.72 145.24 159.37 138.9 159.37 131.09C159.37 123.27 165.71 116.93 173.54 116.93C175.5 116.93 177.08 115.34 177.08 113.39V106.31C177.08 104.35 175.49 102.77 173.54 102.77C165.72 102.77 159.37 96.43 159.37 88.61C159.37 80.79 165.71 74.46 173.54 74.46C175.5 74.46 177.08 72.88 177.08 70.92V63.84C177.08 61.89 175.49 60.3 173.54 60.3C165.72 60.3 159.37 53.96 159.37 46.15C159.37 38.32 165.71 31.99 173.54 31.99ZM46.04 145.23C38.22 145.23 31.87 138.89 31.87 131.08V46.14C31.87 38.32 38.21 31.99 46.04 31.99H131.04C138.86 31.99 145.21 38.33 145.21 46.14V131.07C145.21 138.89 138.87 145.23 131.04 145.23H46.04Z" fill="white"/>
<path d="M109.79 88.5401C109.79 76.8101 100.28 67.3101 88.54 67.3101C76.8 67.3101 67.29 76.8201 67.29 88.5401C67.29 100.27 76.8 109.77 88.54 109.77C100.28 109.77 109.79 100.27 109.79 88.5401Z" fill="white"/>
<path d="M127.67 46.2798H127.38H120.53H120.39C118.49 46.2798 116.96 47.7698 116.87 49.6398V49.9298V56.7698V56.9098C116.87 58.8098 118.36 60.3398 120.24 60.4298H120.53H127.38H127.51C129.41 60.4298 130.94 58.9398 131.04 57.0698V56.7798V49.9398V49.7998C131.04 47.9098 129.55 46.3698 127.67 46.2798Z" fill="white"/>
</g>
<defs>
<clipPath id="clip0">
<rect width="177.08" height="177.08" fill="white"/>
</clipPath>
</defs>
</svg>
