<svg width="268" height="230" viewBox="0 0 268 230" fill="none" xmlns="http://www.w3.org/2000/svg">
<g clip-path="url(#clip0)">
<path d="M216.75 12.75H204V25.5H216.75V12.75Z" fill="#FF9C00"/>
<path d="M89.25 12.75H76.5V38.25H89.25V12.75Z" fill="#FF9C00"/>
<path d="M255 51H267.75V0H216.75V12.75H255V51Z" fill="#FF9C00"/>
<path d="M102 38.25H89.25V51H102V38.25Z" fill="#FF9C00"/>
<path d="M127.5 25.5H140.25V0H89.25V12.75H127.5V25.5Z" fill="#FF9C00"/>
<path d="M255 76.5V51H229.5V38.25H204V25.5H140.25V38.25H127.5V51H102V102.5H89.25V165.75H63.75V204H0V216.75H76.5V178.5H89.25V229.5H102V216.75H114.75V204H127.5V216.75H140.25V229.5H165.75V204H191.25V229.5H216.75V216.75H229.5V204H242.25V216.75H255V229.5H267.75V102H242.25V114.75H216.75V102H204V76.5H216.75V63.75H242.25V76.5H255ZM165.75 114.75H140.25V102H127.5V76.5H140.25V63.75H165.75V76.5H178.5V102H165.75V114.75ZM216.75 127.5V140.25H204V127.5H191.25V140.25H178.5V127.5H191.25V114.75H204V127.5H216.75Z" fill="#FF9C00"/>
</g>
<defs>
<clipPath id="clip0">
<rect width="267.75" height="229.5" fill="white"/>
</clipPath>
</defs>
</svg>
