<svg width="311" height="148" viewBox="0 0 311 148" fill="none" xmlns="http://www.w3.org/2000/svg">
<g clip-path="url(#clip0)">
<path d="M87.6697 50.9589C87.3777 25.7579 84.4845 6.78418 66.7541 6.78418C49.0236 6.78418 39.5744 21.4119 39.5744 21.4119C39.5744 21.4119 37.2918 24.3269 39.9726 25.1219C42.6534 25.9169 49.6341 19.875 49.6341 19.875C49.6341 19.875 57.4907 13.3561 65.8516 19.398C72.0361 23.8499 62.1357 28.0103 62.1357 28.0103C62.1357 28.0103 37.9819 39.6966 36.8405 53.6884C35.6727 67.7332 43.8743 80.3734 55.9247 80.3734C63.0912 80.3734 68.2405 78.0945 71.2398 76.2395C72.9385 75.206 75.115 75.365 76.6279 76.69C78.0347 77.9355 80.105 79.128 82.8124 79.128C85.8913 79.128 89.5542 77.379 92.2615 75.789C93.6418 74.9675 93.7214 73.1126 92.5535 72.0526C90.3239 69.9856 87.8024 64.6062 87.6697 50.9589ZM72.6731 67.2827C61.4986 76.1865 52.713 64.2882 52.5538 55.6494C52.368 45.2085 58.0746 37.3382 66.5683 32.9922C68.0281 32.2503 69.8065 33.2307 69.9126 34.8737C70.2842 40.2001 71.2663 51.8599 73.4428 65.1362C73.6021 65.9577 73.3101 66.7792 72.6731 67.2827Z" fill="white"/>
<path d="M79.0432 111.643L85.7851 91.3175C86.5017 89.1445 84.2987 87.1571 82.2018 88.1111C75.2211 91.291 62.2683 97.1474 47.8556 103.693C26.303 113.471 25.958 99.5589 25.958 99.5589L23.3037 6.43944C23.3037 6.25394 23.3833 6.09494 23.516 5.98895C23.516 5.98895 23.516 5.98895 24.6574 5.03496C26.8339 3.20649 25.3209 3.021 25.3209 3.021H2.627C0.105449 3.021 -0.956257 6.25394 1.08753 7.73792C1.72455 8.21491 2.12269 8.9304 2.14923 9.69888C2.70663 20.5902 6.68802 100.248 6.07754 105.177C5.83866 107.191 4.88312 109.099 3.82142 110.715C2.627 112.517 3.95413 114.929 6.13063 114.796C21.8969 113.895 62.7195 111.855 68.2935 114.293C76.9198 118.056 79.0432 111.643 79.0432 111.643Z" fill="white"/>
<path d="M157.159 23.0017C157.159 23.0017 147.206 22.8427 148.002 32.674C149.011 44.6783 159.309 42.3464 159.309 42.3464C159.309 42.3464 166.662 40.5444 166.662 31.561C166.662 22.5777 157.159 23.0017 157.159 23.0017Z" fill="white"/>
<path d="M171.943 109.947C167.776 98.2074 167.776 94.4444 167.776 94.4444L167.458 51.7272C167.431 48.9182 164.777 46.8777 162.043 47.5932L150.63 50.6142C149.037 51.0382 148.48 53.0256 149.648 54.1916L151.134 55.7021C151.904 56.4706 152.328 57.5041 152.355 58.5905C152.541 66.5139 153.257 100.009 153.257 105.097C153.257 107.562 152.594 109.496 151.824 110.901C151.081 112.279 151.904 113.975 153.47 114.134C160.344 114.796 173.881 115.432 171.943 109.947Z" fill="white"/>
<path d="M170.218 11.6067L178.234 19.3975C180.331 20.3515 182.587 18.3375 181.844 16.1646L175.128 3.86879C175.128 3.86879 173.085 0.0528574 164.113 0.397352L129.714 1.98732C118.088 2.38482 117 2.57032 110.417 2.01382C108.188 1.82833 106.542 1.56333 105.719 1.19234C97.0664 -2.5706 94.943 3.84229 94.943 3.84229L90.882 16.1381C90.1654 18.3376 92.3949 20.3515 94.4918 19.371C94.4918 19.371 96.6683 16.8271 99.4287 12.7726C102.189 8.71821 104.313 9.11571 104.313 9.11571C104.313 9.11571 105.135 8.87721 113.576 9.11571C113.576 9.11571 122.468 8.61221 122.255 14.3096C122.07 18.6555 115.646 82.917 113.523 101.546C113.151 104.726 111.453 107.615 108.825 109.443C107.79 110.159 108.321 111.775 109.568 111.775H133.616C133.616 111.775 133.695 111.775 133.801 111.722C135.659 111.457 136.695 109.417 135.58 107.827C134.518 106.29 133.589 104.488 133.35 102.606C132.793 98.4457 135.845 38.6097 136.96 17.5956C137.172 13.4881 140.49 10.2287 144.604 10.0962L164.405 9.3277C166.528 9.2747 168.652 10.0697 170.218 11.6067Z" fill="white"/>
<path d="M281.511 73.7747C311 73.7747 311 38.5038 311 38.5038C311 38.5038 311 0.980469 280.741 0.980469C250.483 0.980469 250.271 35.2444 250.271 35.2444C250.271 35.2444 250.27 73.7747 281.511 73.7747ZM280.556 7.97635C294.836 8.74484 293.907 16.5357 293.907 16.5357L291.04 62.1944C291.04 62.1944 290.854 68.2363 282.042 68.1833C270.469 68.1038 269.673 57.716 269.673 57.716L269.222 16.8537C269.248 16.8537 269.169 7.34036 280.556 7.97635Z" fill="white"/>
<path d="M247.404 65.4272C247.484 64.3937 247.404 63.5457 247.298 62.5918C247.006 60.7633 246.396 58.9083 245.122 57.2918C244.485 56.4969 243.635 55.7549 242.574 55.2249C242.043 54.9599 241.459 54.8009 240.848 54.6949L239.946 54.6419H239.336L234.558 54.6684L224.976 54.7214C223.463 54.7214 221.632 54.7744 220.358 54.7214C219.137 54.6419 217.889 54.2179 216.774 53.5819C216.217 53.2639 215.66 52.8929 215.129 52.4424L213.297 50.9055L212.368 50.137L211.917 49.766L211.678 49.5805L211.572 49.4745L211.28 49.2625C211.333 49.289 211.015 49.077 210.749 48.971C210.457 48.8385 210.271 48.812 210.032 48.7855C209.555 48.706 209.077 48.7855 208.652 48.918C207.829 49.236 207.405 49.7395 207.086 50.19C206.502 51.091 206.396 51.9919 206.502 52.8399L208.015 62.3798L208.785 67.0967C208.971 67.9447 208.891 68.4482 209.395 69.9586C209.661 70.6211 210.086 71.2836 210.802 71.8931C211.519 72.4761 212.74 72.9001 213.908 72.6351C214.465 72.5026 214.969 72.2641 215.341 71.9726L215.925 71.5221L216.854 70.7801L217.756 70.0646C218.022 69.8791 218.181 69.7731 218.446 69.6406C219.402 69.1371 220.384 69.0046 221.34 69.2431L221.579 69.2961H221.87L234.239 69.5876C234.346 69.6406 234.531 69.7731 234.717 70.1706C234.956 70.6211 235.168 71.2571 235.195 71.9196C235.248 72.5556 235.168 73.2711 235.009 73.8541L234.133 76.61C232.965 80.1875 231.612 83.7914 230.099 87.2363C228.586 90.6813 226.887 94.0732 224.896 97.1472C223.914 98.6841 222.826 100.115 221.658 101.387C221.101 102.05 220.437 102.5 219.853 103.083C219.216 103.428 218.579 104.037 217.969 104.17C217.332 104.514 216.748 104.488 216.19 104.62C215.792 104.567 214.147 104.567 213.748 104.355C212.448 104.143 210.882 103.401 209.608 102.527C206.98 100.725 204.963 97.7567 203.397 94.5767C201.831 91.3438 200.716 87.7928 199.84 84.1624C198.964 80.532 198.354 76.7955 197.902 73.0591C197.451 69.2961 197.186 65.5067 197.053 61.7173C196.973 59.7828 197 58.0338 196.973 55.9669C196.92 54.1119 196.947 52.2039 197 50.3225C197.265 42.7701 198.088 35.1647 200.185 28.0893C201.247 24.5914 202.601 21.173 204.565 18.3375C206.502 15.5286 209.103 13.3556 212.209 12.6931C212.979 12.4546 213.802 12.4281 214.598 12.3486L214.757 12.3221C214.731 12.3221 214.757 12.3221 214.784 12.3221L215.155 12.3486C215.394 12.3751 215.686 12.3751 215.845 12.4016C216.164 12.4811 216.403 12.4546 216.801 12.6136C218.287 13.0111 219.8 13.8326 221.207 14.8396C223.994 16.9065 226.489 19.6625 228.48 22.6569C228.586 22.8954 228.718 23.2664 228.772 23.5314C228.851 23.9024 228.878 24.1674 228.878 24.4854C228.851 25.0154 228.825 25.6514 228.825 26.1284C228.825 26.6319 228.798 27.0824 228.772 27.4798C228.745 27.8773 228.665 28.1688 228.559 28.4073L228.267 28.9903C228.161 29.2288 227.949 29.6793 227.869 29.9708C227.444 31.2428 227.338 32.5413 227.444 33.8132C227.577 35.0852 227.922 36.3572 228.665 37.5497C229.143 38.2387 229.302 38.3977 229.727 38.9807L229.966 39.2721L230.364 39.6696C230.63 39.9346 230.895 40.1201 231.16 40.3586C232.275 41.1801 233.815 41.7101 235.328 41.4716C236.841 41.2861 238.115 40.4646 239.017 39.5106L237.796 38.3182L238.752 39.2456L237.796 38.3182L239.017 39.5106C240.742 37.6557 241.539 35.3502 241.831 33.1243C242.123 30.8718 241.91 28.5663 241.114 26.4199C241.008 25.7044 240.795 25.2274 240.477 24.6179L239.681 23.3194L238.115 20.7225L234.983 15.5286L234.956 15.4756C231.559 9.96364 226.515 4.95523 220.092 2.67627C218.5 2.11978 216.827 1.72228 215.129 1.56329C214.253 1.51029 213.456 1.43079 212.554 1.48379L210.165 1.58979C206.715 1.96078 203.476 2.94126 200.53 4.55774C194.558 7.81718 190.364 13.3556 187.445 19.159C184.525 25.0154 182.747 31.3223 181.499 37.6292C180.305 43.9891 179.562 50.349 179.562 56.8944C179.747 63.3602 180.411 69.7466 181.526 76.08C182.667 82.4134 184.313 88.6938 186.861 94.7092C189.382 100.672 192.966 106.449 198.248 110.635C203.45 114.928 210.643 116.73 217.199 115.75C224.365 114.345 229.568 109.416 233.337 104.064C237.106 98.6576 239.813 92.6687 242.043 86.6003C244.246 80.5055 245.892 74.2516 247.113 67.8917L247.351 66.6197C247.298 66.2752 247.378 65.9572 247.404 65.4272Z" fill="white"/>
<path d="M25.2153 142.382L23.9413 141.905C23.8617 141.879 23.6759 141.852 23.5962 141.852C23.1981 141.852 22.8265 142.117 22.6672 142.488C22.3753 143.257 21.9506 143.813 21.3667 144.237C20.7031 144.687 19.9068 144.899 19.0044 144.899C17.5711 144.899 16.4828 144.422 15.66 143.468C14.8372 142.488 14.4125 141.084 14.4125 139.308C14.4125 138.116 14.6248 137.082 15.023 136.234C15.3946 135.386 15.9254 134.777 16.6155 134.353C17.3056 133.929 18.1285 133.717 19.084 133.717C19.9599 133.717 20.7031 133.902 21.2339 134.273C21.7117 134.618 22.1099 135.095 22.4018 135.731C22.5611 136.102 22.9061 136.314 23.3043 136.314C23.437 136.314 23.5962 136.287 23.729 136.234L25.003 135.651C25.2419 135.545 25.4277 135.333 25.5073 135.095C25.5869 134.856 25.5869 134.565 25.4808 134.326C24.9234 133.16 24.1271 132.259 23.0654 131.623C21.9506 130.961 20.5704 130.616 18.9513 130.616C17.4118 130.616 16.005 130.987 14.8106 131.703C13.6162 132.418 12.6872 133.452 12.0237 134.777C11.3866 136.075 11.0681 137.612 11.0681 139.335C11.0681 141.057 11.3866 142.594 12.0237 143.892C12.6607 145.217 13.6162 146.251 14.8106 146.966C16.005 147.682 17.4118 148.053 18.9778 148.053C20.5704 148.053 22.0037 147.629 23.2246 146.807C24.366 146.039 25.2153 145.005 25.7462 143.733C25.8524 143.495 25.8524 143.204 25.7462 142.965C25.6666 142.674 25.4542 142.462 25.2153 142.382Z" fill="white"/>
<path d="M44.1405 131.676C42.9461 130.961 41.5393 130.59 39.9733 130.59C38.3807 130.59 36.974 130.961 35.8061 131.676C34.6117 132.392 33.6827 133.425 33.0191 134.75C32.3821 136.049 32.0636 137.586 32.0636 139.308C32.0636 141.031 32.3821 142.568 33.0191 143.866C33.6562 145.191 34.6117 146.225 35.8061 146.94C37.0005 147.656 38.4073 148.027 39.9733 148.027C41.5659 148.027 42.9726 147.656 44.1405 146.94C45.3349 146.225 46.2639 145.191 46.9275 143.866C47.5645 142.568 47.883 141.031 47.883 139.308C47.883 137.586 47.5645 136.049 46.9275 134.75C46.2904 133.425 45.3615 132.392 44.1405 131.676ZM43.3177 143.469C42.4949 144.423 41.4066 144.9 39.9733 144.9C38.54 144.9 37.4518 144.423 36.6289 143.469C35.8061 142.488 35.3814 141.084 35.3814 139.308C35.3814 137.533 35.8061 136.128 36.6289 135.148C37.4518 134.194 38.54 133.717 39.9733 133.717C41.4066 133.717 42.4949 134.194 43.3177 135.148C44.1405 136.128 44.5652 137.533 44.5652 139.308C44.5652 141.084 44.1405 142.488 43.3177 143.469Z" fill="white"/>
<path d="M66.7554 130.828H56.7222C56.0321 130.828 55.4747 131.385 55.4747 132.074V146.781C55.4747 147.337 55.926 147.761 56.4568 147.761H57.7043C58.2617 147.761 58.6864 147.311 58.6864 146.781V140.659L64.7647 140.739C65.3221 140.739 65.7467 140.288 65.7467 139.758V138.645C65.7467 138.089 65.2955 137.665 64.7647 137.665H58.6068L58.6864 133.876L66.7554 133.955C67.3127 133.955 67.7374 133.505 67.7374 132.975V131.862C67.7374 131.279 67.2862 130.828 66.7554 130.828Z" fill="white"/>
<path d="M85.9187 130.828H75.8856C75.1955 130.828 74.6381 131.385 74.6381 132.074V146.781C74.6381 147.337 75.0893 147.761 75.6201 147.761H76.8676C77.425 147.761 77.8497 147.311 77.8497 146.781V140.659L83.928 140.739C84.4854 140.739 84.9101 140.288 84.9101 139.758V138.645C84.9101 138.089 84.4588 137.665 83.928 137.665H77.7701L77.8497 133.876L85.9187 133.955C86.4761 133.955 86.9008 133.505 86.9008 132.975V131.862C86.9273 131.279 86.4761 130.828 85.9187 130.828Z" fill="white"/>
<path d="M105.48 144.661H96.96L97.0396 140.66L103.118 140.739C103.675 140.739 104.1 140.289 104.1 139.759V138.646C104.1 138.089 103.649 137.665 103.118 137.665H96.96L97.0396 133.876L105.109 133.955C105.666 133.955 106.091 133.505 106.091 132.975V131.862C106.091 131.305 105.639 130.881 105.109 130.881H95.0489C94.3588 130.881 93.8014 131.438 93.8014 132.127V146.569C93.8014 147.258 94.3588 147.815 95.0489 147.815H105.454C106.011 147.815 106.436 147.364 106.436 146.834V145.721C106.489 145.112 106.038 144.661 105.48 144.661Z" fill="white"/>
<path d="M125.334 144.661H116.814L116.894 140.66L122.972 140.739C123.53 140.739 123.954 140.289 123.954 139.759V138.646C123.954 138.089 123.503 137.665 122.972 137.665H116.814L116.894 133.876L124.963 133.955C125.52 133.955 125.945 133.505 125.945 132.975V131.862C125.945 131.305 125.494 130.881 124.963 130.881H114.93C114.24 130.881 113.682 131.438 113.682 132.127V146.569C113.682 147.258 114.24 147.815 114.93 147.815H125.334C125.892 147.815 126.317 147.364 126.317 146.834V145.721C126.317 145.112 125.892 144.661 125.334 144.661Z" fill="white"/>
<path d="M155.779 140.766C156.601 140.421 157.265 139.918 157.796 139.282C158.512 138.407 158.857 137.321 158.857 136.075C158.857 134.485 158.3 133.187 157.185 132.233C156.097 131.305 154.664 130.855 152.912 130.855H147.577C146.887 130.855 146.329 131.411 146.329 132.1V146.808C146.329 147.364 146.781 147.788 147.311 147.788H148.559C149.116 147.788 149.541 147.338 149.541 146.808V141.322H152.301L156.23 147.364C156.416 147.656 156.734 147.815 157.053 147.815H159.123C159.362 147.815 159.601 147.682 159.707 147.47C159.813 147.258 159.813 146.993 159.68 146.781L155.779 140.766ZM152.912 138.195H149.568V133.849L152.912 133.929C155.248 133.929 155.566 135.015 155.566 136.049C155.566 137.056 155.248 138.195 152.912 138.195Z" fill="white"/>
<path d="M177.836 131.676C176.642 130.961 175.235 130.59 173.669 130.59C172.076 130.59 170.669 130.961 169.502 131.676C168.307 132.392 167.378 133.425 166.715 134.75C166.078 136.049 165.759 137.586 165.759 139.308C165.759 141.031 166.078 142.568 166.715 143.866C167.352 145.191 168.307 146.225 169.502 146.94C170.696 147.656 172.103 148.027 173.669 148.027C175.261 148.027 176.668 147.656 177.836 146.94C179.03 146.225 179.959 145.191 180.623 143.866C181.26 142.568 181.578 141.031 181.578 139.308C181.578 137.586 181.26 136.049 180.623 134.75C179.959 133.425 179.03 132.392 177.836 131.676ZM176.987 143.469C176.164 144.423 175.075 144.9 173.642 144.9C172.209 144.9 171.121 144.423 170.298 143.469C169.475 142.488 169.05 141.084 169.05 139.308C169.05 137.533 169.475 136.128 170.298 135.148C171.121 134.194 172.209 133.717 173.642 133.717C175.075 133.717 176.164 134.194 176.987 135.148C177.809 136.128 178.234 137.533 178.234 139.308C178.234 141.084 177.836 142.488 176.987 143.469Z" fill="white"/>
<path d="M196.389 131.464C196.256 131.093 195.884 130.828 195.46 130.828H193.655C193.23 130.828 192.885 131.067 192.726 131.464L186.727 146.86C186.648 147.072 186.674 147.284 186.807 147.47C186.94 147.655 187.125 147.761 187.364 147.761H189.143C189.541 147.761 189.912 147.496 190.072 147.125L191.505 143.389L197.716 143.442L199.069 147.125C199.202 147.496 199.574 147.761 199.998 147.761H201.299C201.618 147.761 201.936 147.602 202.122 147.337C202.308 147.072 202.334 146.728 202.228 146.41L196.389 131.464ZM192.593 140.341L194.425 135.625L194.531 135.307L194.663 135.651L196.468 140.421L192.593 140.341Z" fill="white"/>
<path d="M215.101 137.798C214.039 137.612 213.216 137.4 212.632 137.188C212.128 137.003 211.757 136.764 211.571 136.526C211.411 136.314 211.305 136.049 211.305 135.678C211.305 135.121 211.544 134.671 212.049 134.3C212.606 133.902 213.429 133.69 214.49 133.69C215.499 133.69 216.269 133.876 216.8 134.22C217.277 134.538 217.702 135.068 218.1 135.81C218.286 136.155 218.605 136.367 218.976 136.367C219.188 136.367 219.427 136.287 219.587 136.155L220.675 135.28C221.073 134.962 221.153 134.406 220.887 133.982C219.534 131.729 217.357 130.616 214.437 130.616C213.163 130.616 212.049 130.855 211.066 131.305C210.084 131.782 209.315 132.418 208.757 133.213C208.2 134.035 207.934 134.936 207.934 135.89C207.934 137.321 208.465 138.434 209.5 139.255C210.456 139.997 212.022 140.554 214.225 140.951C216.11 141.296 216.959 141.64 217.33 141.905C217.782 142.197 217.968 142.541 217.968 142.992C217.968 143.574 217.729 143.998 217.198 144.343C216.587 144.714 215.711 144.926 214.597 144.926C213.482 144.926 212.553 144.714 211.836 144.263C211.226 143.892 210.721 143.362 210.376 142.7C210.191 142.382 209.872 142.17 209.5 142.17C209.288 142.17 209.049 142.25 208.89 142.382L207.802 143.283C207.404 143.601 207.324 144.157 207.589 144.581C208.226 145.588 209.102 146.41 210.217 147.019C211.438 147.682 212.898 148.026 214.57 148.026C215.844 148.026 216.985 147.814 217.994 147.417C219.029 146.993 219.825 146.41 220.409 145.641C220.993 144.846 221.285 143.945 221.285 142.912C221.285 141.481 220.781 140.342 219.746 139.52C218.817 138.725 217.304 138.169 215.101 137.798Z" fill="white"/>
<path d="M239.336 130.828H227.206C226.648 130.828 226.224 131.279 226.224 131.809V132.922C226.224 133.478 226.675 133.902 227.206 133.902H231.744L231.665 146.754C231.665 147.311 232.116 147.735 232.647 147.735H233.894C234.452 147.735 234.876 147.284 234.876 146.754V133.823L239.336 133.902C239.893 133.902 240.318 133.452 240.318 132.922V131.809C240.318 131.279 239.893 130.828 239.336 130.828Z" fill="white"/>
<path d="M258.711 144.661H250.191L250.271 140.66L256.349 140.739C256.907 140.739 257.331 140.289 257.331 139.759V138.646C257.331 138.089 256.88 137.665 256.349 137.665H250.191L250.271 133.876L258.34 133.955C258.897 133.955 259.322 133.505 259.322 132.975V131.862C259.322 131.305 258.871 130.881 258.34 130.881H248.28C247.59 130.881 247.033 131.438 247.033 132.127V146.569C247.033 147.258 247.59 147.815 248.28 147.815H258.685C259.242 147.815 259.667 147.364 259.667 146.834V145.721C259.694 145.112 259.242 144.661 258.711 144.661Z" fill="white"/>
<path d="M276.335 140.766C277.158 140.421 277.821 139.918 278.352 139.282C279.069 138.407 279.414 137.321 279.414 136.075C279.414 134.485 278.857 133.187 277.742 132.233C276.654 131.305 275.22 130.855 273.468 130.855H268.133C267.443 130.855 266.886 131.411 266.886 132.1V146.808C266.886 147.364 267.337 147.788 267.868 147.788H269.115C269.673 147.788 270.098 147.338 270.098 146.808V141.322H272.858L276.786 147.364C276.972 147.656 277.291 147.815 277.609 147.815H279.679C279.918 147.815 280.157 147.682 280.263 147.47C280.369 147.258 280.369 146.993 280.237 146.781L276.335 140.766ZM273.468 138.195H270.124V133.849L273.468 133.929C275.804 133.929 276.123 135.015 276.123 136.049C276.096 137.056 275.804 138.195 273.468 138.195Z" fill="white"/>
<path d="M293.667 137.798C292.606 137.612 291.783 137.4 291.199 137.188C290.695 137.003 290.323 136.764 290.137 136.526C289.978 136.314 289.898 136.049 289.898 135.704C289.898 135.148 290.137 134.697 290.641 134.326C291.199 133.929 292.022 133.717 293.083 133.717C294.092 133.717 294.862 133.903 295.393 134.247C295.87 134.565 296.295 135.095 296.693 135.837C296.879 136.181 297.198 136.393 297.569 136.393C297.781 136.393 298.02 136.314 298.18 136.181L299.268 135.307C299.666 134.989 299.746 134.432 299.507 134.009C298.153 131.756 295.977 130.643 293.057 130.643C291.783 130.643 290.668 130.882 289.686 131.332C288.704 131.809 287.934 132.445 287.377 133.24C286.819 134.062 286.554 134.962 286.554 135.916C286.554 137.347 287.085 138.46 288.12 139.282C289.075 140.024 290.641 140.58 292.845 140.978C294.729 141.322 295.578 141.667 295.95 141.932C296.401 142.223 296.587 142.568 296.587 143.018C296.587 143.601 296.348 144.025 295.817 144.37C295.207 144.741 294.331 144.953 293.216 144.953C292.101 144.953 291.172 144.741 290.456 144.29C289.845 143.919 289.341 143.389 288.996 142.727C288.81 142.409 288.492 142.197 288.12 142.197C287.908 142.197 287.669 142.276 287.509 142.409L286.421 143.31C286.023 143.628 285.943 144.184 286.209 144.608C286.846 145.615 287.722 146.437 288.837 147.046C290.058 147.709 291.517 148.053 293.19 148.053C294.464 148.053 295.605 147.841 296.614 147.444C297.649 147.02 298.445 146.437 299.029 145.668C299.613 144.873 299.905 143.972 299.905 142.939C299.905 141.508 299.401 140.368 298.365 139.547C297.41 138.725 295.87 138.169 293.667 137.798Z" fill="white"/>
<path fill-rule="evenodd" clip-rule="evenodd" d="M291.544 87.1041C287.881 84.4806 284.457 87.3161 284.457 87.3161C284.457 87.3161 281.404 89.966 280.21 89.6215C279.042 89.277 280.051 88.005 280.051 88.005C280.051 88.005 284.165 81.6187 291.915 81.6187C299.666 81.6187 300.913 89.8865 301.046 100.884C301.125 106.82 302.214 109.178 303.196 110.079C303.7 110.556 303.674 111.378 303.063 111.722C301.895 112.411 300.276 113.18 298.949 113.18C297.755 113.18 296.852 112.65 296.242 112.12C295.605 111.563 294.649 111.484 293.906 111.934C292.579 112.729 290.349 113.736 287.217 113.736C281.962 113.736 278.378 108.198 278.883 102.076C279.387 95.9549 289.924 90.867 289.924 90.867C289.924 90.867 294.251 89.0385 291.544 87.1041ZM294.834 107.058C293.879 101.281 293.454 96.1933 293.295 93.8614C293.242 93.1459 292.498 92.7219 291.835 93.0399C288.145 94.9214 285.65 98.3663 285.73 102.924C285.783 106.687 289.605 111.881 294.489 107.986C294.781 107.774 294.887 107.403 294.834 107.058Z" fill="white"/>
<path d="M275.778 113.153C275.22 113.418 274.61 113.603 273.999 113.762C272.991 114.054 271.955 114.266 270.841 114.345C270.177 114.398 269.487 114.398 268.664 114.345C257.012 113.63 256.109 102.871 255.924 100.327C255.924 100.168 254.995 83.6058 269.115 82.6784C269.407 82.6519 269.699 82.6519 269.991 82.6519C270.549 82.6519 271.106 82.7049 271.69 82.7579C272.062 82.8109 272.46 82.8638 272.858 82.9433L273.176 82.9963C273.575 83.0758 273.946 83.1288 274.318 83.2613C274.928 83.4468 275.353 83.9238 275.486 84.5333C275.565 84.8513 275.539 85.1693 275.433 85.4608C275.353 85.7258 275.194 85.9908 274.955 86.2028L274.716 86.4413C274.052 87.1303 272.964 87.1833 272.194 86.5473C271.61 86.0703 270.734 85.8848 269.646 85.9378H269.487C269.328 85.9378 269.195 85.9908 269.062 86.0173L268.823 86.0703C268.346 86.1763 267.868 86.3088 267.443 86.4943L267.284 86.5738L267.072 86.6798C265.24 87.4483 264.152 88.5613 263.515 90.0982C263.488 90.1777 263.435 90.2837 263.409 90.3632C261.498 94.9211 261.737 99.7176 261.737 99.7971C261.763 100.619 262.082 104.09 264.497 107.879C264.656 108.171 264.869 108.436 265.054 108.674C265.293 108.966 265.532 109.284 265.798 109.522C267.682 111.165 269.885 111.033 269.965 111.033C270.151 111.033 270.389 111.033 270.628 111.033C271.902 110.953 272.884 110.635 273.575 110.158C273.628 110.132 273.681 110.105 273.734 110.079C274.424 109.549 275.326 109.522 276.07 110.079C276.229 110.185 276.335 110.37 276.441 110.529C276.68 110.874 276.839 111.245 276.813 111.669C276.733 112.331 276.362 112.861 275.778 113.153Z" fill="white"/>
</g>
<defs>
<clipPath id="clip0">
<rect width="311" height="148" fill="white"/>
</clipPath>
</defs>
</svg>
