<svg width="161" height="62" viewBox="0 0 161 62" fill="none" xmlns="http://www.w3.org/2000/svg">
<path d="M9.944 23.32C7.14933 23.32 4.97333 22.5627 3.416 21.048C1.88 19.512 1.05867 17.4213 0.952 14.776C0.930667 14.136 0.92 13.1333 0.92 11.768C0.92 10.3813 0.930667 9.37867 0.952 8.76C1.05867 6.136 1.89067 4.06667 3.448 2.552C5.00533 1.03733 7.17067 0.279999 9.944 0.279999C11.8213 0.279999 13.4107 0.621332 14.712 1.304C16.0347 1.96533 17.0267 2.776 17.688 3.736C18.3493 4.696 18.7013 5.592 18.744 6.424V6.488C18.744 6.65867 18.68 6.79733 18.552 6.904C18.424 7.01067 18.264 7.064 18.072 7.064H16.184C15.9707 7.064 15.8107 7.032 15.704 6.968C15.6187 6.88267 15.5333 6.72267 15.448 6.488C15.128 5.528 14.5093 4.70667 13.592 4.024C12.696 3.34133 11.48 3 9.944 3C8.17333 3 6.78667 3.48 5.784 4.44C4.78133 5.4 4.23733 6.89333 4.152 8.92C4.13067 9.53867 4.12 10.488 4.12 11.768C4.12 13.0267 4.13067 13.976 4.152 14.616C4.23733 16.664 4.78133 18.1787 5.784 19.16C6.78667 20.12 8.17333 20.6 9.944 20.6C11.736 20.6 13.1653 20.1093 14.232 19.128C15.2987 18.1467 15.832 16.6747 15.832 14.712V13.368H11.032C10.8187 13.368 10.6373 13.304 10.488 13.176C10.36 13.0267 10.296 12.8347 10.296 12.6V11.576C10.296 11.3627 10.36 11.1813 10.488 11.032C10.6373 10.8827 10.8187 10.808 11.032 10.808H18.264C18.4773 10.808 18.648 10.8827 18.776 11.032C18.9253 11.16 19 11.3413 19 11.576V14.648C19 16.3973 18.6373 17.9227 17.912 19.224C17.1867 20.5253 16.1413 21.5387 14.776 22.264C13.4107 22.968 11.8 23.32 9.944 23.32ZM24.3013 23C24.0879 23 23.9066 22.936 23.7573 22.808C23.6293 22.6587 23.5653 22.4773 23.5653 22.264V1.368C23.5653 1.13333 23.6293 0.951999 23.7573 0.823999C23.9066 0.674665 24.0879 0.599998 24.3013 0.599998H32.1093C34.5626 0.599998 36.4826 1.176 37.8693 2.328C39.2559 3.48 39.9493 5.144 39.9493 7.32C39.9493 8.94133 39.5439 10.2747 38.7333 11.32C37.9439 12.3653 36.8239 13.0907 35.3733 13.496L40.3013 22.008C40.3653 22.136 40.3973 22.2533 40.3973 22.36C40.3973 22.5307 40.3226 22.68 40.1733 22.808C40.0453 22.936 39.8959 23 39.7253 23H38.1893C37.8693 23 37.6133 22.9253 37.4213 22.776C37.2506 22.6267 37.0906 22.4133 36.9412 22.136L32.3013 14.008H26.7013V22.264C26.7013 22.4773 26.6266 22.6587 26.4773 22.808C26.3279 22.936 26.1466 23 25.9333 23H24.3013ZM31.9813 11.288C35.1599 11.288 36.7493 9.95467 36.7493 7.288C36.7493 4.62133 35.1599 3.288 31.9813 3.288H26.7013V11.288H31.9813ZM45.27 23C45.0567 23 44.8753 22.936 44.726 22.808C44.598 22.6587 44.534 22.4773 44.534 22.264V1.368C44.534 1.13333 44.598 0.951999 44.726 0.823999C44.8753 0.674665 45.0567 0.599998 45.27 0.599998H58.486C58.6993 0.599998 58.87 0.674665 58.998 0.823999C59.1473 0.951999 59.222 1.13333 59.222 1.368V2.584C59.222 2.79733 59.158 2.97867 59.03 3.128C58.902 3.256 58.7207 3.32 58.486 3.32H47.606V10.328H57.782C57.9953 10.328 58.166 10.4027 58.294 10.552C58.4433 10.68 58.518 10.8613 58.518 11.096V12.28C58.518 12.4933 58.4433 12.6747 58.294 12.824C58.166 12.952 57.9953 13.016 57.782 13.016H47.606V20.28H58.742C58.9767 20.28 59.158 20.344 59.286 20.472C59.414 20.6 59.478 20.7813 59.478 21.016V22.264C59.478 22.4773 59.4033 22.6587 59.254 22.808C59.126 22.936 58.9553 23 58.742 23H45.27ZM71.8815 23.32C69.0868 23.32 66.9108 22.5627 65.3535 21.048C63.8175 19.512 62.9962 17.4213 62.8895 14.776C62.8682 14.136 62.8575 13.1333 62.8575 11.768C62.8575 10.3813 62.8682 9.37867 62.8895 8.76C62.9962 6.136 63.8282 4.06667 65.3855 2.552C66.9428 1.03733 69.1082 0.279999 71.8815 0.279999C73.7588 0.279999 75.3482 0.621332 76.6495 1.304C77.9722 1.96533 78.9642 2.776 79.6255 3.736C80.2868 4.696 80.6388 5.592 80.6815 6.424V6.488C80.6815 6.65867 80.6175 6.79733 80.4895 6.904C80.3615 7.01067 80.2015 7.064 80.0095 7.064H78.1215C77.9082 7.064 77.7482 7.032 77.6415 6.968C77.5562 6.88267 77.4708 6.72267 77.3855 6.488C77.0655 5.528 76.4468 4.70667 75.5295 4.024C74.6335 3.34133 73.4175 3 71.8815 3C70.1108 3 68.7242 3.48 67.7215 4.44C66.7188 5.4 66.1748 6.89333 66.0895 8.92C66.0682 9.53867 66.0575 10.488 66.0575 11.768C66.0575 13.0267 66.0682 13.976 66.0895 14.616C66.1748 16.664 66.7188 18.1787 67.7215 19.16C68.7242 20.12 70.1108 20.6 71.8815 20.6C73.6735 20.6 75.1028 20.1093 76.1695 19.128C77.2362 18.1467 77.7695 16.6747 77.7695 14.712V13.368H72.9695C72.7562 13.368 72.5748 13.304 72.4255 13.176C72.2975 13.0267 72.2335 12.8347 72.2335 12.6V11.576C72.2335 11.3627 72.2975 11.1813 72.4255 11.032C72.5748 10.8827 72.7562 10.808 72.9695 10.808H80.2015C80.4148 10.808 80.5855 10.8827 80.7135 11.032C80.8628 11.16 80.9375 11.3413 80.9375 11.576V14.648C80.9375 16.3973 80.5748 17.9227 79.8495 19.224C79.1242 20.5253 78.0788 21.5387 76.7135 22.264C75.3482 22.968 73.7375 23.32 71.8815 23.32ZM9.848 61.32C6.98933 61.32 4.81333 60.552 3.32 59.016C1.848 57.48 1.05867 55.3573 0.952 52.648C0.930667 52.072 0.92 51.1333 0.92 49.832C0.92 48.5093 0.930667 47.5493 0.952 46.952C1.05867 44.264 1.85867 42.152 3.352 40.616C4.84533 39.0587 7.01067 38.28 9.848 38.28C11.7467 38.28 13.3573 38.6213 14.68 39.304C16.0027 39.9653 17.0053 40.84 17.688 41.928C18.3707 43.016 18.744 44.1787 18.808 45.416V45.48C18.808 45.6507 18.7333 45.8 18.584 45.928C18.456 46.0347 18.3067 46.088 18.136 46.088H16.376C15.9493 46.088 15.6827 45.8427 15.576 45.352C15.2133 43.752 14.5627 42.632 13.624 41.992C12.6853 41.3307 11.4267 41 9.848 41C6.17867 41 4.28 43.0373 4.152 47.112C4.13067 47.688 4.12 48.5733 4.12 49.768C4.12 50.9627 4.13067 51.8693 4.152 52.488C4.28 56.5627 6.17867 58.6 9.848 58.6C11.4267 58.6 12.6853 58.28 13.624 57.64C14.584 56.9787 15.2347 55.848 15.576 54.248C15.64 53.9707 15.736 53.7787 15.864 53.672C15.992 53.5653 16.1627 53.512 16.376 53.512H18.136C18.328 53.512 18.488 53.576 18.616 53.704C18.7653 53.8107 18.8293 53.96 18.808 54.152C18.744 55.4107 18.3707 56.584 17.688 57.672C17.0053 58.76 16.0027 59.6453 14.68 60.328C13.3573 60.9893 11.7467 61.32 9.848 61.32ZM23.8325 61C23.6192 61 23.4378 60.936 23.2885 60.808C23.1605 60.6587 23.0965 60.4773 23.0965 60.264V39.368C23.0965 39.1333 23.1605 38.952 23.2885 38.824C23.4378 38.6747 23.6192 38.6 23.8325 38.6H25.4645C25.6992 38.6 25.8805 38.6747 26.0085 38.824C26.1578 38.952 26.2325 39.1333 26.2325 39.368V48.2H37.2405V39.368C37.2405 39.1333 37.3045 38.952 37.4325 38.824C37.5818 38.6747 37.7632 38.6 37.9765 38.6H39.6085C39.8432 38.6 40.0245 38.6747 40.1525 38.824C40.3018 38.952 40.3765 39.1333 40.3765 39.368V60.264C40.3765 60.4773 40.3018 60.6587 40.1525 60.808C40.0032 60.936 39.8218 61 39.6085 61H37.9765C37.7632 61 37.5818 60.936 37.4325 60.808C37.3045 60.6587 37.2405 60.4773 37.2405 60.264V51.08H26.2325V60.264C26.2325 60.4773 26.1578 60.6587 26.0085 60.808C25.8592 60.936 25.6778 61 25.4645 61H23.8325ZM46.6763 61C46.4629 61 46.2816 60.936 46.1323 60.808C46.0043 60.6587 45.9403 60.4773 45.9403 60.264V39.368C45.9403 39.1333 46.0043 38.952 46.1323 38.824C46.2816 38.6747 46.4629 38.6 46.6763 38.6H54.4843C56.9376 38.6 58.8576 39.176 60.2443 40.328C61.6309 41.48 62.3243 43.144 62.3243 45.32C62.3243 46.9413 61.9189 48.2747 61.1083 49.32C60.3189 50.3653 59.1989 51.0907 57.7483 51.496L62.6763 60.008C62.7403 60.136 62.7723 60.2533 62.7723 60.36C62.7723 60.5307 62.6976 60.68 62.5483 60.808C62.4203 60.936 62.2709 61 62.1003 61H60.5643C60.2443 61 59.9883 60.9253 59.7963 60.776C59.6256 60.6267 59.4656 60.4133 59.3162 60.136L54.6763 52.008H49.0763V60.264C49.0763 60.4773 49.0016 60.6587 48.8523 60.808C48.7029 60.936 48.5216 61 48.3083 61H46.6763ZM54.3563 49.288C57.5349 49.288 59.1243 47.9547 59.1243 45.288C59.1243 42.6213 57.5349 41.288 54.3563 41.288H49.0763V49.288H54.3563ZM67.645 61C67.4317 61 67.2503 60.936 67.101 60.808C66.973 60.6587 66.909 60.4773 66.909 60.264V39.336C66.909 39.1227 66.973 38.952 67.101 38.824C67.2503 38.6747 67.4317 38.6 67.645 38.6H69.341C69.5543 38.6 69.725 38.6747 69.853 38.824C70.0023 38.952 70.077 39.1227 70.077 39.336V60.264C70.077 60.4773 70.0023 60.6587 69.853 60.808C69.725 60.936 69.5543 61 69.341 61H67.645ZM82.859 61.32C81.0883 61.32 79.5523 61.0427 78.251 60.488C76.971 59.9333 75.9897 59.208 75.307 58.312C74.6243 57.3947 74.2617 56.4133 74.219 55.368C74.219 55.1973 74.283 55.048 74.411 54.92C74.5603 54.7707 74.731 54.696 74.923 54.696H76.555C76.9603 54.696 77.2377 54.9093 77.387 55.336C77.579 56.232 78.123 57 79.019 57.64C79.9363 58.28 81.2163 58.6 82.859 58.6C84.6297 58.6 85.963 58.2907 86.859 57.672C87.755 57.032 88.203 56.1467 88.203 55.016C88.203 54.2907 87.979 53.704 87.531 53.256C87.1043 52.808 86.4643 52.4133 85.611 52.072C84.7577 51.7307 83.4777 51.304 81.771 50.792C80.107 50.3227 78.7843 49.8213 77.803 49.288C76.8217 48.7547 76.0857 48.0933 75.595 47.304C75.1043 46.5147 74.859 45.5227 74.859 44.328C74.859 43.176 75.1683 42.1413 75.787 41.224C76.427 40.3067 77.3337 39.592 78.507 39.08C79.6803 38.5467 81.0777 38.28 82.699 38.28C84.363 38.28 85.7923 38.5787 86.987 39.176C88.1817 39.752 89.0883 40.488 89.707 41.384C90.3257 42.28 90.6563 43.176 90.699 44.072C90.699 44.2427 90.635 44.392 90.507 44.52C90.4003 44.648 90.2403 44.712 90.027 44.712H88.331C87.883 44.712 87.6057 44.5093 87.499 44.104C87.371 43.208 86.8697 42.472 85.995 41.896C85.1203 41.2987 84.0217 41 82.699 41C81.2483 41 80.107 41.2773 79.275 41.832C78.443 42.3867 78.027 43.208 78.027 44.296C78.027 45.0213 78.219 45.6187 78.603 46.088C79.0083 46.5573 79.6163 46.9733 80.427 47.336C81.2377 47.6773 82.4217 48.072 83.979 48.52C85.7923 49.0107 87.2217 49.5227 88.267 50.056C89.3123 50.568 90.091 51.2187 90.603 52.008C91.115 52.776 91.371 53.7573 91.371 54.952C91.371 56.936 90.603 58.4933 89.067 59.624C87.531 60.7547 85.4617 61.32 82.859 61.32ZM100.947 61C100.734 61 100.553 60.936 100.403 60.808C100.275 60.6587 100.211 60.4773 100.211 60.264V41.448H94.0673C93.8539 41.448 93.6726 41.384 93.5233 41.256C93.3953 41.1067 93.3313 40.9253 93.3313 40.712V39.368C93.3313 39.1547 93.3953 38.9733 93.5233 38.824C93.6726 38.6747 93.8539 38.6 94.0673 38.6H109.491C109.726 38.6 109.907 38.6747 110.035 38.824C110.185 38.952 110.259 39.1333 110.259 39.368V40.712C110.259 40.9253 110.185 41.1067 110.035 41.256C109.886 41.384 109.705 41.448 109.491 41.448H103.379V60.264C103.379 60.4773 103.305 60.6587 103.155 60.808C103.006 60.936 102.825 61 102.611 61H100.947ZM114.583 61C114.369 61 114.188 60.936 114.039 60.808C113.911 60.6587 113.847 60.4773 113.847 60.264V39.336C113.847 39.1227 113.911 38.952 114.039 38.824C114.188 38.6747 114.369 38.6 114.583 38.6H116.279C116.492 38.6 116.663 38.6747 116.791 38.824C116.94 38.952 117.015 39.1227 117.015 39.336V60.264C117.015 60.4773 116.94 60.6587 116.791 60.808C116.663 60.936 116.492 61 116.279 61H114.583ZM121.093 61C120.922 61 120.773 60.936 120.645 60.808C120.517 60.68 120.453 60.5307 120.453 60.36C120.453 60.1893 120.463 60.072 120.485 60.008L128.421 39.304C128.591 38.8347 128.933 38.6 129.445 38.6H131.621C132.133 38.6 132.474 38.8347 132.645 39.304L140.549 60.008L140.613 60.36C140.613 60.5307 140.549 60.68 140.421 60.808C140.293 60.936 140.143 61 139.973 61H138.341C138.106 61 137.925 60.9467 137.797 60.84C137.669 60.712 137.583 60.584 137.541 60.456L135.781 55.912H125.285L123.525 60.456C123.482 60.584 123.386 60.712 123.237 60.84C123.109 60.9467 122.938 61 122.725 61H121.093ZM134.853 53.16L130.533 41.8L126.213 53.16H134.853ZM144.77 61C144.557 61 144.375 60.936 144.226 60.808C144.098 60.6587 144.034 60.4773 144.034 60.264V39.368C144.034 39.1333 144.098 38.952 144.226 38.824C144.375 38.6747 144.557 38.6 144.77 38.6H146.242C146.626 38.6 146.893 38.7493 147.042 39.048L157.666 55.368V39.368C157.666 39.1333 157.73 38.952 157.858 38.824C158.007 38.6747 158.189 38.6 158.402 38.6H159.938C160.173 38.6 160.354 38.6747 160.482 38.824C160.631 38.952 160.706 39.1333 160.706 39.368V60.232C160.706 60.4453 160.631 60.6267 160.482 60.776C160.354 60.9253 160.183 61 159.97 61H158.434C158.114 61 157.858 60.8507 157.666 60.552L147.074 44.392V60.264C147.074 60.4773 146.999 60.6587 146.85 60.808C146.701 60.936 146.519 61 146.306 61H144.77Z" fill="white"/>
</svg>
