<?xml version="1.0" encoding="utf-8"?>
<!-- Generator: Adobe Illustrator 23.0.3, SVG Export Plug-In . SVG Version: 6.00 Build 0)  -->
<svg version="1.1" id="Layer_1" xmlns="http://www.w3.org/2000/svg" xmlns:xlink="http://www.w3.org/1999/xlink" x="0px" y="0px"
	 viewBox="0 0 637 1006" style="enable-background:new 0 0 637 1006;" xml:space="preserve">
<style type="text/css">
	.st0{fill:none;}
	.st1{fill:#FFFFFF;}
	.st2{fill:#373737;}
	.st3{fill:#242424;fill-opacity:0.56;}
</style>
<g>
	<path class="st0" d="M269.1,958.8c-2.5-2.6-5.8-3.8-10-3.8c-4.2,0-7.6,1.3-10.2,3.8c-2.5,2.6-3.9,6.5-4.1,11.8
		c-0.1,1.5-0.1,3.7-0.1,6.4c0,2.7,0,4.8,0.1,6.4c0.2,5.3,1.6,9.2,4.1,11.8c2.6,2.6,5.9,3.8,10.2,3.8c4.2,0,7.6-1.3,10.1-3.8
		c2.5-2.6,3.9-6.5,4.1-11.8c0.1-3.2,0.2-5.3,0.2-6.4c0-1.2-0.1-3.3-0.2-6.4C273.1,965.3,271.7,961.4,269.1,958.8z"/>
	<path class="st0" d="M326.1,965.7c0-6.7-4-10-11.9-10h-13.2v20h13.2C322.1,975.7,326.1,972.4,326.1,965.7z"/>
	<path class="st0" d="M28.7,600.1H13.2v19.4h15.5c3.4,0,6-0.9,7.8-2.7c1.9-1.8,2.9-4.1,2.9-7c0-2.9-1-5.3-2.9-7
		C34.7,601,32.1,600.1,28.7,600.1z"/>
	<polygon class="st0" points="142,705.9 142,705.3 141.6,705.3 	"/>
	<path class="st0" d="M35.6,591.4c1.8-1.5,2.7-3.7,2.7-6.5c0-2.7-0.9-4.8-2.6-6.2c-1.8-1.4-4.3-2.2-7.8-2.2H13.2v17.2h14.7
		C31.3,593.7,33.8,592.9,35.6,591.4z"/>
	<path class="st0" d="M133.3,579.8c-2.5-2.6-5.8-3.8-10-3.8c-4.2,0-7.6,1.3-10.2,3.8c-2.5,2.6-3.9,6.5-4.1,11.8
		c-0.1,1.5-0.1,3.7-0.1,6.4c0,2.7,0,4.8,0.1,6.4c0.2,5.3,1.6,9.2,4.1,11.8c2.6,2.6,5.9,3.8,10.2,3.8c4.2,0,7.6-1.3,10.1-3.8
		c2.5-2.6,3.9-6.5,4.1-11.8c0.1-3.2,0.2-5.3,0.2-6.4c0-1.2-0.1-3.3-0.2-6.4C137.2,586.3,135.8,582.4,133.3,579.8z"/>
	<polygon class="st0" points="317.5,293 317.3,293.5 317.6,293.4 	"/>
	<polygon class="st0" points="375.1,606.4 396.7,606.4 385.9,578 	"/>
	<polygon class="st0" points="429,9 418.2,37.4 439.8,37.4 	"/>
	<polygon class="st0" points="225.4,204.5 225.4,207.4 227.2,207.2 	"/>
	<polygon class="st0" points="343.5,681.6 345.5,681.5 343.5,678.5 	"/>
	<path class="st0" d="M34.1,48.7c2.2-1,3.8-2.6,4.7-4.8c1-2.2,1.6-5.2,1.7-9c0.1-3.2,0.2-5.2,0.2-6c0-0.9-0.1-2.8-0.2-5.9
		c-0.1-5.3-1.4-9.1-3.8-11.5C34.3,9,30.4,7.8,25,7.8H13.2v42.4h12.2C29,50.2,31.9,49.7,34.1,48.7z"/>
	<polygon class="st0" points="251.9,218.9 243.9,219.7 251.9,231.9 	"/>
	<path class="st0" d="M372.2,17.7c0-6.7-4-10-11.9-10h-13.2v20h13.2C368.3,27.7,372.2,24.4,372.2,17.7z"/>
	<path class="st1" d="M7.2,57h18.6c5.4,0,9.7-0.8,13-2.3c3.3-1.5,5.6-3.9,7.1-7c1.5-3.2,2.4-7.3,2.6-12.4c0.1-1.6,0.1-3.7,0.1-6.3
		c0-2.6,0-4.7-0.1-6.2c-0.2-7.3-2-12.7-5.6-16.2C39.2,2.8,33.4,1,25.4,1H7.2c-0.5,0-1,0.2-1.4,0.6C5.5,1.9,5.4,2.3,5.4,2.9v52.2
		c0,0.5,0.2,1,0.5,1.4C6.2,56.8,6.7,57,7.2,57z M13.2,7.8H25c5.4,0,9.4,1.2,11.8,3.7c2.4,2.4,3.7,6.2,3.8,11.5
		c0.1,3.1,0.2,5.1,0.2,5.9c0,0.8-0.1,2.8-0.2,6c-0.1,3.7-0.7,6.7-1.7,9c-1,2.2-2.5,3.8-4.7,4.8c-2.1,1-5,1.5-8.7,1.5H13.2V7.8z"/>
	<path class="st1" d="M62.4,57H96c0.5,0,1-0.2,1.3-0.5c0.4-0.4,0.6-0.8,0.6-1.4V52c0-0.6-0.2-1-0.5-1.4c-0.3-0.3-0.8-0.5-1.4-0.5
		H68.2V32h25.4c0.5,0,1-0.2,1.3-0.5c0.4-0.4,0.6-0.8,0.6-1.4v-3c0-0.6-0.2-1-0.6-1.4c-0.3-0.4-0.7-0.6-1.3-0.6H68.2V7.8h27.2
		c0.6,0,1-0.2,1.4-0.5c0.3-0.4,0.5-0.8,0.5-1.4v-3c0-0.6-0.2-1-0.6-1.4C96.4,1.2,95.9,1,95.4,1h-33c-0.5,0-1,0.2-1.4,0.6
		c-0.3,0.3-0.5,0.8-0.5,1.4v52.2c0,0.5,0.2,1,0.5,1.4C61.4,56.8,61.8,57,62.4,57z"/>
	<path class="st1" d="M115.5,55.7c3.3,1.4,7.1,2.1,11.5,2.1c6.5,0,11.7-1.4,15.5-4.2c3.8-2.8,5.8-6.7,5.8-11.7c0-3-0.6-5.4-1.9-7.4
		c-1.3-2-3.2-3.6-5.8-4.9c-2.6-1.3-6.2-2.6-10.7-3.8c-3.9-1.1-6.9-2.1-8.9-3c-2-0.9-3.5-1.9-4.6-3.1c-1-1.2-1.4-2.7-1.4-4.5
		c0-2.7,1-4.8,3.1-6.2S123,7,126.6,7c3.3,0,6.1,0.7,8.2,2.2c2.2,1.4,3.4,3.3,3.8,5.5c0.3,1,1,1.5,2.1,1.5h4.2c0.5,0,0.9-0.2,1.2-0.5
		c0.3-0.3,0.5-0.7,0.5-1.1c-0.1-2.2-0.9-4.5-2.5-6.7c-1.5-2.2-3.8-4.1-6.8-5.5c-3-1.5-6.6-2.2-10.7-2.2c-4.1,0-7.5,0.7-10.5,2
		c-2.9,1.3-5.2,3.1-6.8,5.4c-1.5,2.3-2.3,4.9-2.3,7.8c0,3,0.6,5.5,1.8,7.4c1.2,2,3.1,3.6,5.5,5c2.5,1.3,5.8,2.6,9.9,3.8
		c4.3,1.3,7.5,2.3,9.6,3.2c2.1,0.9,3.7,1.8,4.8,3c1.1,1.1,1.7,2.6,1.7,4.4c0,2.8-1.1,5-3.4,6.6c-2.2,1.5-5.6,2.3-10,2.3
		c-4.1,0-7.3-0.8-9.6-2.4c-2.2-1.6-3.6-3.5-4.1-5.8c-0.4-1.1-1.1-1.6-2.1-1.6h-4.1c-0.5,0-0.9,0.2-1.3,0.6c-0.3,0.3-0.5,0.7-0.5,1.1
		c0.1,2.6,1,5.1,2.7,7.4C109.9,52.5,112.3,54.3,115.5,55.7z"/>
	<path class="st1" d="M160.6,57h4.2c0.5,0,1-0.2,1.3-0.5c0.4-0.4,0.6-0.8,0.6-1.4V2.8c0-0.5-0.2-1-0.6-1.3c-0.3-0.4-0.7-0.6-1.3-0.6
		h-4.2c-0.5,0-1,0.2-1.4,0.6c-0.3,0.3-0.5,0.7-0.5,1.3v52.3c0,0.5,0.2,1,0.5,1.4C159.7,56.8,160.1,57,160.6,57z"/>
	<path class="st1" d="M184.8,52.1c3.9,3.8,9.3,5.7,16.3,5.7c4.6,0,8.7-0.9,12.1-2.6c3.4-1.8,6-4.3,7.8-7.6c1.8-3.3,2.7-7.1,2.7-11.4
		v-7.7c0-0.6-0.2-1-0.6-1.4c-0.3-0.4-0.7-0.6-1.3-0.6h-18.1c-0.5,0-1,0.2-1.4,0.6c-0.3,0.4-0.5,0.8-0.5,1.4V31
		c0,0.6,0.2,1.1,0.5,1.4c0.4,0.3,0.8,0.5,1.4,0.5h12v3.4c0,4.9-1.3,8.6-4,11c-2.7,2.5-6.2,3.7-10.7,3.7c-4.4,0-7.9-1.2-10.4-3.6
		c-2.5-2.5-3.9-6.2-4.1-11.4c-0.1-1.6-0.1-4-0.1-7.1c0-3.2,0-5.6,0.1-7.1c0.2-5.1,1.6-8.8,4.1-11.2c2.5-2.4,6-3.6,10.4-3.6
		c3.8,0,6.9,0.9,9.1,2.6c2.3,1.7,3.8,3.8,4.6,6.2c0.2,0.6,0.4,1,0.6,1.2c0.3,0.2,0.7,0.2,1.2,0.2h4.7c0.5,0,0.9-0.1,1.2-0.4
		c0.3-0.3,0.5-0.6,0.5-1v-0.2c-0.1-2.1-1-4.3-2.6-6.7c-1.7-2.4-4.1-4.4-7.4-6.1c-3.3-1.7-7.2-2.6-11.9-2.6c-6.9,0-12.3,1.9-16.2,5.7
		c-3.9,3.8-6,9-6.2,15.5c-0.1,1.5-0.1,4.1-0.1,7.5c0,3.4,0,5.9,0.1,7.5C178.9,43.1,180.9,48.3,184.8,52.1z"/>
	<path class="st1" d="M237,57h3.8c0.5,0,1-0.2,1.4-0.5c0.4-0.4,0.6-0.8,0.6-1.4V15.5l26.5,40.4c0.5,0.7,1.1,1.1,1.9,1.1h3.8
		c0.5,0,1-0.2,1.3-0.6c0.4-0.4,0.6-0.8,0.6-1.4V2.9c0-0.6-0.2-1-0.6-1.4c-0.3-0.4-0.8-0.6-1.4-0.6H271c-0.5,0-1,0.2-1.4,0.6
		c-0.3,0.3-0.5,0.8-0.5,1.4v40L242.6,2.1c-0.4-0.7-1-1.1-2-1.1H237c-0.5,0-1,0.2-1.4,0.6c-0.3,0.3-0.5,0.8-0.5,1.4v52.2
		c0,0.5,0.2,1,0.5,1.4C236,56.8,236.4,57,237,57z"/>
	<path class="st1" d="M292.6,57h33.7c0.5,0,1-0.2,1.3-0.5c0.4-0.4,0.6-0.8,0.6-1.4V52c0-0.6-0.2-1-0.5-1.4s-0.8-0.5-1.4-0.5h-27.8
		V32h25.4c0.5,0,1-0.2,1.3-0.5c0.4-0.4,0.6-0.8,0.6-1.4v-3c0-0.6-0.2-1-0.6-1.4c-0.3-0.4-0.7-0.6-1.3-0.6h-25.4V7.8h27.2
		c0.6,0,1-0.2,1.4-0.5c0.3-0.4,0.5-0.8,0.5-1.4v-3c0-0.6-0.2-1-0.6-1.4c-0.3-0.4-0.7-0.6-1.3-0.6h-33c-0.5,0-1,0.2-1.4,0.6
		c-0.3,0.3-0.5,0.8-0.5,1.4v52.2c0,0.5,0.2,1,0.5,1.4C291.6,56.8,292.1,57,292.6,57z"/>
	<path class="st1" d="M341.1,57h4.1c0.5,0,1-0.2,1.4-0.5c0.4-0.4,0.6-0.8,0.6-1.4V34.5h14l11.6,20.3c0.4,0.7,0.8,1.2,1.2,1.6
		c0.5,0.4,1.1,0.6,1.9,0.6h3.8c0.4,0,0.8-0.2,1.1-0.5c0.4-0.3,0.6-0.7,0.6-1.1c0-0.3-0.1-0.6-0.2-0.9l-12.3-21.3
		c3.6-1,6.4-2.8,8.4-5.4c2-2.6,3-5.9,3-10c0-5.4-1.7-9.6-5.2-12.5c-3.5-2.9-8.3-4.3-14.4-4.3h-19.5c-0.5,0-1,0.2-1.4,0.6
		c-0.3,0.3-0.5,0.8-0.5,1.4v52.2c0,0.5,0.2,1,0.5,1.4C340.1,56.8,340.6,57,341.1,57z M347.1,7.7h13.2c7.9,0,11.9,3.3,11.9,10
		c0,6.7-4,10-11.9,10h-13.2V7.7z"/>
	<path class="st1" d="M405.4,57h4.1c0.5,0,1-0.1,1.3-0.4c0.4-0.3,0.6-0.6,0.7-1l4.4-11.4h26.2l4.4,11.4c0.1,0.3,0.3,0.6,0.6,1
		c0.3,0.3,0.8,0.4,1.4,0.4h4.1c0.4,0,0.8-0.2,1.1-0.5s0.5-0.7,0.5-1.1l-0.2-0.9L434.3,2.8C433.9,1.6,433,1,431.7,1h-5.4
		c-1.3,0-2.1,0.6-2.6,1.8l-19.8,51.8c-0.1,0.2-0.1,0.5-0.1,0.9c0,0.4,0.2,0.8,0.5,1.1S405,57,405.4,57z M429,9l10.8,28.4h-21.6
		L429,9z"/>
	<path class="st1" d="M453.7,8.1h15.4v47c0,0.5,0.2,1,0.5,1.4c0.4,0.3,0.8,0.5,1.4,0.5h4.2c0.5,0,1-0.2,1.4-0.5
		c0.4-0.4,0.6-0.8,0.6-1.4v-47h15.3c0.5,0,1-0.2,1.4-0.5c0.4-0.4,0.6-0.8,0.6-1.4V2.9c0-0.6-0.2-1-0.6-1.4c-0.3-0.4-0.8-0.6-1.4-0.6
		h-38.6c-0.5,0-1,0.2-1.4,0.6c-0.3,0.4-0.5,0.8-0.5,1.4v3.4c0,0.5,0.2,1,0.5,1.4C452.7,8,453.2,8.1,453.7,8.1z"/>
	<path class="st2" d="M42.1,101v-3c0-0.6-0.2-1-0.6-1.4c-0.3-0.4-0.7-0.6-1.3-0.6H7.9l34.1,5.5C42.1,101.3,42.1,101.1,42.1,101z"/>
	<path class="st2" d="M5.4,150.2c0,0.5,0.2,1,0.5,1.4c0.4,0.3,0.8,0.5,1.4,0.5h33.7c0.5,0,1-0.2,1.3-0.5c0.4-0.4,0.6-0.8,0.6-1.4
		V147c0-0.6-0.2-1-0.5-1.4s-0.8-0.5-1.4-0.5H13V127h25.4c0.5,0,1-0.2,1.3-0.5c0.4-0.4,0.6-0.8,0.6-1.4v-3c0-0.6-0.2-1-0.6-1.4
		c-0.3-0.4-0.7-0.6-1.3-0.6H13V111l-7.7-1.2V150.2z"/>
	<path class="st2" d="M61.4,97.1c-0.4-0.7-1-1.1-2-1.1h-3.7c-0.5,0-1,0.2-1.4,0.6c-0.3,0.3-0.5,0.8-0.5,1.4v5.5l13,2.1L61.4,97.1z"
		/>
	<path class="st2" d="M53.9,150.2c0,0.5,0.2,1,0.5,1.4c0.4,0.3,0.8,0.5,1.4,0.5h3.8c0.5,0,1-0.2,1.4-0.5c0.4-0.4,0.6-0.8,0.6-1.4
		v-31.3l-7.6-1.2V150.2z"/>
	<path class="st2" d="M95.6,97.9c0-0.6-0.2-1-0.6-1.4c-0.3-0.4-0.8-0.6-1.4-0.6h-3.8c-0.5,0-1,0.2-1.4,0.6c-0.3,0.3-0.5,0.8-0.5,1.4
		v11l7.6,1.2V97.9z"/>
	<path class="st2" d="M88,137.9l-10.8-16.6l-9.6-1.5L88,150.9c0.5,0.7,1.1,1.1,1.9,1.1h3.8c0.5,0,1-0.2,1.3-0.6
		c0.4-0.4,0.6-0.8,0.6-1.4v-25.8l-7.6-1.2V137.9z"/>
	<path class="st2" d="M128.7,142.8l-4.8-13.9l-8.5-1.4l7.8,22.4c0.5,1.4,1.5,2.1,3,2.1h5.2c1.4,0,2.3-0.7,2.9-2.1l6.4-18.3l-7.6-1.2
		L128.7,142.8z"/>
	<path class="st2" d="M152.1,98.5l0.2-0.9c0-0.4-0.2-0.8-0.6-1.1c-0.3-0.3-0.7-0.5-1.1-0.5h-4.2c-0.5,0-1,0.2-1.4,0.5
		c-0.4,0.3-0.6,0.6-0.7,1l-6.7,19.5l7.6,1.2L152.1,98.5z"/>
	<path class="st2" d="M113.1,97.4c-0.4-1-1.1-1.4-2.2-1.4h-4.2c-0.4,0-0.8,0.2-1.1,0.5c-0.3,0.3-0.5,0.7-0.5,1.1l0.2,0.9l4.9,14
		l8.6,1.4L113.1,97.4z"/>
	<path class="st2" d="M190.6,142.2c-2.5,2.6-5.9,3.8-10.1,3.8s-7.6-1.3-10.2-3.8c-1.6-1.6-2.7-3.7-3.3-6.3l-8.4-1.4
		c0.7,5.5,2.6,9.9,5.7,12.9c3.8,3.6,9.3,5.4,16.2,5.4c6.9,0,12.3-1.8,16.1-5.4c1.7-1.7,3.1-3.7,4.1-6.1l-8.4-1.3
		C191.8,140.8,191.2,141.5,190.6,142.2z"/>
	<path class="st2" d="M166.3,117.6c0.2-5.3,1.6-9.2,4.1-11.8c2.6-2.6,5.9-3.8,10.2-3.8c4.2,0,7.5,1.3,10,3.8
		c2.6,2.6,3.9,6.5,4.2,11.8c0.1,3.1,0.2,5.2,0.2,6.4c0,0.5,0,1.2,0,2.1l8,1.3c0-1.5,0.1-2.6,0.1-3.4c0-1.4-0.1-3.6-0.2-6.7
		c-0.2-7.2-2.3-12.7-6.2-16.4c-3.9-3.8-9.3-5.7-15.9-5.7c-6.7,0-12.1,1.9-16,5.7c-3.9,3.7-6,9.2-6.2,16.4c0,0.8,0,1.8-0.1,3l8,1.3
		C166.2,120,166.2,118.6,166.3,117.6z"/>
	<path class="st2" d="M235,131.3l19.2-32.6c0.2-0.4,0.3-0.8,0.3-1c0-0.4-0.2-0.8-0.5-1.1c-0.3-0.3-0.7-0.5-1.2-0.5h-4.1
		c-0.9,0-1.6,0.5-2.2,1.4L231,123.3l-15.6-25.9c-0.5-0.9-1.2-1.4-2.1-1.4h-4.2c-0.4,0-0.8,0.2-1.1,0.5c-0.3,0.3-0.5,0.7-0.5,1.1
		c0,0.2,0.1,0.3,0.2,0.6c0.1,0.2,0.1,0.4,0.1,0.5l19.3,32.6v0.1l7.9,1.3V131.3z"/>
	<path class="st2" d="M227,150.2c0,0.5,0.2,1,0.5,1.4c0.4,0.3,0.8,0.5,1.4,0.5h4.2c0.5,0,1-0.2,1.4-0.5c0.4-0.4,0.6-0.8,0.6-1.4
		v-3.4l-7.9-1.3V150.2z"/>
	<path class="st2" d="M14.4,226.4L25.2,198l10.3,27.2l7.4-0.7l-12.5-32.7c-0.4-1.2-1.3-1.8-2.6-1.8h-5.4c-1.3,0-2.1,0.6-2.6,1.8
		L6.1,227.9l16.3-1.5H14.4z"/>
	<path class="st2" d="M0.1,243.5C0,243.7,0,244,0,244.4c0,0.4,0.2,0.8,0.5,1.1c0.3,0.3,0.7,0.5,1.1,0.5h4.1c0.5,0,1-0.1,1.3-0.4
		c0.4-0.3,0.6-0.6,0.7-1l1.1-2.9l-8.3,0.8L0.1,243.5z"/>
	<path class="st2" d="M42.7,244.6c0.1,0.3,0.3,0.6,0.6,1c0.3,0.3,0.8,0.4,1.4,0.4h4.1c0.4,0,0.8-0.2,1.1-0.5
		c0.3-0.3,0.5-0.7,0.5-1.1l-0.2-0.9l-2.1-5.5l-7.7,0.7L42.7,244.6z"/>
	<path class="st2" d="M87.5,237.6c-2.3,1.6-5.5,2.4-9.4,2.4c-4.6,0-8-1.3-10.4-3.8l-8.8,0.8c0.8,1.5,1.8,2.8,2.9,4
		c3.7,3.8,9.2,5.8,16.3,5.8c4.7,0,8.8-0.8,12.1-2.5c3.3-1.7,5.8-3.9,7.5-6.6c0.9-1.4,1.6-2.9,2-4.5l-9.1,0.9
		C89.8,235.6,88.8,236.7,87.5,237.6z"/>
	<path class="st2" d="M63.8,217.9c0-3,0-5.2,0.1-6.6c0.3-10.2,5.1-15.3,14.2-15.3c3.9,0,7.1,0.8,9.4,2.5c2.3,1.6,4,4.4,4.9,8.4
		c0.3,1.2,0.9,1.8,2,1.8h4.4c0.4,0,0.8-0.1,1.1-0.4c0.4-0.3,0.6-0.7,0.6-1.1V207c-0.2-3.1-1.1-6-2.8-8.7c-1.7-2.7-4.2-4.9-7.5-6.6
		c-3.3-1.7-7.3-2.6-12.1-2.6c-7.1,0-12.5,1.9-16.2,5.8c-3.7,3.8-5.7,9.1-6,15.8c-0.1,1.5-0.1,3.9-0.1,7.2c0,2.1,0,3.8,0,5.2l8-0.7
		C63.8,221.2,63.8,219.7,63.8,217.9z"/>
	<path class="st2" d="M141.5,236.2c-2.5,2.6-5.9,3.8-10.1,3.8c-4.2,0-7.6-1.3-10.2-3.8c-1.2-1.2-2.2-2.8-2.8-4.7l-8.3,0.8
		c1,3.8,2.6,6.8,5,9.1c3.8,3.6,9.3,5.4,16.2,5.4c6.9,0,12.3-1.8,16.1-5.4c3.2-3.1,5.2-7.5,5.8-13.2L145,229
		C144.3,232,143.2,234.4,141.5,236.2z"/>
	<path class="st2" d="M117.1,211.6c0.2-5.3,1.6-9.2,4.1-11.8c2.6-2.6,5.9-3.8,10.2-3.8c4.2,0,7.5,1.3,10,3.8
		c2.6,2.6,3.9,6.5,4.2,11.8c0,1.2,0.1,2.3,0.1,3.2l8-0.7c0-0.8-0.1-1.8-0.1-2.8c-0.2-7.2-2.3-12.7-6.2-16.4
		c-3.9-3.8-9.3-5.7-15.9-5.7c-6.7,0-12.1,1.9-16,5.7c-3.9,3.7-6,9.2-6.2,16.4c-0.1,1.5-0.1,3.8-0.1,6.7c0,0.1,0,0.2,0,0.3l8-0.8
		C117.1,215,117.1,213.1,117.1,211.6z"/>
	<path class="st2" d="M173.2,196.7h13.2c7.9,0,11.9,3.3,11.9,10c0,1.2-0.1,2.2-0.4,3.2l8.2-0.8c0.1-0.8,0.1-1.5,0.1-2.4
		c0-5.4-1.7-9.6-5.2-12.5c-3.5-2.9-8.3-4.3-14.4-4.3h-19.5c-0.5,0-1,0.2-1.4,0.6c-0.3,0.3-0.5,0.8-0.5,1.4V213l7.8-0.7V196.7z"/>
	<path class="st2" d="M165.4,244.2c0,0.5,0.2,1,0.5,1.4c0.4,0.3,0.8,0.5,1.4,0.5h4.1c0.5,0,1-0.2,1.4-0.5c0.4-0.4,0.6-0.8,0.6-1.4
		v-17.8l-7.8,0.7V244.2z"/>
	<path class="st2" d="M198.8,243.8c0.4,0.7,0.8,1.2,1.2,1.6c0.5,0.4,1.1,0.6,1.9,0.6h3.8c0.4,0,0.8-0.2,1.1-0.5
		c0.4-0.3,0.6-0.7,0.6-1.1c0-0.3-0.1-0.6-0.2-0.9L196,224.2l-8,0.8L198.8,243.8z"/>
	<path class="st2" d="M217.8,244.2c0,0.5,0.2,1,0.5,1.4c0.4,0.3,0.8,0.5,1.4,0.5h3.8c0.5,0,1-0.2,1.4-0.5c0.4-0.4,0.6-0.8,0.6-1.4
		v-22.7l-7.6,0.7V244.2z"/>
	<path class="st2" d="M225.4,204.5l1.8,2.7l8.1-0.8l-10-15.3c-0.4-0.7-1-1.1-2-1.1h-3.7c-0.5,0-1,0.2-1.4,0.6
		c-0.3,0.3-0.5,0.8-0.5,1.4v16.2l7.6-0.7V204.5z"/>
	<path class="st2" d="M259.5,191.9c0-0.6-0.2-1-0.6-1.4c-0.3-0.4-0.8-0.6-1.4-0.6h-3.8c-0.5,0-1,0.2-1.4,0.6
		c-0.3,0.3-0.5,0.8-0.5,1.4v13l7.6-0.7V191.9z"/>
	<path class="st2" d="M251.9,231.9l-8-12.2l-8.1,0.8l16,24.4c0.5,0.7,1.1,1.1,1.9,1.1h3.8c0.5,0,1-0.2,1.3-0.6
		c0.4-0.4,0.6-0.8,0.6-1.4v-25.9l-7.6,0.7V231.9z"/>
	<path class="st2" d="M278.8,216.7c2.5,1.3,5.8,2.6,9.9,3.8c4.3,1.3,7.5,2.3,9.6,3.2s3.7,1.8,4.8,3c1.1,1.1,1.7,2.6,1.7,4.4
		c0,2.8-1.1,5-3.4,6.6c-2.2,1.5-5.6,2.3-10,2.3c-4.1,0-7.3-0.8-9.6-2.4c-2.2-1.6-3.6-3.5-4.1-5.8c-0.4-1.1-1.1-1.6-2.1-1.6h-4.1
		c-0.5,0-0.9,0.2-1.3,0.6c-0.3,0.3-0.5,0.7-0.5,1.1c0.1,2.6,1,5.1,2.7,7.4c1.7,2.2,4.2,4.1,7.4,5.4c3.3,1.4,7.1,2.1,11.5,2.1
		c6.5,0,11.7-1.4,15.5-4.2c3.8-2.8,5.8-6.7,5.8-11.7c0-3-0.6-5.4-1.9-7.4c-1.3-2-3.2-3.6-5.8-4.9c-2.5-1.3-6-2.5-10.3-3.7l-16.3,1.5
		C278.5,216.5,278.6,216.6,278.8,216.7z"/>
	<path class="st2" d="M282.4,198.1c2.1-1.4,4.9-2.1,8.6-2.1c3.3,0,6.1,0.7,8.2,2.2c0.9,0.6,1.6,1.3,2.2,2l8.5-0.8
		c-0.4-0.8-0.8-1.6-1.4-2.5c-1.5-2.2-3.8-4.1-6.8-5.5c-3-1.5-6.6-2.2-10.7-2.2c-4.1,0-7.5,0.7-10.5,2c-2.9,1.3-5.2,3.1-6.8,5.4
		c-1.3,1.9-2.1,4.1-2.3,6.5l8.1-0.8C279.9,200.5,280.9,199.1,282.4,198.1z"/>
	<path class="st2" d="M13.2,291.8H25c5.4,0,9.4,1.2,11.8,3.7c2.4,2.4,3.7,6.2,3.8,11.5c0.1,1.6,0.1,2.9,0.1,3.9l7.9-0.5
		c0-1.5,0-2.7-0.1-3.8c-0.2-7.3-2-12.7-5.6-16.2c-3.6-3.6-9.4-5.4-17.4-5.4H7.2c-0.5,0-1,0.2-1.4,0.6c-0.3,0.3-0.5,0.8-0.5,1.4v26.3
		l7.8-0.5V291.8z"/>
	<path class="st2" d="M38.8,327.9c-1,2.2-2.5,3.8-4.7,4.8c-2.1,1-5,1.5-8.7,1.5H13.2v-7.5l-7.8,0.5v12c0,0.5,0.2,1,0.5,1.4
		c0.4,0.3,0.8,0.5,1.4,0.5h18.6c5.4,0,9.7-0.8,13-2.3s5.6-3.9,7.1-7c1-2,1.7-4.4,2.1-7.1l-8.2,0.5C39.5,326.1,39.2,327,38.8,327.9z"
		/>
	<path class="st2" d="M60.5,339.2c0,0.5,0.2,1,0.5,1.4c0.4,0.3,0.8,0.5,1.4,0.5h4.1c0.5,0,1-0.2,1.4-0.5c0.4-0.4,0.6-0.8,0.6-1.4
		v-15.9l-7.8,0.5V339.2z"/>
	<path class="st2" d="M94,338.8c0.4,0.7,0.8,1.2,1.2,1.6c0.5,0.4,1.1,0.6,1.9,0.6h3.8c0.4,0,0.8-0.2,1.1-0.5
		c0.4-0.3,0.6-0.7,0.6-1.1c0-0.3-0.1-0.6-0.2-0.9l-9.7-16.8l-8.2,0.5L94,338.8z"/>
	<path class="st2" d="M68.4,291.7h13.2c7.9,0,11.9,3.3,11.9,10c0,2.4-0.5,4.4-1.6,6l8.9-0.6c0.5-1.6,0.7-3.4,0.7-5.3
		c0-5.4-1.7-9.6-5.2-12.5c-3.5-2.9-8.3-4.3-14.4-4.3H62.4c-0.5,0-1,0.2-1.4,0.6c-0.3,0.3-0.5,0.8-0.5,1.4v22.8l7.8-0.5V291.7z"/>
	<path class="st2" d="M112.9,339.2c0,0.5,0.2,1,0.5,1.4c0.4,0.3,0.8,0.5,1.4,0.5h4.2c0.5,0,1-0.2,1.3-0.5c0.4-0.4,0.6-0.8,0.6-1.4
		v-19.3l-7.9,0.5V339.2z"/>
	<path class="st2" d="M120.9,286.8c0-0.5-0.2-1-0.6-1.3c-0.3-0.4-0.7-0.6-1.3-0.6h-4.2c-0.5,0-1,0.2-1.4,0.6
		c-0.3,0.3-0.5,0.7-0.5,1.3v19.5l7.9-0.5V286.8z"/>
	<path class="st2" d="M154,331.8l-4.7-13.7l-7.9,0.5l7,20.3c0.5,1.4,1.5,2.1,3,2.1h5.2c1.4,0,2.3-0.7,2.9-2.1l7.6-22l-8.2,0.5
		L154,331.8z"/>
	<path class="st2" d="M177.5,287.5l0.2-0.9c0-0.4-0.2-0.8-0.6-1.1c-0.3-0.3-0.7-0.5-1.1-0.5h-4.2c-0.5,0-1,0.2-1.4,0.5
		s-0.6,0.6-0.7,1l-5.8,16.7l8.3-0.5L177.5,287.5z"/>
	<path class="st2" d="M138.4,286.4c-0.4-1-1.1-1.4-2.2-1.4h-4.2c-0.4,0-0.8,0.2-1.1,0.5s-0.5,0.7-0.5,1.1l0.2,0.9l6,17.4l7.9-0.5
		L138.4,286.4z"/>
	<path class="st2" d="M187.2,339.2c0,0.5,0.2,1,0.5,1.4c0.4,0.3,0.8,0.5,1.4,0.5h33.7c0.5,0,1-0.2,1.3-0.5c0.4-0.4,0.6-0.8,0.6-1.4
		V336c0-0.6-0.2-1-0.5-1.4s-0.8-0.5-1.4-0.5h-27.8V316h25.4c0.5,0,1-0.2,1.3-0.5c0.4-0.4,0.6-0.8,0.6-1.4v-0.7l-35,2.2V339.2z"/>
	<path class="st2" d="M194.9,291.8h27.2c0.6,0,1-0.2,1.4-0.5c0.3-0.4,0.5-0.8,0.5-1.4v-3c0-0.6-0.2-1-0.6-1.4
		c-0.3-0.4-0.7-0.6-1.3-0.6h-33c-0.5,0-1,0.2-1.4,0.6c-0.3,0.3-0.5,0.8-0.5,1.4v14.8l7.7-0.5V291.8z"/>
	<path class="st2" d="M240,286.4c-0.2-0.9-0.8-1.4-1.9-1.4h-4.2c-0.4,0-0.8,0.2-1.1,0.5c-0.3,0.3-0.5,0.7-0.5,1.1
		c0,0.3,0,0.6,0.1,0.9l2.3,11.2l7.7-0.5L240,286.4z"/>
	<path class="st2" d="M273.5,327.6l-5.3-17.1l-6.7,0.4l9.1,28c0.4,1.3,1.3,2,2.6,2h3.1c1.3,0,2.2-0.7,2.5-2.2l5.9-29.3L277,310
		L273.5,327.6z"/>
	<path class="st2" d="M289.3,287.5l0.1-0.9c0-0.4-0.2-0.8-0.5-1.1s-0.7-0.5-1.1-0.5h-4.2c-1.2,0-1.8,0.5-2,1.4l-1.9,9.5l8-0.5
		L289.3,287.5z"/>
	<path class="st2" d="M248.2,327.6l-3.1-15.6l-7.6,0.5l5.3,26.3c0.3,1.4,1.1,2.2,2.5,2.2h3.1c1.3,0,2.2-0.7,2.6-2l9-27.9l-6.9,0.4
		L248.2,327.6z"/>
	<path class="st2" d="M328.3,321.4h-21.6l5.2-13.6l-7.9,0.5l-11.6,30.2c-0.1,0.2-0.1,0.5-0.1,0.9s0.2,0.8,0.5,1.1
		c0.3,0.3,0.7,0.5,1.1,0.5h4.1c0.5,0,1-0.1,1.3-0.4c0.4-0.3,0.6-0.6,0.7-1l4.4-11.4h26.2l4.4,11.4c0.1,0.3,0.3,0.6,0.6,1
		c0.3,0.3,0.8,0.4,1.4,0.4h4.1c0.4,0,0.8-0.2,1.1-0.5c0.3-0.3,0.5-0.7,0.5-1.1l-0.2-0.9l-12.2-31.9l-7.5,0.5L328.3,321.4z"/>
	<path class="st2" d="M317.5,293l0.2,0.4l7.5-0.5l-2.4-6.2c-0.4-1.2-1.3-1.8-2.6-1.8h-5.4c-1.3,0-2.1,0.6-2.6,1.8l-2.8,7.2l7.9-0.5
		L317.5,293z"/>
	<path class="st2" d="M387.5,287.6c0.2-0.4,0.3-0.8,0.3-1c0-0.4-0.2-0.8-0.5-1.1s-0.7-0.5-1.2-0.5h-4.1c-0.9,0-1.6,0.5-2.2,1.4
		l-2,3.3l8.7-0.6L387.5,287.6z"/>
	<path class="st2" d="M348.7,286.4c-0.5-0.9-1.2-1.4-2.1-1.4h-4.2c-0.4,0-0.8,0.2-1.1,0.5s-0.5,0.7-0.5,1.1c0,0.2,0.1,0.3,0.2,0.6
		c0.1,0.2,0.1,0.4,0.1,0.5l2.5,4.2l8.1-0.5L348.7,286.4z"/>
	<path class="st2" d="M364.3,312.3l-4.5-7.5l-8.3,0.5l8.8,15v18.9c0,0.5,0.2,1,0.5,1.4c0.4,0.3,0.8,0.5,1.4,0.5h4.2
		c0.5,0,1-0.2,1.4-0.5c0.4-0.4,0.6-0.8,0.6-1.4v-18.9l9.8-16.6l-8.9,0.6L364.3,312.3z"/>
	<path class="st2" d="M35.6,401.4c-1.8,1.5-4.3,2.3-7.7,2.3H13.2v-7.6l-7.8-1.3v39.3c0,0.5,0.2,1,0.5,1.4c0.4,0.3,0.8,0.5,1.4,0.5
		h22.6c3.7,0,6.9-0.7,9.6-2.2c2.7-1.4,4.7-3.4,6-5.8c1.4-2.5,2.1-5.2,2.1-8.2c0-3-0.8-5.7-2.3-8.1c-1.5-2.3-3.4-4.1-5.7-5.2
		c1.9-0.9,3.5-2.3,4.8-4.3c0.2-0.3,0.4-0.7,0.6-1.1l-8-1.3C36.5,400.4,36.1,400.9,35.6,401.4z M36.6,426.8c-1.9,1.8-4.5,2.7-7.8,2.7
		H13.2v-19.4h15.5c3.4,0,6,0.9,7.8,2.7c1.9,1.8,2.9,4.1,2.9,7C39.4,422.7,38.5,425,36.6,426.8z"/>
	<path class="st2" d="M42,384.1c-2.9-2.7-7.2-4.1-12.9-4.1H7.2c-0.5,0-1,0.2-1.4,0.6c-0.1,0.1-0.1,0.1-0.1,0.2l38.6,6.2
		C43.6,385.9,42.9,384.9,42,384.1z"/>
	<path class="st2" d="M58.8,434.2c0,0.5,0.2,1,0.5,1.4c0.4,0.3,0.8,0.5,1.4,0.5h32.6c0.5,0,1-0.2,1.4-0.5c0.4-0.4,0.6-0.8,0.6-1.4
		V431c0-0.6-0.2-1-0.6-1.4c-0.3-0.4-0.8-0.6-1.4-0.6H66.7v-24.4l-7.9-1.3V434.2z"/>
	<path class="st2" d="M66.7,381.8c0-0.5-0.2-1-0.6-1.3c-0.3-0.4-0.7-0.6-1.3-0.6h-4.2c-0.5,0-1,0.2-1.4,0.6
		c-0.3,0.3-0.5,0.7-0.5,1.3v7.4l7.9,1.3V381.8z"/>
	<path class="st2" d="M123.7,388l4.7,12.3l8.2,1.3l-7.6-19.9c-0.4-1.2-1.3-1.8-2.6-1.8H121c-1.3,0-2.1,0.6-2.6,1.8l-6.1,16l7.3,1.2
		L123.7,388z"/>
	<path class="st2" d="M134.5,416.4h-21.6l1.6-4.1l-7.3-1.2l-8.6,22.4c-0.1,0.2-0.1,0.5-0.1,0.9s0.2,0.8,0.5,1.1
		c0.3,0.3,0.7,0.5,1.1,0.5h4.1c0.5,0,1-0.1,1.3-0.4c0.4-0.3,0.6-0.6,0.7-1l4.4-11.4h26.2l4.4,11.4c0.1,0.3,0.3,0.6,0.6,1
		c0.3,0.3,0.8,0.4,1.4,0.4h4.1c0.4,0,0.8-0.2,1.1-0.5c0.3-0.3,0.5-0.7,0.5-1.1l-0.2-0.9l-6.4-16.8l-8.2-1.3L134.5,416.4z"/>
	<path class="st2" d="M184.7,427.7c-2.2,1.5-5.6,2.3-10,2.3c-4.1,0-7.3-0.8-9.6-2.4c-2.2-1.6-3.6-3.5-4.1-5.8
		c-0.4-1.1-1.1-1.6-2.1-1.6h-4.1c-0.5,0-0.9,0.2-1.3,0.6c-0.3,0.3-0.5,0.7-0.5,1.1c0.1,2.6,1,5.1,2.7,7.4c1.7,2.2,4.2,4.1,7.4,5.4
		c3.3,1.4,7.1,2.1,11.5,2.1c6.5,0,11.7-1.4,15.5-4.2c2.6-1.9,4.3-4.4,5.2-7.3l-7.8-1.2C187,425.5,186.1,426.7,184.7,427.7z"/>
	<path class="st2" d="M188.2,408.6c-2.6-1.3-6.2-2.6-10.7-3.8c-3.9-1.1-6.9-2.1-8.9-3c-2-0.9-3.5-1.9-4.6-3.1
		c-1-1.2-1.4-2.7-1.4-4.5c0-2.7,1-4.8,3.1-6.2c2.1-1.4,4.9-2.1,8.6-2.1c3.3,0,6.1,0.7,8.2,2.2c2.2,1.4,3.4,3.3,3.8,5.5
		c0.3,1,1,1.5,2.1,1.5h4.2c0.5,0,0.9-0.2,1.2-0.5c0.3-0.3,0.5-0.7,0.5-1.1c-0.1-2.2-0.9-4.5-2.5-6.7c-1.5-2.2-3.8-4.1-6.8-5.5
		c-3-1.5-6.6-2.2-10.7-2.2c-4.1,0-7.5,0.7-10.5,2c-2.9,1.3-5.2,3.1-6.8,5.4c-1.5,2.3-2.3,4.9-2.3,7.8c0,3,0.6,5.5,1.8,7.4
		c0.8,1.4,2,2.6,3.4,3.6l31.1,5C190.2,409.7,189.3,409.2,188.2,408.6z"/>
	<path class="st2" d="M218.1,434.2c0,0.5,0.2,1,0.5,1.4c0.4,0.3,0.8,0.5,1.4,0.5h4.2c0.5,0,1-0.2,1.4-0.5c0.4-0.4,0.6-0.8,0.6-1.4
		v-4l-7.9-1.3V434.2z"/>
	<path class="st2" d="M226,387.1h15.3c0.5,0,1-0.2,1.4-0.5c0.4-0.4,0.6-0.8,0.6-1.4v-3.4c0-0.6-0.2-1-0.6-1.4
		c-0.3-0.4-0.8-0.6-1.4-0.6h-38.6c-0.5,0-1,0.2-1.4,0.6c-0.3,0.4-0.5,0.8-0.5,1.4v3.4c0,0.5,0.2,1,0.5,1.4c0.4,0.3,0.8,0.5,1.4,0.5
		h15.4v27.6l7.9,1.3V387.1z"/>
	<path class="st2" d="M9.7,516.8c-0.4-1.1-1.1-1.6-2.1-1.6H3.5c-0.5,0-0.9,0.2-1.3,0.6c-0.3,0.3-0.5,0.7-0.5,1.1
		c0,1,0.2,1.9,0.5,2.9l7.9-1.6C9.9,517.8,9.8,517.3,9.7,516.8z"/>
	<path class="st2" d="M23.4,531.8c6.5,0,11.7-1.4,15.5-4.2c0.4-0.3,0.9-0.7,1.3-1l-23.4,4.7C18.7,531.6,21,531.8,23.4,531.8z"/>
	<path class="st2" d="M42.7,508.5c-1.3-2-3.2-3.6-5.8-4.9c-2.6-1.3-6.2-2.6-10.7-3.8c-3.9-1.1-6.9-2.1-8.9-3c-2-0.9-3.5-1.9-4.6-3.1
		c-1-1.2-1.4-2.7-1.4-4.5c0-2.7,1-4.8,3.1-6.2c2.1-1.4,4.9-2.1,8.6-2.1c3.3,0,6.1,0.7,8.2,2.2c2.2,1.4,3.4,3.3,3.8,5.5
		c0.3,1,1,1.5,2.1,1.5h4.2c0.5,0,0.9-0.2,1.2-0.5c0.3-0.3,0.5-0.7,0.5-1.1c-0.1-2.2-0.9-4.5-2.5-6.7c-1.5-2.2-3.8-4.1-6.8-5.5
		c-3-1.5-6.6-2.2-10.7-2.2c-4.1,0-7.5,0.7-10.5,2c-2.9,1.3-5.2,3.1-6.8,5.4c-1.5,2.3-2.3,4.9-2.3,7.8c0,3,0.6,5.5,1.8,7.4
		c1.2,2,3.1,3.6,5.5,5s5.8,2.6,9.9,3.8c4.3,1.3,7.5,2.3,9.6,3.2c2.1,0.9,3.7,1.8,4.8,3c0.4,0.4,0.7,0.9,1,1.4l8-1.6
		C43.7,510.4,43.3,509.4,42.7,508.5z"/>
	<path class="st2" d="M49.1,528.5c-0.1,0.2-0.1,0.5-0.1,0.9s0.2,0.8,0.5,1.1s0.7,0.5,1.1,0.5h4.1c0.5,0,1-0.1,1.3-0.4
		c0.4-0.3,0.6-0.6,0.7-1l2.7-6.9l-8.7,1.7L49.1,528.5z"/>
	<path class="st2" d="M87.3,518.3l4.4,11.4c0.1,0.3,0.3,0.6,0.6,1c0.3,0.3,0.8,0.4,1.4,0.4h4.1c0.4,0,0.8-0.2,1.1-0.5
		c0.3-0.3,0.5-0.7,0.5-1.1l-0.2-0.9l-4.9-12.8l-12.7,2.5H87.3z"/>
	<path class="st2" d="M74.2,483l8,20.9l7.2-1.4l-9.8-25.7c-0.4-1.2-1.3-1.8-2.6-1.8h-5.4c-1.3,0-2.1,0.6-2.6,1.8L56.6,509l8.4-1.7
		L74.2,483z"/>
	<path class="st2" d="M117.1,529.2c0,0.5,0.2,1,0.5,1.4c0.4,0.3,0.8,0.5,1.4,0.5h4.2c0.5,0,1-0.2,1.4-0.5c0.4-0.4,0.6-0.8,0.6-1.4
		v-18.9l0.4-0.7l-8.3,1.7V529.2z"/>
	<path class="st2" d="M105.4,476.4c-0.5-0.9-1.2-1.4-2.1-1.4h-4.2c-0.4,0-0.8,0.2-1.1,0.5s-0.5,0.7-0.5,1.1c0,0.2,0.1,0.3,0.2,0.6
		c0.1,0.2,0.1,0.4,0.1,0.5l12.2,20.7l7.7-1.5L105.4,476.4z"/>
	<path class="st2" d="M144.2,477.6c0.2-0.4,0.3-0.8,0.3-1c0-0.4-0.2-0.8-0.5-1.1s-0.7-0.5-1.2-0.5h-4.1c-0.9,0-1.6,0.5-2.2,1.4
		l-11.4,19l9.8-1.9L144.2,477.6z"/>
	<path class="st1" d="M44.2,592.2c1.4-2,2.1-4.5,2.1-7.4c0-4.4-1.4-8-4.3-10.7c-2.9-2.7-7.2-4.1-12.9-4.1H7.2c-0.5,0-1,0.2-1.4,0.6
		c-0.3,0.3-0.5,0.8-0.5,1.4v52.2c0,0.5,0.2,1,0.5,1.4c0.4,0.3,0.8,0.5,1.4,0.5h22.6c3.7,0,6.9-0.7,9.6-2.2c2.7-1.4,4.7-3.4,6-5.8
		c1.4-2.5,2.1-5.2,2.1-8.2c0-3-0.8-5.7-2.3-8.1c-1.5-2.3-3.4-4.1-5.7-5.2C41.3,595.7,42.9,594.2,44.2,592.2z M13.2,576.5h14.7
		c3.4,0,6,0.7,7.8,2.2c1.8,1.4,2.6,3.5,2.6,6.2c0,2.8-0.9,4.9-2.7,6.5c-1.8,1.5-4.3,2.3-7.7,2.3H13.2V576.5z M36.6,616.8
		c-1.9,1.8-4.5,2.7-7.8,2.7H13.2v-19.4h15.5c3.4,0,6,0.9,7.8,2.7c1.9,1.8,2.9,4.1,2.9,7C39.4,612.7,38.5,615,36.6,616.8z"/>
	<path class="st1" d="M66.2,570.6c-0.3-0.4-0.7-0.6-1.3-0.6h-4.2c-0.5,0-1,0.2-1.4,0.6c-0.3,0.3-0.5,0.7-0.5,1.3v52.3
		c0,0.5,0.2,1,0.5,1.4c0.4,0.3,0.8,0.5,1.4,0.5h32.6c0.5,0,1-0.2,1.4-0.5c0.4-0.4,0.6-0.8,0.6-1.4V621c0-0.6-0.2-1-0.6-1.4
		c-0.3-0.4-0.8-0.6-1.4-0.6H66.7v-47.2C66.7,571.3,66.5,570.9,66.2,570.6z"/>
	<path class="st1" d="M123.3,569.2c-6.7,0-12.1,1.9-16,5.7c-3.9,3.7-6,9.2-6.2,16.4c-0.1,1.5-0.1,3.8-0.1,6.7s0,5.2,0.1,6.8
		c0.2,7.4,2.2,12.9,6,16.6c3.8,3.6,9.3,5.4,16.2,5.4c6.9,0,12.3-1.8,16.1-5.4c3.8-3.7,5.9-9.2,6.1-16.6c0.1-3.2,0.2-5.5,0.2-6.8
		c0-1.4-0.1-3.6-0.2-6.7c-0.2-7.2-2.3-12.7-6.2-16.4C135.2,571.1,129.9,569.2,123.3,569.2z M137.4,604.4c-0.2,5.3-1.6,9.2-4.1,11.8
		c-2.5,2.6-5.9,3.8-10.1,3.8c-4.2,0-7.6-1.3-10.2-3.8c-2.5-2.6-3.9-6.5-4.1-11.8c-0.1-1.6-0.1-3.7-0.1-6.4c0-2.7,0-4.9,0.1-6.4
		c0.2-5.3,1.6-9.2,4.1-11.8c2.6-2.6,5.9-3.8,10.2-3.8c4.2,0,7.5,1.3,10,3.8c2.6,2.6,3.9,6.5,4.2,11.8c0.1,3.1,0.2,5.2,0.2,6.4
		C137.6,599.1,137.5,601.2,137.4,604.4z"/>
	<path class="st1" d="M177.4,576c3.9,0,7.1,0.8,9.4,2.5c2.3,1.6,4,4.4,4.9,8.4c0.3,1.2,0.9,1.8,2,1.8h4.4c0.4,0,0.8-0.1,1.1-0.4
		c0.4-0.3,0.6-0.7,0.6-1.1V587c-0.2-3.1-1.1-6-2.8-8.7c-1.7-2.7-4.2-4.9-7.5-6.6c-3.3-1.7-7.3-2.6-12.1-2.6
		c-7.1,0-12.5,1.9-16.2,5.8c-3.7,3.8-5.7,9.1-6,15.8c-0.1,1.5-0.1,3.9-0.1,7.2c0,3.3,0,5.6,0.1,7c0.3,6.8,2.2,12.1,5.9,15.9
		c3.7,3.8,9.2,5.8,16.3,5.8c4.7,0,8.8-0.8,12.1-2.5c3.3-1.7,5.8-3.9,7.5-6.6c1.7-2.7,2.6-5.7,2.8-8.8c0.1-0.5-0.1-0.9-0.5-1.1
		c-0.3-0.3-0.7-0.5-1.2-0.5h-4.4c-0.5,0-1,0.1-1.3,0.4c-0.3,0.3-0.6,0.7-0.7,1.4c-0.9,4-2.5,6.8-4.9,8.5c-2.3,1.6-5.5,2.4-9.4,2.4
		c-9.2,0-13.9-5.1-14.2-15.3c-0.1-1.5-0.1-3.8-0.1-6.8s0-5.2,0.1-6.6C163.5,581.1,168.2,576,177.4,576z"/>
	<path class="st1" d="M217.7,570.6c-0.3-0.4-0.8-0.6-1.4-0.6h-4c-0.5,0-1,0.2-1.4,0.6c-0.3,0.3-0.5,0.8-0.5,1.4v52.2
		c0,0.5,0.2,1,0.5,1.4c0.4,0.3,0.8,0.5,1.4,0.5h4c0.5,0,1-0.2,1.4-0.5c0.4-0.4,0.6-0.8,0.6-1.4v-22l22.9,22.5
		c0.9,0.9,1.9,1.4,3.1,1.4h4.5c0.4,0,0.8-0.2,1.1-0.5s0.5-0.7,0.5-1.1s-0.1-0.8-0.4-1.1l-26.3-26.5l24.7-24.2c0.2-0.3,0.3-0.6,0.3-1
		s-0.2-0.8-0.5-1.1s-0.7-0.5-1.1-0.5h-4.3c-1.2,0-2.3,0.4-3.1,1.3l-21.4,20.5v-19.8C218.3,571.3,218.1,570.9,217.7,570.6z"/>
	<path class="st1" d="M259.5,621c3.7,3.8,9.2,5.8,16.3,5.8c4.7,0,8.8-0.8,12.1-2.5c3.3-1.7,5.8-3.9,7.5-6.6c1.7-2.7,2.6-5.7,2.8-8.8
		c0.1-0.5-0.1-0.9-0.5-1.1c-0.3-0.3-0.7-0.5-1.2-0.5h-4.4c-0.5,0-1,0.1-1.3,0.4c-0.3,0.3-0.6,0.7-0.7,1.4c-0.9,4-2.5,6.8-4.9,8.5
		c-2.3,1.6-5.5,2.4-9.4,2.4c-9.2,0-13.9-5.1-14.2-15.3c-0.1-1.5-0.1-3.8-0.1-6.8s0-5.2,0.1-6.6c0.3-10.2,5.1-15.3,14.2-15.3
		c3.9,0,7.1,0.8,9.4,2.5c2.3,1.6,4,4.4,4.9,8.4c0.3,1.2,0.9,1.8,2,1.8h4.4c0.4,0,0.8-0.1,1.1-0.4c0.4-0.3,0.6-0.7,0.6-1.1V587
		c-0.2-3.1-1.1-6-2.8-8.7c-1.7-2.7-4.2-4.9-7.5-6.6c-3.3-1.7-7.3-2.6-12.1-2.6c-7.1,0-12.5,1.9-16.2,5.8c-3.7,3.8-5.7,9.1-6,15.8
		c-0.1,1.5-0.1,3.9-0.1,7.2c0,3.3,0,5.6,0.1,7C253.9,611.9,255.8,617.2,259.5,621z"/>
	<path class="st1" d="M344.8,625.5c0.4,0.3,0.8,0.5,1.4,0.5h4.1c0.5,0,1-0.2,1.4-0.5c0.4-0.4,0.6-0.8,0.6-1.4v-52.2
		c0-0.6-0.2-1-0.6-1.4c-0.3-0.4-0.8-0.6-1.4-0.6h-4.1c-0.5,0-1,0.2-1.4,0.6c-0.3,0.3-0.5,0.8-0.5,1.4V594h-27.5v-22.1
		c0-0.6-0.2-1-0.6-1.4c-0.3-0.4-0.8-0.6-1.4-0.6h-4.1c-0.5,0-1,0.2-1.4,0.6c-0.3,0.3-0.5,0.8-0.5,1.4v52.2c0,0.5,0.2,1,0.5,1.4
		c0.4,0.3,0.8,0.5,1.4,0.5h4.1c0.5,0,1-0.2,1.4-0.5c0.4-0.4,0.6-0.8,0.6-1.4v-23h27.5v23C344.3,624.7,344.5,625.1,344.8,625.5z"/>
	<path class="st1" d="M388.6,570h-5.4c-1.3,0-2.1,0.6-2.6,1.8l-19.8,51.8c-0.1,0.2-0.1,0.5-0.1,0.9s0.2,0.8,0.5,1.1s0.7,0.5,1.1,0.5
		h4.1c0.5,0,1-0.1,1.3-0.4c0.4-0.3,0.6-0.6,0.7-1l4.4-11.4H399l4.4,11.4c0.1,0.3,0.3,0.6,0.6,1c0.3,0.3,0.8,0.4,1.4,0.4h4.1
		c0.4,0,0.8-0.2,1.1-0.5s0.5-0.7,0.5-1.1l-0.2-0.9l-19.8-51.8C390.8,570.6,389.9,570,388.6,570z M375.1,606.4l10.8-28.4l10.8,28.4
		H375.1z"/>
	<path class="st1" d="M421.5,570c-0.5,0-1,0.2-1.4,0.6c-0.3,0.3-0.5,0.7-0.5,1.3v52.3c0,0.5,0.2,1,0.5,1.4c0.4,0.3,0.8,0.5,1.4,0.5
		h4.2c0.5,0,1-0.2,1.3-0.5c0.4-0.4,0.6-0.8,0.6-1.4v-52.3c0-0.5-0.2-1-0.6-1.3c-0.3-0.4-0.7-0.6-1.3-0.6H421.5z"/>
	<path class="st1" d="M477.5,570c-0.5,0-1,0.2-1.4,0.6c-0.3,0.3-0.5,0.8-0.5,1.4v40l-26.6-40.8c-0.4-0.7-1-1.1-2-1.1h-3.7
		c-0.5,0-1,0.2-1.4,0.6c-0.3,0.3-0.5,0.8-0.5,1.4v52.2c0,0.5,0.2,1,0.5,1.4c0.4,0.3,0.8,0.5,1.4,0.5h3.8c0.5,0,1-0.2,1.4-0.5
		c0.4-0.4,0.6-0.8,0.6-1.4v-39.7l26.5,40.4c0.5,0.7,1.1,1.1,1.9,1.1h3.8c0.5,0,1-0.2,1.3-0.6c0.4-0.4,0.6-0.8,0.6-1.4v-52.2
		c0-0.6-0.2-1-0.6-1.4c-0.3-0.4-0.8-0.6-1.4-0.6H477.5z"/>
	<path class="st1" d="M518.6,626h4.2c0.5,0,1-0.2,1.3-0.5c0.4-0.4,0.6-0.8,0.6-1.4v-52.3c0-0.5-0.2-1-0.6-1.3
		c-0.3-0.4-0.7-0.6-1.3-0.6h-4.2c-0.5,0-1,0.2-1.4,0.6c-0.3,0.3-0.5,0.7-0.5,1.3v52.3c0,0.5,0.2,1,0.5,1.4
		C517.6,625.8,518.1,626,518.6,626z"/>
	<path class="st1" d="M540.5,626h3.8c0.5,0,1-0.2,1.4-0.5c0.4-0.4,0.6-0.8,0.6-1.4v-39.7l26.5,40.4c0.5,0.7,1.1,1.1,1.9,1.1h3.8
		c0.5,0,1-0.2,1.3-0.6c0.4-0.4,0.6-0.8,0.6-1.4v-52.2c0-0.6-0.2-1-0.6-1.4c-0.3-0.4-0.8-0.6-1.4-0.6h-3.8c-0.5,0-1,0.2-1.4,0.6
		c-0.3,0.3-0.5,0.8-0.5,1.4v40l-26.6-40.8c-0.4-0.7-1-1.1-2-1.1h-3.7c-0.5,0-1,0.2-1.4,0.6c-0.3,0.3-0.5,0.8-0.5,1.4v52.2
		c0,0.5,0.2,1,0.5,1.4C539.5,625.8,539.9,626,540.5,626z"/>
	<path class="st2" d="M36.9,692.6c-2.6-1.3-6.2-2.6-10.7-3.8c-3.9-1.1-6.9-2.1-8.9-3c-2-0.9-3.5-1.9-4.6-3.1c-1-1.2-1.4-2.7-1.4-4.5
		c0-2.7,1-4.8,3.1-6.2c2.1-1.4,4.9-2.1,8.6-2.1c3.3,0,6.1,0.7,8.2,2.2c2.2,1.4,3.4,3.3,3.8,5.5c0.3,1,1,1.5,2.1,1.5h4.2
		c0.5,0,0.9-0.2,1.2-0.5c0.3-0.3,0.5-0.7,0.5-1.1c-0.1-2.2-0.9-4.5-2.5-6.7c-1.5-2.2-3.8-4.1-6.8-5.5c-3-1.5-6.6-2.2-10.7-2.2
		c-4.1,0-7.5,0.7-10.5,2c-2.9,1.3-5.2,3.1-6.8,5.4c-1.5,2.3-2.3,4.9-2.3,7.8c0,3,0.6,5.5,1.8,7.4c1.2,2,3.1,3.6,5.5,5
		c2.5,1.3,5.8,2.6,9.9,3.8c2.9,0.9,5.3,1.6,7.2,2.3l13.8-0.7C40.4,694.8,38.9,693.6,36.9,692.6z"/>
	<path class="st2" d="M33.4,711.7c-2.2,1.5-5.6,2.3-10,2.3c-4.1,0-7.3-0.8-9.6-2.4c0,0-0.1-0.1-0.1-0.1l-10,0.5
		c0.3,0.4,0.5,0.9,0.9,1.3c1.7,2.2,4.2,4.1,7.4,5.4c3.3,1.4,7.1,2.1,11.5,2.1c6.5,0,11.7-1.4,15.5-4.2c2.4-1.8,4-3.9,4.9-6.5
		l-9.1,0.4C34.3,710.9,33.9,711.3,33.4,711.7z"/>
	<path class="st2" d="M74.2,672l8.4,22.2l7.6-0.4l-10.7-28c-0.4-1.2-1.3-1.8-2.6-1.8h-5.4c-1.3,0-2.1,0.6-2.6,1.8l-11.4,29.6
		l7.9-0.4L74.2,672z"/>
	<path class="st2" d="M49.1,717.5c-0.1,0.2-0.1,0.5-0.1,0.9s0.2,0.8,0.5,1.1s0.7,0.5,1.1,0.5h4.1c0.5,0,1-0.1,1.3-0.4
		c0.4-0.3,0.6-0.6,0.7-1l3.6-9.4l-8.2,0.4L49.1,717.5z"/>
	<path class="st2" d="M91.7,718.6c0.1,0.3,0.3,0.6,0.6,1c0.3,0.3,0.8,0.4,1.4,0.4h4.1c0.4,0,0.8-0.2,1.1-0.5
		c0.3-0.3,0.5-0.7,0.5-1.1l-0.2-0.9l-3.8-10l-7.9,0.4L91.7,718.6z"/>
	<path class="st2" d="M142,705.9l-0.4-0.6l-8.2,0.4l8.6,13.2c0.5,0.7,1.1,1.1,1.9,1.1h3.8c0.5,0,1-0.2,1.3-0.6
		c0.4-0.4,0.6-0.8,0.6-1.4v-13.1l-7.6,0.4V705.9z"/>
	<path class="st2" d="M149.6,665.9c0-0.6-0.2-1-0.6-1.4c-0.3-0.4-0.8-0.6-1.4-0.6h-3.8c-0.5,0-1,0.2-1.4,0.6
		c-0.3,0.3-0.5,0.8-0.5,1.4v25.4l7.6-0.4V665.9z"/>
	<path class="st2" d="M115.5,678.5l9,13.7l8.3-0.4l-17.3-26.6c-0.4-0.7-1-1.1-2-1.1h-3.7c-0.5,0-1,0.2-1.4,0.6
		c-0.3,0.3-0.5,0.8-0.5,1.4v27l7.6-0.4V678.5z"/>
	<path class="st2" d="M107.9,718.2c0,0.5,0.2,1,0.5,1.4c0.4,0.3,0.8,0.5,1.4,0.5h3.8c0.5,0,1-0.2,1.4-0.5c0.4-0.4,0.6-0.8,0.6-1.4
		v-11.6l-7.6,0.4V718.2z"/>
	<path class="st2" d="M183.2,718.2c0,0.5,0.2,1,0.5,1.4c0.4,0.3,0.8,0.5,1.4,0.5h4c0.5,0,1-0.2,1.4-0.5c0.4-0.4,0.6-0.8,0.6-1.4
		v-15.2l-7.8,0.4V718.2z"/>
	<path class="st2" d="M190.9,671h26.7c0.6,0,1-0.2,1.4-0.5c0.4-0.4,0.6-0.8,0.6-1.4v-3.2c0-0.6-0.2-1-0.6-1.4
		c-0.3-0.4-0.8-0.6-1.4-0.6H185c-0.5,0-1,0.2-1.4,0.6c-0.3,0.3-0.5,0.8-0.5,1.4v23.4l7.8-0.4V671z"/>
	<path class="st2" d="M229.9,718.2c0,0.5,0.2,1,0.5,1.4c0.4,0.3,0.8,0.5,1.4,0.5h4.1c0.5,0,1-0.2,1.4-0.5c0.4-0.4,0.6-0.8,0.6-1.4
		v-17.5l-7.8,0.4V718.2z"/>
	<path class="st2" d="M263.3,717.8c0.4,0.7,0.8,1.2,1.2,1.6c0.5,0.4,1.1,0.6,1.9,0.6h3.8c0.4,0,0.8-0.2,1.1-0.5
		c0.4-0.3,0.6-0.7,0.6-1.1c0-0.3-0.1-0.6-0.2-0.9l-10.4-18l-8.2,0.4L263.3,717.8z"/>
	<path class="st2" d="M237.7,670.7h13.2c7.9,0,11.9,3.3,11.9,10c0,1.9-0.3,3.4-0.9,4.8l8.5-0.4c0.3-1.3,0.4-2.8,0.4-4.3
		c0-5.4-1.7-9.6-5.2-12.5c-3.5-2.9-8.3-4.3-14.4-4.3h-19.5c-0.5,0-1,0.2-1.4,0.6c-0.3,0.3-0.5,0.8-0.5,1.4V687l7.8-0.4V670.7z"/>
	<path class="st2" d="M313,700.4h-21.6l0.9-2.3l-7.9,0.4l-7.3,19.1c-0.1,0.2-0.1,0.5-0.1,0.9s0.2,0.8,0.5,1.1s0.7,0.5,1.1,0.5h4.1
		c0.5,0,1-0.1,1.3-0.4c0.4-0.3,0.6-0.6,0.7-1l4.4-11.4h26.2l4.4,11.4c0.1,0.3,0.3,0.6,0.6,1c0.3,0.3,0.8,0.4,1.4,0.4h4.1
		c0.4,0,0.8-0.2,1.1-0.5s0.5-0.7,0.5-1.1l-0.2-0.9l-7.9-20.8l-7.6,0.4L313,700.4z"/>
	<path class="st2" d="M302.2,672l4.3,11.3l7.5-0.4l-6.6-17.2c-0.4-1.2-1.3-1.8-2.6-1.8h-5.4c-1.3,0-2.1,0.6-2.6,1.8l-7,18.4l7.9-0.4
		L302.2,672z"/>
	<path class="st2" d="M343.5,678.5l2,3l8.3-0.4l-10.4-15.9c-0.4-0.7-1-1.1-2-1.1h-3.7c-0.5,0-1,0.2-1.4,0.6
		c-0.3,0.3-0.5,0.8-0.5,1.4v16l7.6-0.4V678.5z"/>
	<path class="st2" d="M370,705.9l-7.3-11.3l-8.3,0.4l15.6,23.8c0.5,0.7,1.1,1.1,1.9,1.1h3.8c0.5,0,1-0.2,1.3-0.6
		c0.4-0.4,0.6-0.8,0.6-1.4v-24.2l-7.6,0.4V705.9z"/>
	<path class="st2" d="M377.6,665.9c0-0.6-0.2-1-0.6-1.4c-0.3-0.4-0.8-0.6-1.4-0.6h-3.8c-0.5,0-1,0.2-1.4,0.6
		c-0.3,0.3-0.5,0.8-0.5,1.4v14.4l7.6-0.4V665.9z"/>
	<path class="st2" d="M335.9,718.2c0,0.5,0.2,1,0.5,1.4c0.4,0.3,0.8,0.5,1.4,0.5h3.8c0.5,0,1-0.2,1.4-0.5c0.4-0.4,0.6-0.8,0.6-1.4
		v-22.6l-7.6,0.4V718.2z"/>
	<path class="st2" d="M389.5,699.1c0.3,6.8,2.2,12.1,5.9,15.9c3.7,3.8,9.2,5.8,16.3,5.8c4.7,0,8.8-0.8,12.1-2.5
		c3.3-1.7,5.8-3.9,7.5-6.6c1.7-2.7,2.6-5.7,2.8-8.8c0.1-0.5-0.1-0.9-0.5-1.1c-0.3-0.3-0.7-0.5-1.2-0.5H428c-0.5,0-1,0.1-1.3,0.4
		c-0.3,0.3-0.6,0.7-0.7,1.4c-0.9,4-2.5,6.8-4.9,8.5c-2.3,1.6-5.5,2.4-9.4,2.4c-9.2,0-13.9-5.1-14.2-15.3c0-1.4-0.1-3.3-0.1-5.7
		l-8,0.4C389.4,696,389.4,697.9,389.5,699.1z"/>
	<path class="st2" d="M411.7,670c3.9,0,7.1,0.8,9.4,2.5c1.6,1.1,2.9,2.8,3.9,5.1l8.5-0.4c-0.5-1.7-1.2-3.3-2.2-4.9
		c-1.7-2.7-4.2-4.9-7.5-6.6c-3.3-1.7-7.3-2.6-12.1-2.6c-7.1,0-12.5,1.9-16.2,5.8c-2.6,2.7-4.4,6.1-5.3,10.3l8.3-0.4
		C400.3,673,404.7,670,411.7,670z"/>
	<path class="st2" d="M452.7,665.8c0-0.5-0.2-1-0.6-1.3c-0.3-0.4-0.7-0.6-1.3-0.6h-4.2c-0.5,0-1,0.2-1.4,0.6
		c-0.3,0.3-0.5,0.7-0.5,1.3v10.8l7.9-0.4V665.8z"/>
	<path class="st2" d="M444.8,718.2c0,0.5,0.2,1,0.5,1.4c0.4,0.3,0.8,0.5,1.4,0.5h4.2c0.5,0,1-0.2,1.3-0.5c0.4-0.4,0.6-0.8,0.6-1.4
		v-27.9l-7.9,0.4V718.2z"/>
	<path class="st2" d="M475.7,672.1c2.1-1.4,4.9-2.1,8.6-2.1c3.3,0,6.1,0.7,8.2,2.2c0.9,0.6,1.7,1.3,2.2,2l8.6-0.4
		c-0.4-1-0.9-1.9-1.6-2.9c-1.5-2.2-3.8-4.1-6.8-5.5c-3-1.5-6.6-2.2-10.7-2.2c-4.1,0-7.5,0.7-10.5,2c-2.9,1.3-5.2,3.1-6.8,5.4
		c-1.1,1.6-1.7,3.3-2.1,5.1l8.2-0.4C473.6,674,474.5,672.9,475.7,672.1z"/>
	<path class="st2" d="M472,690.7c2.5,1.3,5.8,2.6,9.9,3.8c4.3,1.3,7.5,2.3,9.6,3.2c2.1,0.9,3.7,1.8,4.8,3c1.1,1.1,1.7,2.6,1.7,4.4
		c0,2.8-1.1,5-3.4,6.6c-2.2,1.5-5.6,2.3-10,2.3c-4.1,0-7.3-0.8-9.6-2.4c-2.2-1.6-3.6-3.5-4.1-5.8c-0.4-1.1-1.1-1.6-2.1-1.6h-4.1
		c-0.5,0-0.9,0.2-1.3,0.6c-0.3,0.3-0.5,0.7-0.5,1.1c0.1,2.6,1,5.1,2.7,7.4c1.7,2.2,4.2,4.1,7.4,5.4c3.3,1.4,7.1,2.1,11.5,2.1
		c6.5,0,11.7-1.4,15.5-4.2c3.8-2.8,5.8-6.7,5.8-11.7c0-3-0.6-5.4-1.9-7.4c-1.3-2-3.2-3.6-5.8-4.9c-2.6-1.3-6.2-2.6-10.7-3.8
		c-0.2-0.1-0.4-0.1-0.5-0.2l-16.9,0.8C470.7,689.9,471.3,690.3,472,690.7z"/>
	<path class="st2" d="M514.3,692.1c0,3.3,0,5.6,0.1,7c0.3,6.8,2.2,12.1,5.9,15.9c3.7,3.8,9.2,5.8,16.3,5.8c4.7,0,8.8-0.8,12.1-2.5
		c3.3-1.7,5.8-3.9,7.5-6.6c1.7-2.7,2.6-5.7,2.8-8.8c0.1-0.5-0.1-0.9-0.5-1.1c-0.3-0.3-0.7-0.5-1.2-0.5h-4.4c-0.5,0-1,0.1-1.3,0.4
		c-0.3,0.3-0.6,0.7-0.7,1.4c-0.9,4-2.5,6.8-4.9,8.5c-2.3,1.6-5.5,2.4-9.4,2.4c-9.2,0-13.9-5.1-14.2-15.3c-0.1-1.5-0.1-3.8-0.1-6.8
		c0-2,0-3.7,0-5l-8,0.4C514.3,688.6,514.3,690.2,514.3,692.1z"/>
	<path class="st2" d="M536.6,670c3.4,0,6.2,0.6,8.4,1.8l10.5-0.5c-1.7-2.3-3.9-4.1-6.8-5.6c-3.3-1.7-7.3-2.6-12.1-2.6
		c-7.1,0-12.5,1.9-16.2,5.8c-1.2,1.2-2.2,2.6-3,4.1l10.1-0.5C529.7,670.9,532.8,670,536.6,670z"/>
	<path class="st2" d="M611.9,682.6l-8.1,0.4c0.1,0.8,0.2,1.7,0.2,2.6c0.1,3.1,0.2,5.2,0.2,6.4c0,1.1-0.1,3.2-0.2,6.4
		c-0.2,5.3-1.6,9.2-4.1,11.8c-2.5,2.6-5.9,3.8-10.1,3.8s-7.6-1.3-10.2-3.8c-2.5-2.6-3.9-6.5-4.1-11.8c-0.1-1.6-0.1-3.7-0.1-6.4
		c0-2.7,0-4.9,0.1-6.4c0-0.4,0.1-0.8,0.1-1.2l-8.1,0.4c0,0.2,0,0.4,0,0.5c-0.1,1.5-0.1,3.8-0.1,6.7s0,5.2,0.1,6.8
		c0.2,7.4,2.2,12.9,6,16.6c3.8,3.6,9.3,5.4,16.2,5.4c6.9,0,12.3-1.8,16.1-5.4c3.8-3.7,5.9-9.2,6.1-16.6c0.1-3.2,0.2-5.5,0.2-6.8
		c0-1.4-0.1-3.6-0.2-6.7C612,684.4,612,683.5,611.9,682.6z"/>
	<path class="st2" d="M605.8,668.9c-3.9-3.8-9.3-5.7-15.9-5.7c-6.7,0-12.1,1.9-16,5.7c-0.5,0.5-1,1.1-1.5,1.6L605.8,668.9
		C605.8,668.9,605.8,668.9,605.8,668.9z"/>
	<path class="st2" d="M5.4,813.2c0,0.5,0.2,1,0.5,1.4c0.4,0.3,0.8,0.5,1.4,0.5h32.6c0.5,0,1-0.2,1.4-0.5c0.4-0.4,0.6-0.8,0.6-1.4
		V810c0-0.6-0.2-1-0.6-1.4c-0.3-0.4-0.8-0.6-1.4-0.6H13.3v-24.6l-7.9-0.3V813.2z"/>
	<path class="st2" d="M13.3,760.8c0-0.5-0.2-1-0.6-1.3c-0.3-0.4-0.7-0.6-1.3-0.6H7.2c-0.5,0-1,0.2-1.4,0.6c-0.3,0.3-0.5,0.7-0.5,1.3
		v8.3l7.9,0.3V760.8z"/>
	<path class="st2" d="M59.7,768.8c2.6-2.6,5.9-3.8,10.2-3.8c4.2,0,7.5,1.3,10,3.8c0.9,0.9,1.6,2,2.2,3.2l8.7,0.3
		c-1-3.4-2.7-6.3-5-8.5c-3.9-3.8-9.3-5.7-15.9-5.7c-6.7,0-12.1,1.9-16,5.7c-2,1.9-3.5,4.2-4.5,6.9l8.6,0.3
		C58.4,770.3,59,769.5,59.7,768.8z"/>
	<path class="st2" d="M84.1,787c0,1.1-0.1,3.2-0.2,6.4c-0.2,5.3-1.6,9.2-4.1,11.8S74,809,69.8,809c-4.2,0-7.6-1.3-10.2-3.8
		c-2.5-2.6-3.9-6.5-4.1-11.8c-0.1-1.6-0.1-3.7-0.1-6.4c0-0.7,0-1.4,0-2l-8-0.3c0,0.7,0,1.5,0,2.3c0,2.9,0,5.2,0.1,6.8
		c0.2,7.4,2.2,12.9,6,16.6c3.8,3.6,9.3,5.4,16.2,5.4c6.9,0,12.3-1.8,16.1-5.4c3.8-3.7,5.9-9.2,6.1-16.6c0.1-3.2,0.2-5.5,0.2-6.8
		c0-0.2,0-0.4,0-0.6l-8-0.3C84.1,786.5,84.1,786.8,84.1,787z"/>
	<path class="st2" d="M137.9,800.9l-8.5-13l-8.8-0.3l17.3,26.3c0.5,0.7,1.1,1.1,1.9,1.1h3.8c0.5,0,1-0.2,1.3-0.6
		c0.4-0.4,0.6-0.8,0.6-1.4v-24.6l-7.6-0.3V800.9z"/>
	<path class="st2" d="M103.8,813.2c0,0.5,0.2,1,0.5,1.4c0.4,0.3,0.8,0.5,1.4,0.5h3.8c0.5,0,1-0.2,1.4-0.5c0.4-0.4,0.6-0.8,0.6-1.4
		v-26l-7.6-0.3V813.2z"/>
	<path class="st2" d="M145.5,760.9c0-0.6-0.2-1-0.6-1.4c-0.3-0.4-0.8-0.6-1.4-0.6h-3.8c-0.5,0-1,0.2-1.4,0.6
		c-0.3,0.3-0.5,0.8-0.5,1.4v13.3l7.6,0.3V760.9z"/>
	<path class="st2" d="M111.3,760.1c-0.4-0.7-1-1.1-2-1.1h-3.7c-0.5,0-1,0.2-1.4,0.6c-0.3,0.3-0.5,0.8-0.5,1.4v12l16.2,0.6
		L111.3,760.1z"/>
	<path class="st2" d="M181.2,790.4c0.4,0.3,0.8,0.5,1.4,0.5h12v3.4c0,4.9-1.3,8.6-4,11c-2.7,2.5-6.2,3.7-10.7,3.7
		c-4.4,0-7.9-1.2-10.4-3.6c-2.5-2.5-3.9-6.2-4.1-11.4c0-1.2-0.1-2.8-0.1-4.8l-8-0.3c0,2.4,0,4.2,0.1,5.5c0.3,6.6,2.3,11.8,6.2,15.7
		c3.9,3.8,9.3,5.7,16.3,5.7c4.6,0,8.7-0.9,12.1-2.6c3.4-1.8,6-4.3,7.8-7.6c1.8-3.3,2.7-7.1,2.7-11.4v-3.4l-21.6-0.8
		C180.9,790.1,181,790.3,181.2,790.4z"/>
	<path class="st2" d="M169.4,768.6c2.5-2.4,6-3.6,10.4-3.6c3.8,0,6.9,0.9,9.1,2.6c2.3,1.7,3.8,3.8,4.6,6.2c0.2,0.6,0.4,1,0.6,1.2
		c0.3,0.2,0.7,0.2,1.2,0.2h4.7c0.5,0,0.9-0.1,1.2-0.4c0.3-0.3,0.5-0.6,0.5-1v-0.2c-0.1-2.1-1-4.3-2.6-6.7c-1.7-2.4-4.1-4.4-7.4-6.1
		c-3.3-1.7-7.2-2.6-11.9-2.6c-6.9,0-12.3,1.9-16.2,5.7c-3,2.9-4.9,6.6-5.7,11.1l8.1,0.3C166.6,772.4,167.7,770.2,169.4,768.6z"/>
	<path class="st2" d="M267.6,798.8c0,2.8-1,5.1-2.9,7c-1.9,1.8-4.5,2.7-7.8,2.7h-15.5v-16.3l-7.8-0.3v21.3c0,0.5,0.2,1,0.5,1.4
		c0.4,0.3,0.8,0.5,1.4,0.5h22.6c3.7,0,6.9-0.7,9.6-2.2s4.7-3.4,6-5.8c1.4-2.5,2.1-5.2,2.1-8.2c0-1.9-0.3-3.7-0.9-5.4l-8.8-0.3
		C267,794.7,267.6,796.6,267.6,798.8z"/>
	<path class="st2" d="M241.3,765.5H256c3.4,0,6,0.7,7.8,2.2s2.6,3.5,2.6,6.2c0,2.1-0.5,3.8-1.5,5.2l8.5,0.3c0.7-1.6,1.1-3.5,1.1-5.6
		c0-4.4-1.4-8-4.3-10.7c-2.9-2.7-7.2-4.1-12.9-4.1h-21.9c-0.5,0-1,0.2-1.4,0.6c-0.3,0.3-0.5,0.8-0.5,1.4v16.9l7.8,0.3V765.5z"/>
	<path class="st2" d="M286.9,813.2c0,0.5,0.2,1,0.5,1.4c0.4,0.3,0.8,0.5,1.4,0.5h33.7c0.5,0,1-0.2,1.3-0.5c0.4-0.4,0.6-0.8,0.6-1.4
		V810c0-0.6-0.2-1-0.5-1.4c-0.3-0.3-0.8-0.5-1.4-0.5h-27.8v-14l-7.7-0.3V813.2z"/>
	<path class="st2" d="M294.6,765.8h27.2c0.6,0,1-0.2,1.4-0.5c0.3-0.4,0.5-0.8,0.5-1.4v-3c0-0.6-0.2-1-0.6-1.4
		c-0.3-0.4-0.7-0.6-1.3-0.6h-33c-0.5,0-1,0.2-1.4,0.6c-0.3,0.3-0.5,0.8-0.5,1.4v19l7.7,0.3V765.8z"/>
	<path class="st2" d="M330.2,812.5c-0.1,0.2-0.1,0.5-0.1,0.9s0.2,0.8,0.5,1.1s0.7,0.5,1.1,0.5h4.1c0.5,0,1-0.1,1.3-0.4
		c0.4-0.3,0.6-0.6,0.7-1l4.4-11.4h26.2l4.4,11.4c0.1,0.3,0.3,0.6,0.6,1c0.3,0.3,0.8,0.4,1.4,0.4h4.1c0.4,0,0.8-0.2,1.1-0.5
		s0.5-0.7,0.5-1.1l-0.2-0.9l-5.8-15.2l-38-1.5L330.2,812.5z"/>
	<path class="st2" d="M355.3,767l6,15.8l7.8,0.3l-8.5-22.3c-0.4-1.2-1.3-1.8-2.6-1.8h-5.4c-1.3,0-2.1,0.6-2.6,1.8l-8.2,21.3l7.6,0.3
		L355.3,767z"/>
	<path class="st2" d="M393.9,780.3c0.3-10.2,5.1-15.3,14.2-15.3c3.9,0,7.1,0.8,9.4,2.5c2.3,1.6,4,4.4,4.9,8.4c0.3,1.2,0.9,1.8,2,1.8
		h4.4c0.4,0,0.8-0.1,1.1-0.4c0.4-0.3,0.6-0.7,0.6-1.1V776c-0.2-3.1-1.1-6-2.8-8.7c-1.7-2.7-4.2-4.9-7.5-6.6
		c-3.3-1.7-7.3-2.6-12.1-2.6c-7.1,0-12.5,1.9-16.2,5.8c-3.7,3.8-5.7,9.1-6,15.8c0,0.9-0.1,2.2-0.1,3.8l8,0.3
		C393.9,782.5,393.9,781.2,393.9,780.3z"/>
	<path class="st2" d="M417.6,806.6c-2.3,1.6-5.5,2.4-9.4,2.4c-7.8,0-12.3-3.7-13.8-10.9l-8.1-0.3c0.7,5.1,2.6,9.2,5.6,12.3
		c3.7,3.8,9.2,5.8,16.3,5.8c4.7,0,8.8-0.8,12.1-2.5c3.3-1.7,5.8-3.9,7.5-6.6c1.4-2.3,2.3-4.7,2.6-7.2l-8.2-0.3
		C421.3,802.6,419.8,805.1,417.6,806.6z"/>
	<path class="st2" d="M476.7,813.2c0,0.5,0.2,1,0.5,1.4c0.4,0.3,0.8,0.5,1.4,0.5h4.1c0.5,0,1-0.2,1.4-0.5c0.4-0.4,0.6-0.8,0.6-1.4
		v-11.6l-7.8-0.3V813.2z"/>
	<path class="st2" d="M484.5,760.9c0-0.6-0.2-1-0.6-1.4c-0.3-0.4-0.8-0.6-1.4-0.6h-4.1c-0.5,0-1,0.2-1.4,0.6
		c-0.3,0.3-0.5,0.8-0.5,1.4V783h-27.5v-22.1c0-0.6-0.2-1-0.6-1.4c-0.3-0.4-0.8-0.6-1.4-0.6h-4.1c-0.5,0-1,0.2-1.4,0.6
		c-0.3,0.3-0.5,0.8-0.5,1.4v24.9l43.2,1.7V760.9z"/>
	<path class="st2" d="M441.3,813.2c0,0.5,0.2,1,0.5,1.4c0.4,0.3,0.8,0.5,1.4,0.5h4.1c0.5,0,1-0.2,1.4-0.5c0.4-0.4,0.6-0.8,0.6-1.4
		v-13l-7.8-0.3V813.2z"/>
	<path class="st2" d="M25.5,910.8c4.7,0,8.8-0.8,12.1-2.5c1.4-0.7,2.7-1.6,3.8-2.5l-29.1,1.7C15.7,909.7,20.1,910.8,25.5,910.8z"/>
	<path class="st2" d="M46.2,891.3h-4.4c-0.5,0-1,0.1-1.3,0.4c-0.1,0.1-0.1,0.1-0.2,0.2l6.7-0.4C46.8,891.4,46.5,891.3,46.2,891.3z"
		/>
	<path class="st2" d="M11.3,888.7c-0.1-1.5-0.1-3.8-0.1-6.8s0-5.2,0.1-6.6c0.3-10.2,5.1-15.3,14.2-15.3c3.9,0,7.1,0.8,9.4,2.5
		c2.3,1.6,4,4.4,4.9,8.4c0.3,1.2,0.9,1.8,2,1.8h4.4c0.4,0,0.8-0.1,1.1-0.4c0.4-0.3,0.6-0.7,0.6-1.1V871c-0.2-3.1-1.1-6-2.8-8.7
		c-1.7-2.7-4.2-4.9-7.5-6.6c-3.3-1.7-7.3-2.6-12.1-2.6c-7.1,0-12.5,1.9-16.2,5.8c-3.7,3.8-5.7,9.1-6,15.8c-0.1,1.5-0.1,3.9-0.1,7.2
		c0,3.3,0,5.6,0.1,7c0.1,1.7,0.2,3.3,0.5,4.9l8-0.5C11.5,892.1,11.3,890.5,11.3,888.7z"/>
	<path class="st2" d="M64.6,888.4c-0.1-1.6-0.1-3.7-0.1-6.4c0-2.7,0-4.9,0.1-6.4c0.2-5.3,1.6-9.2,4.1-11.8c2.6-2.6,5.9-3.8,10.2-3.8
		c4.2,0,7.5,1.3,10,3.8c2.6,2.6,3.9,6.5,4.2,11.8c0.1,3.1,0.2,5.2,0.2,6.4c0,1.1-0.1,3.2-0.2,6.4c0,0.1,0,0.3,0,0.4l8-0.5
		c0.1-3,0.1-5.1,0.1-6.3c0-1.4-0.1-3.6-0.2-6.7c-0.2-7.2-2.3-12.7-6.2-16.4c-3.9-3.8-9.3-5.7-15.9-5.7c-6.7,0-12.1,1.9-16,5.7
		c-3.9,3.7-6,9.2-6.2,16.4c-0.1,1.5-0.1,3.8-0.1,6.7s0,5.2,0.1,6.8c0,0.7,0.1,1.4,0.1,2.1l8-0.5C64.6,889.8,64.6,889.1,64.6,888.4z"
		/>
	<path class="st2" d="M78.8,904c-0.9,0-1.8-0.1-2.6-0.2l-14.3,0.8c0.2,0.2,0.4,0.5,0.7,0.7c3.8,3.6,9.3,5.4,16.2,5.4
		c6.9,0,12.3-1.8,16.1-5.4c0.9-0.8,1.6-1.8,2.3-2.8l-13.8,0.8C82,903.8,80.5,904,78.8,904z"/>
	<path class="st2" d="M140.8,901.7c-2.2,1.5-5.6,2.3-10,2.3c-4.1,0-7.3-0.8-9.6-2.4c-0.2-0.1-0.3-0.2-0.5-0.4l-9.8,0.6
		c0.3,0.5,0.6,1,1,1.5c1.7,2.2,4.2,4.1,7.4,5.4c3.3,1.4,7.1,2.1,11.5,2.1c6.5,0,11.7-1.4,15.5-4.2c2.6-1.9,4.3-4.3,5.1-7.1l-8.8,0.5
		C142.1,900.6,141.5,901.2,140.8,901.7z"/>
	<path class="st2" d="M144.3,882.6c-2.6-1.3-6.2-2.6-10.7-3.8c-3.9-1.1-6.9-2.1-8.9-3c-2-0.9-3.5-1.9-4.6-3.1
		c-1-1.2-1.4-2.7-1.4-4.5c0-2.7,1-4.8,3.1-6.2c2.1-1.4,4.9-2.1,8.6-2.1c3.3,0,6.1,0.7,8.2,2.2c2.2,1.4,3.4,3.3,3.8,5.5
		c0.3,1,1,1.5,2.1,1.5h4.2c0.5,0,0.9-0.2,1.2-0.5c0.3-0.3,0.5-0.7,0.5-1.1c-0.1-2.2-0.9-4.5-2.5-6.7c-1.5-2.2-3.8-4.1-6.8-5.5
		c-3-1.5-6.6-2.2-10.7-2.2c-4.1,0-7.5,0.7-10.5,2c-2.9,1.3-5.2,3.1-6.8,5.4c-1.5,2.3-2.3,4.9-2.3,7.8c0,3,0.6,5.5,1.8,7.4
		c1.2,2,3.1,3.6,5.5,5c2.5,1.3,5.8,2.6,9.9,3.8c2.4,0.7,4.4,1.4,6.1,1.9l14.4-0.8C147.4,884.5,146,883.5,144.3,882.6z"/>
	<path class="st2" d="M182.1,861.1h15.3c0.5,0,1-0.2,1.4-0.5c0.4-0.4,0.6-0.8,0.6-1.4v-3.4c0-0.6-0.2-1-0.6-1.4
		c-0.3-0.4-0.8-0.6-1.4-0.6h-38.6c-0.5,0-1,0.2-1.4,0.6c-0.3,0.4-0.5,0.8-0.5,1.4v3.4c0,0.5,0.2,1,0.5,1.4c0.4,0.3,0.8,0.5,1.4,0.5
		h15.4v23l7.9-0.5V861.1z"/>
	<path class="st2" d="M174.2,908.2c0,0.5,0.2,1,0.5,1.4c0.4,0.3,0.8,0.5,1.4,0.5h4.2c0.5,0,1-0.2,1.4-0.5c0.4-0.4,0.6-0.8,0.6-1.4
		v-10.5l-7.9,0.5V908.2z"/>
	<path class="st2" d="M197,907.5c-0.1,0.2-0.1,0.5-0.1,0.9s0.2,0.8,0.5,1.1s0.7,0.5,1.1,0.5h4.1c0.5,0,1-0.1,1.3-0.4
		c0.4-0.3,0.6-0.6,0.7-1l4.4-11.4h26.2l4.4,11.4c0.1,0.3,0.3,0.6,0.6,1c0.3,0.3,0.8,0.4,1.4,0.4h4.1c0.4,0,0.8-0.2,1.1-0.5
		s0.5-0.7,0.5-1.1l-0.2-0.9l-5.1-13.4l-40.9,2.4L197,907.5z"/>
	<path class="st2" d="M222.2,862l7.2,18.9l7.5-0.4l-9.4-24.7c-0.4-1.2-1.3-1.8-2.6-1.8h-5.4c-1.3,0-2.1,0.6-2.6,1.8l-10.1,26.4
		l7.9-0.5L222.2,862z"/>
	<path class="st2" d="M294.4,894.9c0.5,1.1,1.4,1.7,2.6,1.7h2.5c1.2,0,2-0.6,2.6-1.7l2.2-4.3l-11.7,0.7L294.4,894.9z"/>
	<path class="st2" d="M315.4,868.8v7.1l7.7-0.4v-19.5c0-0.6-0.2-1-0.6-1.4c-0.3-0.4-0.8-0.6-1.4-0.6h-3.9c-0.5,0-1,0.1-1.4,0.4
		c-0.3,0.3-0.5,0.6-0.6,0.9L304,876.5l7.6-0.4L315.4,868.8z"/>
	<path class="st2" d="M315.4,908.2c0,0.5,0.2,1,0.5,1.4c0.4,0.3,0.8,0.5,1.4,0.5h3.9c0.5,0,1-0.2,1.4-0.5c0.4-0.4,0.6-0.8,0.6-1.4
		v-18.7l-7.7,0.4V908.2z"/>
	<path class="st2" d="M273.4,908.2c0,0.5,0.2,1,0.5,1.4c0.4,0.3,0.8,0.5,1.4,0.5h3.9c0.5,0,1-0.2,1.3-0.5c0.4-0.4,0.6-0.8,0.6-1.4
		v-16.3l-7.6,0.4V908.2z"/>
	<path class="st2" d="M281,868.8l4.5,8.8l7.2-0.4l-11.4-21.9c-0.5-0.9-1.2-1.3-2.1-1.3h-4c-0.5,0-1,0.2-1.4,0.6
		c-0.3,0.3-0.5,0.8-0.5,1.4v22.4l7.6-0.4V868.8z"/>
	<path class="st2" d="M336.9,908.2c0,0.5,0.2,1,0.5,1.4c0.4,0.3,0.8,0.5,1.4,0.5h33.7c0.5,0,1-0.2,1.3-0.5c0.4-0.4,0.6-0.8,0.6-1.4
		V905c0-0.6-0.2-1-0.5-1.4c-0.3-0.3-0.8-0.5-1.4-0.5h-27.8v-15l-7.7,0.4V908.2z"/>
	<path class="st2" d="M344.6,860.8h27.2c0.6,0,1-0.2,1.4-0.5c0.3-0.4,0.5-0.8,0.5-1.4v-3c0-0.6-0.2-1-0.6-1.4
		c-0.3-0.4-0.7-0.6-1.3-0.6h-33c-0.5,0-1,0.2-1.4,0.6c-0.3,0.3-0.5,0.8-0.5,1.4v18.7l7.7-0.4V860.8z"/>
	<path class="st2" d="M391.4,868.2c0-2.7,1-4.8,3.1-6.2c2.1-1.4,4.9-2.1,8.6-2.1c3.3,0,6.1,0.7,8.2,2.2c2.2,1.4,3.4,3.3,3.8,5.5
		c0.3,1,1,1.5,2.1,1.5h4.2c0.5,0,0.9-0.2,1.2-0.5c0.3-0.3,0.5-0.7,0.5-1.1c-0.1-2.2-0.9-4.5-2.5-6.7c-1.5-2.2-3.8-4.1-6.8-5.5
		c-3-1.5-6.6-2.2-10.7-2.2c-4.1,0-7.5,0.7-10.5,2c-2.9,1.3-5.2,3.1-6.8,5.4c-1.5,2.3-2.3,4.9-2.3,7.8c0,1.3,0.1,2.5,0.3,3.6l8.2-0.5
		C391.6,870.5,391.4,869.4,391.4,868.2z"/>
	<path class="st2" d="M410.3,887.7c2.1,0.9,3.7,1.8,4.8,3c1.1,1.1,1.7,2.6,1.7,4.4c0,2.8-1.1,5-3.4,6.6c-2.2,1.5-5.6,2.3-10,2.3
		c-4.1,0-7.3-0.8-9.6-2.4c-2.2-1.6-3.6-3.5-4.1-5.8c-0.4-1.1-1.1-1.6-2.1-1.6h-4.1c-0.5,0-0.9,0.2-1.3,0.6c-0.3,0.3-0.5,0.7-0.5,1.1
		c0.1,2.6,1,5.1,2.7,7.4c1.7,2.2,4.2,4.1,7.4,5.4c3.3,1.4,7.1,2.1,11.5,2.1c6.5,0,11.7-1.4,15.5-4.2c3.8-2.8,5.8-6.7,5.8-11.7
		c0-3-0.6-5.4-1.9-7.4c-0.9-1.4-2.1-2.6-3.7-3.7l-17.1,1C405.6,886,408.4,886.9,410.3,887.7z"/>
	<path class="st2" d="M465.1,890.4h-21.6l3.1-8.1l-7.9,0.5l-9.5,24.8c-0.1,0.2-0.1,0.5-0.1,0.9s0.2,0.8,0.5,1.1s0.7,0.5,1.1,0.5h4.1
		c0.5,0,1-0.1,1.3-0.4c0.4-0.3,0.6-0.6,0.7-1l4.4-11.4h26.2l4.4,11.4c0.1,0.3,0.3,0.6,0.6,1c0.3,0.3,0.8,0.4,1.4,0.4h4.1
		c0.4,0,0.8-0.2,1.1-0.5s0.5-0.7,0.5-1.1l-0.2-0.9L469.2,881l-7.5,0.4L465.1,890.4z"/>
	<path class="st2" d="M454.3,862l2.2,5.7l7.5-0.4l-4.4-11.5c-0.4-1.2-1.3-1.8-2.6-1.8h-5.4c-1.3,0-2.1,0.6-2.6,1.8l-4.8,12.6
		l7.9-0.5L454.3,862z"/>
	<path class="st1" d="M45.1,949h-3.8c-0.5,0-1,0.2-1.4,0.6c-0.3,0.3-0.5,0.8-0.5,1.4v40l-26.6-40.8c-0.4-0.7-1-1.1-2-1.1H7.2
		c-0.5,0-1,0.2-1.4,0.6c-0.3,0.3-0.5,0.8-0.5,1.4v52.2c0,0.5,0.2,1,0.5,1.4c0.4,0.3,0.8,0.5,1.4,0.5H11c0.5,0,1-0.2,1.4-0.5
		c0.4-0.4,0.6-0.8,0.6-1.4v-39.7l26.5,40.4c0.5,0.8,1.1,1.1,1.9,1.1h3.8c0.5,0,1-0.2,1.3-0.6c0.4-0.4,0.6-0.8,0.6-1.4v-52.2
		c0-0.6-0.2-1-0.6-1.4C46.2,949.2,45.7,949,45.1,949z"/>
	<path class="st1" d="M96.5,998.2H68.7V980h25.4c0.5,0,1-0.2,1.3-0.5c0.4-0.4,0.6-0.8,0.6-1.4v-3c0-0.6-0.2-1-0.6-1.4
		c-0.3-0.4-0.7-0.6-1.3-0.6H68.7v-17.5h27.2c0.6,0,1-0.2,1.4-0.5c0.3-0.4,0.5-0.8,0.5-1.4v-3c0-0.6-0.2-1-0.6-1.4
		c-0.3-0.4-0.7-0.6-1.3-0.6h-33c-0.5,0-1,0.2-1.4,0.6c-0.3,0.3-0.5,0.8-0.5,1.4v52.2c0,0.5,0.2,1,0.5,1.4c0.4,0.3,0.8,0.5,1.4,0.5
		h33.7c0.5,0,1-0.2,1.3-0.5c0.4-0.4,0.6-0.8,0.6-1.4v-3.1c0-0.6-0.2-1-0.5-1.4S97.1,998.2,96.5,998.2z"/>
	<path class="st1" d="M161.5,949h-4.2c-1.2,0-1.8,0.5-2,1.4l-8.1,41.3l-8.7-28.3c-0.2-0.5-0.5-1-0.9-1.4c-0.4-0.4-0.9-0.6-1.6-0.6
		h-3c-1.2,0-2.1,0.6-2.6,1.9l-8.6,28.3l-8.2-41.3c-0.2-0.9-0.8-1.4-1.9-1.4h-4.2c-0.4,0-0.8,0.2-1.1,0.5s-0.5,0.7-0.5,1.1
		c0,0.3,0,0.6,0.1,0.9l10.3,51.4c0.3,1.4,1.1,2.2,2.5,2.2h3.1c1.3,0,2.2-0.7,2.6-2l9.8-30.5l9.9,30.5c0.4,1.3,1.3,2,2.6,2h3.1
		c1.3,0,2.2-0.7,2.5-2.2l10.3-51.4l0.1-0.9c0-0.4-0.2-0.8-0.5-1.1S161.9,949,161.5,949z"/>
	<path class="st1" d="M230.3,949h-4.1c-0.9,0-1.6,0.5-2.2,1.4l-15.6,25.9l-15.6-25.9c-0.5-0.9-1.2-1.4-2.1-1.4h-4.2
		c-0.4,0-0.8,0.2-1.1,0.5s-0.5,0.7-0.5,1.1c0,0.2,0.1,0.3,0.2,0.6c0.1,0.2,0.1,0.4,0.1,0.5l19.3,32.6v18.9c0,0.5,0.2,1,0.5,1.4
		c0.4,0.3,0.8,0.5,1.4,0.5h4.2c0.5,0,1-0.2,1.4-0.5c0.4-0.4,0.6-0.8,0.6-1.4v-18.9l19.2-32.6c0.2-0.4,0.3-0.8,0.3-1
		c0-0.4-0.2-0.8-0.5-1.1S230.8,949,230.3,949z"/>
	<path class="st1" d="M275,953.9c-3.9-3.8-9.3-5.7-15.9-5.7c-6.7,0-12.1,1.9-16,5.7c-3.9,3.7-6,9.2-6.2,16.4
		c-0.1,1.5-0.1,3.8-0.1,6.7s0,5.2,0.1,6.8c0.2,7.4,2.2,12.9,6,16.6c3.8,3.6,9.3,5.4,16.2,5.4c6.9,0,12.3-1.8,16.1-5.4
		c3.8-3.7,5.9-9.2,6.1-16.6c0.1-3.2,0.2-5.5,0.2-6.8c0-1.4-0.1-3.6-0.2-6.7C281.1,963.1,279,957.6,275,953.9z M273.3,983.4
		c-0.2,5.3-1.6,9.2-4.1,11.8c-2.5,2.6-5.9,3.8-10.1,3.8c-4.2,0-7.6-1.3-10.2-3.8c-2.5-2.6-3.9-6.5-4.1-11.8
		c-0.1-1.6-0.1-3.7-0.1-6.4c0-2.7,0-4.9,0.1-6.4c0.2-5.3,1.6-9.2,4.1-11.8c2.6-2.6,5.9-3.8,10.2-3.8c4.2,0,7.5,1.3,10,3.8
		c2.6,2.6,3.9,6.5,4.2,11.8c0.1,3.1,0.2,5.2,0.2,6.4C273.4,978.1,273.4,980.2,273.3,983.4z"/>
	<path class="st1" d="M322.6,981.2c3.6-1,6.4-2.8,8.4-5.4c2-2.6,3-5.9,3-10c0-5.4-1.7-9.6-5.2-12.5c-3.5-2.9-8.3-4.3-14.4-4.3h-19.5
		c-0.5,0-1,0.2-1.4,0.6c-0.3,0.3-0.5,0.8-0.5,1.4v52.2c0,0.5,0.2,1,0.5,1.4c0.4,0.3,0.8,0.5,1.4,0.5h4.1c0.5,0,1-0.2,1.4-0.5
		c0.4-0.4,0.6-0.8,0.6-1.4v-20.6h14l11.6,20.3c0.4,0.7,0.8,1.2,1.2,1.6c0.5,0.4,1.1,0.6,1.9,0.6h3.8c0.4,0,0.8-0.2,1.1-0.5
		c0.4-0.3,0.6-0.7,0.6-1.1c0-0.3-0.1-0.6-0.2-0.9L322.6,981.2z M314.1,975.7h-13.2v-20h13.2c7.9,0,11.9,3.3,11.9,10
		C326.1,972.4,322.1,975.7,314.1,975.7z"/>
	<path class="st1" d="M358.6,975.8l24.7-24.2c0.2-0.3,0.3-0.6,0.3-1s-0.2-0.8-0.5-1.1s-0.7-0.5-1.1-0.5h-4.3c-1.2,0-2.3,0.4-3.1,1.3
		l-21.4,20.5v-19.8c0-0.6-0.2-1-0.6-1.4c-0.3-0.4-0.8-0.6-1.4-0.6h-4c-0.5,0-1,0.2-1.4,0.6c-0.3,0.3-0.5,0.8-0.5,1.4v52.2
		c0,0.5,0.2,1,0.5,1.4c0.4,0.3,0.8,0.5,1.4,0.5h4c0.5,0,1-0.2,1.4-0.5c0.4-0.4,0.6-0.8,0.6-1.4v-22l22.9,22.5
		c0.9,0.9,1.9,1.4,3.1,1.4h4.5c0.4,0,0.8-0.2,1.1-0.5s0.5-0.7,0.5-1.1c0-0.4-0.1-0.8-0.4-1.1L358.6,975.8z"/>
	<path class="st1" d="M454.5,986.8c-0.3-0.3-0.7-0.5-1.2-0.5h-4.4c-0.5,0-1,0.1-1.3,0.4c-0.3,0.3-0.6,0.7-0.7,1.4
		c-0.9,4-2.5,6.8-4.9,8.5c-2.3,1.6-5.5,2.4-9.4,2.4c-9.2,0-13.9-5.1-14.2-15.3c-0.1-1.5-0.1-3.8-0.1-6.8s0-5.2,0.1-6.6
		c0.3-10.2,5.1-15.3,14.2-15.3c3.9,0,7.1,0.8,9.4,2.5c2.3,1.6,4,4.4,4.9,8.4c0.3,1.2,0.9,1.8,2,1.8h4.4c0.4,0,0.8-0.1,1.1-0.4
		c0.4-0.3,0.6-0.7,0.6-1.1V966c-0.2-3.1-1.1-6-2.8-8.7c-1.7-2.7-4.2-4.9-7.5-6.6c-3.3-1.7-7.3-2.6-12.1-2.6
		c-7.1,0-12.5,1.9-16.2,5.8c-3.7,3.8-5.7,9.1-6,15.8c-0.1,1.5-0.1,3.9-0.1,7.2c0,3.3,0,5.6,0.1,7c0.3,6.8,2.2,12.1,5.9,15.9
		c3.7,3.8,9.2,5.8,16.3,5.8c4.7,0,8.8-0.8,12.1-2.5c3.3-1.7,5.8-3.9,7.5-6.6c1.7-2.7,2.6-5.7,2.8-8.8
		C455,987.4,454.8,987,454.5,986.8z"/>
	<path class="st1" d="M471.8,949h-4.2c-0.5,0-1,0.2-1.4,0.6c-0.3,0.3-0.5,0.7-0.5,1.3v52.3c0,0.5,0.2,1,0.5,1.4
		c0.4,0.3,0.8,0.5,1.4,0.5h4.2c0.5,0,1-0.2,1.3-0.5c0.4-0.4,0.6-0.8,0.6-1.4v-52.3c0-0.5-0.2-1-0.6-1.3
		C472.7,949.2,472.3,949,471.8,949z"/>
	<path class="st1" d="M523,949h-38.6c-0.5,0-1,0.2-1.4,0.6c-0.3,0.4-0.5,0.8-0.5,1.4v3.4c0,0.5,0.2,1,0.5,1.4
		c0.4,0.3,0.8,0.5,1.4,0.5h15.4v47c0,0.5,0.2,1,0.5,1.4c0.4,0.3,0.8,0.5,1.4,0.5h4.2c0.5,0,1-0.2,1.4-0.5c0.4-0.4,0.6-0.8,0.6-1.4
		v-47H523c0.5,0,1-0.2,1.4-0.5c0.4-0.4,0.6-0.8,0.6-1.4v-3.4c0-0.6-0.2-1-0.6-1.4C524,949.2,523.6,949,523,949z"/>
	<path class="st1" d="M574.6,949h-4.1c-0.9,0-1.6,0.5-2.2,1.4l-15.6,25.9l-15.6-25.9c-0.5-0.9-1.2-1.4-2.1-1.4h-4.2
		c-0.4,0-0.8,0.2-1.1,0.5s-0.5,0.7-0.5,1.1c0,0.2,0.1,0.3,0.2,0.6c0.1,0.2,0.1,0.4,0.1,0.5l19.3,32.6v18.9c0,0.5,0.2,1,0.5,1.4
		c0.4,0.3,0.8,0.5,1.4,0.5h4.2c0.5,0,1-0.2,1.4-0.5c0.4-0.4,0.6-0.8,0.6-1.4v-18.9l19.2-32.6c0.2-0.4,0.3-0.8,0.3-1
		c0-0.4-0.2-0.8-0.5-1.1S575.1,949,574.6,949z"/>
	<path class="st3" d="M5.8,96.6c-0.3,0.3-0.5,0.8-0.5,1.4v11.8L13,111v-8.2h27.2c0.6,0,1-0.2,1.4-0.5c0.2-0.2,0.3-0.5,0.4-0.8
		L7.9,96H7.2C6.7,96,6.2,96.2,5.8,96.6z"/>
	<polygon class="st3" points="95.6,124.3 95.6,110.1 88,108.9 88,123.1 	"/>
	<polygon class="st3" points="61.5,118.8 61.5,110.5 67.6,119.8 77.2,121.3 66.9,105.5 53.9,103.4 53.9,117.6 	"/>
	<polygon class="st3" points="123.9,128.9 118.8,113.9 110.2,112.5 115.4,127.5 	"/>
	<polygon class="st3" points="140.6,131.6 145.3,118.1 137.6,116.9 133,130.3 	"/>
	<path class="st3" d="M194.7,130.4c-0.2,3.9-1,7.1-2.4,9.5l8.4,1.3c1.2-2.9,1.9-6.4,2-10.5c0-1.3,0.1-2.4,0.1-3.4l-8-1.3
		C194.8,127.2,194.7,128.7,194.7,130.4z"/>
	<path class="st3" d="M158.3,130.8c0,1.3,0.1,2.5,0.3,3.7l8.4,1.4c-0.4-1.6-0.7-3.4-0.7-5.4c-0.1-1.6-0.1-3.7-0.1-6.4
		c0-0.9,0-1.7,0-2.5l-8-1.3c0,1.1,0,2.3,0,3.8C158.2,126.9,158.2,129.2,158.3,130.8z"/>
	<polygon class="st3" points="235,146.8 235,132.6 227,131.3 227,145.5 	"/>
	<polygon class="st3" points="8.8,241.7 12.1,233.3 38.3,233.3 40.4,238.8 48.1,238 43,224.5 35.5,225.2 36,226.4 22.4,226.4 
		6.1,227.9 0.5,242.5 	"/>
	<path class="st3" d="M58.9,237l8.8-0.8c-2.4-2.5-3.7-6.4-3.8-11.5c0-0.6,0-1.4-0.1-2.2l-8,0.7c0,0.7,0,1.4,0,1.9
		C56,229.8,57.1,233.8,58.9,237z"/>
	<path class="st3" d="M100,227.8c-0.3-0.3-0.7-0.5-1.2-0.5h-4.4c-0.5,0-1,0.1-1.3,0.4c-0.3,0.3-0.6,0.7-0.7,1.4
		c-0.4,1.9-1,3.6-1.8,4.9l9.1-0.9c0.4-1.4,0.7-2.8,0.8-4.3C100.6,228.4,100.4,228,100,227.8z"/>
	<path class="st3" d="M110.1,232.2l8.3-0.8c-0.7-2-1.1-4.3-1.2-7.1c-0.1-1.6-0.1-3.7-0.1-6.4c0-0.2,0-0.3,0-0.5l-8,0.8
		c0,2.8,0,5,0.1,6.5C109.2,227.5,109.5,230,110.1,232.2z"/>
	<path class="st3" d="M145.7,218c0,1.1-0.1,3.2-0.2,6.4c-0.1,1.7-0.3,3.2-0.6,4.6l8.3-0.8c0.1-1.1,0.2-2.2,0.3-3.4
		c0.1-3.2,0.2-5.5,0.2-6.8c0-0.9,0-2.2-0.1-3.9l-8,0.7C145.7,216.2,145.7,217.3,145.7,218z"/>
	<path class="st3" d="M173.2,226.3v-2.8h14l0.8,1.4l8-0.8l-1.1-1.9c3.6-1,6.4-2.8,8.4-5.4c1.6-2.1,2.6-4.6,2.9-7.6l-8.2,0.8
		c-1.2,4.5-5,6.8-11.5,6.8h-13.2v-4.5l-7.8,0.7V227L173.2,226.3z"/>
	<polygon class="st3" points="259.5,218.2 259.5,204.2 251.9,204.9 251.9,218.9 	"/>
	<polygon class="st3" points="235.8,220.4 243.9,219.7 235.3,206.4 227.2,207.2 	"/>
	<polygon class="st3" points="225.4,221.4 225.4,207.4 217.8,208.1 217.8,222.1 	"/>
	<path class="st3" d="M303,203.8c0.3,1,1,1.5,2.1,1.5h4.2c0.5,0,0.9-0.2,1.2-0.5c0.3-0.3,0.5-0.7,0.5-1.1c-0.1-1.4-0.4-2.8-1.1-4.3
		l-8.5,0.8C302.3,201.3,302.8,202.4,303,203.8z"/>
	<path class="st3" d="M273.2,211.8c1.1,1.8,2.8,3.4,5.1,4.7l16.3-1.5c-0.1,0-0.3-0.1-0.4-0.1c-3.9-1.1-6.9-2.1-8.9-3
		c-2-0.9-3.5-1.9-4.6-3.1c-1-1.2-1.4-2.7-1.4-4.5c0-0.7,0.1-1.4,0.2-2l-8.1,0.8c0,0.4-0.1,0.8-0.1,1.3
		C271.4,207.3,272,209.8,273.2,211.8z"/>
	<path class="st3" d="M42.7,697.5c-0.3-0.5-0.7-0.9-1.1-1.4l-13.8,0.7c0.9,0.3,1.7,0.6,2.4,0.9c2.1,0.9,3.7,1.8,4.8,3
		c1.1,1.1,1.7,2.6,1.7,4.4c0,2.2-0.7,4-2,5.5l9.1-0.4c0.6-1.6,0.8-3.3,0.8-5.2C44.6,701.9,44,699.4,42.7,697.5z"/>
	<path class="st3" d="M9.7,705.8c-0.4-1.1-1.1-1.6-2.1-1.6H3.5c-0.5,0-0.9,0.2-1.3,0.6c-0.3,0.3-0.5,0.7-0.5,1.1
		c0.1,2.1,0.7,4.2,1.9,6.1l10-0.5C11.5,709.9,10.2,708,9.7,705.8z"/>
	<polygon class="st3" points="82.6,694.2 85,700.4 63.4,700.4 65.4,695 57.6,695.4 52.1,709.7 60.3,709.3 61.1,707.3 87.3,707.3 
		87.6,707.9 95.4,707.6 90.2,693.8 	"/>
	<polygon class="st3" points="132.8,691.7 124.5,692.1 133.4,705.7 141.6,705.3 	"/>
	<polygon class="st3" points="142,691.3 142,705.3 149.6,704.9 149.6,690.9 	"/>
	<polygon class="st3" points="107.9,692.9 107.9,707 115.5,706.6 115.5,692.6 	"/>
	<path class="st3" d="M216.1,696.6c0.5,0,1-0.2,1.4-0.5c0.4-0.4,0.6-0.8,0.6-1.4v-3.2c0-0.6-0.2-1-0.6-1.4c-0.3-0.4-0.8-0.6-1.4-0.6
		h-25.1v-0.7l-7.8,0.4v14l7.8-0.4v-6.4H216.1z"/>
	<path class="st3" d="M267.8,690.8c1.3-1.6,2.1-3.5,2.6-5.7l-8.5,0.4c-1.6,3.5-5.2,5.2-11,5.2h-13.2v-4.1l-7.8,0.4v14l7.8-0.4v-3.2
		h14l1.4,2.4l8.2-0.4l-1.9-3.3C263,695.2,265.8,693.4,267.8,690.8z"/>
	<polygon class="st3" points="297.7,683.8 289.8,684.2 284.3,698.4 292.2,698.1 	"/>
	<polygon class="st3" points="306.5,683.3 311.7,697.1 319.3,696.7 314,683 	"/>
	<polygon class="st3" points="370,680.3 370,694.3 377.6,693.9 377.6,679.9 	"/>
	<polygon class="st3" points="353.8,681.1 345.5,681.5 354.4,695 362.7,694.6 	"/>
	<polygon class="st3" points="335.9,681.9 335.9,695.9 343.5,695.6 343.5,681.6 	"/>
	<path class="st3" d="M426,680.9c0.3,1.2,0.9,1.8,2,1.8h4.4c0.4,0,0.8-0.1,1.1-0.4c0.4-0.3,0.6-0.7,0.6-1.1V681
		c-0.1-1.3-0.3-2.6-0.6-3.8l-8.5,0.4C425.4,678.6,425.7,679.7,426,680.9z"/>
	<path class="st3" d="M397.5,685.3c0.1-2.4,0.4-4.5,1-6.4l-8.3,0.4c-0.4,1.7-0.6,3.6-0.7,5.6c-0.1,1.5-0.1,3.9-0.1,7.2
		c0,0.4,0,0.9,0,1.3l8-0.4c0-0.3,0-0.7,0-1.1C397.4,688.9,397.4,686.7,397.5,685.3z"/>
	<polygon class="st3" points="444.8,676.7 444.8,690.7 452.7,690.3 452.7,676.3 	"/>
	<path class="st3" d="M474,682.7c-1-1.2-1.4-2.7-1.4-4.5c0-1.1,0.2-2.1,0.5-2.9l-8.2,0.4c-0.2,0.8-0.2,1.7-0.2,2.6
		c0,3,0.6,5.5,1.8,7.4c0.9,1.4,2,2.6,3.5,3.7l16.9-0.8c-3.6-1.1-6.4-2-8.3-2.8C476.6,684.9,475.1,683.9,474,682.7z"/>
	<path class="st3" d="M496.3,677.8c0.3,1,1,1.5,2.1,1.5h4.2c0.5,0,0.9-0.2,1.2-0.5c0.3-0.3,0.5-0.7,0.5-1.1
		c-0.1-1.3-0.4-2.6-0.9-3.8l-8.6,0.4C495.6,675.3,496.1,676.5,496.3,677.8z"/>
	<path class="st3" d="M546.1,672.5c2.3,1.6,4,4.4,4.9,8.4c0.3,1.2,0.9,1.8,2,1.8h4.4c0.4,0,0.8-0.1,1.1-0.4c0.4-0.3,0.6-0.7,0.6-1.1
		V681c-0.2-3.1-1.1-6-2.8-8.7c-0.2-0.3-0.4-0.7-0.7-1l-10.5,0.5C545.4,672,545.7,672.2,546.1,672.5z"/>
	<path class="st3" d="M527.5,672.7l-10.1,0.5c-1.8,3.2-2.8,7.1-3,11.7c0,0.6,0,1.5-0.1,2.4l8-0.4c0-0.6,0-1.2,0-1.7
		C522.6,679.3,524.3,675.1,527.5,672.7z"/>
	<path class="st3" d="M579.7,673.8c2.6-2.6,5.9-3.8,10.2-3.8c4.2,0,7.5,1.3,10,3.8c2.1,2.1,3.4,5.2,3.9,9.2l8.1-0.4
		c-0.6-5.9-2.6-10.5-6.1-13.7l-33.4,1.6c-2.9,3.5-4.5,8.3-4.7,14.2l8.1-0.4C576.1,679.7,577.4,676.2,579.7,673.8z"/>
	<polygon class="st3" points="5.4,769.1 5.4,783.1 13.3,783.4 13.3,769.4 	"/>
	<path class="st3" d="M90.8,772.4l-8.7-0.3c1.1,2.3,1.8,5.1,1.9,8.6c0.1,2.4,0.1,4.3,0.2,5.5l8,0.3c0-1.4-0.1-3.5-0.2-6.2
		C91.9,777.4,91.5,774.7,90.8,772.4z"/>
	<path class="st3" d="M55.6,780.6c0.2-3.9,0.9-7.1,2.4-9.5l-8.6-0.3c-1,2.7-1.6,5.9-1.7,9.5c0,1.1-0.1,2.6-0.1,4.4l8,0.3
		C55.5,783.2,55.5,781.8,55.6,780.6z"/>
	<polygon class="st3" points="120,773.5 103.8,772.9 103.8,786.9 111.4,787.2 111.4,773.5 120.6,787.5 129.4,787.9 	"/>
	<polygon class="st3" points="137.9,774.2 137.9,788.2 145.5,788.5 145.5,774.5 	"/>
	<path class="st3" d="M201.9,785.1c-0.3-0.4-0.7-0.6-1.3-0.6h-18.1c-0.5,0-1,0.2-1.4,0.6c-0.3,0.4-0.5,0.8-0.5,1.4v2.6
		c0,0.3,0,0.6,0.1,0.8l21.6,0.8v-4.2C202.5,785.9,202.3,785.4,201.9,785.1z"/>
	<path class="st3" d="M165.3,786.9c0-3.2,0-5.6,0.1-7.1c0.1-1.7,0.3-3.2,0.6-4.5l-8.1-0.3c-0.3,1.4-0.4,2.9-0.5,4.4
		c-0.1,1.5-0.1,4.1-0.1,7.5c0,0.7,0,1.4,0,2l8,0.3C165.3,788.5,165.3,787.8,165.3,786.9z"/>
	<path class="st3" d="M267.6,785.6c1.9-0.9,3.5-2.3,4.8-4.3c0.4-0.6,0.7-1.2,1-1.8l-8.5-0.3c-0.3,0.5-0.7,0.9-1.2,1.3
		c-1.8,1.5-4.3,2.3-7.7,2.3h-14.7v-4.5l-7.8-0.3v14l7.8,0.3v-3.1h15.5c3.4,0,6,0.9,7.8,2.7c0.4,0.4,0.8,0.8,1.2,1.3l8.8,0.3
		c-0.4-0.9-0.8-1.8-1.4-2.7C271.7,788.4,269.8,786.7,267.6,785.6z"/>
	<path class="st3" d="M320,790c0.5,0,1-0.2,1.3-0.5c0.4-0.4,0.6-0.8,0.6-1.4v-3c0-0.6-0.2-1-0.6-1.4c-0.3-0.4-0.7-0.6-1.3-0.6h-25.4
		v-3.1l-7.7-0.3v14l7.7,0.3V790H320z"/>
	<polygon class="st3" points="361.3,782.8 366.1,795.4 344.5,795.4 349.5,782.3 341.8,782 336.6,795.8 374.5,797.3 369.1,783.1 	"/>
	<path class="st3" d="M393.9,793.7c-0.1-1.5-0.1-3.8-0.1-6.8c0-1.1,0-2,0-2.9l-8-0.3c0,1,0,2.1,0,3.4c0,3.3,0,5.6,0.1,7
		c0,1.3,0.2,2.5,0.3,3.6l8.1,0.3C394.2,796.7,394,795.3,393.9,793.7z"/>
	<path class="st3" d="M430.1,796.8c-0.3-0.3-0.7-0.5-1.2-0.5h-4.4c-0.5,0-1,0.1-1.3,0.4c-0.3,0.3-0.6,0.7-0.7,1.4
		c-0.1,0.3-0.2,0.7-0.2,1l8.2,0.3c0.1-0.5,0.1-1,0.2-1.6C430.6,797.4,430.5,797,430.1,796.8z"/>
	<polygon class="st3" points="441.3,785.9 441.3,799.9 449.1,800.2 449.1,790.2 476.7,790.2 476.7,801.2 484.5,801.5 484.5,787.5 	
		"/>
	<path class="st3" d="M45.1,901.7c1.7-2.7,2.6-5.7,2.8-8.8c0.1-0.5-0.1-0.9-0.5-1.1c-0.1-0.1-0.2-0.2-0.4-0.3l-6.7,0.4
		c-0.2,0.3-0.4,0.7-0.5,1.2c-0.9,4-2.5,6.8-4.9,8.5c-2.3,1.6-5.5,2.4-9.4,2.4c-7.6,0-12.1-3.5-13.7-10.5l-8,0.5
		c0.8,4.5,2.6,8.2,5.4,11c0.9,0.9,1.9,1.8,3.1,2.5l29.1-1.7C42.9,904.6,44.1,903.2,45.1,901.7z"/>
	<path class="st3" d="M68.6,900.2c-2.2-2.2-3.5-5.5-3.9-9.7l-8,0.5c0.5,5.9,2.2,10.4,5.2,13.7l14.3-0.8
		C73.2,903.4,70.7,902.2,68.6,900.2z"/>
	<path class="st3" d="M101,888.3l-8,0.5c-0.3,5.1-1.6,8.9-4.1,11.3c-1.5,1.6-3.4,2.6-5.5,3.2l13.8-0.8c2.3-3.5,3.6-8.1,3.8-13.8
		C101,888.6,101,888.5,101,888.3z"/>
	<path class="st3" d="M150.1,887.5c-0.4-0.7-1-1.3-1.6-1.9l-14.4,0.8c1.4,0.5,2.5,0.9,3.5,1.3c2.1,0.9,3.7,1.8,4.8,3
		c1.1,1.1,1.7,2.6,1.7,4.4c0,1.9-0.5,3.6-1.6,4.9l8.8-0.5c0.4-1.4,0.7-2.9,0.7-4.6C152.1,891.9,151.4,889.4,150.1,887.5z"/>
	<path class="st3" d="M117.1,895.8c-0.4-1.1-1.1-1.6-2.1-1.6h-4.1c-0.5,0-0.9,0.2-1.3,0.6c-0.3,0.3-0.5,0.7-0.5,1.1
		c0.1,2.1,0.7,4,1.7,5.9l9.8-0.6C118.7,899.7,117.5,897.9,117.1,895.8z"/>
	<polygon class="st3" points="174.2,884.1 174.2,898.1 182.1,897.7 182.1,883.6 	"/>
	<polygon class="st3" points="229.3,880.9 233,890.4 211.4,890.4 214.6,881.7 206.7,882.2 201.2,896.5 242.1,894.2 236.9,880.4 	"/>
	<polygon class="st3" points="304,876.5 298.2,887.6 292.8,877.2 285.5,877.6 292.6,891.2 304.3,890.5 311.7,876.1 	"/>
	<polygon class="st3" points="315.4,875.9 315.4,889.9 323.1,889.5 323.1,875.4 	"/>
	<polygon class="st3" points="273.4,878.3 273.4,892.3 281,891.9 281,877.9 	"/>
	<path class="st3" d="M370,885c0.5,0,1-0.2,1.3-0.5c0.4-0.4,0.6-0.8,0.6-1.4v-3c0-0.6-0.2-1-0.6-1.4c-0.3-0.4-0.7-0.6-1.3-0.6h-25.4
		v-4.1l-7.7,0.4v14l7.7-0.4V885H370z"/>
	<path class="st3" d="M406.2,878.8c-3.9-1.1-6.9-2.1-8.9-3c-2-0.9-3.5-1.9-4.6-3.1c-0.3-0.4-0.6-0.8-0.8-1.3l-8.2,0.5
		c0.3,1.4,0.8,2.7,1.5,3.9c1.2,2,3.1,3.6,5.5,5c2.5,1.3,5.8,2.6,9.9,3.8c0.4,0.1,0.9,0.3,1.3,0.4l17.1-1c-0.7-0.4-1.4-0.9-2.1-1.2
		C414.3,881.3,410.8,880,406.2,878.8z"/>
	<polygon class="st3" points="456.4,867.7 461.6,881.4 469.2,881 463.9,867.2 	"/>
	<polygon class="st3" points="452,867.9 444.1,868.4 438.6,882.7 446.6,882.3 	"/>
	<polygon class="st3" points="260,311.1 261.6,311 260.8,308.5 	"/>
	<path class="st3" d="M40.6,312.9c0,0.8-0.1,2.8-0.2,6c-0.1,2.3-0.3,4.4-0.7,6.1l8.2-0.5c0.3-1.6,0.4-3.4,0.5-5.3
		c0.1-1.6,0.1-3.7,0.1-6.3c0-0.9,0-1.7,0-2.5l-7.9,0.5C40.6,311.9,40.6,312.5,40.6,312.9z"/>
	<polygon class="st3" points="13.2,326.7 13.2,312.7 5.4,313.2 5.4,327.2 	"/>
	<path class="st3" d="M68.4,323.2v-4.7h14l2.1,3.7l8.2-0.5l-2.6-4.4c3.6-1,6.4-2.8,8.4-5.4c1.1-1.4,1.8-2.9,2.3-4.7l-8.9,0.6
		c-1.8,2.7-5.3,4-10.3,4H68.4v-2.5l-7.8,0.5v14L68.4,323.2z"/>
	<polygon class="st3" points="120.9,319.9 120.9,305.9 112.9,306.4 112.9,320.4 	"/>
	<polygon class="st3" points="167.2,317 172.2,302.6 163.9,303.1 159,317.5 	"/>
	<polygon class="st3" points="149.3,318.1 144.6,304.4 136.7,304.9 141.4,318.6 	"/>
	<path class="st3" d="M222.2,313.5v-2.3c0-0.6-0.2-1-0.6-1.4c-0.3-0.4-0.7-0.6-1.3-0.6h-25.4v-8.1l-7.7,0.5v14L222.2,313.5z"/>
	<polygon class="st3" points="245.1,312 242.3,298.2 234.6,298.7 237.4,312.5 	"/>
	<polygon class="st3" points="284.8,309.5 287.7,295.3 279.7,295.8 277,310 	"/>
	<path class="st3" d="M264.8,299.3c-0.2-0.5-0.5-1-0.9-1.4c-0.4-0.4-0.9-0.6-1.6-0.6h-3c-1.2,0-2.1,0.6-2.6,1.9l-3.7,12.2l6.9-0.4
		l0.8-2.6l0.8,2.5l6.7-0.4L264.8,299.3z"/>
	<polygon class="st3" points="322.8,307.1 330.3,306.7 325.1,293 317.6,293.4 	"/>
	<polygon class="st3" points="311.8,307.8 317.3,293.5 309.4,294 303.9,308.3 	"/>
	<polygon class="st3" points="378.1,303.6 386.7,289.1 378,289.6 369.2,304.2 	"/>
	<polygon class="st3" points="359.8,304.8 351.7,291.3 343.6,291.8 351.6,305.3 	"/>
	<path class="st3" d="M44.3,386.9l-38.6-6.2c-0.2,0.3-0.3,0.7-0.3,1.2v12.9l7.8,1.3v-9.6h14.7c3.4,0,6,0.7,7.8,2.2
		c1.8,1.4,2.6,3.5,2.6,6.2c0,2-0.5,3.7-1.4,5l8,1.3c1-1.8,1.4-3.9,1.4-6.4C46.3,391.8,45.6,389.1,44.3,386.9z"/>
	<polygon class="st3" points="58.8,389.2 58.8,403.4 66.7,404.7 66.7,390.5 	"/>
	<polygon class="st3" points="119.6,398.9 112.3,397.8 107.2,411.1 114.5,412.3 	"/>
	<polygon class="st3" points="128.4,400.3 134.2,415.4 142.4,416.8 136.6,401.7 	"/>
	<path class="st3" d="M194,413.5c-0.8-1.2-1.8-2.2-3-3.2l-31.1-5c0.6,0.5,1.3,0.9,2.1,1.3c2.5,1.3,5.8,2.6,9.9,3.8
		c4.3,1.3,7.5,2.3,9.6,3.2c2.1,0.9,3.7,1.8,4.8,3c1.1,1.1,1.7,2.6,1.7,4.4c0,1.1-0.2,2-0.5,2.9l7.8,1.2c0.4-1.3,0.6-2.8,0.6-4.3
		C196,417.9,195.3,415.4,194,413.5z"/>
	<polygon class="st3" points="218.1,414.7 218.1,428.9 226,430.1 226,415.9 	"/>
	<path class="st3" d="M44.6,515.9c0-1.6-0.2-3.1-0.6-4.4l-8,1.6c0.4,0.9,0.7,1.8,0.7,3c0,2.8-1.1,5-3.4,6.6c-2.2,1.5-5.6,2.3-10,2.3
		c-4.1,0-7.3-0.8-9.6-2.4c-1.8-1.3-3-2.7-3.6-4.4l-7.9,1.6c0.4,1.6,1.2,3.1,2.3,4.5c1.7,2.2,4.2,4.1,7.4,5.4
		c1.5,0.6,3.1,1.1,4.9,1.5l23.4-4.7C43.1,523.8,44.6,520.3,44.6,515.9z"/>
	<polygon class="st3" points="82.1,503.9 85,511.4 63.4,511.4 64.9,507.3 56.6,509 50.6,524.4 59.3,522.7 61.1,518.3 81.6,518.3 
		94.3,515.8 89.3,502.5 	"/>
	<polygon class="st3" points="125.2,495.3 121,502.3 117.8,496.8 110.1,498.4 117.1,510.3 117.1,511.2 125.5,509.6 135,493.4 	"/>
</g>
</svg>
